<svg xmlns="http://www.w3.org/2000/svg" width="175.5" height="160.648" viewBox="0 0 175.5 160.648">
  <g id="hora" transform="translate(0 -21.665)">
    <path id="Trazado_153822" data-name="Trazado 153822" d="M117.953,154.717A29.965,29.965,0,0,1,159.274,127a77.275,77.275,0,1,0-35.14,45.944A29.827,29.827,0,0,1,117.953,154.717Z" transform="translate(-4.93 -4.931)" fill="#74b9df"/>
    <g id="Grupo_166609" data-name="Grupo 166609" transform="translate(2.572 24.237)" opacity="0.1">
      <path id="Trazado_153823" data-name="Trazado 153823" d="M16.9,106.438A77.271,77.271,0,0,1,89.472,29.314c-1.554-.093-3.12-.146-4.7-.146a77.271,77.271,0,1,0,0,154.542c1.578,0,3.144-.053,4.7-.146A77.272,77.272,0,0,1,16.9,106.438Z" transform="translate(-7.503 -29.168)"/>
    </g>
    <path id="Trazado_153824" data-name="Trazado 153824" d="M150.659,187.424a29.964,29.964,0,0,1,24-29.362,60.233,60.233,0,1,0-23.933,31.291C150.682,188.715,150.659,188.073,150.659,187.424Z" transform="translate(-37.637 -37.639)" fill="#fff"/>
    <g id="Grupo_166610" data-name="Grupo 166610" transform="translate(19.63 41.295)" opacity="0.1">
      <path id="Trazado_153825" data-name="Trazado 153825" d="M68.465,139.145a60.216,60.216,0,0,1,54.614-59.951c-1.844-.17-3.711-.261-5.6-.261a60.212,60.212,0,1,0,0,120.425c1.888,0,3.755-.092,5.6-.261A60.217,60.217,0,0,1,68.465,139.145Z" transform="translate(-57.267 -78.933)"/>
    </g>
    <circle id="Elipse_4862" data-name="Elipse 4862" cx="8.389" cy="8.389" r="8.389" transform="translate(71.454 93.12)" fill="#ef5a50"/>
    <path id="Trazado_153826" data-name="Trazado 153826" d="M134.836,247.987a1.72,1.72,0,0,1-1.715,1.715h-15.1a1.72,1.72,0,0,1-1.715-1.715v-7.239a1.72,1.72,0,0,1,1.715-1.715h15.1a1.72,1.72,0,0,1,1.715,1.715Z" transform="translate(-76.439 -142.86)" fill="#abccd3"/>
    <path id="Trazado_153827" data-name="Trazado 153827" d="M389.634,338a29.953,29.953,0,1,1-29.954-29.955A29.956,29.956,0,0,1,389.634,338Z" transform="translate(-216.705 -188.219)" fill="#86d5b5"/>
    <g id="Grupo_166611" data-name="Grupo 166611" transform="translate(113.022 119.83)" opacity="0.1">
      <path id="Trazado_153828" data-name="Trazado 153828" d="M336.1,338a29.958,29.958,0,0,1,26.764-29.787,29.956,29.956,0,1,0,0,59.573A29.96,29.96,0,0,1,336.1,338Z" transform="translate(-329.726 -308.049)"/>
    </g>
    <path id="Trazado_153829" data-name="Trazado 153829" d="M376.371,387.07a7.19,7.19,0,0,1-5.106-2.146l-8.786-8.964a5.391,5.391,0,0,1,7.7-7.548l6.186,6.311,12.6-12.907a5.392,5.392,0,0,1,7.716,7.534l-15.193,15.563a7.193,7.193,0,0,1-5.109,2.157Z" transform="translate(-237.218 -222.488)" fill="#fff"/>
    <path id="Trazado_153830" data-name="Trazado 153830" d="M211.914,127.308a2.572,2.572,0,0,0-2.572,2.572v30.406a10.959,10.959,0,1,0,13.224,13.224h22.771a2.572,2.572,0,0,0,0-5.144H222.566a11,11,0,0,0-8.081-8.081V129.88A2.572,2.572,0,0,0,211.914,127.308Zm5.817,43.631a5.817,5.817,0,1,1-5.817-5.817A5.823,5.823,0,0,1,217.731,170.939Z" transform="translate(-132.071 -69.431)"/>
    <path id="Trazado_153831" data-name="Trazado 153831" d="M113.088,231.529a4.291,4.291,0,0,0-4.286,4.286v7.239a4.291,4.291,0,0,0,4.286,4.286h15.1a4.291,4.291,0,0,0,4.286-4.286v-7.239a4.291,4.291,0,0,0-4.286-4.286ZM127.333,242.2H113.946v-5.525h13.387Z" transform="translate(-71.507 -137.928)"/>
    <path id="Trazado_153832" data-name="Trazado 153832" d="M157.375,120.626A79.853,79.853,0,1,0,79.843,181.35h0a80.353,80.353,0,0,0,16.67-1.744,2.572,2.572,0,0,0-1.069-5.031,75.19,75.19,0,0,1-15.6,1.632h0a74.651,74.651,0,1,1,72.7-57.51,32.41,32.41,0,0,0-9.571-1.438q-1.2,0-2.376.087a63.058,63.058,0,0,0-.11-32.139,2.572,2.572,0,0,0-4.968,1.333,57.68,57.68,0,0,1,1.9,12.4h-4.794a2.572,2.572,0,1,0,0,5.144h4.8A57.3,57.3,0,0,1,135,118.25a32.584,32.584,0,0,0-24.549,31.537c0,.18,0,.359.007.539a57.264,57.264,0,0,1-28.043,8.765v-4.8a2.572,2.572,0,0,0-5.144,0v4.8a57.421,57.421,0,0,1-36.308-15.065l3.375-3.374a2.572,2.572,0,0,0-3.637-3.638l-3.375,3.375a57.417,57.417,0,0,1-15.118-38.364h4.153a2.572,2.572,0,0,0,0-5.144H22.387a57.434,57.434,0,0,1,14.939-34.25L40.7,66a2.572,2.572,0,1,0,3.637-3.637l-3.375-3.374A57.422,57.422,0,0,1,77.271,43.928v4.8a2.572,2.572,0,1,0,5.144,0V43.931a57.324,57.324,0,0,1,36.322,15.045l-3.389,3.39A2.572,2.572,0,0,0,118.985,66l3.387-3.388a57.809,57.809,0,0,1,7.056,9.486,2.572,2.572,0,1,0,4.421-2.628,62.788,62.788,0,1,0-54.007,94.819,62.386,62.386,0,0,0,31.2-8.321,32.343,32.343,0,0,0,4.453,11.2q-3.133,1.7-6.463,3.12a2.572,2.572,0,1,0,2.012,4.734,80.351,80.351,0,0,0,7.576-3.7,32.5,32.5,0,0,0,42.211,5.656,2.572,2.572,0,1,0-2.828-4.3,27.363,27.363,0,1,1,8.7-9.224,2.572,2.572,0,0,0,4.454,2.572,32.533,32.533,0,0,0-13.785-45.4Z"/>
    <path id="Trazado_153833" data-name="Trazado 153833" d="M387.9,352.69a7.9,7.9,0,0,0-5.7,2.4l-10.762,11.025-4.345-4.434a7.963,7.963,0,0,0-11.373,11.148l8.785,8.964a9.777,9.777,0,0,0,6.943,2.918h.009a9.783,9.783,0,0,0,6.947-2.932L393.6,366.217a7.964,7.964,0,0,0-5.7-13.527Zm2.019,9.934-15.192,15.562a4.607,4.607,0,0,1-3.272,1.382h0a4.6,4.6,0,0,1-3.269-1.375l-8.786-8.964a2.819,2.819,0,1,1,4.026-3.948l6.186,6.312a2.572,2.572,0,0,0,1.837.772h0a2.571,2.571,0,0,0,1.838-.775l12.6-12.907a2.821,2.821,0,0,1,4.036,3.941Z" transform="translate(-232.294 -217.558)"/>
  </g>
</svg>
