<svg xmlns="http://www.w3.org/2000/svg" xmlns:xlink="http://www.w3.org/1999/xlink" width="41" height="41" viewBox="0 0 41 41">
  <defs>
    <clipPath id="clip-path">
      <rect id="Rectángulo_34305" data-name="Rectángulo 34305" width="41" height="41" transform="translate(528 5581)" fill="#fff"/>
    </clipPath>
  </defs>
  <g id="Enmascarar_grupo_101" data-name="Enmascarar grupo 101" transform="translate(-528 -5581)" clip-path="url(#clip-path)">
    <g id="conversacion_1_" data-name="conversacion (1)" transform="translate(528 5581)">
      <path id="Trazado_118615" data-name="Trazado 118615" d="M14.414,24.732v7.533a6.256,6.256,0,0,1-8.845,5.691h0a6.256,6.256,0,0,1-3.6-4.833,2.017,2.017,0,1,1,2.092-3.33l.525-3.011.358-2.05h9.471Z" fill="#fcd2be"/>
      <path id="Trazado_118616" data-name="Trazado 118616" d="M5.569,37.955a6.256,6.256,0,0,1-3.6-4.833,2.017,2.017,0,1,1,2.092-3.33l.525-3.011,1.646.334C5.538,28.313,2.615,32.68,5.569,37.955Z" fill="#fab998"/>
      <path id="Trazado_118617" data-name="Trazado 118617" d="M17.337,21.683A5.433,5.433,0,0,1,11.9,27.116H6.23v.5a2.172,2.172,0,0,1-2.172,2.171,2.017,2.017,0,0,0-2.149-.457V27.116a5.433,5.433,0,0,1,5.433-5.433h10Z" fill="#f9ce55"/>
      <path id="Trazado_118618" data-name="Trazado 118618" d="M11.775,21.683H7.341a5.433,5.433,0,0,0-5.433,5.433v2.219a2.017,2.017,0,0,1,2.149.457A2.172,2.172,0,0,0,6.23,27.62v-.5h.112A5.433,5.433,0,0,1,11.775,21.683Z" fill="#e2a11e"/>
      <path id="Trazado_118619" data-name="Trazado 118619" d="M20.982,5.146H5.557A1.771,1.771,0,0,0,3.786,6.917v7.789a1.771,1.771,0,0,0,1.771,1.771h8.7v3.2l2.856-3.2h3.871a1.771,1.771,0,0,0,1.771-1.771V6.917A1.771,1.771,0,0,0,20.982,5.146Z" fill="#3facc9"/>
      <path id="Trazado_118620" data-name="Trazado 118620" d="M21.2,1.205H36.629A1.771,1.771,0,0,1,38.4,2.976v7.789a1.771,1.771,0,0,1-1.771,1.771h-8.7v3.2l-2.856-3.2H21.2a1.771,1.771,0,0,1-1.771-1.771V2.976A1.771,1.771,0,0,1,21.2,1.205Z" fill="#00c7a9"/>
      <path id="Trazado_118621" data-name="Trazado 118621" d="M37.716,39.795l-.031-.013a5.643,5.643,0,0,1-3.2-5.178L25.02,25.255c-.443-1.641-.307-4.523,3.766-4.854q.381-.032.808-.032c4.862,0,9.632.391,10.642,7.547A19.466,19.466,0,0,1,37.716,39.795Z" fill="#6b4b3d"/>
      <path id="Trazado_118622" data-name="Trazado 118622" d="M37.716,39.795l-.031-.013a.011.011,0,0,0,0,0c1.642-13.959-4.68-19.376-8.9-19.376q.381-.032.808-.032c4.862,0,9.632.391,10.642,7.547A19.466,19.466,0,0,1,37.716,39.795Z" fill="#5b3d2d"/>
      <path id="Trazado_118623" data-name="Trazado 118623" d="M37.2,30.472a1.863,1.863,0,0,1-.7.442,5.767,5.767,0,0,1-11.48-.791V25.255s2.557.092,3.566-.917a5.208,5.208,0,0,0,4.631,2.084h0a5.473,5.473,0,0,0,1.354-.249v1.671h0a1.86,1.86,0,0,1,2.63,2.63Z" fill="#fcd2be"/>
      <path id="Trazado_118624" data-name="Trazado 118624" d="M37.2,30.472a1.863,1.863,0,0,1-.7.442,5.769,5.769,0,0,1-4.346,4.812c3-1.643,1.089-9.2,1.063-9.3h0a5.473,5.473,0,0,0,1.354-.249v1.671h0a1.86,1.86,0,0,1,2.63,2.63Z" fill="#fab998"/>
      <path id="Trazado_118625" data-name="Trazado 118625" d="M9.693,30.8V29.77a.616.616,0,0,0-1.232,0V30.8a.616.616,0,0,0,1.232,0Z"/>
      <path id="Trazado_118626" data-name="Trazado 118626" d="M11.15,29.77V30.8a.616.616,0,0,0,1.232,0V29.77a.616.616,0,0,0-1.232,0Z"/>
      <path id="Trazado_118627" data-name="Trazado 118627" d="M7.337,33.717a.616.616,0,0,0-1.069.611A3.546,3.546,0,0,0,9.329,36.09h.033a.616.616,0,0,0,.032-1.231A2.341,2.341,0,0,1,7.337,33.717Z"/>
      <path id="Trazado_118628" data-name="Trazado 118628" d="M17.337,21.068h-10a6.055,6.055,0,0,0-6.048,6.048.616.616,0,0,0,1.232,0A4.822,4.822,0,0,1,7.341,22.3h9.34A4.824,4.824,0,0,1,11.9,26.5H6.23a.616.616,0,0,0-.616.616v.5a1.558,1.558,0,0,1-1.339,1.541,2.635,2.635,0,0,0-2.586-.4,2.635,2.635,0,0,0-.275,4.792A6.869,6.869,0,0,0,15.03,32.265V28.749a.616.616,0,0,0-1.232,0v3.516a5.637,5.637,0,0,1-11.22.774.616.616,0,0,0-.406-.5,1.4,1.4,0,0,1-.53-2.313,1.383,1.383,0,0,1,.488-.318,1.4,1.4,0,0,1,1.49.314.616.616,0,0,0,.469.183,2.791,2.791,0,0,0,2.756-2.675H11.9a6.055,6.055,0,0,0,6.048-6.048A.616.616,0,0,0,17.337,21.068Z"/>
      <path id="Trazado_118629" data-name="Trazado 118629" d="M22.753,14.09a.616.616,0,0,0-.616.616,1.156,1.156,0,0,1-1.155,1.155H17.111a.616.616,0,0,0-.46.206l-1.781,2V16.477a.616.616,0,0,0-.616-.616h-8.7A1.156,1.156,0,0,1,4.4,14.706V6.917A1.156,1.156,0,0,1,5.557,5.762H17.334a.616.616,0,0,0,0-1.232H5.557A2.389,2.389,0,0,0,3.171,6.917v7.789a2.389,2.389,0,0,0,2.387,2.387h8.082v2.586a.616.616,0,0,0,1.076.41l2.672-3h3.6a2.389,2.389,0,0,0,2.387-2.387A.616.616,0,0,0,22.753,14.09Z"/>
      <path id="Trazado_118630" data-name="Trazado 118630" d="M21.2,13.151h3.6l2.672,3a.616.616,0,0,0,1.076-.41V13.152h8.082a2.389,2.389,0,0,0,2.387-2.387V2.976A2.389,2.389,0,0,0,36.629.589h-1.4a.616.616,0,1,0,0,1.232h1.4a1.156,1.156,0,0,1,1.155,1.155v7.789a1.156,1.156,0,0,1-1.155,1.155h-8.7a.616.616,0,0,0-.616.616v1.586l-1.781-2a.616.616,0,0,0-.46-.206H21.2a1.156,1.156,0,0,1-1.155-1.155V2.976A1.156,1.156,0,0,1,21.2,1.821H33.258a.616.616,0,1,0,0-1.232H21.2a2.389,2.389,0,0,0-2.387,2.387v7.789A2.389,2.389,0,0,0,21.2,13.151Z"/>
      <path id="Trazado_118631" data-name="Trazado 118631" d="M35.2,3.709H28.254a.616.616,0,1,0,0,1.232H35.2a.616.616,0,0,0,0-1.232Z"/>
      <path id="Trazado_118632" data-name="Trazado 118632" d="M22.636,4.941H26.2a.616.616,0,0,0,0-1.232H22.636a.616.616,0,0,0,0,1.232Z"/>
      <path id="Trazado_118633" data-name="Trazado 118633" d="M35.2,6.234h-2.14a.616.616,0,1,0,0,1.232H35.2a.616.616,0,1,0,0-1.232Z"/>
      <path id="Trazado_118634" data-name="Trazado 118634" d="M22.636,7.466H31a.616.616,0,0,0,0-1.232H22.636a.616.616,0,0,0,0,1.232Z"/>
      <path id="Trazado_118635" data-name="Trazado 118635" d="M22.636,9.99h8.739a.616.616,0,0,0,0-1.232H22.636a.616.616,0,0,0,0,1.232Z"/>
      <path id="Trazado_118636" data-name="Trazado 118636" d="M6.789,8.636h3.566a.616.616,0,1,0,0-1.232H6.789a.616.616,0,1,0,0,1.232Z"/>
      <path id="Trazado_118637" data-name="Trazado 118637" d="M16.39,8.636a.616.616,0,1,0,0-1.232H12.824a.616.616,0,1,0,0,1.232Z"/>
      <path id="Trazado_118638" data-name="Trazado 118638" d="M6.789,9.929a.616.616,0,1,0,0,1.232H17.58a.616.616,0,0,0,0-1.232H6.789Z"/>
      <path id="Trazado_118639" data-name="Trazado 118639" d="M10.6,12.454a.616.616,0,0,0,0,1.232h4.926a.616.616,0,0,0,0-1.232Z"/>
      <path id="Trazado_118640" data-name="Trazado 118640" d="M6.789,12.454a.616.616,0,0,0,0,1.232H8.548a.616.616,0,0,0,0-1.232Z"/>
      <path id="Trazado_118641" data-name="Trazado 118641" d="M30.558,28.776v-.954a.616.616,0,0,0-1.232,0v.954a.616.616,0,0,0,1.232,0Z"/>
      <path id="Trazado_118642" data-name="Trazado 118642" d="M28.078,28.776v-.954a.616.616,0,0,0-1.232,0v.954a.616.616,0,0,0,1.232,0Z"/>
      <path id="Trazado_118643" data-name="Trazado 118643" d="M29.065,33.117a.616.616,0,0,0,.614.583h.033a3.316,3.316,0,0,0,2.862-1.649.616.616,0,1,0-1.069-.611,2.114,2.114,0,0,1-1.859,1.03A.616.616,0,0,0,29.065,33.117Z"/>
      <path id="Trazado_118644" data-name="Trazado 118644" d="M40.845,27.83c-.39-2.767-1.341-4.749-2.906-6.06a.616.616,0,0,0-.791.944A8.011,8.011,0,0,1,39.626,28a18.65,18.65,0,0,1-2.15,10.966,5.032,5.032,0,0,1-2.135-2.723.616.616,0,1,0-1.175.371,6.27,6.27,0,0,0,3.315,3.749.616.616,0,0,0,.765-.256A20,20,0,0,0,40.845,27.83Z"/>
      <path id="Trazado_118645" data-name="Trazado 118645" d="M37.053,31.342a2.476,2.476,0,0,0-1.867-4.559v-.611a.616.616,0,0,0-.824-.58,4.844,4.844,0,0,1-5.29-1.631.616.616,0,0,0-.923-.06,4.556,4.556,0,0,1-2.636.735,3.037,3.037,0,0,1,.478-2.4c.639-.835,1.851-1.258,3.6-1.258a16.49,16.49,0,0,1,5.85.737.616.616,0,0,0,.449-1.147,17.483,17.483,0,0,0-6.3-.821c-2.155,0-3.7.586-4.58,1.741a4.594,4.594,0,0,0-.589,3.922A.616.616,0,0,0,25,25.87a7.457,7.457,0,0,0,3.491-.693,5.736,5.736,0,0,0,3.955,1.863,6.764,6.764,0,0,0,1.512-.086v.89a.616.616,0,0,0,1.053.434A1.246,1.246,0,0,1,36.334,28a1.244,1.244,0,0,1,.432,2.04,1.242,1.242,0,0,1-.47.3.616.616,0,0,0-.406.5,5.151,5.151,0,0,1-10.254-.707V27.339a.616.616,0,0,0-1.232,0v2.784a6.383,6.383,0,0,0,12.649,1.218Z"/>
    </g>
  </g>
</svg>
