<svg xmlns="http://www.w3.org/2000/svg" xmlns:xlink="http://www.w3.org/1999/xlink" width="41" height="41" viewBox="0 0 41 41">
  <defs>
    <clipPath id="clip-path">
      <rect id="Rectángulo_34306" data-name="Rectángulo 34306" width="41" height="41" transform="translate(845 5581)" fill="#fff"/>
    </clipPath>
  </defs>
  <g id="Enmascarar_grupo_102" data-name="Enmascarar grupo 102" transform="translate(-845 -5581)" clip-path="url(#clip-path)">
    <g id="idea" transform="translate(845 5581)">
      <path id="Trazado_118646" data-name="Trazado 118646" d="M26.042,11.264a5.225,5.225,0,1,0-8.7,3.9,2.784,2.784,0,0,1,.922,2.079v.467h5.112v-.468a2.818,2.818,0,0,1,.938-2.094A5.211,5.211,0,0,0,26.042,11.264Z" fill="#f9ce55"/>
      <path id="Trazado_118647" data-name="Trazado 118647" d="M12,20.756l2.543,6.988A6.175,6.175,0,0,1,8.26,36.009h0a6.176,6.176,0,0,1-4.972-3.267,1.991,1.991,0,1,1,.816-3.8l-.529-2.97-.36-2.022Z" fill="#fcd2be"/>
      <path id="Trazado_118648" data-name="Trazado 118648" d="M8.26,36.008a6.176,6.176,0,0,1-4.972-3.267,1.991,1.991,0,1,1,.816-3.8l-.529-2.97,1.64-.246C4.976,27.074,3.739,32.112,8.26,36.008Z" fill="#fab998"/>
      <path id="Trazado_118649" data-name="Trazado 118649" d="M13.682,16.941a5.363,5.363,0,0,1-3.205,6.873L5.214,25.73l.17.468A2.144,2.144,0,0,1,4.1,28.945a1.991,1.991,0,0,0-2.148.3l-.749-2.058A5.363,5.363,0,0,1,4.41,20.316Z" fill="#f9ce55"/>
      <path id="Trazado_118650" data-name="Trazado 118650" d="M8.523,18.819l-4.113,1.5a5.363,5.363,0,0,0-3.205,6.873l.749,2.058a1.991,1.991,0,0,1,2.148-.3A2.144,2.144,0,0,0,5.384,26.2l-.17-.468.1-.038A5.363,5.363,0,0,1,8.523,18.819Z" fill="#e2a11e"/>
      <path id="Trazado_118651" data-name="Trazado 118651" d="M33.474,40.392l-.025-.023a5.571,5.571,0,0,1-1.222-5.884L26.606,22.619c.143-1.672,1.242-4.3,5.133-3.231q.364.1.76.243c4.51,1.641,8.8,3.615,7.323,10.593A19.214,19.214,0,0,1,33.474,40.392Z" fill="#6b4b3d"/>
      <path id="Trazado_118652" data-name="Trazado 118652" d="M33.474,40.392l-.025-.023a.01.01,0,0,0,0,0c6.236-12.394,2.2-19.553-1.713-20.977q.364.1.76.243c4.51,1.641,8.8,3.615,7.323,10.593A19.215,19.215,0,0,1,33.474,40.392Z" fill="#5b3d2d"/>
      <path id="Trazado_118653" data-name="Trazado 118653" d="M36.144,31.571a1.838,1.838,0,0,1-.8.173,5.693,5.693,0,0,1-10.382-4.609l1.644-4.516s2.341.948,3.617.353a5.141,5.141,0,0,0,3.592,3.5h0a5.4,5.4,0,0,0,1.34.227l-.564,1.55h0a1.836,1.836,0,0,1,1.552,3.328Z" fill="#fcd2be"/>
      <path id="Trazado_118654" data-name="Trazado 118654" d="M36.144,31.571a1.838,1.838,0,0,1-.8.173,5.7,5.7,0,0,1-5.657,3c3.333-.513,4.117-8.169,4.128-8.272h0a5.4,5.4,0,0,0,1.34.227l-.564,1.55h0a1.836,1.836,0,0,1,1.552,3.328Z" fill="#fab998"/>
      <path id="Trazado_118655" data-name="Trazado 118655" d="M9.1,28.8a.608.608,0,0,0,.571-.816l-.349-.959a.608.608,0,1,0-1.142.416l.349.959A.608.608,0,0,0,9.1,28.8Z"/>
      <path id="Trazado_118656" data-name="Trazado 118656" d="M11.8,27.853a.608.608,0,0,0,.363-.779l-.349-.959a.608.608,0,1,0-1.142.416l.349.959a.608.608,0,0,0,.779.363Z"/>
      <path id="Trazado_118657" data-name="Trazado 118657" d="M7.612,31.551a.608.608,0,0,0,.071.857,3.3,3.3,0,0,0,2.178.8,4.312,4.312,0,0,0,1.256-.2.608.608,0,1,0-.354-1.163,2.311,2.311,0,0,1-2.295-.366A.608.608,0,0,0,7.612,31.551Z"/>
      <path id="Trazado_118658" data-name="Trazado 118658" d="M13.927,24.274a.608.608,0,0,0-1.142.416l1.187,3.261A5.564,5.564,0,0,1,3.825,32.457a.608.608,0,0,0-.538-.324H3.281a1.387,1.387,0,0,1-.6-.131A1.383,1.383,0,1,1,3.846,29.5a.607.607,0,0,0,.493.01,2.752,2.752,0,0,0,1.653-3.412l4.694-1.709a5.977,5.977,0,0,0,3.568-7.652.608.608,0,0,0-.779-.363L4.2,19.745A5.97,5.97,0,0,0,.634,27.4a.608.608,0,1,0,1.142-.416,4.754,4.754,0,0,1,2.842-6.094l8.664-3.153a4.762,4.762,0,0,1-3.013,5.509L5.006,25.159a.608.608,0,0,0-.363.779l.17.467a1.536,1.536,0,0,1-.722,1.881,2.6,2.6,0,0,0-2.534.5,2.6,2.6,0,0,0,1.362,4.538A6.807,6.807,0,0,0,8.76,36.631a6.778,6.778,0,0,0,6.355-9.1Z"/>
      <path id="Trazado_118659" data-name="Trazado 118659" d="M29.983,28.154a.608.608,0,0,0,.571-.4l.322-.885a.608.608,0,1,0-1.142-.416l-.322.885a.608.608,0,0,0,.571.816Z"/>
      <path id="Trazado_118660" data-name="Trazado 118660" d="M28.213,25.253a.608.608,0,0,0-.779.363l-.322.885a.608.608,0,1,0,1.142.416l.322-.885A.608.608,0,0,0,28.213,25.253Z"/>
      <path id="Trazado_118661" data-name="Trazado 118661" d="M28.463,30.873a.608.608,0,0,0-.354,1.163,4.026,4.026,0,0,0,1.173.185,3.086,3.086,0,0,0,2.039-.748.608.608,0,0,0-.786-.928A2.088,2.088,0,0,1,28.463,30.873Z"/>
      <path id="Trazado_118662" data-name="Trazado 118662" d="M39.215,22.935a.608.608,0,0,0-.954.754c1.234,1.56,1.55,3.657.967,6.408a18.41,18.41,0,0,1-5.695,9.444A5,5,0,0,1,32.47,36.3a.608.608,0,0,0-1.215-.053,6.19,6.19,0,0,0,1.809,4.6.608.608,0,0,0,.8.02A19.741,19.741,0,0,0,40.418,30.35C41.081,27.222,40.687,24.8,39.215,22.935Z"/>
      <path id="Trazado_118663" data-name="Trazado 118663" d="M35.713,32.327a2.444,2.444,0,0,0-.192-4.859l.206-.566a.609.609,0,0,0-.566-.816,4.736,4.736,0,0,1-4.358-3.3.608.608,0,0,0-.836-.367,4.5,4.5,0,0,1-2.693-.208,3,3,0,0,1,1.252-2.061c.875-.558,2.142-.542,3.766.049a18.435,18.435,0,0,1,4.743,2.3.608.608,0,1,0,.735-.968,19.445,19.445,0,0,0-5.062-2.477c-2-.727-3.626-.7-4.836.068A4.535,4.535,0,0,0,26,22.567a.608.608,0,0,0,.377.615,7.362,7.362,0,0,0,3.472.535A5.662,5.662,0,0,0,32.89,26.78a6.663,6.663,0,0,0,1.431.43l-.3.825a.608.608,0,0,0,.829.758,1.23,1.23,0,0,1,1.326.187,1.228,1.228,0,0,1-.288,2.038,1.226,1.226,0,0,1-.522.116h-.021a.608.608,0,0,0-.538.324,5.1,5.1,0,0,1-4.506,2.7,5.083,5.083,0,0,1-4.767-6.822l.94-2.583a.608.608,0,1,0-1.142-.416l-.94,2.583A6.295,6.295,0,0,0,30.3,35.38,6.329,6.329,0,0,0,35.713,32.327Z"/>
      <path id="Trazado_118664" data-name="Trazado 118664" d="M24.717,15.6A5.833,5.833,0,0,0,20.676,5.432a5.747,5.747,0,0,0-2.235.507.608.608,0,1,0,.5,1.109,4.615,4.615,0,0,1,6.494,4.216A4.626,4.626,0,0,1,23.9,14.7,3.434,3.434,0,0,0,22.767,17.1H21.424V13.59a2.8,2.8,0,0,0,2.188-2.729.608.608,0,1,0-1.216,0,1.581,1.581,0,0,1-3.161,0,.608.608,0,1,0-1.216,0,2.8,2.8,0,0,0,2.188,2.729V17.1H18.866a3.389,3.389,0,0,0-1.122-2.392A4.6,4.6,0,0,1,17.5,8.061a.608.608,0,0,0-.875-.845,5.819,5.819,0,0,0,.308,8.4,2.175,2.175,0,0,1,.718,1.626v.467a.608.608,0,0,0,.608.608h5.112a.608.608,0,0,0,.608-.608v-.468A2.213,2.213,0,0,1,24.717,15.6Z"/>
      <path id="Trazado_118665" data-name="Trazado 118665" d="M23.167,19.007h-4.7a.608.608,0,0,0,0,1.216h4.7a.608.608,0,1,0,0-1.216Z"/>
      <path id="Trazado_118666" data-name="Trazado 118666" d="M22.681,20.953H18.952a.608.608,0,1,0,0,1.216h3.729a.608.608,0,1,0,0-1.216Z"/>
      <path id="Trazado_118667" data-name="Trazado 118667" d="M20.695,4.091a.608.608,0,0,0,.608-.608V.608a.608.608,0,0,0-1.216,0V3.483A.608.608,0,0,0,20.695,4.091Z"/>
      <path id="Trazado_118668" data-name="Trazado 118668" d="M27.89,11.286a.608.608,0,0,0,.608.608h2.875a.608.608,0,1,0,0-1.216H28.5A.608.608,0,0,0,27.89,11.286Z"/>
      <path id="Trazado_118669" data-name="Trazado 118669" d="M10.1,11.894h2.875a.608.608,0,1,0,0-1.216H10.1a.608.608,0,0,0,0,1.216Z"/>
      <path id="Trazado_118670" data-name="Trazado 118670" d="M14.817,6.227a.608.608,0,1,0,.86-.86L13.644,3.334a.608.608,0,0,0-.86.86Z"/>
      <path id="Trazado_118671" data-name="Trazado 118671" d="M26.224,6.4a.606.606,0,0,0,.43-.178l2.033-2.033a.608.608,0,1,0-.86-.86L25.794,5.367a.608.608,0,0,0,.43,1.038Z"/>
    </g>
  </g>
</svg>
