<svg xmlns="http://www.w3.org/2000/svg" xmlns:xlink="http://www.w3.org/1999/xlink" width="100" height="99" viewBox="0 0 100 99">
  <defs>
    <clipPath id="clip-path">
      <rect id="Rectángulo_34312" data-name="Rectángulo 34312" width="90" height="90" transform="translate(237 6743)" fill="#fff"/>
    </clipPath>
  </defs>
  <g id="_12" data-name="12" transform="translate(-237 -6727)">
    <circle id="Elipse_4815" data-name="Elipse 4815" cx="36" cy="36" r="36" transform="translate(265 6727)" fill="#ffd947"/>
    <g id="Enmascarar_grupo_103" data-name="Enmascarar grupo 103" transform="translate(0 -7)" clip-path="url(#clip-path)">
      <g id="paciente" transform="translate(237 6743)">
        <g id="Grupo_85251" data-name="Grupo 85251">
          <path id="Trazado_118673" data-name="Trazado 118673" d="M59.556,46.779H6.788S3.059,58.019,3.059,62.193s8.5,12.522,30.113,12.522,30.113-8.348,30.113-12.522-3.728-15.414-3.728-15.414Z" fill="#636978"/>
        </g>
        <g id="Grupo_85252" data-name="Grupo 85252">
          <path id="Trazado_118674" data-name="Trazado 118674" d="M33.155,5.01a28.2,28.2,0,0,0-6.671.8c-.753-2.617-2.756-4.489-5.11-4.489-3,0-5.429,3.037-5.429,6.784,0,.275.015.546.04.813-2.5-1.648-5.533-1.676-7.324.115-2.12,2.12-1.692,5.987.958,8.636l.028.027A27.992,27.992,0,0,0,5.03,33.135v8.832H61.28V33.135A28.125,28.125,0,0,0,33.155,5.01Z" fill="#707789"/>
        </g>
        <g id="Grupo_85253" data-name="Grupo 85253">
          <path id="Trazado_118675" data-name="Trazado 118675" d="M33.154,22.791c-11.089-5.821-6.67-16.966-6.67-16.966-.753-2.617-2.756-4.489-5.11-4.489-3,0-5.429,3.037-5.429,6.784,0,.275.015.546.04.813-2.5-1.648-5.533-1.676-7.324.115-2.12,2.12-1.692,5.987.958,8.636l.028.027A27.992,27.992,0,0,0,5.03,33.152v5.317H33.154Z" fill="#636978"/>
        </g>
        <g id="Grupo_85254" data-name="Grupo 85254">
          <path id="Trazado_118676" data-name="Trazado 118676" d="M54.043,84.5a21.288,21.288,0,0,0-41.744,0,3.511,3.511,0,0,0,3.453,4.182H50.591A3.511,3.511,0,0,0,54.043,84.5Z" fill="#ff9b87"/>
        </g>
        <g id="Grupo_85255" data-name="Grupo 85255">
          <path id="Trazado_118677" data-name="Trazado 118677" d="M38.188,67.994A21.305,21.305,0,0,0,12.3,84.5a3.511,3.511,0,0,0,3.453,4.182h6.167A21.29,21.29,0,0,1,38.188,67.994Z" fill="#ff8870"/>
        </g>
        <g id="Grupo_85258" data-name="Grupo 85258">
          <g id="Grupo_85256" data-name="Grupo 85256">
            <circle id="Elipse_4802" data-name="Elipse 4802" cx="7.124" cy="7.124" r="7.124" transform="translate(26.047 62.507)" fill="#ffe4c2"/>
          </g>
          <g id="Grupo_85257" data-name="Grupo 85257">
            <path id="Trazado_118678" data-name="Trazado 118678" d="M40.011,67.637a7.124,7.124,0,1,0-12.352,6.508A21.235,21.235,0,0,1,40.011,67.637Z" fill="#f2d1a5"/>
          </g>
        </g>
        <g id="Grupo_85259" data-name="Grupo 85259">
          <circle id="Elipse_4803" data-name="Elipse 4803" cx="6.342" cy="6.342" r="6.342" transform="translate(52.34 37.802)" fill="#ffe4c2"/>
        </g>
        <g id="Grupo_85260" data-name="Grupo 85260">
          <circle id="Elipse_4804" data-name="Elipse 4804" cx="6.342" cy="6.342" r="6.342" transform="translate(1.318 37.802)" fill="#f2d1a5"/>
        </g>
        <g id="Grupo_85261" data-name="Grupo 85261">
          <path id="Trazado_118679" data-name="Trazado 118679" d="M57.877,37.854c-15.017,0-24.705-15.08-24.705-15.08s-9.688,15.08-24.705,15.08h0a25.488,25.488,0,1,0,49.411,0Z" fill="#fff2de"/>
        </g>
        <g id="Grupo_85262" data-name="Grupo 85262">
          <path id="Trazado_118680" data-name="Trazado 118680" d="M16.473,44.144A25.452,25.452,0,0,1,17.85,35.86a23.67,23.67,0,0,1-9.384,1.994,25.5,25.5,0,0,0,29.1,31.4,25.5,25.5,0,0,1-21.094-25.11Z" fill="#ffe4c2"/>
        </g>
        <g id="Grupo_85263" data-name="Grupo 85263">
          <path id="Trazado_118681" data-name="Trazado 118681" d="M41.961,31.563H24.383a8.789,8.789,0,0,1,0-17.578H41.961a8.789,8.789,0,1,1,0,17.578Z" fill="#bfe1ff"/>
        </g>
        <g id="Grupo_85264" data-name="Grupo 85264">
          <path id="Trazado_118682" data-name="Trazado 118682" d="M26.14,22.774a8.789,8.789,0,0,1,8.789-8.789H24.383a8.789,8.789,0,0,0,0,17.578H34.929A8.789,8.789,0,0,1,26.14,22.774Z" fill="#a3d4ff"/>
        </g>
        <g id="Grupo_85271" data-name="Grupo 85271">
          <g id="Grupo_85267" data-name="Grupo 85267">
            <g id="Grupo_85265" data-name="Grupo 85265">
              <ellipse id="Elipse_4805" data-name="Elipse 4805" cx="5.388" cy="4.29" rx="5.388" ry="4.29" transform="translate(13.182 44.768)" fill="#ffa1ac"/>
            </g>
            <g id="Grupo_85266" data-name="Grupo 85266">
              <ellipse id="Elipse_4806" data-name="Elipse 4806" cx="5.388" cy="4.29" rx="5.388" ry="4.29" transform="translate(42.386 44.741)" fill="#ffa1ac"/>
            </g>
          </g>
          <g id="Grupo_85268" data-name="Grupo 85268">
            <path id="Trazado_118683" data-name="Trazado 118683" d="M21.7,45.833a3.807,3.807,0,0,1-2.867-1.3,1.318,1.318,0,1,1,1.986-1.734,1.171,1.171,0,0,0,.881.4h0a1.169,1.169,0,0,0,.881-.4,1.318,1.318,0,0,1,1.99,1.73,3.806,3.806,0,0,1-2.869,1.31Z"/>
          </g>
          <g id="Grupo_85269" data-name="Grupo 85269">
            <path id="Trazado_118684" data-name="Trazado 118684" d="M44.627,45.811a3.807,3.807,0,0,1-2.867-1.3,1.318,1.318,0,1,1,1.986-1.734,1.171,1.171,0,0,0,.881.4h0a1.17,1.17,0,0,0,.881-.4A1.318,1.318,0,0,1,47.5,44.5a3.806,3.806,0,0,1-2.869,1.31Z"/>
          </g>
          <g id="Grupo_85270" data-name="Grupo 85270">
            <path id="Trazado_118685" data-name="Trazado 118685" d="M36.066,47.859a1.315,1.315,0,0,1-.994-.452,2.518,2.518,0,0,0-3.8,0,1.318,1.318,0,0,1-1.988-1.732,5.154,5.154,0,0,1,7.776,0,1.318,1.318,0,0,1-.993,2.184Z"/>
          </g>
        </g>
        <g id="Grupo_85272" data-name="Grupo 85272">
          <circle id="Elipse_4807" data-name="Elipse 4807" cx="10.547" cy="10.547" r="10.547" transform="translate(67.588 20.224)" fill="#f5fafc"/>
        </g>
        <g id="Grupo_85273" data-name="Grupo 85273">
          <path id="Trazado_118686" data-name="Trazado 118686" d="M74.619,37.8a3.516,3.516,0,0,1,3.516-3.516V20.224a10.547,10.547,0,0,0,0,21.094A3.516,3.516,0,0,1,74.619,37.8Z" fill="#e1f1fa"/>
        </g>
        <g id="Grupo_85274" data-name="Grupo 85274">
          <path id="Trazado_118687" data-name="Trazado 118687" d="M78.135,1.318a3.516,3.516,0,0,0-3.516,3.516v7.031H81.65V4.834A3.516,3.516,0,0,0,78.135,1.318Z" fill="#e1f1fa"/>
        </g>
        <g id="Grupo_85275" data-name="Grupo 85275">
          <path id="Trazado_118688" data-name="Trazado 118688" d="M78.135,8.35a3.516,3.516,0,0,0-3.516,3.516V30.771a3.516,3.516,0,0,0,7.031,0V11.865A3.516,3.516,0,0,0,78.135,8.35Z" fill="#ff9b87"/>
        </g>
        <g id="Grupo_85276" data-name="Grupo 85276">
          <path id="Trazado_118689" data-name="Trazado 118689" d="M78.135,24.351a3.516,3.516,0,0,1-3.516-3.516v9.935a3.516,3.516,0,0,0,7.031,0V20.836A3.516,3.516,0,0,1,78.135,24.351Z" fill="#ff8870"/>
        </g>
        <g id="Grupo_85277" data-name="Grupo 85277">
          <path id="Trazado_118690" data-name="Trazado 118690" d="M66.343,44.144A7.663,7.663,0,0,0,62.6,37.563V33.135A29.459,29.459,0,0,0,27.325,4.271,6.7,6.7,0,0,0,21.374,0c-3.357,0-6.149,2.958-6.663,6.817A6.625,6.625,0,0,0,7.729,8.1C5.3,10.523,5.479,14.717,8,17.833a29.322,29.322,0,0,0-4.286,15.3v4.448a7.656,7.656,0,0,0,.41,13.352c-1.152,3.932-2.38,8.719-2.38,11.258,0,3.844,4.927,8.912,14.369,11.682a22.565,22.565,0,0,0-5.1,10.367A4.829,4.829,0,0,0,15.752,90H50.591a4.829,4.829,0,0,0,4.746-5.758,22.564,22.564,0,0,0-5.1-10.367C59.676,71.105,64.6,66.037,64.6,62.193c0-2.538-1.227-7.323-2.38-11.258A7.667,7.667,0,0,0,66.343,44.144Zm-60-11.009a26.691,26.691,0,0,1,4.4-14.717,1.318,1.318,0,0,0-.169-1.657l-.039-.038c-2.121-2.13-2.547-5.16-.947-6.761,1.307-1.307,3.637-1.286,5.665.053A1.318,1.318,0,0,0,17.3,8.789c-.023-.241-.034-.465-.034-.687,0-3.014,1.844-5.465,4.111-5.465,1.69,0,3.235,1.421,3.843,3.535a1.319,1.319,0,0,0,1.579.917A26.823,26.823,0,0,1,59.961,33.135v3.457a7.669,7.669,0,0,0-1.279-.109,7.772,7.772,0,0,0-.891.052,23.837,23.837,0,0,1-12.9-4.088,10.107,10.107,0,0,0-2.928-19.781H24.383a10.107,10.107,0,0,0-2.928,19.781A23.832,23.832,0,0,1,8.542,36.535a7.542,7.542,0,0,0-2.194.063V33.135ZM33.172,70.95a26.8,26.8,0,0,0,5.763-.626,5.8,5.8,0,0,1-11.527,0A26.8,26.8,0,0,0,33.172,70.95Zm0-2.637A24.188,24.188,0,0,1,9.519,39.15c5.465-.239,10.8-2.346,15.885-6.268H40.94C46.023,36.8,51.36,38.91,56.824,39.15A24.189,24.189,0,0,1,33.172,68.314Zm8.789-38.069H24.383a7.471,7.471,0,1,1,0-14.941H41.961a7.471,7.471,0,1,1,0,14.941ZM2.637,44.144a5.031,5.031,0,0,1,4.187-4.953,26.926,26.926,0,0,0,0,9.906,5.031,5.031,0,0,1-4.189-4.953ZM4.377,62.193c0-1.785.8-5.476,2.257-10.459a7.683,7.683,0,0,0,.847.066A26.935,26.935,0,0,0,22.528,68.745a22.632,22.632,0,0,0-4.286,2.983C7.784,69.07,4.377,64.183,4.377,62.193ZM52.3,86.555a2.2,2.2,0,0,1-1.707.808H15.752a2.2,2.2,0,0,1-1.707-.808,2.16,2.16,0,0,1-.453-1.8A20.062,20.062,0,0,1,24.781,70.563a8.442,8.442,0,0,0,16.781,0A20.06,20.06,0,0,1,52.75,84.757,2.161,2.161,0,0,1,52.3,86.555Zm9.668-24.362c0,1.99-3.406,6.877-13.864,9.534a22.639,22.639,0,0,0-4.286-2.982A26.935,26.935,0,0,0,58.862,51.8a7.675,7.675,0,0,0,.847-.066c1.459,4.984,2.257,8.674,2.257,10.459ZM59.518,49.1a26.921,26.921,0,0,0,0-9.906,5.023,5.023,0,0,1,0,9.906Z"/>
          <path id="Trazado_118691" data-name="Trazado 118691" d="M82.969,19.932V4.834a4.834,4.834,0,0,0-9.668,0v15.1a11.864,11.864,0,1,0,9.668,0Zm-7.031-8.067a2.2,2.2,0,0,1,4.395,0V30.771a2.2,2.2,0,0,1-4.395,0Zm2.2-9.229a2.2,2.2,0,0,1,2.2,2.2V7.562a4.816,4.816,0,0,0-4.395,0V4.834a2.2,2.2,0,0,1,2.2-2.2Zm0,37.362A9.229,9.229,0,0,1,73.3,22.909v7.861a4.834,4.834,0,0,0,9.668,0V22.909A9.229,9.229,0,0,1,78.135,40Z"/>
          <circle id="Elipse_4808" data-name="Elipse 4808" cx="1.318" cy="1.318" r="1.318" transform="translate(31.853 21.456)"/>
          <circle id="Elipse_4809" data-name="Elipse 4809" cx="1.318" cy="1.318" r="1.318" transform="translate(39.763 21.456)"/>
          <circle id="Elipse_4810" data-name="Elipse 4810" cx="1.318" cy="1.318" r="1.318" transform="translate(23.943 21.456)"/>
          <circle id="Elipse_4811" data-name="Elipse 4811" cx="1.318" cy="1.318" r="1.318" transform="translate(35.791 17.94)"/>
          <circle id="Elipse_4812" data-name="Elipse 4812" cx="1.318" cy="1.318" r="1.318" transform="translate(27.881 17.94)"/>
          <circle id="Elipse_4813" data-name="Elipse 4813" cx="1.318" cy="1.318" r="1.318" transform="translate(35.791 24.971)"/>
          <circle id="Elipse_4814" data-name="Elipse 4814" cx="1.318" cy="1.318" r="1.318" transform="translate(27.881 24.971)"/>
        </g>
      </g>
    </g>
  </g>
</svg>
