<svg xmlns="http://www.w3.org/2000/svg" xmlns:xlink="http://www.w3.org/1999/xlink" width="98" height="95" viewBox="0 0 98 95">
  <defs>
    <clipPath id="clip-path">
      <rect id="Rectángulo_34313" data-name="Rectángulo 34313" width="90" height="90" transform="translate(237 6866)" fill="#fff"/>
    </clipPath>
  </defs>
  <g id="_13" data-name="13" transform="translate(-229 -6859)">
    <circle id="Elipse_4817" data-name="Elipse 4817" cx="36" cy="36" r="36" transform="translate(229 6882)" fill="#ffd947"/>
    <g id="Enmascarar_grupo_104" data-name="Enmascarar grupo 104" transform="translate(0 -7)" clip-path="url(#clip-path)">
      <g id="ver-la-television" transform="translate(237 6866.117)">
        <g id="Grupo_85298" data-name="Grupo 85298">
          <g id="Grupo_85279" data-name="Grupo 85279">
            <path id="Trazado_118692" data-name="Trazado 118692" d="M28.682,61.485a7.093,7.093,0,0,1,2.066,5,8.324,8.324,0,0,1-1.965,5.376l-2.731,3.222-10.982-6.85,2.211-4.74a7.072,7.072,0,0,1,11.4-2.009Z" fill="#ff826e"/>
          </g>
          <g id="Grupo_85280" data-name="Grupo 85280">
            <path id="Trazado_118693" data-name="Trazado 118693" d="M29.606,59.418a10.121,10.121,0,0,1,8.454,4.754l4.046,6.474L27.54,81.325h-.014L24.549,76.86l1.5-1.777,2.731-3.222a8.324,8.324,0,0,0,1.965-5.376,7.055,7.055,0,0,0-7.066-7.066h5.925Z" fill="#ff826e"/>
          </g>
          <g id="Grupo_85281" data-name="Grupo 85281">
            <path id="Trazado_118694" data-name="Trazado 118694" d="M71.21,84.866a3.382,3.382,0,0,1-.043.549,3.455,3.455,0,0,1-3.41,2.9H56.123a2.878,2.878,0,0,1-2.8-2.182l-.173-.708-.723-2.89,11.561-2.89,5.058,2.023a3.434,3.434,0,0,1,2.168,3.194Z" fill="#f0d0b4"/>
          </g>
          <g id="Grupo_85282" data-name="Grupo 85282">
            <path id="Trazado_118695" data-name="Trazado 118695" d="M88.551,65.2V83.984a1.449,1.449,0,0,1-1.445,1.445H71.21l-.043-.014a3.382,3.382,0,0,0,.043-.549,3.434,3.434,0,0,0-2.168-3.194l-5.058-2.023-1.272-6.344A10.082,10.082,0,0,0,52.829,65.2Z" fill="#cf9e76"/>
          </g>
          <g id="Grupo_85283" data-name="Grupo 85283">
            <path id="Trazado_118696" data-name="Trazado 118696" d="M52.424,82.539l.723,2.89h-8.41l-.014-.014a4.491,4.491,0,0,0,.636-.65l5.9-6.893Z" fill="#969faa"/>
          </g>
          <g id="Grupo_85284" data-name="Grupo 85284">
            <path id="Trazado_118697" data-name="Trazado 118697" d="M42.309,65.2h10.52a10.055,10.055,0,0,0-5.954,1.951L42.309,70.5Z" fill="#cf9e76"/>
          </g>
          <g id="Grupo_85285" data-name="Grupo 85285">
            <path id="Trazado_118698" data-name="Trazado 118698" d="M88.551,60.863V65.2H42.309V60.863a1.449,1.449,0,0,1,1.445-1.445H87.106A1.449,1.449,0,0,1,88.551,60.863Z" fill="#d3a06c"/>
          </g>
          <g id="Grupo_85286" data-name="Grupo 85286">
            <path id="Trazado_118699" data-name="Trazado 118699" d="M27.54,81.325,42.106,70.646l.2-.145,4.566-3.353a10.077,10.077,0,0,1,15.838,6.156l1.272,6.344-11.561,2.89-1.171-4.668-5.9,6.893a4.491,4.491,0,0,1-.636.65,9.59,9.59,0,0,1-2.847,1.98,10.179,10.179,0,0,1-12.7-3.6l-1.647-2.471Z" fill="#969faa"/>
          </g>
          <g id="Grupo_85287" data-name="Grupo 85287">
            <path id="Trazado_118700" data-name="Trazado 118700" d="M56.759,50.748H74.1v8.67H56.759Z" fill="#aab2bd"/>
          </g>
          <g id="Grupo_85288" data-name="Grupo 85288">
            <path id="Trazado_118701" data-name="Trazado 118701" d="M88.551,11.731V49.3a1.449,1.449,0,0,1-1.445,1.445H79.88v-5.78h2.89v-28.9h-28.9l-5.78,2.89v-.491a19.779,19.779,0,0,0-1.777-8.179H87.106A1.449,1.449,0,0,1,88.551,11.731Z" fill="#ccd1d9"/>
          </g>
          <g id="Grupo_85289" data-name="Grupo 85289">
            <path id="Trazado_118702" data-name="Trazado 118702" d="M48.089,44.967H74.1v5.78H44.837a11.905,11.905,0,0,0,.361-2.89v-2.89Z" fill="#ccd1d9"/>
          </g>
          <g id="Grupo_85290" data-name="Grupo 85290">
            <path id="Trazado_118703" data-name="Trazado 118703" d="M74.1,44.967h5.78v5.78H74.1Z" fill="#ff826e"/>
          </g>
          <g id="Grupo_85291" data-name="Grupo 85291">
            <path id="Trazado_118704" data-name="Trazado 118704" d="M82.77,16.066v28.9H48.089a5.78,5.78,0,0,0,3.02-10.708l2.76-18.193Z" fill="#69d6f4"/>
          </g>
          <g id="Grupo_85292" data-name="Grupo 85292">
            <path id="Trazado_118705" data-name="Trazado 118705" d="M20.633,21.846H19.188a8.677,8.677,0,0,0-8.67,8.67v2.89H7.627a5.831,5.831,0,0,0-3.02.853L1.847,16.066l5.78,2.89v-.491a19.738,19.738,0,0,1,5.78-13.959l5.78,4.335a19.493,19.493,0,0,1,7.543-6.662l1.127-.564,1.127.564a19.493,19.493,0,0,1,7.543,6.662l5.78-4.335a19.789,19.789,0,0,1,5.78,13.959v.491l5.78-2.89L51.109,34.26a5.831,5.831,0,0,0-3.02-.853H45.2a8.677,8.677,0,0,0-8.67-8.67H26.413A7.239,7.239,0,0,1,20.633,21.846Z" fill="#fcd770"/>
          </g>
          <g id="Grupo_85293" data-name="Grupo 85293">
            <path id="Trazado_118706" data-name="Trazado 118706" d="M15.069,68.233l10.982,6.85-1.5,1.777L15.719,87.293a2.894,2.894,0,0,1-2.211,1.026H5.026A3.173,3.173,0,0,1,4.4,82.033l4.668-.939Z" fill="#f0d0b4"/>
          </g>
          <g id="Grupo_85294" data-name="Grupo 85294">
            <path id="Trazado_118707" data-name="Trazado 118707" d="M51.109,34.26a5.778,5.778,0,0,1-3.02,10.708H45.2V33.407h2.89A5.831,5.831,0,0,1,51.109,34.26Z" fill="#f0d0b4"/>
          </g>
          <g id="Grupo_85295" data-name="Grupo 85295">
            <path id="Trazado_118708" data-name="Trazado 118708" d="M45.2,44.967v2.89a11.905,11.905,0,0,1-.361,2.89,11.569,11.569,0,0,1-11.2,8.67H22.078A11.557,11.557,0,0,1,10.517,47.858V30.517a8.677,8.677,0,0,1,8.67-8.67h1.445a7.239,7.239,0,0,0,5.78,2.89H36.528a8.677,8.677,0,0,1,8.67,8.67V44.967Z" fill="#f0d0b4"/>
          </g>
          <g id="Grupo_85296" data-name="Grupo 85296">
            <path id="Trazado_118709" data-name="Trazado 118709" d="M10.517,40.632v4.335H7.627a5.78,5.78,0,0,1,0-11.561h2.89Z" fill="#f0d0b4"/>
          </g>
          <g id="Grupo_85297" data-name="Grupo 85297">
            <circle id="Elipse_4816" data-name="Elipse 4816" cx="8.67" cy="8.67" r="8.67" transform="translate(56.759 21.846)" fill="#4fc1e9"/>
          </g>
        </g>
        <g id="Grupo_85299" data-name="Grupo 85299">
          <path id="Trazado_118710" data-name="Trazado 118710" d="M35.083,46.413h-2.89A2.893,2.893,0,0,1,29.3,49.3h-5.78v2.89H29.3A5.786,5.786,0,0,0,35.083,46.413Z"/>
          <path id="Trazado_118711" data-name="Trazado 118711" d="M26.413,37.742a5.78,5.78,0,1,0-11.561,0h2.89a2.89,2.89,0,1,1,5.78,0Z"/>
          <path id="Trazado_118712" data-name="Trazado 118712" d="M35.083,34.852a2.893,2.893,0,0,1,2.89,2.89h2.89a5.78,5.78,0,1,0-11.561,0h2.89A2.9,2.9,0,0,1,35.083,34.852Z"/>
          <path id="Trazado_118713" data-name="Trazado 118713" d="M65.43,40.632A10.115,10.115,0,1,0,55.314,30.517,10.128,10.128,0,0,0,65.43,40.632Zm-5.743-5.78h2.022a15.625,15.625,0,0,0,.848,2.286A7.24,7.24,0,0,1,59.687,34.852ZM58.2,30.517a7.219,7.219,0,0,1,.146-1.445h2.818c-.043.478-.074.96-.074,1.445s.03.967.074,1.445H58.35A7.208,7.208,0,0,1,58.2,30.517Zm7.225-5.873a12.866,12.866,0,0,1,.662,1.538H64.769A12.858,12.858,0,0,1,65.43,24.644Zm1.34,4.428a12.981,12.981,0,0,1,.105,1.445,12.979,12.979,0,0,1-.105,1.445H64.091a12.979,12.979,0,0,1-.105-1.445,12.978,12.978,0,0,1,.105-1.445Zm5.886,1.445a7.219,7.219,0,0,1-.146,1.445H69.691c.043-.478.074-.96.074-1.445s-.03-.967-.074-1.445h2.818A7.219,7.219,0,0,1,72.655,30.517ZM65.43,36.39a12.767,12.767,0,0,1-.662-1.538H66.09A12.531,12.531,0,0,1,65.43,36.39Zm2.874.749a15.794,15.794,0,0,0,.848-2.286h2.022A7.25,7.25,0,0,1,68.3,37.138Zm2.87-10.956H69.152A15.625,15.625,0,0,0,68.3,23.9,7.25,7.25,0,0,1,71.174,26.182ZM62.555,23.9a15.8,15.8,0,0,0-.848,2.286H59.685A7.26,7.26,0,0,1,62.555,23.9Z"/>
          <path id="Trazado_118714" data-name="Trazado 118714" d="M87.106,52.193A2.893,2.893,0,0,0,90,49.3V11.731a2.893,2.893,0,0,0-2.89-2.89H47.213A21.193,21.193,0,0,0,43.33,3.484L42.444,2.6,36.839,6.8A21.119,21.119,0,0,0,29.625.883L27.858,0,26.091.883A21.119,21.119,0,0,0,18.877,6.8l-5.6-4.2-.887.886A21.031,21.031,0,0,0,6.257,16.656L0,13.527,3.052,33.643a7.194,7.194,0,0,0,4.577,12.77H9.074v1.445a13.021,13.021,0,0,0,8.91,12.335,8.434,8.434,0,0,0-2.006,2.691l-7.9,16.938-3.955.792a4.622,4.622,0,0,0,.908,9.153h8.488a4.331,4.331,0,0,0,3.311-1.536l7.592-8.974,3.559,5.338a11.587,11.587,0,0,0,17.3,2.28h6.777a4.316,4.316,0,0,0,4.071,2.89H67.768a4.891,4.891,0,0,0,4.452-2.89H87.11A2.893,2.893,0,0,0,90,83.984V60.863a2.893,2.893,0,0,0-2.89-2.89H75.549v-5.78Zm-43.352,5.78a2.893,2.893,0,0,0-2.89,2.89V65.94L39.28,63.406a11.577,11.577,0,0,0-2.617-2.913,13.034,13.034,0,0,0,9.221-8.3h9.429v5.78Zm0,8.67h1.364l-1.364,1ZM55.112,17.511H81.327V43.522H53.833a7.108,7.108,0,0,0-1.166-9.88ZM52.424,39.187a4.34,4.34,0,0,1-4.335,4.335H46.644V41.405l3.692-2.461-1.6-2.4-2.088,1.393V34.852H48.09A4.339,4.339,0,0,1,52.424,39.187ZM46.559,49.3a12.911,12.911,0,0,0,.085-1.445V46.413H72.655V49.3Zm28.987-2.89h2.89V49.3h-2.89ZM87.106,11.731V49.3h-5.78v-2.89h2.89V14.621H53.528L49.46,16.656a21.013,21.013,0,0,0-1.029-4.925ZM3.7,18.605l5.379,2.689V18.461a18.154,18.154,0,0,1,4.5-12.021l5.967,4.475.847-1.272A18.191,18.191,0,0,1,27.385,3.47l.474-.237.473.236a18.2,18.2,0,0,1,6.994,6.173l.847,1.272,5.967-4.475A18.162,18.162,0,0,1,45.2,11.355v.374h.16a18.262,18.262,0,0,1,1.285,6.73v2.834L52.022,18.6,49.954,32.236a7.119,7.119,0,0,0-1.867-.276H46.642V27.625A10.128,10.128,0,0,0,36.527,17.51H32.192V20.4h4.335a7.236,7.236,0,0,1,7.081,5.795,10.08,10.08,0,0,0-7.081-2.9H26.411a5.786,5.786,0,0,1-5.78-5.78V14.62h-2.89v2.89a8.6,8.6,0,0,0,.523,2.936A10.128,10.128,0,0,0,9.071,30.515V31.96H7.626a7.119,7.119,0,0,0-1.867.276ZM7.627,43.522a4.335,4.335,0,0,1,0-8.67H9.072v3.081L6.984,36.54l-1.6,2.4,3.692,2.461v2.117ZM22.078,57.973A10.128,10.128,0,0,1,11.962,47.858V30.517a7.234,7.234,0,0,1,7.225-7.225h.78a8.641,8.641,0,0,0,6.445,2.89H36.528a7.234,7.234,0,0,1,7.225,7.225V47.858A10.128,10.128,0,0,1,33.638,57.973ZM18.6,64.1A5.618,5.618,0,0,1,29.3,66.482a6.89,6.89,0,0,1-1.63,4.449L25.754,73.2,16.926,67.68ZM14.617,86.363a1.443,1.443,0,0,1-1.105.512H5.024a1.731,1.731,0,0,1-.34-3.429l5.389-1.077L15.7,70.318l8.173,5.108ZM29.881,72.8a9.788,9.788,0,0,0,2.314-6.315,8.467,8.467,0,0,0-2.1-5.579,8.6,8.6,0,0,1,6.737,4.036l3.335,5.337-12.267,9-1.542-2.312Zm7.753,14.078a8.707,8.707,0,0,1-7.256-3.884L29.5,81.679,47.728,68.314A8.633,8.633,0,0,1,61.3,73.584l1,5-8.822,2.205-.854-3.416a6.619,6.619,0,0,1,1.743-6.289l.526-.526-2.043-2.043-.526.526A9.318,9.318,0,0,0,49.7,77.47l-5.452,6.361a8.7,8.7,0,0,1-6.618,3.043Zm12.9-5.933.76,3.043h-3.37Zm17.229,5.933H56.126a1.447,1.447,0,0,1-1.4-1.094l-.548-2.191,9.705-2.426,4.627,1.851a2,2,0,0,1-.743,3.86Zm4.8-2.89a4.858,4.858,0,0,0-2.985-3.653L65.249,78.6l-1.116-5.581a11.477,11.477,0,0,0-3.7-6.373H87.107V83.986H72.567ZM87.106,63.753H43.754v-2.89H87.106Zm-14.451-5.78H58.2v-5.78H72.655Z"/>
        </g>
      </g>
    </g>
  </g>
</svg>
