<svg xmlns="http://www.w3.org/2000/svg" xmlns:xlink="http://www.w3.org/1999/xlink" width="108" height="97" viewBox="0 0 108 97">
  <defs>
    <clipPath id="clip-path">
      <rect id="Rectángulo_34314" data-name="Rectángulo 34314" width="90" height="90" transform="translate(867 6756)" fill="#fff"/>
    </clipPath>
  </defs>
  <g id="_14" data-name="14" transform="translate(-867 -6742)">
    <circle id="Elipse_4818" data-name="Elipse 4818" cx="36" cy="36" r="36" transform="translate(903 6742)" fill="#ffd947"/>
    <g id="Enmascarar_grupo_105" data-name="Enmascarar grupo 105" transform="translate(0 -7)" clip-path="url(#clip-path)">
      <g id="comprar" transform="translate(867 6756)">
        <g id="Grupo_85311" data-name="Grupo 85311">
          <g id="Grupo_85301" data-name="Grupo 85301">
            <path id="Trazado_118715" data-name="Trazado 118715" d="M45,56.613H39.194A14.5,14.5,0,0,0,45,45V36.29a8.717,8.717,0,0,0-8.71-8.71H26.129a10.075,10.075,0,0,1-7.113-2.9h-.145a8.717,8.717,0,0,0-8.71,8.71V45A14.511,14.511,0,0,0,22.4,59.327l-.029.218c-.2-.015-.392-.029-.6-.029a5.8,5.8,0,0,0-5.806,5.806V76.935H14.037a3.866,3.866,0,0,1-3.876-3.876,3.864,3.864,0,0,0-1.553-3.092L6.518,68.4a5.42,5.42,0,0,1-1.248-7.345l.769-1.161a7.2,7.2,0,0,0,1.219-4.021A7.226,7.226,0,0,0,4.369,50.1l-.755-.566a5.42,5.42,0,0,1-1.248-7.345,11.906,11.906,0,0,0,1.989-6.576V27.581A17.415,17.415,0,0,1,21.774,10.161H33.387A17.415,17.415,0,0,1,50.806,27.581v8.027A11.906,11.906,0,0,0,52.8,42.184a5.42,5.42,0,0,1-1.248,7.345l-.755.566A7.226,7.226,0,0,0,47.9,55.873a6.331,6.331,0,0,0,.044.74Z" fill="#656d78"/>
          </g>
          <g id="Grupo_85302" data-name="Grupo 85302">
            <path id="Trazado_118716" data-name="Trazado 118716" d="M34.316,62.884l-6.735-3.368h-2.9a13.053,13.053,0,0,1-2.279-.189l-.029.218c-.2-.015-.392-.029-.6-.029a5.8,5.8,0,0,0-5.806,5.806v8.71H27.581v2.9L36.3,78.271a.544.544,0,0,0,.015-.16l1.6-11.918a8.727,8.727,0,0,0-3.6-3.31Z" fill="#b4dd7f"/>
          </g>
          <g id="Grupo_85303" data-name="Grupo 85303">
            <path id="Trazado_118717" data-name="Trazado 118717" d="M53.71,56.613H39.194l-1.277,9.581-1.6,11.918a.544.544,0,0,1-.015.16l10.147,1.568,3.789-2.526a2.229,2.229,0,0,1,3.469,1.858v.668h1.452a4.26,4.26,0,0,1,1.771.377l1.887-23.6Z" fill="#ffeaa7"/>
          </g>
          <g id="Grupo_85304" data-name="Grupo 85304">
            <path id="Trazado_118718" data-name="Trazado 118718" d="M88.548,84.368a4.163,4.163,0,0,1-4.181,4.181H55.161a4.361,4.361,0,0,0,4.355-4.355,4.024,4.024,0,0,0-.261-1.452H88.432l.1,1.292a2.46,2.46,0,0,1,.015.334Z" fill="#d3a06c"/>
          </g>
          <g id="Grupo_85305" data-name="Grupo 85305">
            <path id="Trazado_118719" data-name="Trazado 118719" d="M85.645,47.9H59.516l-.7,8.71-1.887,23.6a4.288,4.288,0,0,1,2.323,2.526H88.432Z" fill="#cf9e76"/>
          </g>
          <g id="Grupo_85306" data-name="Grupo 85306">
            <path id="Trazado_118720" data-name="Trazado 118720" d="M27.581,76.935,36.3,78.271l10.147,1.568,3.789-2.526a2.228,2.228,0,0,1,3.469,1.858v.668h1.452a4.335,4.335,0,0,1,4.094,2.9,4.024,4.024,0,0,1,.261,1.452,4.361,4.361,0,0,1-4.355,4.355H27.581A11.61,11.61,0,0,1,15.968,76.935v-2.9H27.581Z" fill="#f0d0b4"/>
          </g>
          <g id="Grupo_85307" data-name="Grupo 85307">
            <path id="Trazado_118721" data-name="Trazado 118721" d="M45,36.29V45A14.516,14.516,0,0,1,30.484,59.516H24.677a13.053,13.053,0,0,1-2.279-.189A14.511,14.511,0,0,1,10.161,45V33.387a8.717,8.717,0,0,1,8.71-8.71h.145a10.075,10.075,0,0,0,7.113,2.9H36.29A8.717,8.717,0,0,1,45,36.29Z" fill="#f0d0b4"/>
          </g>
          <g id="Grupo_85308" data-name="Grupo 85308">
            <path id="Trazado_118722" data-name="Trazado 118722" d="M74.685,29.192a2.361,2.361,0,0,1-4.21,0l-2.25-4.515H58.065a1.456,1.456,0,0,1-1.452-1.452V2.9a1.456,1.456,0,0,1,1.452-1.452H87.1A1.456,1.456,0,0,1,88.548,2.9V23.226A1.456,1.456,0,0,1,87.1,24.677H76.935Z" fill="#e6e9ed"/>
          </g>
          <g id="Grupo_85309" data-name="Grupo 85309">
            <path id="Trazado_118723" data-name="Trazado 118723" d="M79.839,10.9v.261a3.989,3.989,0,0,1-1.481,3.092l-5.777,4.616L66.8,14.255a3.989,3.989,0,0,1-1.481-3.092V10.9a3.553,3.553,0,0,1,1.96-3.179,4.557,4.557,0,0,1,2-.465,4.45,4.45,0,0,1,3.15,1.306l.145.145.145-.145a4.45,4.45,0,0,1,3.15-1.306,4.557,4.557,0,0,1,2,.465,3.553,3.553,0,0,1,1.96,3.179Z" fill="#ff826e"/>
          </g>
          <g id="Grupo_85310" data-name="Grupo 85310">
            <path id="Trazado_118724" data-name="Trazado 118724" d="M18.871,45H36.29a8.723,8.723,0,0,1-8.71,8.71A8.717,8.717,0,0,1,18.871,45Z" fill="#ff826e"/>
          </g>
        </g>
        <g id="Grupo_85312" data-name="Grupo 85312">
          <path id="Trazado_118725" data-name="Trazado 118725" d="M20.323,34.839a2.906,2.906,0,0,1,2.9,2.9h2.9a5.806,5.806,0,0,0-11.613,0h2.9A2.906,2.906,0,0,1,20.323,34.839Z"/>
          <path id="Trazado_118726" data-name="Trazado 118726" d="M34.839,34.839a2.906,2.906,0,0,1,2.9,2.9h2.9a5.806,5.806,0,0,0-11.613,0h2.9A2.906,2.906,0,0,1,34.839,34.839Z"/>
          <path id="Trazado_118727" data-name="Trazado 118727" d="M17.419,45a10.161,10.161,0,1,0,20.323,0V43.548H17.419Zm17.273,1.452a7.258,7.258,0,0,1-14.223,0Z"/>
          <path id="Trazado_118728" data-name="Trazado 118728" d="M87.1,0H58.065a2.906,2.906,0,0,0-2.9,2.9V23.226a2.906,2.906,0,0,0,2.9,2.9h9.264l1.852,3.706h0a3.8,3.8,0,0,0,6.8,0l1.852-3.706H87.1a2.906,2.906,0,0,0,2.9-2.9V2.9A2.906,2.906,0,0,0,87.1,0Zm0,23.226H76.038l-2.655,5.309a.928.928,0,0,1-1.6,0l-2.656-5.309H58.065V2.9H87.1Z"/>
          <path id="Trazado_118729" data-name="Trazado 118729" d="M72.581,20.729l6.679-5.342A5.387,5.387,0,0,0,81.29,11.16V10.9a4.969,4.969,0,0,0-2.764-4.471,6.034,6.034,0,0,0-5.946.38,6.036,6.036,0,0,0-5.947-.38A4.971,4.971,0,0,0,63.871,10.9v.258A5.4,5.4,0,0,0,65.9,15.39ZM66.774,10.9a2.084,2.084,0,0,1,1.157-1.874A3.039,3.039,0,0,1,69.28,8.71a3,3,0,0,1,2.131.881l1.17,1.171,1.171-1.171a3.069,3.069,0,0,1,3.478-.565A2.088,2.088,0,0,1,78.387,10.9v.258a2.5,2.5,0,0,1-.942,1.963l-4.864,3.89-4.864-3.89a2.5,2.5,0,0,1-.942-1.963Z"/>
          <path id="Trazado_118730" data-name="Trazado 118730" d="M71.129,37.742h2.9v2.9h-2.9Z"/>
          <path id="Trazado_118731" data-name="Trazado 118731" d="M76.935,37.742h2.9v2.9h-2.9Z"/>
          <path id="Trazado_118732" data-name="Trazado 118732" d="M65.323,37.742h2.9v2.9h-2.9Z"/>
          <path id="Trazado_118733" data-name="Trazado 118733" d="M86.985,46.452H58.176l-.7,8.71h-8.04a5.786,5.786,0,0,1,2.228-3.912l.743-.557a6.874,6.874,0,0,0,1.6-9.315A10.382,10.382,0,0,1,52.258,35.6V27.581A18.893,18.893,0,0,0,33.387,8.71H21.774A18.893,18.893,0,0,0,2.9,27.581V35.6a10.382,10.382,0,0,1-1.748,5.775,6.873,6.873,0,0,0,1.6,9.315l.743.557a5.815,5.815,0,0,1,2.311,4.625,5.756,5.756,0,0,1-.971,3.207l-.777,1.167a6.873,6.873,0,0,0,1.6,9.315l2.087,1.566a2.432,2.432,0,0,1,.967,1.935,5.329,5.329,0,0,0,5.323,5.323H14.6A13.079,13.079,0,0,0,27.581,90H84.36A5.646,5.646,0,0,0,90,84.36c0-.15-.006-.3-.017-.451Zm-18.759,2.9h8.71V53.71a4.355,4.355,0,1,1-8.71,0ZM27.759,61.228l5.915,2.957A7.325,7.325,0,0,1,36.4,66.564l-1.34,10.052-6.031-.926V65.323a7.222,7.222,0,0,0-1.273-4.1ZM18.514,26.165a11.55,11.55,0,0,0,7.615,2.867H36.29a7.266,7.266,0,0,1,7.258,7.258V45A13.079,13.079,0,0,1,30.484,58.065H24.677A13.079,13.079,0,0,1,11.613,45V33.387a7.249,7.249,0,0,1,6.9-7.222ZM36.9,62.866a10.2,10.2,0,0,0-1.923-1.277l-1.746-.874A15.86,15.86,0,0,0,37.36,59.39Zm-15.121-1.9a4.36,4.36,0,0,1,4.355,4.355v7.258h-8.71V65.323A4.36,4.36,0,0,1,21.774,60.968Zm18.69-2.9h3.085v1.452a5.806,5.806,0,0,0,11.613,0V58.065h2.086L55.62,78.406c-.151-.013-.3-.019-.459-.019h-.083a3.681,3.681,0,0,0-5.64-2.285l-3.324,2.215-8.184-1.259Zm11.794,0v1.452a2.9,2.9,0,0,1-5.806,0V58.065Zm-40.645,15a5.345,5.345,0,0,0-2.13-4.258L7.4,67.24a3.972,3.972,0,0,1-.922-5.383l.777-1.167A8.652,8.652,0,0,0,8.71,55.874a8.725,8.725,0,0,0-3.475-6.947l-.743-.557a3.974,3.974,0,0,1-.92-5.383A13.269,13.269,0,0,0,5.806,35.6V27.581A15.987,15.987,0,0,1,21.774,11.613H33.387A15.987,15.987,0,0,1,49.355,27.581V35.6a13.276,13.276,0,0,0,2.235,7.384,3.972,3.972,0,0,1-.922,5.383l-.745.557a8.719,8.719,0,0,0-3.43,6.235h-3.7A15.887,15.887,0,0,0,46.452,45V29.032A11.626,11.626,0,0,0,34.839,17.419v2.9a8.718,8.718,0,0,1,8.71,8.71v.161a10.123,10.123,0,0,0-7.258-3.064H26.129a8.718,8.718,0,0,1-8.71-8.71h-2.9a11.536,11.536,0,0,0,1.78,6.15A10.169,10.169,0,0,0,8.71,33.387V45a15.971,15.971,0,0,0,8.975,14.333,7.255,7.255,0,0,0-3.169,5.989V75.484h-.483a2.423,2.423,0,0,1-2.42-2.42ZM55.161,87.1H27.581A10.174,10.174,0,0,1,17.419,76.935V75.484h8.71v.851l-2.478,2.478L25.7,80.865l2.382-2.382,18.7,2.877,4.263-2.842a.8.8,0,0,1,1.208.646V81.29h2.9a2.9,2.9,0,1,1,0,5.806Zm5.695-37.742h4.467V53.71a7.258,7.258,0,0,0,14.516,0V49.355h4.467L86.86,81.29H60.18a5.841,5.841,0,0,0-1.726-1.878ZM84.36,87.1H60.188a5.762,5.762,0,0,0,.78-2.9H87.091c0,.055.006.112.006.167A2.74,2.74,0,0,1,84.36,87.1Z"/>
        </g>
      </g>
    </g>
  </g>
</svg>
