<svg xmlns="http://www.w3.org/2000/svg" xmlns:xlink="http://www.w3.org/1999/xlink" width="114" height="99.369" viewBox="0 0 114 99.369">
  <defs>
    <clipPath id="clip-path">
      <rect id="Rectángulo_34315" data-name="Rectángulo 34315" width="90" height="90" transform="translate(867 6870.369)" fill="#fff"/>
    </clipPath>
  </defs>
  <g id="_15" data-name="15" transform="translate(-843 -6854)">
    <circle id="Elipse_4819" data-name="Elipse 4819" cx="36" cy="36" r="36" transform="translate(843 6854)" fill="#ffd947"/>
    <g id="Enmascarar_grupo_106" data-name="Enmascarar grupo 106" transform="translate(0 -7)" clip-path="url(#clip-path)">
      <g id="amabilidad" transform="translate(867 6870.369)">
        <g id="Grupo_85331" data-name="Grupo 85331">
          <g id="Grupo_85314" data-name="Grupo 85314">
            <path id="Trazado_118734" data-name="Trazado 118734" d="M50.806,43.49V55.161a15.918,15.918,0,0,0,4.674,11.294l6.677,3.992-1.19,3.585A10.046,10.046,0,0,0,55.5,77.124c-.218.232-.421.479-.61.726A15.338,15.338,0,0,1,45,63.508V47.9a5.843,5.843,0,0,0,4.108-1.7,5.761,5.761,0,0,0,1.655-3.382l.116.015a3.335,3.335,0,0,0-.073.653Z" fill="#656d78"/>
          </g>
          <g id="Grupo_85315" data-name="Grupo 85315">
            <path id="Trazado_118735" data-name="Trazado 118735" d="M51.9,41.226a2.938,2.938,0,0,0-1.016,1.611l-.116-.015a5.908,5.908,0,0,0,.044-.726v-8.71l6.5-5.69a14.681,14.681,0,0,0,1.5-1.51A21.777,21.777,0,0,1,88.548,46.452V63.508A15.338,15.338,0,0,1,78.663,77.85a10.134,10.134,0,0,0-6.082-3.818l-1.19-3.585A15.953,15.953,0,0,0,82.742,55.161V45a2.912,2.912,0,0,0-2.9-2.9h-2.6a34.786,34.786,0,0,1-10.016-1.481,35.044,35.044,0,0,1-9.16-4.326Z" fill="#656d78"/>
          </g>
          <g id="Grupo_85316" data-name="Grupo 85316">
            <path id="Trazado_118736" data-name="Trazado 118736" d="M7.258,43.49V47.9h-2.9V40.645A15.959,15.959,0,0,1,20.323,24.677h5.806a15.724,15.724,0,0,1,4.326.6A15.33,15.33,0,0,0,32.69,27.7l6.5,5.69V42.1A5.8,5.8,0,0,0,45,47.9v2.9a2.912,2.912,0,0,0-2.9-2.9h-2.9V45a2.912,2.912,0,0,0-2.9-2.9h-2.6a34.786,34.786,0,0,1-10.016-1.481,35.044,35.044,0,0,1-9.16-4.326L8.347,41.226A2.913,2.913,0,0,0,7.258,43.49Z" fill="#b27946"/>
          </g>
          <g id="Grupo_85317" data-name="Grupo 85317">
            <path id="Trazado_118737" data-name="Trazado 118737" d="M27.581,81.29l3.861-6.445a10.087,10.087,0,0,1,5.661,8l.639,5.7H8.71l.639-5.7a10.167,10.167,0,0,1,5.647-8l3.876,6.445,4.355-2.9Z" fill="#fcd770"/>
          </g>
          <g id="Grupo_85318" data-name="Grupo 85318">
            <path id="Trazado_118738" data-name="Trazado 118738" d="M29.032,74.032a10.241,10.241,0,0,1,2.41.813L27.581,81.29l-4.355-2.9-4.355,2.9L15,74.845a10.356,10.356,0,0,1,2.424-.813l5.806,2.9Z" fill="#ffc729"/>
          </g>
          <g id="Grupo_85319" data-name="Grupo 85319">
            <path id="Trazado_118739" data-name="Trazado 118739" d="M60.968,88.548h-8.71l.639-5.7a10.106,10.106,0,0,1,1.989-4.994c.189-.247.392-.494.61-.726a10.046,10.046,0,0,1,5.473-3.092l2.1,4.2a2.9,2.9,0,0,0,2.6,1.611h2.206a2.9,2.9,0,0,0,2.6-1.611l2.1-4.2a10.123,10.123,0,0,1,8.071,8.811l.639,5.7H60.968Z" fill="#ff826e"/>
          </g>
          <g id="Grupo_85320" data-name="Grupo 85320">
            <path id="Trazado_118740" data-name="Trazado 118740" d="M23.226,71.129a15.576,15.576,0,0,0,4.616-.682l1.19,3.585-5.806,2.9-5.806-2.9,1.19-3.585Z" fill="#f0d0b4"/>
          </g>
          <g id="Grupo_85321" data-name="Grupo 85321">
            <path id="Trazado_118741" data-name="Trazado 118741" d="M71.39,70.447l1.19,3.585-2.1,4.2a2.9,2.9,0,0,1-2.6,1.611H65.671a2.9,2.9,0,0,1-2.6-1.611l-2.1-4.2,1.19-3.585a15.957,15.957,0,0,0,9.232,0Z" fill="#f0d0b4"/>
          </g>
          <g id="Grupo_85322" data-name="Grupo 85322">
            <path id="Trazado_118742" data-name="Trazado 118742" d="M82.742,45V55.161A15.953,15.953,0,0,1,71.39,70.447a15.957,15.957,0,0,1-9.232,0l-6.677-3.992a15.918,15.918,0,0,1-4.674-11.294V43.49a3.335,3.335,0,0,1,.073-.653A2.938,2.938,0,0,1,51.9,41.226l6.169-4.935a35.044,35.044,0,0,0,9.16,4.326A34.786,34.786,0,0,0,77.24,42.1h2.6a2.912,2.912,0,0,1,2.9,2.9Z" fill="#f0d0b4"/>
          </g>
          <g id="Grupo_85323" data-name="Grupo 85323">
            <path id="Trazado_118743" data-name="Trazado 118743" d="M42.1,47.9a2.912,2.912,0,0,1,2.9,2.9,2.924,2.924,0,0,1-2.9,2.9h-2.9V47.9Z" fill="#f0d0b4"/>
          </g>
          <g id="Grupo_85324" data-name="Grupo 85324">
            <path id="Trazado_118744" data-name="Trazado 118744" d="M39.194,47.9v7.258A15.953,15.953,0,0,1,27.842,70.447a15.576,15.576,0,0,1-4.616.682l-4.616-.682A15.95,15.95,0,0,1,7.258,55.161V43.49a2.913,2.913,0,0,1,1.089-2.265l6.169-4.935a35.044,35.044,0,0,0,9.16,4.326A34.786,34.786,0,0,0,33.692,42.1h2.6a2.912,2.912,0,0,1,2.9,2.9Z" fill="#f0d0b4"/>
          </g>
          <g id="Grupo_85325" data-name="Grupo 85325">
            <path id="Trazado_118745" data-name="Trazado 118745" d="M7.258,47.9V53.71h-2.9a2.838,2.838,0,0,1-2.047-.856,2.838,2.838,0,0,1-.856-2.047,2.912,2.912,0,0,1,2.9-2.9Z" fill="#f0d0b4"/>
          </g>
          <g id="Grupo_85326" data-name="Grupo 85326">
            <path id="Trazado_118746" data-name="Trazado 118746" d="M71.129,59.516l-.74,2.99a3.728,3.728,0,0,1-7.229,0l-.74-2.99Z" fill="#ff826e"/>
          </g>
          <g id="Grupo_85327" data-name="Grupo 85327">
            <path id="Trazado_118747" data-name="Trazado 118747" d="M27.581,59.516l-.74,2.99a3.728,3.728,0,0,1-7.229,0l-.74-2.99Z" fill="#ff826e"/>
          </g>
          <g id="Grupo_85328" data-name="Grupo 85328">
            <path id="Trazado_118748" data-name="Trazado 118748" d="M39.194,33.387V42.1a5.807,5.807,0,0,0,11.569.726,5.908,5.908,0,0,0,.044-.726v-8.71Z" fill="#ccd1d9"/>
          </g>
          <g id="Grupo_85329" data-name="Grupo 85329">
            <path id="Trazado_118749" data-name="Trazado 118749" d="M30.455,25.273a16.2,16.2,0,0,1-1.539-2.656A14.981,14.981,0,0,1,42.561,1.452h4.877A14.978,14.978,0,0,1,58.8,26.187a14.68,14.68,0,0,1-1.5,1.51l-6.5,5.69H39.194l-6.5-5.69a15.33,15.33,0,0,1-2.235-2.424Z" fill="#ffeaa7"/>
          </g>
          <g id="Grupo_85330" data-name="Grupo 85330">
            <path id="Trazado_118750" data-name="Trazado 118750" d="M56.613,13.573V13.8a7.226,7.226,0,0,1-2.889,5.777L45,26.129l-8.724-6.547A7.226,7.226,0,0,1,33.387,13.8v-.232a6.431,6.431,0,0,1,1.089-3.585,6.111,6.111,0,0,1,9.406-.944L45,10.161l1.118-1.118a6.111,6.111,0,0,1,9.406.944A6.431,6.431,0,0,1,56.613,13.573Z" fill="#ff826e"/>
          </g>
        </g>
        <g id="Grupo_85332" data-name="Grupo 85332">
          <path id="Trazado_118751" data-name="Trazado 118751" d="M17.419,52.258h2.9V50.806a4.355,4.355,0,0,0-8.71,0v1.452h2.9V50.806a1.452,1.452,0,1,1,2.9,0Z"/>
          <path id="Trazado_118752" data-name="Trazado 118752" d="M30.484,46.452a4.36,4.36,0,0,0-4.355,4.355v1.452h2.9V50.806a1.452,1.452,0,1,1,2.9,0v1.452h2.9V50.806A4.36,4.36,0,0,0,30.484,46.452Z"/>
          <path id="Trazado_118753" data-name="Trazado 118753" d="M18.21,62.858a5.169,5.169,0,0,0,10.031,0l1.2-4.793H17.011Zm7.511-1.89-.3,1.186a2.266,2.266,0,0,1-4.4,0l-.3-1.186Z"/>
          <path id="Trazado_118754" data-name="Trazado 118754" d="M60.968,52.258h2.9V50.806a4.355,4.355,0,0,0-8.71,0v1.452h2.9V50.806a1.452,1.452,0,1,1,2.9,0Z"/>
          <path id="Trazado_118755" data-name="Trazado 118755" d="M78.387,52.258V50.806a4.355,4.355,0,1,0-8.71,0v1.452h2.9V50.806a1.452,1.452,0,1,1,2.9,0v1.452Z"/>
          <path id="Trazado_118756" data-name="Trazado 118756" d="M61.759,62.858a5.169,5.169,0,0,0,10.031,0l1.2-4.793H60.56Zm7.511-1.89-.3,1.186a2.266,2.266,0,0,1-4.4,0l-.3-1.186Z"/>
          <path id="Trazado_118757" data-name="Trazado 118757" d="M77.994,26.129h7.651a4.355,4.355,0,0,0,0-8.71H81.29a1.454,1.454,0,0,1-1.452-1.452,4.36,4.36,0,0,0-4.355-4.355H74.032a1.452,1.452,0,0,1,0-2.9h5.806a4.355,4.355,0,0,0,0-8.71H63.871V2.9H79.839a1.452,1.452,0,1,1,0,2.9H74.032a4.355,4.355,0,0,0,0,8.71h1.452a1.454,1.454,0,0,1,1.452,1.452,4.36,4.36,0,0,0,4.355,4.355h4.355a1.452,1.452,0,1,1,0,2.9H66.774a23.215,23.215,0,0,0-4.619.472A16.4,16.4,0,0,0,47.442,0H42.558a16.421,16.421,0,0,0-14.92,23.3c-.5-.044-1-.073-1.51-.073H4.355a1.452,1.452,0,1,1,0-2.9H8.71a4.36,4.36,0,0,0,4.355-4.355,1.454,1.454,0,0,1,1.452-1.452h1.452a4.355,4.355,0,1,0,0-8.71H10.161a1.452,1.452,0,1,1,0-2.9H26.129V0H10.161a4.355,4.355,0,1,0,0,8.71h5.806a1.452,1.452,0,0,1,0,2.9H14.516a4.36,4.36,0,0,0-4.355,4.355A1.454,1.454,0,0,1,8.71,17.419H4.355a4.355,4.355,0,0,0,0,8.71h6.36A17.413,17.413,0,0,0,2.9,40.645v6.074a4.344,4.344,0,0,0,1.452,8.443H5.806A17.438,17.438,0,0,0,16.789,71.334L16.3,72.809a11.531,11.531,0,0,0-8.4,9.872L7.088,90H39.363l-.814-7.319a11.529,11.529,0,0,0-8.4-9.872l-.492-1.475A17.437,17.437,0,0,0,40.645,55.161H42.1a4.306,4.306,0,0,0,1.452-.267v8.62a16.868,16.868,0,0,0,9.232,14.975,11.553,11.553,0,0,0-1.33,4.191L50.637,90H82.912L82.1,82.681a11.544,11.544,0,0,0-1.33-4.191A16.872,16.872,0,0,0,90,63.514V46.452A23.239,23.239,0,0,0,77.994,26.129ZM42.558,2.9h4.883A13.527,13.527,0,0,1,56.349,26.61l-6.088,5.326h-.906V24.677l5.236-3.927A8.728,8.728,0,0,0,58.065,13.8v-.229a7.908,7.908,0,0,0-1.331-4.4A7.568,7.568,0,0,0,45.086,8.023L45,8.109l-.086-.086A7.568,7.568,0,0,0,33.267,9.176a7.908,7.908,0,0,0-1.331,4.4V13.8a8.728,8.728,0,0,0,3.474,6.947l5.236,3.927v7.258h-.906L33.651,26.61A13.527,13.527,0,0,1,42.558,2.9ZM71.013,73.92l-1.832,3.664a1.443,1.443,0,0,1-1.3.8H65.665a1.443,1.443,0,0,1-1.3-.8L62.535,73.92l.578-1.735a17.17,17.17,0,0,0,7.322,0Zm-4.239-4.243A14.533,14.533,0,0,1,52.258,55.161V43.492a1.448,1.448,0,0,1,.544-1.134l5.354-4.282a35.887,35.887,0,0,0,19.086,5.473h2.6A1.454,1.454,0,0,1,81.29,45V55.161A14.533,14.533,0,0,1,66.774,69.677ZM40.645,34.839h8.71v2.9h-8.71ZM45,24.315l-7.849-5.888A5.805,5.805,0,0,1,34.839,13.8v-.229a5,5,0,0,1,.843-2.786,4.664,4.664,0,0,1,7.18-.713L45,12.214l2.138-2.138a4.665,4.665,0,0,1,7.18.711,5.009,5.009,0,0,1,.843,2.787V13.8a5.81,5.81,0,0,1-2.312,4.625Zm0,3.629,1.452-1.089v5.081h-2.9V26.855Zm0,18.508A4.36,4.36,0,0,1,40.645,42.1V40.645h8.71V42.1A4.36,4.36,0,0,1,45,46.452ZM4.355,52.258a1.452,1.452,0,1,1,0-2.9H5.806v2.9Zm1.452-8.766V40.645A14.533,14.533,0,0,1,20.323,26.129h5.806a14.573,14.573,0,0,1,3.54.459,16.307,16.307,0,0,0,2.07,2.2l6,5.253v6.868a4.271,4.271,0,0,0-1.452-.269h-2.6a33.011,33.011,0,0,1-18.372-5.563l-.883-.589-7,5.6a4.334,4.334,0,0,0-1.635,3.4ZM29.183,75.58l.112.032-2.176,3.628-2.251-1.5Zm-11.915,0,4.316,2.159-2.251,1.5-2.176-3.628ZM35.665,83l.456,4.1H31.935v-2.3a3.531,3.531,0,0,1,1.026-2.478l-2.053-2.053a6.362,6.362,0,0,0-1.877,4.53v2.3H17.419v-2.3a6.362,6.362,0,0,0-1.877-4.53L13.49,82.317a3.531,3.531,0,0,1,1.026,2.478v2.3H10.331l.454-4.1A8.616,8.616,0,0,1,14.5,76.831l3.906,6.512,4.818-3.211,4.816,3.211,3.908-6.51A8.614,8.614,0,0,1,35.665,83Zm-8.408-9.7-4.031,2.016L19.195,73.3l.37-1.11a17.2,17.2,0,0,0,7.322,0ZM37.742,55.161a14.516,14.516,0,0,1-29.032,0V43.492a1.448,1.448,0,0,1,.544-1.134l5.354-4.282a35.887,35.887,0,0,0,19.086,5.473h2.6A1.454,1.454,0,0,1,37.742,45Zm4.355-2.9H40.645v-2.9H42.1a1.452,1.452,0,1,1,0,2.9Zm4.355,11.256V49.208a7.207,7.207,0,0,0,2.9-1.341v7.294A17.438,17.438,0,0,0,60.338,71.334l-.492,1.475A11.509,11.509,0,0,0,54.479,76.1a13.958,13.958,0,0,1-8.027-12.584ZM74.594,87.1l.56-1.681a6.481,6.481,0,0,0,.33-2.073,6.362,6.362,0,0,0-1.877-4.53l-2.053,2.053a3.559,3.559,0,0,1,1.026,2.524A3.5,3.5,0,0,1,72.4,84.5l-.867,2.6h-9.52l-.867-2.6a3.582,3.582,0,0,1-.18-1.154,3.531,3.531,0,0,1,1.026-2.478l-2.053-2.053a6.484,6.484,0,0,0-1.547,6.6l.56,1.681H53.881l.454-4.1a8.627,8.627,0,0,1,5.87-7.248l1.565,3.13a4.329,4.329,0,0,0,3.895,2.408h2.218a4.332,4.332,0,0,0,3.895-2.407l1.565-3.13A8.625,8.625,0,0,1,79.213,83l.456,4.1ZM87.1,63.514A13.955,13.955,0,0,1,79.069,76.1,11.509,11.509,0,0,0,73.7,72.809l-.492-1.475A17.438,17.438,0,0,0,84.194,55.161V45a4.36,4.36,0,0,0-4.355-4.355h-2.6A33.011,33.011,0,0,1,58.87,35.083l-.883-.589-5.73,4.583V34.045l6-5.252a16.379,16.379,0,0,0,1.37-1.36A20.307,20.307,0,0,1,87.1,46.452Z"/>
        </g>
      </g>
    </g>
  </g>
</svg>
