<svg xmlns="http://www.w3.org/2000/svg" xmlns:xlink="http://www.w3.org/1999/xlink" width="100" height="99" viewBox="0 0 100 99">
  <defs>
    <clipPath id="clip-path">
      <rect id="Rectángulo_34316" data-name="Rectángulo 34316" width="90" height="90" transform="translate(867 7322)" fill="#fff"/>
    </clipPath>
  </defs>
  <g id="Grupo_88090" data-name="Grupo 88090" transform="translate(-867 -7306)">
    <circle id="Elipse_4820" data-name="Elipse 4820" cx="36" cy="36" r="36" transform="translate(895 7306)" fill="#ffd947"/>
    <g id="Enmascarar_grupo_107" data-name="Enmascarar grupo 107" transform="translate(0 -7)" clip-path="url(#clip-path)">
      <g id="altura" transform="translate(867 7322)">
        <g id="Grupo_85334" data-name="Grupo 85334">
          <path id="Trazado_118758" data-name="Trazado 118758" d="M28.9,82.274l1.624-7.155L28.9,66.07,25.137,64.5,21.878,66.07v8.356c0,1.535-.035,1.834-1.574,2.232-2.521.648-5.461,2.96-5.042,5.616Z" fill="#ffeee6" fill-rule="evenodd"/>
        </g>
        <g id="Grupo_85335" data-name="Grupo 85335">
          <path id="Trazado_118759" data-name="Trazado 118759" d="M44.016,39.865,40.678,37.5l-3.01,2.367-1.146,4.828,1.146,5.1c.379,1.7,1.425,3.179,3.174,3.179a3.187,3.187,0,0,0,3.174-3.179V39.865Z" fill="#ffeee6" fill-rule="evenodd"/>
        </g>
        <g id="Grupo_85336" data-name="Grupo 85336">
          <path id="Trazado_118760" data-name="Trazado 118760" d="M20.129,39.865,16.955,38.2l-3.179,1.664v9.926a3.176,3.176,0,1,0,6.353,0l1.584-4.749Z" fill="#ffeee6" fill-rule="evenodd"/>
        </g>
        <g id="Grupo_85337" data-name="Grupo 85337">
          <path id="Trazado_118761" data-name="Trazado 118761" d="M37.668,65.193v-15.4L28.9,47.17l-8.77,2.621v15.4a.878.878,0,0,0,.877.877H36.791A.881.881,0,0,0,37.668,65.193Z" fill="#7e707d" fill-rule="evenodd"/>
        </g>
        <g id="Grupo_85338" data-name="Grupo 85338">
          <path id="Trazado_118762" data-name="Trazado 118762" d="M24.429,26.606c-6.612,0-10.653,4.769-10.653,11.71v1.55h6.353v9.926H37.668V39.865h6.348v-1.55c0-6.941-4.041-11.71-10.648-11.71-1.973,4.225-6.936,4.47-8.939,0Z" fill="#f37c7c" fill-rule="evenodd"/>
        </g>
        <g id="Grupo_85339" data-name="Grupo 85339">
          <path id="Trazado_118763" data-name="Trazado 118763" d="M24.509,26.666c-.03-.02-.055-.04-.08-.06v1.8A4.721,4.721,0,0,0,28.9,33.328a4.724,4.724,0,0,0,4.469-4.918v-1.8C30.025,24.269,27.259,24.7,24.509,26.666Z" fill="#ffcebf" fill-rule="evenodd"/>
        </g>
        <g id="Grupo_85340" data-name="Grupo 85340">
          <path id="Trazado_118764" data-name="Trazado 118764" d="M37.489,76.658c-1.535-.4-1.57-.7-1.57-2.232V66.07H28.9v16.2H42.536c.419-2.656-2.526-4.968-5.047-5.616Z" fill="#ffeee6" fill-rule="evenodd"/>
        </g>
        <g id="Grupo_85341" data-name="Grupo 85341">
          <path id="Trazado_118765" data-name="Trazado 118765" d="M35.919,74.426V66.07H33.458V76.554c0,1.53.035,1.834,1.574,2.227a7.584,7.584,0,0,1,4.684,3.493h2.82c.419-2.656-2.526-4.968-5.047-5.616C35.954,76.26,35.919,75.961,35.919,74.426Z" fill="#ffdfcf" fill-rule="evenodd"/>
        </g>
        <g id="Grupo_85342" data-name="Grupo 85342">
          <path id="Trazado_118766" data-name="Trazado 118766" d="M25.56,66.07H28.9v16.2H25.56Z" fill="#ffdfcf" fill-rule="evenodd"/>
        </g>
        <g id="Grupo_85343" data-name="Grupo 85343">
          <path id="Trazado_118767" data-name="Trazado 118767" d="M31.828,27.5c3.428-1.595,6.134-5.381,6.134-8.441v-2.77c-3.672-.254-3.124-4.908-5.655-4.255a16.729,16.729,0,0,1-3.408.757,16.732,16.732,0,0,1-3.408-.757c-2.531-.653-1.988,4-5.655,4.255v2.77c0,3.059,2.7,6.846,6.129,8.441.219.1.438.194.663.279a5.906,5.906,0,0,0,4.539,0c.224-.085.448-.179.663-.279Z" fill="#ffeee6" fill-rule="evenodd"/>
        </g>
        <g id="Grupo_85344" data-name="Grupo 85344">
          <path id="Trazado_118768" data-name="Trazado 118768" d="M37.962,16.287c0-6.732-4.534-10.14-9.063-10.215-4.534.075-9.063,3.483-9.063,10.215,3.667-.254,3.124-3.059,5.655-2.407a16.729,16.729,0,0,0,3.408.757,16.732,16.732,0,0,0,3.408-.757C34.838,13.227,34.29,16.033,37.962,16.287Z" fill="#7e707d" fill-rule="evenodd"/>
        </g>
        <g id="Grupo_85345" data-name="Grupo 85345">
          <path id="Trazado_118769" data-name="Trazado 118769" d="M75.3,82.274V8.379L66.7,5.215,59.731,8.379V82.274l7.215,3.164Z" fill="#edf4ff" fill-rule="evenodd"/>
        </g>
        <g id="Grupo_85346" data-name="Grupo 85346">
          <path id="Trazado_118770" data-name="Trazado 118770" d="M77.43,2.205a.889.889,0,0,0-.887-.887H50.533V4.846a3.539,3.539,0,0,0,3.528,3.533H76.543a.892.892,0,0,0,.887-.887Z" fill="#f9f7f8" fill-rule="evenodd"/>
        </g>
        <g id="Grupo_85347" data-name="Grupo 85347">
          <path id="Trazado_118771" data-name="Trazado 118771" d="M75.3,82.274H10.318a3.21,3.21,0,0,0-3.2,3.2V87.82a.861.861,0,0,0,.857.862H81.924a.96.96,0,0,0,.957-.957V83.23a.957.957,0,0,0-.957-.957H75.3Z" fill="#7e707d" fill-rule="evenodd"/>
        </g>
        <g id="Grupo_85348" data-name="Grupo 85348">
          <path id="Trazado_118772" data-name="Trazado 118772" d="M37.962,16.287c0-5.621-3.164-8.929-6.846-9.911a9.883,9.883,0,0,1,3.931,8.012c0,.174.01.354.01.533v.169a4.345,4.345,0,0,0,2.9,1.2Z" fill="#6a5d6a" fill-rule="evenodd"/>
        </g>
        <g id="Grupo_85349" data-name="Grupo 85349">
          <path id="Trazado_118773" data-name="Trazado 118773" d="M37.962,19.057v-2.77a4.347,4.347,0,0,1-2.9-1.2V17.7c0,3.054-2.7,6.846-6.129,8.441-.219.1-.438.189-.663.274a6.451,6.451,0,0,1-2.272.458,5.819,5.819,0,0,1-1.485-.2,10.048,10.048,0,0,0,1.455.832c.219.1.438.194.663.279a5.906,5.906,0,0,0,4.539,0c.224-.085.448-.179.663-.279,3.428-1.595,6.134-5.382,6.134-8.441Z" fill="#ffdfcf" fill-rule="evenodd"/>
        </g>
        <g id="Grupo_85350" data-name="Grupo 85350">
          <path id="Trazado_118774" data-name="Trazado 118774" d="M77.43,7.492V2.205a.889.889,0,0,0-.887-.887h-5.86a.889.889,0,0,1,.887.887V7.492a.892.892,0,0,1-.887.887h5.86A.892.892,0,0,0,77.43,7.492Z" fill="#f0f0f0" fill-rule="evenodd"/>
        </g>
        <g id="Grupo_85351" data-name="Grupo 85351">
          <path id="Trazado_118775" data-name="Trazado 118775" d="M75.3,82.274V8.379h-5.86V82.274Z" fill="#dbeaff" fill-rule="evenodd"/>
        </g>
        <g id="Grupo_85352" data-name="Grupo 85352">
          <path id="Trazado_118776" data-name="Trazado 118776" d="M82.881,87.725V83.23a.957.957,0,0,0-.957-.957H76.069a.956.956,0,0,1,.952.957v4.495a.959.959,0,0,1-.952.957h5.855A.96.96,0,0,0,82.881,87.725Z" fill="#6a5d6a" fill-rule="evenodd"/>
        </g>
        <g id="Grupo_85353" data-name="Grupo 85353">
          <path id="Trazado_118777" data-name="Trazado 118777" d="M37.668,65.193v-15.4H34.335v15.4a.878.878,0,0,1-.877.877h3.333a.881.881,0,0,0,.877-.877Z" fill="#6a5d6a" fill-rule="evenodd"/>
        </g>
        <g id="Grupo_85354" data-name="Grupo 85354">
          <path id="Trazado_118778" data-name="Trazado 118778" d="M44.016,38.316c0-6.941-4.041-11.71-10.648-11.71,6.851,3.254,7.195,8.3,7.474,13.259h3.174Z" fill="#ee6161" fill-rule="evenodd"/>
        </g>
        <g id="Grupo_85355" data-name="Grupo 85355">
          <path id="Trazado_118779" data-name="Trazado 118779" d="M44.016,39.865H40.842v9.926a3.191,3.191,0,0,1-1.589,2.75,3.171,3.171,0,0,0,4.763-2.75Z" fill="#ffdfcf" fill-rule="evenodd"/>
        </g>
        <g id="Grupo_85356" data-name="Grupo 85356">
          <path id="Trazado_118780" data-name="Trazado 118780" d="M20.129,39.865H16.955v9.926a3.191,3.191,0,0,1-1.589,2.75,3.171,3.171,0,0,0,4.763-2.75Z" fill="#ffdfcf" fill-rule="evenodd"/>
        </g>
        <g id="Grupo_85357" data-name="Grupo 85357">
          <path id="Trazado_118781" data-name="Trazado 118781" d="M37.668,40.144c-1.724,0-3.333.922-3.333,2.362v7.285h3.333Z" fill="#ee6161" fill-rule="evenodd"/>
        </g>
        <path id="Trazado_118782" data-name="Trazado 118782" d="M81.924,80.956H76.616l0-35.689a1.318,1.318,0,1,0-2.637,0l0,35.689H61.05V76.2h4.935a1.318,1.318,0,0,0,0-2.637H61.05V68.813h2.095a1.318,1.318,0,1,0,0-2.637H61.05V61.424h4.935a1.318,1.318,0,0,0,0-2.637H61.05V54.034h2.095a1.318,1.318,0,0,0,0-2.637H61.05V46.645h4.935a1.318,1.318,0,0,0,0-2.637H61.05V39.255h2.095a1.318,1.318,0,1,0,0-2.637H61.05V31.866h4.935a1.318,1.318,0,0,0,0-2.637H61.05V24.477h2.095a1.318,1.318,0,1,0,0-2.637H61.05V17.087h4.935a1.318,1.318,0,0,0,0-2.637H61.05V9.7H73.979V39.206a1.318,1.318,0,1,0,2.637,0V9.694a2.206,2.206,0,0,0,2.133-2.2V2.205A2.208,2.208,0,0,0,76.543,0H36.113a1.318,1.318,0,0,0,0,2.637h13.1V4.846A4.854,4.854,0,0,0,54.061,9.7h4.352V80.956H43.818c-.483-2.649-3.22-4.859-6-5.573a5.018,5.018,0,0,1-.563-.173c-.02-.2-.02-.554-.02-.784V67.342a2.2,2.2,0,0,0,1.749-2.149V53.885a4.489,4.489,0,0,0,6.348-4.094V38.316a13.744,13.744,0,0,0-3.181-9.335,10.813,10.813,0,0,0-5.741-3.356,10.462,10.462,0,0,0,2.867-6.568V16.287a11.753,11.753,0,0,0-3.219-8.535,10.262,10.262,0,0,0-7.141-3h-.043a10.262,10.262,0,0,0-7.144,3,11.754,11.754,0,0,0-3.216,8.535v2.77a10.464,10.464,0,0,0,2.865,6.568,10.817,10.817,0,0,0-5.743,3.356,13.741,13.741,0,0,0-3.181,9.335V49.791a4.493,4.493,0,0,0,6.353,4.094V65.193a2.2,2.2,0,0,0,1.749,2.149v7.084c0,.229,0,.581-.02.783a4.938,4.938,0,0,1-.565.173c-2.779.714-5.515,2.924-6,5.574h-3.66A4.525,4.525,0,0,0,5.8,85.478V87.82A2.18,2.18,0,0,0,7.976,90H81.924A2.278,2.278,0,0,0,84.2,87.725V83.231a2.277,2.277,0,0,0-2.275-2.275ZM51.852,4.846V2.637h24.26V7.061H54.061a2.214,2.214,0,0,1-2.209-2.214ZM41.092,80.956H30.217V67.388H34.6v7.038c0,1.933.252,2.91,2.56,3.509A6.153,6.153,0,0,1,41.092,80.956ZM42.7,49.791a1.856,1.856,0,1,1-3.711,0V41.184H42.7ZM28.9,7.391a7.842,7.842,0,0,1,7.626,7.166,4.306,4.306,0,0,1-.912-.773A3.507,3.507,0,0,0,33,12.465a4.074,4.074,0,0,0-1.02.138c-.475.122-2.7.716-3.08.716s-2.6-.594-3.079-.716a3.386,3.386,0,0,0-3.637,1.181,4.338,4.338,0,0,1-.91.771A7.843,7.843,0,0,1,28.9,7.391ZM21.154,19.057V17.413a5.744,5.744,0,0,0,2.913-1.784c.568-.58.59-.6,1.1-.473a28.344,28.344,0,0,0,3.736.8,28.378,28.378,0,0,0,3.737-.8c.5-.13.525-.107,1.092.471a5.738,5.738,0,0,0,2.916,1.786v1.643c0,2.765-2.829,6.332-5.937,7.484a4.606,4.606,0,0,1-3.621,0c-3.1-1.151-5.931-4.718-5.931-7.484Zm10.869,9.8A3.335,3.335,0,0,1,28.9,32.009a3.334,3.334,0,0,1-3.124-3.152q.2.083.395.156a7.214,7.214,0,0,0,5.454,0c.134-.049.267-.1.4-.158ZM23.111,28v.409A6.032,6.032,0,0,0,28.9,34.646a6.032,6.032,0,0,0,5.788-6.237V28c4.976.57,8.011,4.411,8.011,10.315v.231h-5.03a1.318,1.318,0,0,0-1.318,1.318v8.607H31.724a1.318,1.318,0,1,0,0,2.637H36.35V64.751H30.217V57.986h1.352a1.318,1.318,0,1,0,0-2.637H26.228a1.318,1.318,0,1,0,0,2.637H27.58v6.766H21.447V51.109h4.671a1.318,1.318,0,0,0,0-2.637H21.447V39.865a1.318,1.318,0,0,0-1.318-1.318H15.095v-.231c0-5.9,3.037-9.746,8.016-10.315ZM16.955,51.652a1.863,1.863,0,0,1-1.86-1.861V41.184h3.716v8.607A1.86,1.86,0,0,1,16.955,51.652Zm3.679,26.283c2.31-.6,2.563-1.574,2.563-3.509V67.388H27.58V80.956H16.7a6.145,6.145,0,0,1,3.93-3.021Zm60.929,9.429H8.438V85.478a1.885,1.885,0,0,1,1.881-1.886H81.562Z"/>
      </g>
    </g>
  </g>
</svg>
