<svg xmlns="http://www.w3.org/2000/svg" xmlns:xlink="http://www.w3.org/1999/xlink" width="103" height="95.369" viewBox="0 0 103 95.369">
  <defs>
    <clipPath id="clip-path">
      <rect id="Rectángulo_34317" data-name="Rectángulo 34317" width="90" height="90" transform="translate(867 7436.369)" fill="#fff"/>
    </clipPath>
  </defs>
  <g id="Grupo_88091" data-name="Grupo 88091" transform="translate(-854 -7424)">
    <circle id="Elipse_4821" data-name="Elipse 4821" cx="36" cy="36" r="36" transform="translate(854 7424)" fill="#ffd947"/>
    <g id="Enmascarar_grupo_108" data-name="Enmascarar grupo 108" transform="translate(0 -7)" clip-path="url(#clip-path)">
      <g id="tormenta" transform="translate(867 7436.369)">
        <g id="Grupo_85360" data-name="Grupo 85360">
          <path id="Trazado_118783" data-name="Trazado 118783" d="M52.28,24.614a7.28,7.28,0,1,1,.679-14.529,1.4,1.4,0,0,0,1.435-.949A11.6,11.6,0,0,1,74.671,6a2.817,2.817,0,0,0,2.283,1.143h.055a8.736,8.736,0,0,1,8.735,8.885,8.829,8.829,0,0,1-8.879,8.587H52.28Z" fill="#ddeafb"/>
          <path id="Trazado_118784" data-name="Trazado 118784" d="M77.009,7.142h-.055A2.817,2.817,0,0,1,74.671,6,11.6,11.6,0,0,0,63.343,1.5,11.6,11.6,0,0,1,70.628,6a2.817,2.817,0,0,0,2.283,1.143h.055A8.736,8.736,0,0,1,81.7,16.028a8.829,8.829,0,0,1-8.879,8.587h4.043a8.829,8.829,0,0,0,8.879-8.587,8.736,8.736,0,0,0-8.735-8.885Z" fill="#bed8fb"/>
          <g id="Grupo_85359" data-name="Grupo 85359">
            <g id="Grupo_85358" data-name="Grupo 85358">
              <path id="Trazado_118785" data-name="Trazado 118785" d="M77.032,30.439h0a.48.48,0,0,1-.459-.35A11.65,11.65,0,0,0,59.9,23.073a1.411,1.411,0,0,1-1.842-.438,8.743,8.743,0,0,0-9.283-3.6,1.405,1.405,0,0,1-1.674-.9A16.018,16.018,0,0,0,15.88,23.159c0,.2.005.4.014.6a.831.831,0,0,1-.177.545l-.012.016a.852.852,0,0,1-.628.323,14.558,14.558,0,0,0,.987,29.093h60.8a11.649,11.649,0,1,0,.174-23.3Z" fill="#ecf4ff"/>
              <path id="Trazado_118786" data-name="Trazado 118786" d="M77.032,30.439h0a.48.48,0,0,1-.459-.35A11.65,11.65,0,0,0,59.9,23.073a1.411,1.411,0,0,1-1.842-.438,8.743,8.743,0,0,0-9.283-3.6,1.405,1.405,0,0,1-1.674-.9A16.018,16.018,0,0,0,15.88,23.159c0,.2.005.4.014.6a.831.831,0,0,1-.177.545l-.012.016a.852.852,0,0,1-.628.323,14.558,14.558,0,0,0,.987,29.093h60.8a11.649,11.649,0,1,0,.174-23.3Z" fill="#ecf4ff"/>
              <path id="Trazado_118787" data-name="Trazado 118787" d="M77.032,30.439h0a.48.48,0,0,1-.459-.35,11.652,11.652,0,0,0-13.2-8.209,11.663,11.663,0,0,1,9.162,8.209.48.48,0,0,0,.459.35h0a11.649,11.649,0,1,1-.174,23.3h4.043a11.649,11.649,0,1,0,.174-23.3Z" fill="#ddeafb"/>
            </g>
          </g>
          <path id="Trazado_118788" data-name="Trazado 118788" d="M40.384,47.911H51.716A1.456,1.456,0,0,1,53.1,49.827L48.55,63.466a1.456,1.456,0,0,0,1.381,1.916H52.81a1.456,1.456,0,0,1,1.3,2.12L43.452,88.3a.728.728,0,0,1-1.353-.477l2.6-14.915a1.456,1.456,0,0,0-1.434-1.706H36.562a1.456,1.456,0,0,1-1.431-1.724L38.953,49.1a1.456,1.456,0,0,1,1.431-1.188Z" fill="#ffe07d"/>
          <path id="Trazado_118789" data-name="Trazado 118789" d="M52.81,65.383H49.932a1.456,1.456,0,0,1-1.381-1.916L53.1,49.827a1.456,1.456,0,0,0-1.381-1.916H47.673a1.456,1.456,0,0,1,1.381,1.916L44.508,63.466a1.456,1.456,0,0,0,1.381,1.916h2.878a1.456,1.456,0,0,1,1.3,2.12l-6.7,13.082L42.1,87.828a.728.728,0,0,0,1.353.477L54.106,67.5a1.456,1.456,0,0,0-1.3-2.12Z" fill="#ffd064"/>
        </g>
        <g id="Grupo_85361" data-name="Grupo 85361">
          <path id="Trazado_118790" data-name="Trazado 118790" d="M77.649,29.135a12.9,12.9,0,0,0-1.626-3.2l1.009,0a10.054,10.054,0,0,0,0-20.109c-.274,0-.551.012-.829.035A12.921,12.921,0,0,0,53.144,8.777q-.419-.041-.842-.041a8.633,8.633,0,0,0-6.929,3.527A17.331,17.331,0,0,0,21.592,9.218a1.318,1.318,0,1,0,1.568,2.119A14.716,14.716,0,0,1,44.317,15.28l.163.266a14.7,14.7,0,0,1,1.437,3.2,10.055,10.055,0,0,0-5.148,8.779,1.318,1.318,0,1,0,2.637,0,7.416,7.416,0,0,1,4.567-6.85h0a7.424,7.424,0,0,1,9.56,3.684,1.318,1.318,0,0,0,1.946.517,10.329,10.329,0,0,1,15.911,5.9,1.313,1.313,0,0,0,1.318.99s.246-.009.324-.009A10.33,10.33,0,1,1,66.7,42.087a1.318,1.318,0,1,0-2.637,0,12.952,12.952,0,0,0,5.14,10.33H53.623l.724-2.172a2.774,2.774,0,0,0-2.632-3.652H40.384a2.776,2.776,0,0,0-2.727,2.263l-.668,3.561H23.983a1.318,1.318,0,1,0,0,2.637H36.5L33.835,69.24a2.774,2.774,0,0,0,2.727,3.286h6.705a.137.137,0,0,1,.136.161L40.8,87.612a2.018,2.018,0,0,0,1.338,2.266,2.1,2.1,0,0,0,.7.121A2.016,2.016,0,0,0,44.6,88.952l.025-.046L55.279,68.1a2.774,2.774,0,0,0-2.469-4.039H49.932a.138.138,0,0,1-.131-.181l2.943-8.83H77.032a12.967,12.967,0,0,0,.618-25.919ZM59.193,21.957a10.063,10.063,0,0,0-10.818-4.184,17.31,17.31,0,0,0-1.381-3.12,5.941,5.941,0,0,1,6.77-3.1,1.318,1.318,0,0,0,1.607-.979A10.282,10.282,0,0,1,73.411,6.5a10.032,10.032,0,0,0-6.434,9.383,1.318,1.318,0,0,0,2.637,0,7.4,7.4,0,0,1,6.106-7.3c.009,0,.89-.116,1.312-.116a7.418,7.418,0,0,1,0,14.835l-3.469-.007a12.971,12.971,0,0,0-14.372-1.332ZM47.3,63.049A2.774,2.774,0,0,0,49.932,66.7H52.81a.138.138,0,0,1,.122.2L44.069,84.208,46,73.14a2.774,2.774,0,0,0-2.733-3.251H36.562a.138.138,0,0,1-.135-.163L39.375,54v0l.873-4.658a.137.137,0,0,1,.135-.112H51.715a.138.138,0,0,1,.131.181l-1.31,3.93v0Z"/>
          <path id="Trazado_118791" data-name="Trazado 118791" d="M18.71,52.416H15.88a13.242,13.242,0,0,1-.013-26.484l.075,0h0a13.256,13.256,0,0,1,13.178,13.24,1.318,1.318,0,0,0,2.637,0A15.9,15.9,0,0,0,17.2,23.351c0-.064,0-.13,0-.193a14.61,14.61,0,0,1,2.61-8.364,1.318,1.318,0,0,0-2.167-1.5,17.235,17.235,0,0,0-3.08,9.866q0,.1,0,.192a15.879,15.879,0,0,0,1.317,31.7h2.83a1.318,1.318,0,1,0,0-2.636Z"/>
          <path id="Trazado_118792" data-name="Trazado 118792" d="M7.144,58.24a1.318,1.318,0,0,0-1.318,1.318V71.207a1.318,1.318,0,0,0,2.637,0V59.559A1.318,1.318,0,0,0,7.144,58.24Z"/>
          <path id="Trazado_118793" data-name="Trazado 118793" d="M26.072,58.24a1.318,1.318,0,0,0-1.318,1.318V71.207a1.318,1.318,0,0,0,2.637,0V59.559A1.318,1.318,0,0,0,26.072,58.24Z"/>
          <path id="Trazado_118794" data-name="Trazado 118794" d="M16.607,75.712a1.318,1.318,0,0,0-1.318,1.318V88.679a1.318,1.318,0,0,0,2.637,0V77.031A1.318,1.318,0,0,0,16.607,75.712Z"/>
          <path id="Trazado_118795" data-name="Trazado 118795" d="M63.928,58.24a1.318,1.318,0,0,0-1.318,1.318V71.207a1.318,1.318,0,0,0,2.637,0V59.559A1.318,1.318,0,0,0,63.928,58.24Z"/>
          <path id="Trazado_118796" data-name="Trazado 118796" d="M82.856,58.24a1.318,1.318,0,0,0-1.318,1.318V71.207a1.318,1.318,0,0,0,2.637,0V59.559A1.318,1.318,0,0,0,82.856,58.24Z"/>
          <path id="Trazado_118797" data-name="Trazado 118797" d="M73.392,75.712a1.318,1.318,0,0,0-1.318,1.318V88.679a1.318,1.318,0,0,0,2.637,0V77.031A1.318,1.318,0,0,0,73.392,75.712Z"/>
        </g>
      </g>
    </g>
  </g>
</svg>
