<svg xmlns="http://www.w3.org/2000/svg" xmlns:xlink="http://www.w3.org/1999/xlink" width="85" height="85" viewBox="0 0 85 85">
  <defs>
    <clipPath id="clip-path">
      <rect id="Rectángulo_34768" data-name="Rectángulo 34768" width="85" height="85" transform="translate(390 10261)" fill="#fff" stroke="#707070" stroke-width="1"/>
    </clipPath>
  </defs>
  <g id="Enmascarar_grupo_111" data-name="Enmascarar grupo 111" transform="translate(-390 -10261)" clip-path="url(#clip-path)">
    <g id="voto-positivo" transform="translate(390.574 10261)">
      <path id="Trazado_118816" data-name="Trazado 118816" d="M75.657,46.553A37.126,37.126,0,1,1,38.53,9.426,37.127,37.127,0,0,1,75.657,46.553Zm0,0" fill="#937de2"/>
      <path id="Trazado_118817" data-name="Trazado 118817" d="M38.53,9.426a37.446,37.446,0,0,0-5.77.447,37.131,37.131,0,0,1,0,73.358A37.128,37.128,0,1,0,38.53,9.426Zm0,0" fill="#7570d6"/>
      <path id="Trazado_118818" data-name="Trazado 118818" d="M80.292,43.808l-21.2,14.039a7.219,7.219,0,0,1-5.128,1.112,7.243,7.243,0,0,0-5.141,1.109l-2.837,1.88L30.1,38.527l3.9-16.841A17.571,17.571,0,0,0,31.526,8.018,4.2,4.2,0,0,1,37.954,2.68l2.525,2.446a27,27,0,0,1,6.515,9.987l1.37,3.687,14.1-9.317A4.809,4.809,0,0,1,69.2,10.95a4.872,4.872,0,0,1-1.51,6.606.053.053,0,0,0-.019.067.054.054,0,0,0,.069.027,4.764,4.764,0,0,1,1.719-.319,4.806,4.806,0,0,1,4.721,5.741,4.915,4.915,0,0,1-2.016,3.045.1.1,0,0,0-.027.143,0,0,0,0,0,0,0,.1.1,0,0,0,.136.027,4.929,4.929,0,0,1,1.167-.137,5.069,5.069,0,0,1,2.712.786,4.724,4.724,0,0,1,1.4,1.376A4.807,4.807,0,0,1,76.2,34.977c-.054.037-.109.074-.163.109a.075.075,0,0,0-.025.094.045.045,0,0,0,.018.018.077.077,0,0,0,.1,0,4.708,4.708,0,0,1,4.08.525,4.882,4.882,0,0,1,1.436,1.424,4.81,4.81,0,0,1-1.353,6.665Zm0,0" fill="#fdd7bd"/>
      <path id="Trazado_118819" data-name="Trazado 118819" d="M46.188,66.392l-8.943,5.923L24.332,80.866A37.166,37.166,0,0,1,1.754,51.656l14.985-9.923,9.122-6.041a2.281,2.281,0,0,1,3.163.645l17.81,26.891a2.284,2.284,0,0,1-.645,3.165Zm0,0" fill="#87dbff"/>
      <path id="Trazado_118820" data-name="Trazado 118820" d="M46.188,66.392l-8.943,5.923L16.738,41.732l9.122-6.041a2.281,2.281,0,0,1,3.163.645l17.81,26.891a2.284,2.284,0,0,1-.645,3.165Zm0,0" fill="#6fc7ff"/>
      <g id="Grupo_85398" data-name="Grupo 85398">
        <path id="Trazado_118821" data-name="Trazado 118821" d="M72.081,18.1l-7.054,3.775a2.285,2.285,0,0,1-2.915-.656l5.562-3.6a.053.053,0,0,0,.069.027,4.764,4.764,0,0,1,1.719-.319,4.843,4.843,0,0,1,2.621.772Zm0,0" fill="#fac5aa"/>
        <path id="Trazado_118822" data-name="Trazado 118822" d="M76.157,26.938l-6.9,3.69a2.283,2.283,0,0,1-2.915-.654l5.562-3.6.24-.113a.1.1,0,0,0,.136.027,4.937,4.937,0,0,1,1.167-.137,5.06,5.06,0,0,1,2.712.786Zm0,0" fill="#fac5aa"/>
        <path id="Trazado_118823" data-name="Trazado 118823" d="M80.209,35.719l-6.078,3.252a2.286,2.286,0,0,1-2.914-.656L76.034,35.2a.077.077,0,0,0,.1,0,4.708,4.708,0,0,1,4.08.525Zm0,0" fill="#fac5aa"/>
      </g>
      <path id="Trazado_118824" data-name="Trazado 118824" d="M82.747,36.414a6.088,6.088,0,0,0-3.77-2.6,6.123,6.123,0,0,0-4.084-8.827,6.138,6.138,0,0,0-.317-6.237,6.083,6.083,0,0,0-3.77-2.6A6.129,6.129,0,0,0,61.995,8.2l-6.1,4.041a38.134,38.134,0,0,0-10.3-3.487A28.332,28.332,0,0,0,41.657,4L39.132,1.549a5.524,5.524,0,0,0-8.451,7.016q.1.151.2.3A38.449,38.449,0,1,0,74.7,59.612a1.321,1.321,0,1,0-2.486-.9A35.852,35.852,0,0,1,27.225,80.535l10.753-7.121h0l8.937-5.918h0a3.6,3.6,0,0,0,1.016-5l-.118-.179,1.736-1.15a5.887,5.887,0,0,1,4.2-.907,8.522,8.522,0,0,0,6.073-1.313l14.4-9.536a35.882,35.882,0,0,1-.487,3.712,1.321,1.321,0,0,0,1.058,1.541,1.289,1.289,0,0,0,.243.023,1.322,1.322,0,0,0,1.3-1.081,38.654,38.654,0,0,0,.632-6.011l4.058-2.687a6.131,6.131,0,0,0,1.726-8.5ZM53.326,13.939l-4.038,2.674-.8-2.142a28.283,28.283,0,0,0-1.134-2.627,35.478,35.478,0,0,1,5.967,2.095ZM11.474,23.1A35.808,35.808,0,0,1,32.141,11.318a16.328,16.328,0,0,1,.824,9.889L29.743,35.128a3.6,3.6,0,0,0-4.613-.538L16,40.634h0L2.836,49.353c-.072-.929-.11-1.864-.11-2.8A35.794,35.794,0,0,1,11.474,23.1Zm34.4,41.577a.957.957,0,0,1-.412.611h0l-7.849,5.2L23.041,48.761a1.322,1.322,0,0,0-2.2,1.472L35.405,71.947,24.2,79.368A35.915,35.915,0,0,1,3.181,52.244l13.18-8.7,1.517,2.263a1.322,1.322,0,1,0,2.2-1.472l-1.506-2.247,8.022-5.295a.962.962,0,0,1,1.332.272L45.731,63.957a.953.953,0,0,1,.14.721ZM81.053,40.493a3.463,3.463,0,0,1-1.492,2.213l-4.639,3.072,0,0L58.361,56.745a5.884,5.884,0,0,1-4.2.907,8.526,8.526,0,0,0-6.073,1.313l-1.736,1.15L31.771,38.09,35.541,21.8a18.989,18.989,0,0,0-1.39-12.465,1.3,1.3,0,0,0-.056-.117,18.7,18.7,0,0,0-1.209-2.115,2.881,2.881,0,0,1,4.407-3.659l2.525,2.447a25.823,25.823,0,0,1,6.2,9.5l1.375,3.7.008.019.01.026c.01.023.019.043.029.061a1.3,1.3,0,0,0,.091.163,1.321,1.321,0,0,0,1.831.372l14.1-9.334a3.487,3.487,0,0,1,3.851,5.814l-1.224.811h0l-2.73,1.808-.01.007c-.016.011-.03.021-.043.032A1.321,1.321,0,0,0,64.81,21.04l2.731-1.809a3.487,3.487,0,0,1,3.849,5.816l-3.955,2.619a1.321,1.321,0,1,0,1.459,2.2l.612-.405,2.118-1.4a3.487,3.487,0,0,1,3.851,5.815L73.5,35.185l-.031.021L71.522,36.5a1.322,1.322,0,1,0,1.459,2.2l.612-.405h0l2.118-1.4a3.486,3.486,0,0,1,5.342,3.6Zm0,0"/>
    </g>
  </g>
</svg>
