<svg xmlns="http://www.w3.org/2000/svg" xmlns:xlink="http://www.w3.org/1999/xlink" width="85" height="85" viewBox="0 0 85 85">
  <defs>
    <clipPath id="clip-path">
      <rect id="Rectángulo_34769" data-name="Rectángulo 34769" width="85" height="85" transform="translate(390 10389)" fill="#fff" stroke="#707070" stroke-width="1"/>
    </clipPath>
  </defs>
  <g id="Enmascarar_grupo_112" data-name="Enmascarar grupo 112" transform="translate(-390 -10389)" clip-path="url(#clip-path)">
    <g id="anonimo" transform="translate(394.54 10389)">
      <path id="Trazado_118825" data-name="Trazado 118825" d="M71.774,83.7H4.147a2.845,2.845,0,0,1-2.758-3.543L4.529,67.767a11.725,11.725,0,0,1,7.3-8.12l16.543-6.11a1.575,1.575,0,0,1,1.343.119l8.242,4.838,8.164-4.861a1.573,1.573,0,0,1,1.351-.124l16.614,6.137a11.725,11.725,0,0,1,7.3,8.12l3.139,12.389A2.845,2.845,0,0,1,71.774,83.7Zm0,0" fill="#868491"/>
      <path id="Trazado_118826" data-name="Trazado 118826" d="M28.525,58.495l4.684-2.789-3.491-2.05a1.577,1.577,0,0,0-1.343-.119l-5.091,1.88Zm0,0" fill="#787784"/>
      <path id="Trazado_118827" data-name="Trazado 118827" d="M74.532,80.156,71.393,67.767a11.725,11.725,0,0,0-7.3-8.12L47.476,53.509a1.576,1.576,0,0,0-1.351.125L43.158,55.4l11.5,4.247a11.725,11.725,0,0,1,7.3,8.12L65.1,80.156A2.846,2.846,0,0,1,62.339,83.7h9.435a2.845,2.845,0,0,0,2.758-3.543Zm0,0" fill="#787784"/>
      <path id="Trazado_118828" data-name="Trazado 118828" d="M28.374,53.536,22.85,55.577l7.656,7.614a1.479,1.479,0,0,0,2.018.064l5.436-4.761-8.243-4.838a1.575,1.575,0,0,0-1.343-.119Zm0,0" fill="#4f495b"/>
      <path id="Trazado_118829" data-name="Trazado 118829" d="M47.475,53.51l5.6,2.067L45.177,63.2a1.48,1.48,0,0,1-2.025.029L37.96,58.494l8.163-4.86a1.573,1.573,0,0,1,1.351-.125Zm0,0" fill="#4f495b"/>
      <path id="Trazado_118830" data-name="Trazado 118830" d="M37.984,50.777A6.25,6.25,0,0,1,31.711,44.5v-7.7a8.608,8.608,0,0,1,7.319-8.531,7.38,7.38,0,1,0-6.32-12.568,7.324,7.324,0,0,0-2.224,5.279,6.153,6.153,0,0,1-6.125,6.154,6.259,6.259,0,0,1-6.181-6.393A19.685,19.685,0,1,1,44.86,39.392a1.3,1.3,0,0,0-.842,1.207v4.025A6.154,6.154,0,0,1,37.984,50.777Zm0,0" fill="#ffd782"/>
      <path id="Trazado_118831" data-name="Trazado 118831" d="M30.486,20.987A7.374,7.374,0,0,1,37.1,13.65a7.358,7.358,0,0,0-11.816,5.864,6.155,6.155,0,0,1-5.012,6.046,6.014,6.014,0,0,0,4.087,1.581,6.153,6.153,0,0,0,6.125-6.154Zm0,0" fill="#ffc36f"/>
      <path id="Trazado_118832" data-name="Trazado 118832" d="M57.545,20.516A19.746,19.746,0,0,0,40.567,1.486a19.688,19.688,0,0,1,1.752,35.187,6.873,6.873,0,0,0-3.5,5.989v.488A6.154,6.154,0,0,1,33.805,49.2a6.049,6.049,0,0,0,4.179,1.58,6.154,6.154,0,0,0,6.034-6.153V40.6a1.294,1.294,0,0,1,.842-1.207A19.693,19.693,0,0,0,57.545,20.516Zm0,0" fill="#ffc36f"/>
      <path id="Trazado_118833" data-name="Trazado 118833" d="M75.793,79.837l-1.617-6.381a1.3,1.3,0,0,0-2.521.638l1.617,6.381a1.545,1.545,0,0,1-1.5,1.925H4.147a1.545,1.545,0,0,1-1.5-1.924L5.789,68.086a10.422,10.422,0,0,1,6.493-7.219l10.24-3.783,8.047,8a1.3,1.3,0,0,0,1.774.056l5.6-4.906L43.3,65.126a1.3,1.3,0,0,0,1.779-.025l8.306-8.021,10.252,3.787a10.422,10.422,0,0,1,6.493,7.22l.34,1.343a1.3,1.3,0,1,0,2.521-.639l-.34-1.342a13.022,13.022,0,0,0-8.113-9.021L47.926,52.29a2.864,2.864,0,0,0-2.468.226l-.591.352-6.912,4.115-6.524-3.829-1.055-.619a2.86,2.86,0,0,0-2.452-.218L22.4,54.358l0,0L11.381,58.428a13.018,13.018,0,0,0-8.113,9.02L.129,79.838A4.145,4.145,0,0,0,4.147,85H71.774a4.145,4.145,0,0,0,4.019-5.163ZM31.542,62.388l-6.331-6.3,3.614-1.335a.272.272,0,0,1,.235.021l.16.093L35.748,58.7Zm12.611-.005-4.021-3.668L44.9,55.873l1.884-1.122a.273.273,0,0,1,.236-.021l3.655,1.35Zm0,0"/>
      <path id="Trazado_118834" data-name="Trazado 118834" d="M36.661,64.8V78.663a1.3,1.3,0,1,0,2.6,0V64.8a1.3,1.3,0,1,0-2.6,0Zm0,0"/>
      <path id="Trazado_118835" data-name="Trazado 118835" d="M24.258,8.619c.244-.268.5-.532.759-.786A18.387,18.387,0,1,1,44.4,38.177a2.61,2.61,0,0,0-1.68,2.421v4.026a4.877,4.877,0,0,1-4.759,4.853,4.748,4.748,0,0,1-3.436-1.388A5.059,5.059,0,0,1,33.01,44.5v-7.7a7.314,7.314,0,0,1,6.222-7.246,8.677,8.677,0,0,0,4.952-2.63,1.3,1.3,0,1,0-1.9-1.778,5.982,5.982,0,0,1-3.46,1.84,9.9,9.9,0,0,0-8.417,9.815v7.7A7.675,7.675,0,0,0,32.7,49.945a7.334,7.334,0,0,0,5.165,2.133h.142a7.491,7.491,0,0,0,7.31-7.452l0-4.017A20.994,20.994,0,0,0,38.365.006,20.841,20.841,0,0,0,23.2,5.973c-.3.289-.586.589-.864.894a1.3,1.3,0,1,0,1.921,1.753Zm0,0"/>
      <path id="Trazado_118836" data-name="Trazado 118836" d="M24.332,28.441h.034a7.47,7.47,0,0,0,7.419-7.454,6.078,6.078,0,0,1,6.229-6.077,6.137,6.137,0,0,1,5.926,5.926,1.3,1.3,0,0,0,2.6-.061,8.767,8.767,0,0,0-8.466-8.465,8.68,8.68,0,0,0-8.89,8.677,4.863,4.863,0,0,1-4.831,4.853,4.743,4.743,0,0,1-3.4-1.423,5.132,5.132,0,0,1-1.479-3.656,18.159,18.159,0,0,1,2.068-8.275,1.3,1.3,0,0,0-2.3-1.2,20.742,20.742,0,0,0-2.363,9.449,7.749,7.749,0,0,0,2.233,5.517,7.3,7.3,0,0,0,5.22,2.192Zm0,0"/>
    </g>
  </g>
</svg>
