<svg xmlns="http://www.w3.org/2000/svg" xmlns:xlink="http://www.w3.org/1999/xlink" width="85" height="85" viewBox="0 0 85 85">
  <defs>
    <clipPath id="clip-path">
      <rect id="Rectángulo_34770" data-name="Rectángulo 34770" width="85" height="85" transform="translate(390 10538)" fill="#fff" stroke="#707070" stroke-width="1"/>
    </clipPath>
  </defs>
  <g id="Enmascarar_grupo_113" data-name="Enmascarar grupo 113" transform="translate(-390 -10538)" clip-path="url(#clip-path)">
    <g id="vota-si" transform="translate(404.656 10538)">
      <path id="Trazado_118837" data-name="Trazado 118837" d="M1.247,4.606V34.582a3.359,3.359,0,0,0,3.359,3.359H20.192a2.068,2.068,0,0,1,1.462.606l4.918,4.918a2.068,2.068,0,0,0,2.924,0l4.918-4.918a2.068,2.068,0,0,1,1.462-.606H51.082a3.36,3.36,0,0,0,3.36-3.359V4.606a3.36,3.36,0,0,0-3.36-3.36H4.606a3.36,3.36,0,0,0-3.359,3.36Zm0,0" fill="#2fa39b"/>
      <path id="Trazado_118838" data-name="Trazado 118838" d="M27.583,38.547l-2.964,2.964,1.953,1.953a2.067,2.067,0,0,0,2.924,0l4.918-4.918a2.068,2.068,0,0,1,1.462-.606H29.044a2.065,2.065,0,0,0-1.462.606Zm0,0" fill="#29998b"/>
      <path id="Trazado_118839" data-name="Trazado 118839" d="M51.082,1.246H44.251a3.36,3.36,0,0,1,3.36,3.36V34.582a3.36,3.36,0,0,1-3.36,3.359h6.831a3.36,3.36,0,0,0,3.36-3.359V4.606a3.36,3.36,0,0,0-3.36-3.36Zm0,0" fill="#29998b"/>
      <path id="Trazado_118840" data-name="Trazado 118840" d="M23.974,28.489a2.681,2.681,0,0,1-1.9-.785l-5.689-5.689a2.68,2.68,0,1,1,3.79-3.791l3.794,3.794L34.5,11.493a2.68,2.68,0,1,1,3.79,3.791L25.869,27.7a2.68,2.68,0,0,1-1.895.785Zm0,0" fill="#cafff0"/>
      <path id="Trazado_118841" data-name="Trazado 118841" d="M41.609,55.759V71.076a6.8,6.8,0,0,1-1.419,4.156,6.8,6.8,0,0,0-1.419,4.156v2.779a24.438,24.438,0,0,1-18.75,1.707V82.648l-.132-3.989A10.294,10.294,0,0,0,17.476,73.5a10.3,10.3,0,0,1-2.545-6.778V56.274A8.237,8.237,0,0,1,17,50.813c.088-.1.178-.2.271-.292l1.611-1.653.027-.026V30.2a2.537,2.537,0,0,1,5.074-.068l.171,6.354.28,10.43a3.078,3.078,0,0,1,.15-.736,3.786,3.786,0,0,1,.832-1.439,2.836,2.836,0,0,1,4.843,2.006v4.117a2.836,2.836,0,0,1,1.908-2.68,2.794,2.794,0,0,1,.93-.158,2.837,2.837,0,0,1,2.837,2.837v4.9a2.838,2.838,0,1,1,5.675,0Zm0,0" fill="#fdd7bd"/>
      <g id="Grupo_85401" data-name="Grupo 85401">
        <path id="Trazado_118842" data-name="Trazado 118842" d="M37.842,53.078v9.5a1.908,1.908,0,0,1-1.908,1.909v-8.73a2.838,2.838,0,0,1,1.908-2.681Zm0,0" fill="#fac5aa"/>
        <path id="Trazado_118843" data-name="Trazado 118843" d="M32.167,48.183V58.463a1.909,1.909,0,0,1-1.908,1.909V50.863a2.834,2.834,0,0,1,1.908-2.68Zm0,0" fill="#fac5aa"/>
        <path id="Trazado_118844" data-name="Trazado 118844" d="M26.492,44.064v8.7a1.907,1.907,0,0,1-1.908,1.907V46.178a3.79,3.79,0,0,1,.831-1.439,2.827,2.827,0,0,1,1.077-.675Zm0,0" fill="#fac5aa"/>
        <path id="Trazado_118845" data-name="Trazado 118845" d="M18.909,48.9v10.66A1.908,1.908,0,0,1,17,57.656V50.813c.087-.1.178-.2.27-.292l1.611-1.653Zm0,0" fill="#fac5aa"/>
      </g>
      <path id="Trazado_118846" data-name="Trazado 118846" d="M51.083,0H4.606A4.611,4.611,0,0,0,0,4.6V26.662a1.246,1.246,0,0,0,2.492,0V4.6A2.116,2.116,0,0,1,4.607,2.492H51.083A2.115,2.115,0,0,1,53.2,4.6V34.582A2.115,2.115,0,0,1,51.083,36.7H35.875a3.3,3.3,0,0,0-2.343.971l-4.917,4.918a.823.823,0,0,1-1.162,0l-1.946-1.945-.28-10.379a3.9,3.9,0,0,0-.084-.7,3.9,3.9,0,0,0,1.606-.973l12.42-12.42a3.927,3.927,0,1,0-5.553-5.553l-2.56,2.56a1.246,1.246,0,0,0,1.762,1.762l2.56-2.56A1.435,1.435,0,1,1,37.409,14.4L24.989,26.823a1.433,1.433,0,0,1-1.547.318q-.149-.091-.306-.169a1.534,1.534,0,0,1-.176-.149l-5.689-5.689A1.435,1.435,0,0,1,19.3,19.1L23.094,22.9a1.245,1.245,0,0,0,1.762,0l4.3-4.3a1.246,1.246,0,1,0-1.762-1.762l-3.415,3.415-2.913-2.913A3.926,3.926,0,1,0,15.509,22.9l4.139,4.139a3.786,3.786,0,0,0-1.984,3.327V36.7H4.606a2.116,2.116,0,0,1-2.114-2.113V32.226a1.246,1.246,0,0,0-2.492,0v2.356a4.611,4.611,0,0,0,4.606,4.6H17.662V48.5l-1.283,1.316a9.442,9.442,0,0,0-2.695,6.624v5.441a1.246,1.246,0,0,0,2.492,0V56.438a6.953,6.953,0,0,1,1.486-4.311v6.521a1.246,1.246,0,1,0,2.492,0v-20.7s0-.007,0-.011,0-.008,0-.011V30.362a1.295,1.295,0,0,1,1.781-1.2c.086.053.175.1.266.148a1.283,1.283,0,0,1,.536,1.014l.6,22.345a1.246,1.246,0,0,0,2.491-.067v-.044c0-.011,0-.022,0-.034V46.908a1.591,1.591,0,0,1,3.183,0v9.737a1.246,1.246,0,0,0,2.492,0V51.025a1.591,1.591,0,0,1,3.183,0V61.541a1.246,1.246,0,0,0,2.492,0V55.921a1.592,1.592,0,0,1,3.183,0V71.238A5.58,5.58,0,0,1,39.2,74.633a8.086,8.086,0,0,0-1.679,4.918V82.33a1.246,1.246,0,0,0,2.492,0V79.551a5.578,5.578,0,0,1,1.158-3.394,8.083,8.083,0,0,0,1.679-4.918V55.921a4.083,4.083,0,0,0-5.675-3.761V51.025A4.083,4.083,0,0,0,31.5,47.265v-.357A4.063,4.063,0,0,0,30.5,44.226l4.8-4.8a.819.819,0,0,1,.582-.243H51.083a4.611,4.611,0,0,0,4.6-4.6V4.605a4.611,4.611,0,0,0-4.6-4.6Zm0,0"/>
      <path id="Trazado_118847" data-name="Trazado 118847" d="M16.176,66.889a1.246,1.246,0,0,0-2.492,0,11.538,11.538,0,0,0,2.853,7.6,9.047,9.047,0,0,1,2.237,5.957v2.367a1.246,1.246,0,0,0,2.492,0V80.444a11.535,11.535,0,0,0-2.853-7.6A9.052,9.052,0,0,1,16.176,66.889Zm0,0"/>
    </g>
  </g>
</svg>
