<svg xmlns="http://www.w3.org/2000/svg" xmlns:xlink="http://www.w3.org/1999/xlink" width="115" height="125" viewBox="0 0 115 125">
  <defs>
    <clipPath id="clip-path">
      <rect id="Rectángulo_34780" data-name="Rectángulo 34780" width="115" height="115" transform="translate(323 909)" fill="#fff" stroke="#707070" stroke-width="1"/>
    </clipPath>
  </defs>
  <g id="Grupo_85434" data-name="Grupo 85434" transform="translate(-323 -909)">
    <circle id="Elipse_4822" data-name="Elipse 4822" cx="57" cy="57" r="57" transform="translate(324 909)" fill="#3c3fa7"/>
    <g id="Enmascarar_grupo_114" data-name="Enmascarar grupo 114" transform="translate(0 10)" clip-path="url(#clip-path)">
      <g id="calendario" transform="translate(323 909)">
        <g id="Grupo_85432" data-name="Grupo 85432">
          <path id="Trazado_118848" data-name="Trazado 118848" d="M96.727,94.122H21.641a2.279,2.279,0,0,1-2.272-2.1L14.192,26H93.849L99,91.665a2.279,2.279,0,0,1-2.272,2.457Z" fill="#31a7fb"/>
          <path id="Trazado_118849" data-name="Trazado 118849" d="M98.923,90.721H32.545a6.857,6.857,0,0,1-6.59-5.018L16.067,49.9l-1.875-23.9H93.848Z" fill="#1c96f9"/>
          <path id="Trazado_118850" data-name="Trazado 118850" d="M20.293,93.678,10.139,87.722,3.676,86.9a2.279,2.279,0,0,1-1.942-2.738L14.191,26Z" fill="#1785f8"/>
          <path id="Trazado_118851" data-name="Trazado 118851" d="M14.192,26l6.1,67.683L10.139,87.722Z" fill="#1576f7"/>
          <g id="Grupo_85431" data-name="Grupo 85431">
            <path id="Trazado_118852" data-name="Trazado 118852" d="M113.231,83.277,97.872,27.667A2.279,2.279,0,0,0,95.676,26H14.192l16.156,58.5a2.279,2.279,0,0,0,2.2,1.672h78.49A2.279,2.279,0,0,0,113.231,83.277Z" fill="#eaf6ff"/>
            <path id="Trazado_118853" data-name="Trazado 118853" d="M111.034,86.163h-8.349a2.28,2.28,0,0,0,2.2-2.887L89.523,27.667a2.281,2.281,0,0,0-2.2-1.673h8.349a2.281,2.281,0,0,1,2.2,1.673l15.358,55.609A2.28,2.28,0,0,1,111.034,86.163Z" fill="#d9ecfd"/>
            <path id="Trazado_118854" data-name="Trazado 118854" d="M101.525,40.9,97.872,27.667A2.279,2.279,0,0,0,95.676,26H14.192l4.115,14.9Z" fill="#fc5a95"/>
            <path id="Trazado_118855" data-name="Trazado 118855" d="M89.523,27.667,93.177,40.9h8.349L97.872,27.667a2.281,2.281,0,0,0-2.2-1.673H87.327A2.281,2.281,0,0,1,89.523,27.667Z" fill="#fb3a82"/>
          </g>
        </g>
        <path id="Trazado_118856" data-name="Trazado 118856" d="M44.7,59.478l-2.9-9.044a2.279,2.279,0,0,0-2.17-1.583H32.951a2.279,2.279,0,0,0-2.17,2.975l2.9,9.044a2.279,2.279,0,0,0,2.17,1.583H42.53a2.279,2.279,0,0,0,2.17-2.975Z" fill="#31a7fb"/>
        <g id="Grupo_85433" data-name="Grupo 85433">
          <path id="Trazado_118857" data-name="Trazado 118857" d="M114.855,82.829l-14.82-53.657a6.8,6.8,0,0,0-11.128-7.65,6.787,6.787,0,0,0-10.233,0,6.787,6.787,0,0,0-10.233,0,6.787,6.787,0,0,0-10.233,0,6.787,6.787,0,0,0-10.233,0,6.787,6.787,0,0,0-10.233,0,6.787,6.787,0,0,0-10.233,0,6.8,6.8,0,0,0-11.715,2.826H14.545a1.686,1.686,0,0,0-2,1.295L3.58,67.505a1.684,1.684,0,1,0,3.294.705L11,48.965,8.575,85.826l-4.687-.595a.594.594,0,0,1-.506-.714l1.8-8.423a1.684,1.684,0,1,0-3.294-.705l-1.8,8.423a3.964,3.964,0,0,0,3.377,4.762l6.12.776,9.856,5.781.017.009a3.929,3.929,0,0,0,2.184.667H96.726a3.963,3.963,0,0,0,3.951-4.273l-.289-3.687h10.646a3.963,3.963,0,0,0,3.82-5.018ZM16.4,27.68h8.972a3.433,3.433,0,0,1-2.986,1.747,1.685,1.685,0,1,0,0,3.369,6.813,6.813,0,0,0,6.59-5.116h6.63a3.433,3.433,0,0,1-2.986,1.747,1.685,1.685,0,0,0,0,3.369,6.813,6.813,0,0,0,6.59-5.116h6.63a3.433,3.433,0,0,1-2.986,1.747,1.685,1.685,0,0,0,0,3.369,6.813,6.813,0,0,0,6.59-5.116h6.63a3.433,3.433,0,0,1-2.986,1.747,1.685,1.685,0,0,0,0,3.369,6.813,6.813,0,0,0,6.59-5.116h6.63a3.433,3.433,0,0,1-2.986,1.747,1.685,1.685,0,0,0,0,3.369,6.813,6.813,0,0,0,6.59-5.116h6.63a3.433,3.433,0,0,1-2.986,1.747,1.685,1.685,0,0,0,0,3.369,6.813,6.813,0,0,0,6.59-5.116h6.63a3.433,3.433,0,0,1-2.986,1.747,1.685,1.685,0,0,0,0,3.369,6.813,6.813,0,0,0,6.59-5.116h5.3a.6.6,0,0,1,.573.436l.108.389a3.416,3.416,0,0,1-2.332.921,1.685,1.685,0,0,0,0,3.369,6.761,6.761,0,0,0,3.283-.847l2.006,7.262H19.589Zm77.619-5.117A3.435,3.435,0,0,1,97.158,24.6a3.934,3.934,0,0,0-1.483-.293l-4.64,0A3.433,3.433,0,0,1,94.024,22.562Zm-10.233,0a3.433,3.433,0,0,1,2.99,1.752l-5.981,0A3.433,3.433,0,0,1,83.79,22.562Zm-10.233,0a3.433,3.433,0,0,1,2.993,1.757l-5.987,0A3.433,3.433,0,0,1,73.557,22.562Zm-10.233,0a3.433,3.433,0,0,1,3,1.762l-5.993,0A3.434,3.434,0,0,1,63.324,22.562Zm-10.233,0a3.433,3.433,0,0,1,3,1.766l-6,0A3.434,3.434,0,0,1,53.09,22.562Zm-10.233,0a3.433,3.433,0,0,1,3,1.771l-6,0A3.434,3.434,0,0,1,42.857,22.562Zm-10.233,0a3.434,3.434,0,0,1,3,1.776l-6.01,0A3.434,3.434,0,0,1,32.624,22.562Zm-10.233,0a3.434,3.434,0,0,1,3.007,1.78l-6.015,0A3.434,3.434,0,0,1,22.39,22.562ZM14.34,49.441,17.529,90.1,11.888,86.8Zm97.167,34.8a.583.583,0,0,1-.473.234H88.277a1.685,1.685,0,0,0,0,3.369h8.733l.31,3.95a.594.594,0,0,1-.592.641H21.641a.6.6,0,0,1-.592-.548l-3.8-48.514,5.748,20.814a1.685,1.685,0,0,0,3.248-.9L20.52,42.58h79.723l11.364,41.146a.583.583,0,0,1-.1.518Z"/>
          <path id="Trazado_118858" data-name="Trazado 118858" d="M80.207,84.478H32.544a.6.6,0,0,1-.573-.436l-3.582-12.97a1.685,1.685,0,0,0-3.248.9l3.582,12.969a3.974,3.974,0,0,0,3.82,2.908H80.207a1.685,1.685,0,0,0,0-3.369Z"/>
          <path id="Trazado_118859" data-name="Trazado 118859" d="M32.078,61.385a3.951,3.951,0,0,0,3.774,2.753H42.53A3.963,3.963,0,0,0,46.3,58.964l-2.9-9.044a3.951,3.951,0,0,0-3.774-2.753H32.951a3.963,3.963,0,0,0-3.774,5.174Zm.393-10.605a.583.583,0,0,1,.48-.244h6.678a.592.592,0,0,1,.566.413l2.9,9.044a.594.594,0,0,1-.566.775H35.852a.592.592,0,0,1-.566-.413l-2.9-9.044A.583.583,0,0,1,32.471,50.779Z"/>
          <path id="Trazado_118860" data-name="Trazado 118860" d="M50.356,51.219h3.11a1.685,1.685,0,0,0,0-3.369h-3.11a1.685,1.685,0,0,0,0,3.369Z"/>
          <path id="Trazado_118861" data-name="Trazado 118861" d="M60.872,51.219h3.11a1.685,1.685,0,1,0,0-3.369h-3.11a1.685,1.685,0,0,0,0,3.369Z"/>
          <path id="Trazado_118862" data-name="Trazado 118862" d="M71.388,51.219H74.5a1.685,1.685,0,0,0,0-3.369h-3.11a1.685,1.685,0,0,0,0,3.369Z"/>
          <path id="Trazado_118863" data-name="Trazado 118863" d="M81.9,51.219h3.11a1.685,1.685,0,0,0,0-3.369H81.9a1.685,1.685,0,0,0,0,3.369Z"/>
          <path id="Trazado_118864" data-name="Trazado 118864" d="M92.42,51.219h3.11a1.685,1.685,0,0,0,0-3.369H92.42a1.685,1.685,0,0,0,0,3.369Z"/>
          <path id="Trazado_118865" data-name="Trazado 118865" d="M50.91,58.719A1.684,1.684,0,0,0,52.595,60.4H55.7a1.685,1.685,0,0,0,0-3.369h-3.11A1.684,1.684,0,0,0,50.91,58.719Z"/>
          <path id="Trazado_118866" data-name="Trazado 118866" d="M61.426,58.719A1.684,1.684,0,0,0,63.111,60.4h3.11a1.685,1.685,0,0,0,0-3.369h-3.11A1.684,1.684,0,0,0,61.426,58.719Z"/>
          <path id="Trazado_118867" data-name="Trazado 118867" d="M71.942,58.719A1.684,1.684,0,0,0,73.626,60.4h3.11a1.685,1.685,0,0,0,0-3.369h-3.11A1.684,1.684,0,0,0,71.942,58.719Z"/>
          <path id="Trazado_118868" data-name="Trazado 118868" d="M88.937,58.719a1.684,1.684,0,0,0-1.685-1.685h-3.11a1.685,1.685,0,0,0,0,3.369h3.11A1.685,1.685,0,0,0,88.937,58.719Z"/>
          <path id="Trazado_118869" data-name="Trazado 118869" d="M99.453,58.719a1.684,1.684,0,0,0-1.685-1.685h-3.11a1.685,1.685,0,0,0,0,3.369h3.11A1.685,1.685,0,0,0,99.453,58.719Z"/>
          <path id="Trazado_118870" data-name="Trazado 118870" d="M53.148,67.9a1.684,1.684,0,0,0,1.685,1.685h3.11a1.685,1.685,0,0,0,0-3.369h-3.11A1.684,1.684,0,0,0,53.148,67.9Z"/>
          <path id="Trazado_118871" data-name="Trazado 118871" d="M63.664,67.9a1.684,1.684,0,0,0,1.685,1.685h3.11a1.685,1.685,0,0,0,0-3.369h-3.11A1.684,1.684,0,0,0,63.664,67.9Z"/>
          <path id="Trazado_118872" data-name="Trazado 118872" d="M74.18,67.9a1.684,1.684,0,0,0,1.685,1.685h3.11a1.685,1.685,0,0,0,0-3.369h-3.11A1.684,1.684,0,0,0,74.18,67.9Z"/>
          <path id="Trazado_118873" data-name="Trazado 118873" d="M89.49,69.587a1.685,1.685,0,0,0,0-3.369h-3.11a1.685,1.685,0,0,0,0,3.369Z"/>
          <path id="Trazado_118874" data-name="Trazado 118874" d="M100.006,69.587a1.685,1.685,0,1,0,0-3.369H96.9a1.685,1.685,0,0,0,0,3.369Z"/>
          <path id="Trazado_118875" data-name="Trazado 118875" d="M59.5,75.4h-3.11a1.685,1.685,0,1,0,0,3.369H59.5a1.685,1.685,0,0,0,0-3.369Z"/>
          <path id="Trazado_118876" data-name="Trazado 118876" d="M70.013,75.4H66.9a1.685,1.685,0,0,0,0,3.369h3.11a1.685,1.685,0,0,0,0-3.369Z"/>
          <path id="Trazado_118877" data-name="Trazado 118877" d="M80.529,75.4H77.42a1.685,1.685,0,0,0,0,3.369h3.11a1.685,1.685,0,0,0,0-3.369Z"/>
          <path id="Trazado_118878" data-name="Trazado 118878" d="M91.045,75.4h-3.11a1.685,1.685,0,0,0,0,3.369h3.11a1.685,1.685,0,0,0,0-3.369Z"/>
          <path id="Trazado_118879" data-name="Trazado 118879" d="M101.561,75.4h-3.11a1.685,1.685,0,0,0,0,3.369h3.11a1.685,1.685,0,0,0,0-3.369Z"/>
          <path id="Trazado_118880" data-name="Trazado 118880" d="M38.007,68.083a1.685,1.685,0,0,0-1.175,2.072L38.91,77.68a1.685,1.685,0,1,0,3.248-.9L40.08,69.259a1.685,1.685,0,0,0-2.072-1.175Z"/>
          <path id="Trazado_118881" data-name="Trazado 118881" d="M44.779,71.845A1.685,1.685,0,0,0,43.6,73.918l1.039,3.762a1.685,1.685,0,1,0,3.248-.9l-1.039-3.762A1.684,1.684,0,0,0,44.779,71.845Z"/>
        </g>
      </g>
    </g>
  </g>
</svg>
