<svg xmlns="http://www.w3.org/2000/svg" xmlns:xlink="http://www.w3.org/1999/xlink" width="129" height="141" viewBox="0 0 129 141">
  <defs>
    <clipPath id="clip-path">
      <rect id="Rectángulo_34780" data-name="Rectángulo 34780" width="129" height="130" transform="translate(0.36 -0.28)" fill="#fff" stroke="#707070" stroke-width="1"/>
    </clipPath>
  </defs>
  <g id="Grupo_85435" data-name="Grupo 85435" transform="translate(-316 -901)">
    <ellipse id="Elipse_4822" data-name="Elipse 4822" cx="64" cy="64.5" rx="64" ry="64.5" transform="translate(317 901)" fill="#ffd947"/>
    <g id="Enmascarar_grupo_114" data-name="Enmascarar grupo 114" transform="translate(315.64 912.28)" clip-path="url(#clip-path)">
      <g id="calendario" transform="translate(0 21.65)">
        <g id="Grupo_85432" data-name="Grupo 85432" transform="translate(1.899 7.671)">
          <path id="Trazado_118848" data-name="Trazado 118848" d="M107.291,102.842h-84.7a2.57,2.57,0,0,1-2.562-2.369L14.192,26h89.853l5.809,74.076a2.571,2.571,0,0,1-2.562,2.771Z" transform="translate(-0.082 -25.994)" fill="#31a7fb"/>
          <path id="Trazado_118849" data-name="Trazado 118849" d="M109.768,99.006H34.894a7.734,7.734,0,0,1-7.434-5.66L16.307,52.958,14.192,25.994h89.852Z" transform="translate(-0.082 -25.994)" fill="#1c96f9"/>
          <path id="Trazado_118850" data-name="Trazado 118850" d="M22.675,102.342,11.221,95.623,3.931,94.7a2.571,2.571,0,0,1-2.19-3.088L15.793,26Z" transform="translate(-1.683 -25.994)" fill="#1785f8"/>
          <path id="Trazado_118851" data-name="Trazado 118851" d="M14.71,26l6.882,76.347L10.139,95.623Z" transform="translate(-0.601 -25.994)" fill="#1576f7"/>
          <g id="Grupo_85431" data-name="Grupo 85431" transform="translate(14.109 0)">
            <path id="Trazado_118852" data-name="Trazado 118852" d="M125.908,90.609,108.583,27.881A2.57,2.57,0,0,0,106.105,26H14.192L32.415,91.978a2.57,2.57,0,0,0,2.478,1.886H123.43A2.57,2.57,0,0,0,125.908,90.609Z" transform="translate(-14.192 -25.994)" fill="#eaf6ff"/>
            <path id="Trazado_118853" data-name="Trazado 118853" d="M114.069,93.865h-9.418a2.572,2.572,0,0,0,2.478-3.257L89.8,27.881a2.573,2.573,0,0,0-2.478-1.887h9.418a2.573,2.573,0,0,1,2.478,1.887l17.324,62.727A2.572,2.572,0,0,1,114.069,93.865Z" transform="translate(-4.83 -25.994)" fill="#d9ecfd"/>
            <path id="Trazado_118854" data-name="Trazado 118854" d="M112.7,42.8l-4.121-14.921A2.57,2.57,0,0,0,106.105,26H14.192L18.834,42.8Z" transform="translate(-14.192 -25.994)" fill="#fc5a95"/>
            <path id="Trazado_118855" data-name="Trazado 118855" d="M89.8,27.881,93.926,42.8h9.418L99.222,27.881a2.573,2.573,0,0,0-2.478-1.887H87.327A2.573,2.573,0,0,1,89.8,27.881Z" transform="translate(-4.83 -25.994)" fill="#fb3a82"/>
          </g>
        </g>
        <path id="Trazado_118856" data-name="Trazado 118856" d="M46.5,60.838l-3.272-10.2a2.57,2.57,0,0,0-2.447-1.785H33.243A2.57,2.57,0,0,0,30.8,52.206l3.272,10.2a2.57,2.57,0,0,0,2.447,1.785h7.533A2.571,2.571,0,0,0,46.5,60.838Z" transform="translate(3.926 -15.397)" fill="#31a7fb"/>
        <g id="Grupo_85433" data-name="Grupo 85433" transform="translate(0 0)">
          <path id="Trazado_118857" data-name="Trazado 118857" d="M129.556,90.974,112.84,30.448a7.667,7.667,0,0,0-12.552-8.629,7.655,7.655,0,0,0-11.543,0,7.655,7.655,0,0,0-11.543,0,7.655,7.655,0,0,0-11.543,0,7.655,7.655,0,0,0-11.543,0,7.655,7.655,0,0,0-11.543,0,7.655,7.655,0,0,0-11.543,0,7.665,7.665,0,0,0-13.214,3.188H16.407a1.9,1.9,0,0,0-2.256,1.46L4.038,73.689a1.9,1.9,0,1,0,3.716.8L12.4,52.776,9.673,94.355l-5.287-.671a.671.671,0,0,1-.571-.805l2.035-9.5a1.9,1.9,0,1,0-3.716-.8L.1,92.083a4.471,4.471,0,0,0,3.809,5.371l6.9.876,11.117,6.521.019.01a4.432,4.432,0,0,0,2.463.752h84.7a4.471,4.471,0,0,0,4.457-4.82l-.326-4.158h12.008a4.471,4.471,0,0,0,4.309-5.661ZM18.5,28.766H28.625a3.872,3.872,0,0,1-3.369,1.97,1.9,1.9,0,0,0,0,3.8,7.685,7.685,0,0,0,7.433-5.771h7.479a3.872,3.872,0,0,1-3.369,1.97,1.9,1.9,0,1,0,0,3.8,7.685,7.685,0,0,0,7.433-5.771h7.479a3.872,3.872,0,0,1-3.369,1.97,1.9,1.9,0,0,0,0,3.8,7.685,7.685,0,0,0,7.433-5.771h7.479a3.872,3.872,0,0,1-3.369,1.97,1.9,1.9,0,1,0,0,3.8,7.685,7.685,0,0,0,7.433-5.771H74.8a3.872,3.872,0,0,1-3.369,1.97,1.9,1.9,0,1,0,0,3.8,7.685,7.685,0,0,0,7.433-5.771h7.479a3.872,3.872,0,0,1-3.369,1.97,1.9,1.9,0,0,0,0,3.8,7.685,7.685,0,0,0,7.433-5.771h7.479a3.872,3.872,0,0,1-3.369,1.97,1.9,1.9,0,0,0,0,3.8,7.685,7.685,0,0,0,7.433-5.771h5.973a.672.672,0,0,1,.646.492l.121.439a3.853,3.853,0,0,1-2.631,1.039,1.9,1.9,0,1,0,0,3.8,7.626,7.626,0,0,0,3.7-.956l2.262,8.192H22.1Zm87.554-5.772a3.875,3.875,0,0,1,3.536,2.3,4.438,4.438,0,0,0-1.673-.33l-5.234,0A3.872,3.872,0,0,1,106.059,22.994Zm-11.543,0a3.872,3.872,0,0,1,3.372,1.976l-6.747,0A3.872,3.872,0,0,1,94.515,22.994Zm-11.543,0a3.873,3.873,0,0,1,3.376,1.982l-6.753,0A3.872,3.872,0,0,1,82.972,22.994Zm-11.543,0a3.872,3.872,0,0,1,3.379,1.987l-6.76,0A3.873,3.873,0,0,1,71.429,22.994Zm-11.543,0a3.873,3.873,0,0,1,3.382,1.992l-6.766,0A3.873,3.873,0,0,1,59.886,22.994Zm-11.543,0a3.873,3.873,0,0,1,3.385,2l-6.773,0A3.873,3.873,0,0,1,48.343,22.994Zm-11.543,0a3.874,3.874,0,0,1,3.389,2l-6.779,0A3.873,3.873,0,0,1,36.8,22.994Zm-11.543,0A3.874,3.874,0,0,1,28.648,25l-6.785,0A3.874,3.874,0,0,1,25.256,22.994Zm-9.08,30.32,3.6,45.868L13.41,95.448ZM125.78,92.57a.658.658,0,0,1-.533.264H99.576a1.9,1.9,0,1,0,0,3.8h9.85l.349,4.456a.67.67,0,0,1-.668.723h-84.7a.674.674,0,0,1-.668-.618L19.452,46.471l6.484,23.478A1.9,1.9,0,0,0,29.6,68.937L23.146,45.573h89.928l12.818,46.412a.658.658,0,0,1-.112.584Z" transform="translate(0 -19.194)"/>
          <path id="Trazado_118858" data-name="Trazado 118858" d="M87.263,86.352H33.5a.672.672,0,0,1-.646-.492L28.813,71.23a1.9,1.9,0,0,0-3.663,1.012L29.19,86.872a4.482,4.482,0,0,0,4.309,3.28H87.263a1.9,1.9,0,0,0,0-3.8Z" transform="translate(3.21 -12.711)"/>
          <path id="Trazado_118859" data-name="Trazado 118859" d="M32.474,63.2a4.457,4.457,0,0,0,4.257,3.1h7.533a4.47,4.47,0,0,0,4.257-5.836l-3.272-10.2a4.457,4.457,0,0,0-4.257-3.105H33.459A4.471,4.471,0,0,0,29.2,53Zm.443-11.963a.657.657,0,0,1,.541-.275h7.533a.668.668,0,0,1,.638.466l3.272,10.2a.67.67,0,0,1-.638.875H36.731a.668.668,0,0,1-.638-.465l-3.272-10.2A.657.657,0,0,1,32.917,51.242Z" transform="translate(3.71 -15.613)"/>
          <path id="Trazado_118860" data-name="Trazado 118860" d="M50.571,51.651h3.508a1.9,1.9,0,0,0,0-3.8H50.571a1.9,1.9,0,0,0,0,3.8Z" transform="translate(6.23 -15.526)"/>
          <path id="Trazado_118861" data-name="Trazado 118861" d="M61.088,51.651H64.6a1.9,1.9,0,1,0,0-3.8H61.088a1.9,1.9,0,0,0,0,3.8Z" transform="translate(7.576 -15.526)"/>
          <path id="Trazado_118862" data-name="Trazado 118862" d="M71.6,51.651h3.508a1.9,1.9,0,1,0,0-3.8H71.6a1.9,1.9,0,1,0,0,3.8Z" transform="translate(8.922 -15.526)"/>
          <path id="Trazado_118863" data-name="Trazado 118863" d="M82.12,51.651h3.508a1.9,1.9,0,1,0,0-3.8H82.12a1.9,1.9,0,1,0,0,3.8Z" transform="translate(10.268 -15.526)"/>
          <path id="Trazado_118864" data-name="Trazado 118864" d="M92.636,51.651h3.508a1.9,1.9,0,1,0,0-3.8H92.636a1.9,1.9,0,0,0,0,3.8Z" transform="translate(11.614 -15.526)"/>
          <path id="Trazado_118865" data-name="Trazado 118865" d="M50.91,58.934a1.9,1.9,0,0,0,1.9,1.9h3.508a1.9,1.9,0,0,0,0-3.8H52.81A1.9,1.9,0,0,0,50.91,58.934Z" transform="translate(6.516 -14.35)"/>
          <path id="Trazado_118866" data-name="Trazado 118866" d="M61.426,58.934a1.9,1.9,0,0,0,1.9,1.9h3.508a1.9,1.9,0,1,0,0-3.8H63.326A1.9,1.9,0,0,0,61.426,58.934Z" transform="translate(7.862 -14.35)"/>
          <path id="Trazado_118867" data-name="Trazado 118867" d="M71.942,58.934a1.9,1.9,0,0,0,1.9,1.9H77.35a1.9,1.9,0,0,0,0-3.8H73.842A1.9,1.9,0,0,0,71.942,58.934Z" transform="translate(9.208 -14.35)"/>
          <path id="Trazado_118868" data-name="Trazado 118868" d="M89.766,58.934a1.9,1.9,0,0,0-1.9-1.9H84.358a1.9,1.9,0,0,0,0,3.8h3.508A1.9,1.9,0,0,0,89.766,58.934Z" transform="translate(10.555 -14.35)"/>
          <path id="Trazado_118869" data-name="Trazado 118869" d="M100.282,58.934a1.9,1.9,0,0,0-1.9-1.9H94.874a1.9,1.9,0,0,0,0,3.8h3.508A1.9,1.9,0,0,0,100.282,58.934Z" transform="translate(11.901 -14.35)"/>
          <path id="Trazado_118870" data-name="Trazado 118870" d="M53.148,68.118a1.9,1.9,0,0,0,1.9,1.9h3.508a1.9,1.9,0,0,0,0-3.8H55.049A1.9,1.9,0,0,0,53.148,68.118Z" transform="translate(6.803 -13.174)"/>
          <path id="Trazado_118871" data-name="Trazado 118871" d="M63.664,68.118a1.9,1.9,0,0,0,1.9,1.9h3.508a1.9,1.9,0,0,0,0-3.8H65.564A1.9,1.9,0,0,0,63.664,68.118Z" transform="translate(8.149 -13.174)"/>
          <path id="Trazado_118872" data-name="Trazado 118872" d="M74.18,68.118a1.9,1.9,0,0,0,1.9,1.9h3.508a1.9,1.9,0,1,0,0-3.8H76.081A1.9,1.9,0,0,0,74.18,68.118Z" transform="translate(9.495 -13.174)"/>
          <path id="Trazado_118873" data-name="Trazado 118873" d="M90.1,70.018a1.9,1.9,0,0,0,0-3.8H86.6a1.9,1.9,0,0,0,0,3.8Z" transform="translate(10.841 -13.174)"/>
          <path id="Trazado_118874" data-name="Trazado 118874" d="M100.62,70.018a1.9,1.9,0,1,0,0-3.8H97.112a1.9,1.9,0,0,0,0,3.8Z" transform="translate(12.187 -13.174)"/>
          <path id="Trazado_118875" data-name="Trazado 118875" d="M60.111,75.4H56.6a1.9,1.9,0,1,0,0,3.8h3.508a1.9,1.9,0,0,0,0-3.8Z" transform="translate(7.002 -11.999)"/>
          <path id="Trazado_118876" data-name="Trazado 118876" d="M70.627,75.4H67.119a1.9,1.9,0,0,0,0,3.8h3.508a1.9,1.9,0,0,0,0-3.8Z" transform="translate(8.348 -11.999)"/>
          <path id="Trazado_118877" data-name="Trazado 118877" d="M81.143,75.4H77.635a1.9,1.9,0,0,0,0,3.8h3.508a1.9,1.9,0,0,0,0-3.8Z" transform="translate(9.694 -11.999)"/>
          <path id="Trazado_118878" data-name="Trazado 118878" d="M91.659,75.4H88.151a1.9,1.9,0,0,0,0,3.8h3.508a1.9,1.9,0,0,0,0-3.8Z" transform="translate(11.04 -11.999)"/>
          <path id="Trazado_118879" data-name="Trazado 118879" d="M102.175,75.4H98.667a1.9,1.9,0,0,0,0,3.8h3.508a1.9,1.9,0,0,0,0-3.8Z" transform="translate(12.386 -11.999)"/>
          <path id="Trazado_118880" data-name="Trazado 118880" d="M38.166,68.091a1.9,1.9,0,0,0-1.326,2.338l2.344,8.488A1.9,1.9,0,1,0,42.847,77.9L40.5,69.417a1.9,1.9,0,0,0-2.337-1.326Z" transform="translate(4.707 -12.944)"/>
          <path id="Trazado_118881" data-name="Trazado 118881" d="M44.937,71.853a1.9,1.9,0,0,0-1.326,2.338l1.172,4.244a1.9,1.9,0,1,0,3.663-1.012l-1.172-4.244A1.9,1.9,0,0,0,44.937,71.853Z" transform="translate(5.573 -12.462)"/>
        </g>
      </g>
    </g>
  </g>
</svg>
