<svg xmlns="http://www.w3.org/2000/svg" xmlns:xlink="http://www.w3.org/1999/xlink" width="79" height="79" viewBox="0 0 79 79">
  <defs>
    <clipPath id="clip-path">
      <rect id="Rectángulo_34785" data-name="Rectángulo 34785" width="79" height="79" transform="translate(347 1623)" fill="#fff" stroke="#707070" stroke-width="1"/>
    </clipPath>
  </defs>
  <g id="Enmascarar_grupo_115" data-name="Enmascarar grupo 115" transform="translate(-347 -1623)" clip-path="url(#clip-path)">
    <g id="fechas" transform="translate(347 1623)">
      <g id="Grupo_85440" data-name="Grupo 85440">
        <g id="Grupo_85438" data-name="Grupo 85438">
          <path id="Trazado_118882" data-name="Trazado 118882" d="M71.491,77.777H7.509a6.352,6.352,0,0,1-6.352-6.352V13.616A6.352,6.352,0,0,1,7.509,7.264H71.491a6.352,6.352,0,0,1,6.352,6.352V71.425A6.352,6.352,0,0,1,71.491,77.777Z" fill="#e1f3ff"/>
          <path id="Trazado_118883" data-name="Trazado 118883" d="M71.491,7.264H65.319a6.352,6.352,0,0,1,6.352,6.352V71.425a6.352,6.352,0,0,1-6.352,6.352h6.172a6.352,6.352,0,0,0,6.352-6.352V13.616a6.352,6.352,0,0,0-6.352-6.352Z" fill="#ccebff"/>
          <path id="Trazado_118884" data-name="Trazado 118884" d="M77.843,24.363H1.157V13.616A6.352,6.352,0,0,1,7.509,7.264H71.491a6.352,6.352,0,0,1,6.352,6.352Z" fill="#fe75a7"/>
          <path id="Trazado_118885" data-name="Trazado 118885" d="M71.491,7.264H65.319a6.352,6.352,0,0,1,6.352,6.352V24.363h6.172V13.616a6.352,6.352,0,0,0-6.352-6.352Z" fill="#fe5995"/>
          <g id="Grupo_85437" data-name="Grupo 85437">
            <path id="Trazado_118886" data-name="Trazado 118886" d="M68,49.237H10.355a4.213,4.213,0,1,1,0-8.426H68a4.213,4.213,0,0,1,0,8.426Z" fill="#d0ee7f"/>
            <path id="Trazado_118887" data-name="Trazado 118887" d="M28.52,61.214H10.355a4.213,4.213,0,1,1,0-8.426H28.52a4.213,4.213,0,0,1,0,8.426Z" fill="#d0ee7f"/>
            <path id="Trazado_118888" data-name="Trazado 118888" d="M68,37.26H49.833a4.213,4.213,0,1,1,0-8.426H68a4.213,4.213,0,0,1,0,8.426Z" fill="#d0ee7f"/>
          </g>
        </g>
        <g id="Grupo_85439" data-name="Grupo 85439">
          <path id="Trazado_118889" data-name="Trazado 118889" d="M15.5,14.657a2.676,2.676,0,0,1-2.676-2.676V3.767a2.676,2.676,0,0,1,5.351,0v8.214A2.676,2.676,0,0,1,15.5,14.657Z" fill="#e1f3ff"/>
          <path id="Trazado_118890" data-name="Trazado 118890" d="M63.5,14.657a2.676,2.676,0,0,1-2.676-2.676V3.767a2.676,2.676,0,1,1,5.351,0v8.214A2.676,2.676,0,0,1,63.5,14.657Z" fill="#e1f3ff"/>
        </g>
      </g>
      <g id="Grupo_85441" data-name="Grupo 85441">
        <path id="Trazado_118891" data-name="Trazado 118891" d="M71.491,6.106H67.337V3.767c0-4.932-7.666-4.94-7.666,0V6.106H32.733a1.158,1.158,0,0,0,0,2.314H59.671v3.56c0,4.932,7.666,4.94,7.666,0V8.421h4.154a5.2,5.2,0,0,1,5.195,5.195v9.591H2.314V13.616A5.2,5.2,0,0,1,7.509,8.421h4.154v3.56c0,4.932,7.666,4.94,7.666,0V8.421h5.894a1.158,1.158,0,0,0,0-2.314H19.329V3.767c0-4.932-7.666-4.94-7.666,0V6.106H7.509A7.518,7.518,0,0,0,0,13.616V71.425a7.518,7.518,0,0,0,7.509,7.509H60.15a1.158,1.158,0,0,0,0-2.314H7.509a5.2,5.2,0,0,1-5.195-5.195v-45.9H76.686v45.9a5.2,5.2,0,0,1-5.195,5.195h-3.9a1.158,1.158,0,0,0,0,2.314h3.9A7.518,7.518,0,0,0,79,71.425V13.616a7.518,7.518,0,0,0-7.509-7.509Zm-6.469,5.875a1.52,1.52,0,0,1-3.037,0V3.767a1.52,1.52,0,0,1,3.037,0ZM13.978,3.767a1.52,1.52,0,0,1,3.037,0v8.214a1.52,1.52,0,0,1-3.037,0Z" fill="#060606"/>
        <path id="Trazado_118892" data-name="Trazado 118892" d="M73.368,45.024A5.376,5.376,0,0,0,68,39.653H10.355a5.37,5.37,0,1,0,0,10.741H68A5.376,5.376,0,0,0,73.368,45.024Zm-66.069,0a3.059,3.059,0,0,1,3.056-3.056H68a3.056,3.056,0,1,1,0,6.112H10.355A3.059,3.059,0,0,1,7.3,45.024Z" fill="#060606"/>
        <path id="Trazado_118893" data-name="Trazado 118893" d="M33.89,57a5.376,5.376,0,0,0-5.37-5.37H10.355a5.37,5.37,0,1,0,0,10.741H28.52A5.376,5.376,0,0,0,33.89,57Zm-5.37,3.056H10.355a3.056,3.056,0,1,1,0-6.112H28.52a3.056,3.056,0,1,1,0,6.112Z" fill="#060606"/>
        <path id="Trazado_118894" data-name="Trazado 118894" d="M68,38.417a5.37,5.37,0,0,0,0-10.741H49.833a5.37,5.37,0,1,0,0,10.741Zm-21.221-5.37a3.059,3.059,0,0,1,3.056-3.056H68A3.056,3.056,0,1,1,68,36.1H49.833A3.059,3.059,0,0,1,46.777,33.047Z" fill="#060606"/>
        <path id="Trazado_118895" data-name="Trazado 118895" d="M11.408,34.2h3.5a1.157,1.157,0,0,0,0-2.314h-3.5a1.157,1.157,0,0,0,0,2.314Z" fill="#060606"/>
        <path id="Trazado_118896" data-name="Trazado 118896" d="M27.939,34.2a1.157,1.157,0,0,0,0-2.314h-3.5a1.157,1.157,0,0,0,0,2.314Z" fill="#060606"/>
        <path id="Trazado_118897" data-name="Trazado 118897" d="M41.157,34.2a1.157,1.157,0,0,0,0-2.314h-3.5a1.157,1.157,0,0,0,0,2.314Z" fill="#060606"/>
        <path id="Trazado_118898" data-name="Trazado 118898" d="M50.875,34.2h3.5a1.157,1.157,0,0,0,0-2.314h-3.5a1.157,1.157,0,0,0,0,2.314Z" fill="#060606"/>
        <path id="Trazado_118899" data-name="Trazado 118899" d="M64.092,34.2h3.5a1.157,1.157,0,0,0,0-2.314h-3.5a1.157,1.157,0,0,0,0,2.314Z" fill="#060606"/>
        <path id="Trazado_118900" data-name="Trazado 118900" d="M14.908,43.866h-3.5a1.157,1.157,0,0,0,0,2.314h3.5a1.157,1.157,0,1,0,0-2.314Z" fill="#060606"/>
        <path id="Trazado_118901" data-name="Trazado 118901" d="M27.939,43.866h-3.5a1.157,1.157,0,0,0,0,2.314h3.5a1.157,1.157,0,1,0,0-2.314Z" fill="#060606"/>
        <path id="Trazado_118902" data-name="Trazado 118902" d="M41.157,43.866h-3.5a1.157,1.157,0,1,0,0,2.314h3.5a1.157,1.157,0,0,0,0-2.314Z" fill="#060606"/>
        <path id="Trazado_118903" data-name="Trazado 118903" d="M54.374,43.866h-3.5a1.157,1.157,0,0,0,0,2.314h3.5a1.157,1.157,0,0,0,0-2.314Z" fill="#060606"/>
        <path id="Trazado_118904" data-name="Trazado 118904" d="M68.749,45.024a1.157,1.157,0,0,0-1.157-1.157h-3.5a1.157,1.157,0,1,0,0,2.314h3.5A1.157,1.157,0,0,0,68.749,45.024Z" fill="#060606"/>
        <path id="Trazado_118905" data-name="Trazado 118905" d="M14.908,55.843h-3.5a1.157,1.157,0,0,0,0,2.314h3.5a1.157,1.157,0,1,0,0-2.314Z" fill="#060606"/>
        <path id="Trazado_118906" data-name="Trazado 118906" d="M27.939,55.843h-3.5a1.157,1.157,0,0,0,0,2.314h3.5a1.157,1.157,0,1,0,0-2.314Z" fill="#060606"/>
        <path id="Trazado_118907" data-name="Trazado 118907" d="M41.157,55.843h-3.5a1.157,1.157,0,1,0,0,2.314h3.5a1.157,1.157,0,0,0,0-2.314Z" fill="#060606"/>
        <path id="Trazado_118908" data-name="Trazado 118908" d="M54.374,55.843h-3.5a1.157,1.157,0,0,0,0,2.314h3.5a1.157,1.157,0,0,0,0-2.314Z" fill="#060606"/>
        <path id="Trazado_118909" data-name="Trazado 118909" d="M64.092,55.843a1.157,1.157,0,0,0,0,2.314h3.5a1.157,1.157,0,0,0,0-2.314Z" fill="#060606"/>
        <path id="Trazado_118910" data-name="Trazado 118910" d="M11.408,67.82a1.157,1.157,0,1,0,0,2.314h3.5a1.157,1.157,0,0,0,0-2.314Z" fill="#060606"/>
        <path id="Trazado_118911" data-name="Trazado 118911" d="M24.44,67.82a1.157,1.157,0,1,0,0,2.314h3.5a1.157,1.157,0,0,0,0-2.314Z" fill="#060606"/>
        <path id="Trazado_118912" data-name="Trazado 118912" d="M41.157,67.82h-3.5a1.157,1.157,0,1,0,0,2.314h3.5a1.157,1.157,0,0,0,0-2.314Z" fill="#060606"/>
        <path id="Trazado_118913" data-name="Trazado 118913" d="M54.374,67.82h-3.5a1.157,1.157,0,0,0,0,2.314h3.5a1.157,1.157,0,0,0,0-2.314Z" fill="#060606"/>
        <path id="Trazado_118914" data-name="Trazado 118914" d="M68.749,68.978a1.157,1.157,0,0,0-1.157-1.157h-3.5a1.157,1.157,0,1,0,0,2.314h3.5A1.157,1.157,0,0,0,68.749,68.978Z" fill="#060606"/>
      </g>
    </g>
  </g>
</svg>
