<svg xmlns="http://www.w3.org/2000/svg" xmlns:xlink="http://www.w3.org/1999/xlink" width="420" height="268" viewBox="0 0 420 268">
  <defs>
    <clipPath id="clip-path">
      <rect id="Rect치ngulo_34265" data-name="Rect치ngulo 34265" width="420" height="268" transform="translate(810 2687)" fill="#fff" stroke="#707070" stroke-width="1"/>
    </clipPath>
  </defs>
  <g id="Grupo_88089" data-name="Grupo 88089" transform="translate(-810 -2830)">
    <path id="Rect치ngulo_34266" data-name="Rect치ngulo 34266" d="M20,0H400a20,20,0,0,1,20,20V196a0,0,0,0,1,0,0H0a0,0,0,0,1,0,0V20A20,20,0,0,1,20,0Z" transform="translate(810 2901)" fill="#d5d6f0"/>
    <g id="Enmascarar_grupo_94" data-name="Enmascarar grupo 94" transform="translate(0 143)" clip-path="url(#clip-path)">
      <g id="Grupo_83650" data-name="Grupo 83650" transform="translate(-737.167 1680.553)">
        <g id="Grupo_83610" data-name="Grupo 83610" transform="translate(1652.166 1012.114)">
          <g id="Grupo_83609" data-name="Grupo 83609" transform="translate(0)">
            <g id="Grupo_83578" data-name="Grupo 83578" transform="translate(139.906 116.449)">
              <path id="Trazado_117342" data-name="Trazado 117342" d="M2065.079,1341.957s28.516,37.739,30.483,73.01c1.8,32.354-34.8,23.286-41.608-2.458s-5.375-50.67-5.375-50.67Z" transform="translate(-2048.453 -1341.957)" fill="#ffb27d"/>
            </g>
            <g id="Grupo_83579" data-name="Grupo 83579" transform="translate(19.388 96.234)">
              <path id="Trazado_117343" data-name="Trazado 117343" d="M1857.558,1454.712a122.432,122.432,0,0,1-14.642,8.451q-6.907-.375-14.092-.783c-.357,0,6.371,9.468,6,9.446-3.879-.222-16.072.681-20.083.445-21.52-1.272-37.4,11.19-63.105,9.532-.49-.032-9.756-7.915-10.25-7.943-8.318-.515-14.377-1.857-24.165-2.118-1.912-12.965-5.8-57.138-6.052-57.392-2.932-27.128-6.892-73.528-1.173-100.162,0,0,.733-3.271,4.426-7.661,11.174-13.309,33.289-18.839,50.6-21.009C1837.255,1276.455,1837.526,1343.29,1857.558,1454.712Z" transform="translate(-1707.083 -1284.699)" fill="#366f90"/>
            </g>
            <g id="Grupo_83580" data-name="Grupo 83580" transform="translate(0 95.398)">
              <path id="Trazado_117344" data-name="Trazado 117344" d="M1652.219,1327.826l28.96,4.488s88.162-2.919,111.019-9.05c12.386-3.323,21.8-15.591,21.8-15.591s-21.532-30.068-100.6-24.7C1648.066,1287.408,1652.219,1327.826,1652.219,1327.826Z" transform="translate(-1652.166 -1282.331)" fill="#366f90"/>
            </g>
            <g id="Grupo_83581" data-name="Grupo 83581" transform="translate(61.229 44.521)">
              <path id="Trazado_117345" data-name="Trazado 117345" d="M1825.6,1189.74c5.431,10.373,18.568,18.825,26.514,18.324,12.576-.793,6.305-8.362,5.3-12.791a15.407,15.407,0,0,1-.019-6.8l1.027-4.543,1.93-8.523,1.953-8.619,6.466-28.564-17.558,26.337-2.987,4.482-4.213,6.322-6.047,9.059C1834.682,1188.644,1825.66,1189.742,1825.6,1189.74Z" transform="translate(-1825.598 -1138.221)" fill="#ffb27d"/>
            </g>
            <g id="Grupo_83582" data-name="Grupo 83582" transform="translate(79.644 81.662)">
              <path id="Trazado_117346" data-name="Trazado 117346" d="M1877.758,1243.424a25.7,25.7,0,0,0,13.385,13.1l1.024-4.531,1.93-8.523Z" transform="translate(-1877.758 -1243.424)" fill="#e7925c"/>
            </g>
            <g id="Grupo_83584" data-name="Grupo 83584" transform="translate(64.733 19.579)">
              <g id="Grupo_83583" data-name="Grupo 83583">
                <path id="Trazado_117347" data-name="Trazado 117347" d="M1850.434,1067.571s-18.542,6.706-14.271,20.9S1850.434,1067.571,1850.434,1067.571Z" transform="translate(-1835.524 -1067.571)" fill="#331832"/>
              </g>
            </g>
            <g id="Grupo_83586" data-name="Grupo 83586" transform="translate(97.87 31.585)">
              <g id="Grupo_83585" data-name="Grupo 83585">
                <path id="Trazado_117348" data-name="Trazado 117348" d="M1929.383,1152.082s28.4.515,37.84-21.677c4.185-9.841,2.967-15.5-.86-21.606C1947.55,1078.78,1929.383,1152.082,1929.383,1152.082Z" transform="translate(-1929.383 -1101.58)" fill="#331832"/>
              </g>
            </g>
            <g id="Grupo_83587" data-name="Grupo 83587" transform="translate(49.606 9.521)">
              <ellipse id="Elipse_4777" data-name="Elipse 4777" cx="32.549" cy="28.876" rx="32.549" ry="28.876" transform="matrix(0.508, -0.861, 0.861, 0.508, 0, 56.081)" fill="#ffb27d"/>
            </g>
            <g id="Grupo_83589" data-name="Grupo 83589" transform="translate(91.231 47.413)">
              <g id="Grupo_83588" data-name="Grupo 83588">
                <path id="Trazado_117349" data-name="Trazado 117349" d="M1910.684,1147.332a.586.586,0,0,1,.663-.89,6.338,6.338,0,0,1,4.706,6.175.59.59,0,0,1-.549.62c-.323.019-.531-.238-.62-.549a10.023,10.023,0,0,0-3.9-5.133A.585.585,0,0,1,1910.684,1147.332Z" transform="translate(-1910.579 -1146.413)" fill="#080435"/>
              </g>
            </g>
            <g id="Grupo_83590" data-name="Grupo 83590" transform="translate(87.164 52.81)">
              <path id="Trazado_117350" data-name="Trazado 117350" d="M1902.627,1165.126c-.866,1.1-2.212,1.476-3.008.848s-.739-2.026.127-3.122,2.212-1.476,3.008-.848S1903.493,1164.03,1902.627,1165.126Z" transform="translate(-1899.058 -1161.701)" fill="#080435"/>
            </g>
            <g id="Grupo_83592" data-name="Grupo 83592" transform="translate(71.91 37.061)">
              <g id="Grupo_83591" data-name="Grupo 83591">
                <path id="Trazado_117351" data-name="Trazado 117351" d="M1856.029,1118.287a.427.427,0,0,1-.177-.392.706.706,0,0,1,.519-.639,4.106,4.106,0,0,1,5.227,2.959.7.7,0,0,1-.309.758.433.433,0,0,1-.629-.173,6.138,6.138,0,0,0-4.338-2.464A.388.388,0,0,1,1856.029,1118.287Z" transform="translate(-1855.851 -1117.089)" fill="#080435"/>
              </g>
            </g>
            <g id="Grupo_83593" data-name="Grupo 83593" transform="translate(70.99 42.881)">
              <path id="Trazado_117352" data-name="Trazado 117352" d="M1856.908,1136.563c-.383,1.343-1.483,2.207-2.458,1.929s-1.455-1.592-1.072-2.935,1.483-2.207,2.458-1.929S1857.291,1135.22,1856.908,1136.563Z" transform="translate(-1853.247 -1133.576)" fill="#080435"/>
            </g>
            <g id="Grupo_83594" data-name="Grupo 83594" transform="translate(67.744 56.952)">
              <path id="Trazado_117353" data-name="Trazado 117353" d="M1844.268,1173.431a59.245,59.245,0,0,0,16.754,8.736s-4.892,7.816-13.34,2.252C1842.769,1181.184,1844.268,1173.431,1844.268,1173.431Z" transform="translate(-1844.053 -1173.431)" fill="#fff"/>
            </g>
            <g id="Grupo_83596" data-name="Grupo 83596" transform="translate(69.54 4.777)">
              <g id="Grupo_83595" data-name="Grupo 83595">
                <path id="Trazado_117354" data-name="Trazado 117354" d="M1849.561,1042.309c.961,3.95,2.436,8.481,10.344,10.185s11.255-1.166,11.255-1.166a10.7,10.7,0,0,0,7.267,8.939c6.847,2.375,8.864.031,8.864.031s-1.72,6.454,3.564,10.362-7.257,7.114,2.256,12.85c6.875,4.146,12.665-12.569,19.131-20.525,8.834-10.869-.2-25.814-7.877-24.1-6.423,1.436-7.764-5.939-18.108-11.352-12.4-6.491-12.427,6.1-17.161,2.867C1858.292,1023.03,1846.781,1030.884,1849.561,1042.309Z" transform="translate(-1849.14 -1025.646)" fill="#331832"/>
              </g>
            </g>
            <g id="Grupo_83597" data-name="Grupo 83597" transform="translate(106.552 58.959)">
              <path id="Trazado_117355" data-name="Trazado 117355" d="M1961.164,1190.288c-3.423.568-6.609-1.45-7.117-4.509s1.855-6,5.278-6.568,6.61,1.45,7.117,4.509S1964.587,1189.72,1961.164,1190.288Z" transform="translate(-1953.978 -1179.116)" fill="#ffb27d"/>
            </g>
            <g id="Grupo_83599" data-name="Grupo 83599" transform="translate(137.162 39.362)">
              <g id="Grupo_83598" data-name="Grupo 83598">
                <path id="Trazado_117356" data-name="Trazado 117356" d="M2046.7,1130.5a.611.611,0,0,0,.836-.691,8.242,8.242,0,0,0-6.118-6.191.611.611,0,0,0-.252,1.2,7.012,7.012,0,0,1,5.175,5.252A.612.612,0,0,0,2046.7,1130.5Z" transform="translate(-2040.681 -1123.608)" fill="#331832"/>
              </g>
            </g>
            <g id="Grupo_83601" data-name="Grupo 83601" transform="translate(136.56 29.928)">
              <g id="Grupo_83600" data-name="Grupo 83600">
                <path id="Trazado_117357" data-name="Trazado 117357" d="M2039.346,1104.7a.611.611,0,0,0,.724-.191,10.79,10.79,0,0,0,1.893-7.079.611.611,0,0,0-1.215.134,9.7,9.7,0,0,1-1.649,6.2.61.61,0,0,0,.247.934Z" transform="translate(-2038.974 -1096.886)" fill="#331832"/>
              </g>
            </g>
            <g id="Grupo_83603" data-name="Grupo 83603" transform="translate(76.194)">
              <g id="Grupo_83602" data-name="Grupo 83602">
                <path id="Trazado_117358" data-name="Trazado 117358" d="M1882.264,1021.192a.611.611,0,0,0,.72-.939c-.241-.307-6.006-7.532-14.34-8.137a.611.611,0,1,0-.088,1.219c7.8.565,13.411,7.6,13.467,7.672A.606.606,0,0,0,1882.264,1021.192Z" transform="translate(-1867.988 -1012.114)" fill="#331832"/>
              </g>
            </g>
            <g id="Grupo_83605" data-name="Grupo 83605" transform="translate(117.11 10.209)">
              <g id="Grupo_83604" data-name="Grupo 83604">
                <path id="Trazado_117359" data-name="Trazado 117359" d="M1986.647,1047.511a.611.611,0,0,0,.841-.664,13.869,13.869,0,0,0-2.51-5.577.611.611,0,0,0-.969.744,12.764,12.764,0,0,1,2.274,5.035A.61.61,0,0,0,1986.647,1047.511Z" transform="translate(-1983.882 -1041.032)" fill="#331832"/>
              </g>
            </g>
            <g id="Grupo_83606" data-name="Grupo 83606" transform="translate(113.891 199.35)">
              <path id="Trazado_117360" data-name="Trazado 117360" d="M2006.865,1627.472c-1.565.071-2.946.126-3.977.185a9.92,9.92,0,0,1-2.239-.125,90.464,90.464,0,0,1-20.709-2.472s-6.753-25.528-4.831-27.374c4.432-4.256,15.071-10.684,19.584-14.855,1.957-1.808,8.957-7.438,11.012-5.743h0c1.788,1.474-1.656,8.582-3.7,11.765,17.407-2.456,43.879,1.732,7.781,9.517,0,.02.008.042.013.062,3.725-.451,24.444-2.957,23.083,2.233-1.2,4.588-15.979,6.992-22.081,7.795,0,.058,0,.116,0,.174,6.29-.282,21.486-.571,18.933,3.417-3.206,5.006-19.324,8.032-19.324,8.032s20.676-3.414,17.688,2.813c-1.685,3.512-13.724,4.234-21.225,4.573h-.012Z" transform="translate(-1974.764 -1576.775)" fill="#ffb27d"/>
            </g>
            <g id="Grupo_83608" data-name="Grupo 83608" transform="translate(0.053 134.339)">
              <g id="Grupo_83607" data-name="Grupo 83607">
                <path id="Trazado_117361" data-name="Trazado 117361" d="M1754.517,1509.5a117.886,117.886,0,0,1-20.126-1.66,91.4,91.4,0,0,1-41.654-18.215c-39.791-31.468-40.414-88.051-40.421-90.444,0,0,1.244-7.008,14.233-6.531,21.792.8,21.583,12.513,21.583,12.513s.3,36.084,26.7,56.816c16.023,12.58,39.392,15.4,69.458,8.369l8.055,34.462A166.85,166.85,0,0,1,1754.517,1509.5Z" transform="translate(-1652.316 -1392.631)" fill="#ffb27d"/>
              </g>
            </g>
          </g>
        </g>
        <g id="Grupo_83611" data-name="Grupo 83611" transform="translate(1858.773 1211.714)">
          <path id="Trazado_117362" data-name="Trazado 117362" d="M2242.258,1609.9s48.382,9.275,67.127-18.18,22.524-8.429,17.677,1.143-33.542,47.973-68.395,38.195S2242.258,1609.9,2242.258,1609.9Z" transform="translate(-2237.382 -1577.483)" fill="#331832"/>
        </g>
        <g id="Grupo_83614" data-name="Grupo 83614" transform="translate(1737.656 1157.648)">
          <g id="Grupo_83612" data-name="Grupo 83612" transform="translate(0 0)">
            <path id="Trazado_117363" data-name="Trazado 117363" d="M2033.967,1560.394c-7.686-.2-75.2,1.8-75.833,1.765,0,0-3.162.021-3.53,0-3.4-1.58-12.494-12.747-15.757-14.5q-1.206-.643-2.391-1.308-3.207-1.786-6.281-3.686a.013.013,0,0,1-.01,0q-1.539-.949-3.032-1.927-2.574-1.673-5-3.435c-2.4-1.73-4.679-3.521-6.831-5.366-.343-.29-.679-.583-1.015-.879q-.6-.52-1.172-1.051a63.874,63.874,0,0,1-11.869-14.106q-.847-1.411-1.573-2.856a.013.013,0,0,0,0-.007,38.7,38.7,0,0,1-2.477-6.113v0c-.047-.143-.089-.282-.132-.429a66.292,66.292,0,0,1-2.574-13.509l-.011-.132q-.112-1.448-.139-2.842c0-.064,0-.129,0-.2a42.59,42.59,0,0,1,5.487-22.318c6.452-11.357,16.787-17.448,20.776-21.184,3.754-3.518,5.8-6.513,6.785-9.012,1.33-3.374.722-5.852-.247-7.5a6.984,6.984,0,0,0-.407-.625,7.923,7.923,0,0,0-1.594-1.63c-.182-.139-.315-.222-.372-.257.132.072.264.143.4.211s.243.132.368.2q1.555.81,3.113,1.452c.708.3,1.409.565,2.116.808a.005.005,0,0,1,.007,0,38.522,38.522,0,0,0,5.68,1.487,43.686,43.686,0,0,0,12.612.383,53.375,53.375,0,0,0,7.972-1.513,57.507,57.507,0,0,0,14.406-5.966v0a20.968,20.968,0,0,0-1.262,1.8v0c-1.988,3.117-5.537,9.974-4.8,18.264v0a25.038,25.038,0,0,0,1.169,5.659,44.333,44.333,0,0,0,5.648,11.064c.025.039.053.079.082.121a69.838,69.838,0,0,0,5.809,7.271c.043.046.082.093.125.136,1.616,1.773,3.339,3.507,5.137,5.194,1.416,1.33,2.882,2.631,4.383,3.9,1.813,1.53,3.675,3.017,5.569,4.454q1.711,1.3,3.457,2.542c4.547,3.249,9.191,6.2,13.641,8.787,9.877,5.734,16.712,12.065,21.259,18.567.265.376.518.751.765,1.126a44.581,44.581,0,0,1,3.013,5.334,41.441,41.441,0,0,1,3.868,14.045C2040.117,1541.48,2036.856,1553.695,2033.967,1560.394Z" transform="translate(-1894.318 -1424.341)" fill="#ef8062"/>
          </g>
          <g id="Grupo_83613" data-name="Grupo 83613" transform="translate(5.204 23.632)">
            <path id="Trazado_117364" data-name="Trazado 117364" d="M1911.731,1547.647s-5.262-12.035-1.019-20.992,4.832-14.741,14.358-23.7,13.857-15.731,16.419-8.868-3.339,15.175-.82,23.182-6.135,12.8-5.553,21.075,8.279,15.069,2.632,19.867S1921.457,1563.378,1911.731,1547.647Z" transform="translate(-1909.058 -1491.278)" fill="#ffc8bd"/>
          </g>
        </g>
        <g id="Grupo_83629" data-name="Grupo 83629" transform="translate(1729.275 1115.663)">
          <g id="Grupo_83615" data-name="Grupo 83615">
            <path id="Trazado_117365" data-name="Trazado 117365" d="M1936.023,1310.792s-56.625-18.842-65.328,14.023c0,0-2.224,8.927,12.664,13.5s15.577-29.366,37.687-19.422S1936.023,1310.792,1936.023,1310.792Z" transform="translate(-1870.577 -1305.416)" fill="#331832"/>
          </g>
          <g id="Grupo_83616" data-name="Grupo 83616" transform="translate(34.653 4.399)">
            <path id="Trazado_117366" data-name="Trazado 117366" d="M2008.522,1320.47a28.418,28.418,0,0,0-26.544,1.469c-4.982,3.087-9.739,8.235-12.205,16.8-6.577,22.851,19.511,33.762,36.668,27.689C2022.064,1360.9,2035.919,1332.681,2008.522,1320.47Z" transform="translate(-1968.733 -1317.876)" fill="#ef8062"/>
          </g>
          <g id="Grupo_83617" data-name="Grupo 83617" transform="translate(58.888 20.085)">
            <path id="Trazado_117367" data-name="Trazado 117367" d="M2041.73,1365.948c-.4,1.713-1.677,2.878-2.845,2.6s-1.787-1.887-1.383-3.6,1.678-2.878,2.845-2.6S2042.134,1364.235,2041.73,1365.948Z" transform="translate(-2037.378 -1362.308)" fill="#331832"/>
          </g>
          <g id="Grupo_83618" data-name="Grupo 83618" transform="translate(53.437 7.138)">
            <path id="Trazado_117368" data-name="Trazado 117368" d="M2027.35,1336.974a16.327,16.327,0,0,1,5.373-4.987c3.742-2.243,5.527-5.034,2.787-5.869-3.894-1.185-6.161-.16-9.024,2.68s-6.209,8.621-3.619,9.447S2025.93,1340.094,2027.35,1336.974Z" transform="translate(-2021.937 -1325.634)" fill="#ffc8bd"/>
          </g>
          <g id="Grupo_83619" data-name="Grupo 83619" transform="translate(28.352 20.504)">
            <path id="Trazado_117369" data-name="Trazado 117369" d="M1975.807,1364.366s-21.737-3.587-24.785,3.788c-1.7,4.116,12.707,10.066,19.854,8.97S1986.4,1366.51,1975.807,1364.366Z" transform="translate(-1950.883 -1363.493)" fill="#ef8062"/>
          </g>
          <g id="Grupo_83620" data-name="Grupo 83620" transform="translate(80.26 12.9)">
            <path id="Trazado_117370" data-name="Trazado 117370" d="M2100.93,1342.713s32.73-7.939,49.152,27.623-35.874,34.462-35.463,15.776,1.054-32.8-10.992-34.977c0,0-5.647-.559-5.713-4.648A3.648,3.648,0,0,1,2100.93,1342.713Z" transform="translate(-2097.913 -1341.957)" fill="#331832"/>
          </g>
          <g id="Grupo_83621" data-name="Grupo 83621" transform="translate(30.623 38.121)">
            <path id="Trazado_117371" data-name="Trazado 117371" d="M1968.5,1422.815s9.652,1.519,14.048-7.094c2.075-4.067-25.233-1.562-25.233-1.562l4.031,7.491Z" transform="translate(-1957.316 -1413.395)" fill="#331832"/>
          </g>
          <g id="Grupo_83622" data-name="Grupo 83622" transform="translate(28.283 44.275)">
            <path id="Trazado_117372" data-name="Trazado 117372" d="M1950.689,1433.725c.39.4,1.189,7.512,11.289,7.86,9.028.312,14.045-10.348,12.234-9.845-16.016,4.447-19.36-1.69-21.317-.83A3.823,3.823,0,0,0,1950.689,1433.725Z" transform="translate(-1950.689 -1430.826)" fill="#ffc8bd"/>
          </g>
          <g id="Grupo_83625" data-name="Grupo 83625" transform="translate(22.764 36.05)">
            <g id="Grupo_83623" data-name="Grupo 83623">
              <path id="Trazado_117373" data-name="Trazado 117373" d="M1948.7,1407.7a24.757,24.757,0,0,0-13.131,16.874c-2.8,12.471,6.518,15.262,10.74,7.431s2.18-14.571,9.149-20.068C1955.46,1411.933,1953.443,1406.514,1948.7,1407.7Z" transform="translate(-1935.056 -1407.528)" fill="#ff635c"/>
            </g>
            <g id="Grupo_83624" data-name="Grupo 83624" transform="translate(4.491 0.983)">
              <path id="Trazado_117374" data-name="Trazado 117374" d="M1948.007,1432.927H1948a.23.23,0,0,1-.222-.238c.3-9.246,3.973-14.832,7-17.89a18.845,18.845,0,0,1,6.585-4.475.23.23,0,0,1,.149.435c-.127.044-12.7,4.566-13.273,21.946A.23.23,0,0,1,1948.007,1432.927Z" transform="translate(-1947.777 -1410.311)" fill="#ff8280"/>
            </g>
          </g>
          <g id="Grupo_83626" data-name="Grupo 83626" transform="translate(35.124 30.127)">
            <path id="Trazado_117375" data-name="Trazado 117375" d="M1970.255,1397.124s-1.711,5.258,5.158,6.975,22.4.268,20.654-8.31c-1.368-6.732-13.36-5.049-15.739-4.256S1970.255,1397.124,1970.255,1397.124Z" transform="translate(-1970.066 -1390.75)" fill="#ffc8bd"/>
          </g>
          <g id="Grupo_83627" data-name="Grupo 83627" transform="translate(24.971 27.235)">
            <path id="Trazado_117376" data-name="Trazado 117376" d="M1944.62,1382.561s-3.441,2.105-3.308,5.011,1.849,8.454,6.473,8.19,4.56-7.116,4.56-7.116Z" transform="translate(-1941.307 -1382.561)" fill="#ffc8bd"/>
          </g>
          <g id="Grupo_83628" data-name="Grupo 83628" transform="translate(27.332 24.34)">
            <path id="Trazado_117377" data-name="Trazado 117377" d="M1949.677,1374.359s16.811,2.441,19.014,5.729-8.881,7.364-11.83,6.432S1944.108,1375.51,1949.677,1374.359Z" transform="translate(-1947.996 -1374.359)" fill="#331832"/>
          </g>
        </g>
        <g id="Grupo_83630" data-name="Grupo 83630" transform="translate(1774.573 1130.805)">
          <path id="Trazado_117378" data-name="Trazado 117378" d="M2003.238,1351.947c-.4,1.713-1.678,2.878-2.846,2.6s-1.787-1.887-1.383-3.6,1.678-2.878,2.845-2.6S2003.642,1350.235,2003.238,1351.947Z" transform="translate(-1998.886 -1348.308)" fill="#331832"/>
        </g>
        <g id="Grupo_83633" data-name="Grupo 83633" transform="translate(1800.51 1176.23)">
          <g id="Grupo_83632" data-name="Grupo 83632" transform="translate(0)">
            <g id="Grupo_83631" data-name="Grupo 83631">
              <path id="Trazado_117379" data-name="Trazado 117379" d="M2091.787,1482.238s-4.487-7.9-10.387-4.346c-7.518,4.529-11.83,18.952-7.021,16.161a40.066,40.066,0,0,0,7.847-6.277s-11.2,12.172-7.323,14.6,13.125-7.911,13.125-7.911-9.537,13.206-5.376,14.281,11.825-7.452,11.825-7.452-9.421,11.458-4.579,12.583,9.342-7.534,12.077-10.584c2.585-2.882,1.477-5.976-1.612-9.01,0,0-1.753-4.763-4.148-6.249-.918-.569-1.046-2.009-1.52-2.655A32.753,32.753,0,0,0,2091.787,1482.238Z" transform="translate(-2072.353 -1476.973)" fill="#ffb27d"/>
            </g>
          </g>
        </g>
        <g id="Grupo_83634" data-name="Grupo 83634" transform="translate(1808.163 1175.418)">
          <path id="Trazado_117380" data-name="Trazado 117380" d="M2112.591,1506.883a.536.536,0,0,1-.349-.944c6.963-5.956,5.312-8.786,3.855-11.283a9.771,9.771,0,0,1-.945-1.917c-.931-2.941-2.163-3.972-4.111-4.844-1.32-.591-1.837-2.1-2.293-3.435-.377-1.1-.733-2.143-1.41-2.366a8.55,8.55,0,0,1-3.38-2.606c-.727-.76-1.632-1.706-2.854-2.78a3.735,3.735,0,0,0-4.1-.627,7.174,7.174,0,0,0-2.068,1.284.536.536,0,1,1-.739-.778c1.4-1.325,4.783-3.172,7.616-.685,1.258,1.1,2.18,2.07,2.921,2.845a7.748,7.748,0,0,0,2.94,2.329c1.185.389,1.645,1.736,2.09,3.037.4,1.181.822,2.4,1.716,2.8,2.18.976,3.647,2.189,4.7,5.5a9.1,9.1,0,0,0,.849,1.7c1.5,2.574,3.559,6.1-4.084,12.638A.534.534,0,0,1,2112.591,1506.883Z" transform="translate(-2094.028 -1474.675)" fill="#ec865c"/>
        </g>
        <g id="Grupo_83640" data-name="Grupo 83640" transform="translate(1714.378 1222.342)">
          <g id="Grupo_83635" data-name="Grupo 83635">
            <path id="Trazado_117381" data-name="Trazado 117381" d="M1889.446,1611.261s-17.132-4.7-32.218-3.469c-7.844.639-15.134,2.88-19.176,8.215-11.817,15.6-13.821,32.507-.291,38.124s20.525-6.124,19.273-16.566,23.35,7.956,28.742,5.325S1897.371,1614.856,1889.446,1611.261Z" transform="translate(-1828.381 -1607.587)" fill="#ef8062"/>
          </g>
          <g id="Grupo_83636" data-name="Grupo 83636" transform="translate(25.609 17.341)">
            <path id="Trazado_117382" data-name="Trazado 117382" d="M1903.962,1669.539h-.022a.2.2,0,0,1-.175-.219c1.018-9-2.737-12.232-2.775-12.264a.2.2,0,0,1,.253-.3c.162.135,3.957,3.4,2.916,12.614A.2.2,0,0,1,1903.962,1669.539Z" transform="translate(-1900.919 -1656.704)" fill="#331832"/>
          </g>
          <g id="Grupo_83637" data-name="Grupo 83637" transform="translate(9.191 38.571)">
            <path id="Trazado_117383" data-name="Trazado 117383" d="M1858.968,1726.28a.2.2,0,0,1-.07-.013,6.485,6.485,0,0,1-4.123-3.651,7.578,7.578,0,0,1,.531-5.671.2.2,0,0,1,.349.188,7.311,7.311,0,0,0-.509,5.346,6.113,6.113,0,0,0,3.89,3.417.2.2,0,0,1-.069.384Z" transform="translate(-1854.416 -1716.841)" fill="#331832"/>
          </g>
          <g id="Grupo_83638" data-name="Grupo 83638" transform="translate(17.168 42.527)">
            <path id="Trazado_117384" data-name="Trazado 117384" d="M1880.369,1732.842h-.008c-2.841-.107-3.332-4.394-3.352-4.576a.2.2,0,0,1,.394-.042c0,.041.474,4.128,2.973,4.222a.2.2,0,0,1-.007.4Z" transform="translate(-1877.009 -1728.046)" fill="#331832"/>
          </g>
          <g id="Grupo_83639" data-name="Grupo 83639" transform="translate(1.731 34.237)">
            <path id="Trazado_117385" data-name="Trazado 117385" d="M1834.322,1712.028a.2.2,0,0,1-.149-.067c-1.764-2.006-.366-7.04-.306-7.253a.2.2,0,0,1,.381.108c-.014.05-1.4,5.039.222,6.883a.2.2,0,0,1-.149.329Z" transform="translate(-1833.285 -1704.563)" fill="#331832"/>
          </g>
        </g>
        <g id="Grupo_83648" data-name="Grupo 83648" transform="translate(1692.205 1198.682)">
          <g id="Grupo_83644" data-name="Grupo 83644">
            <g id="Grupo_83641" data-name="Grupo 83641">
              <path id="Trazado_117386" data-name="Trazado 117386" d="M1814.247,1568.127c-15.848.357-20.316-11.068-21.578-1.321a18.032,18.032,0,0,1-.45,2.315c-2.271,8.762-10.72,15.8-20.808,8.264a14.584,14.584,0,0,1-4.259-4.842l0,0,0,0a12.115,12.115,0,0,1-.764-1.777c-2.843-8.252,1.875-18.525,13.786-25.985,13.889-8.7,40-1.192,40-1.192Z" transform="translate(-1765.577 -1540.571)" fill="#ef8062"/>
            </g>
            <g id="Grupo_83642" data-name="Grupo 83642" transform="translate(0.682 20.818)">
              <path id="Trazado_117387" data-name="Trazado 117387" d="M1793.467,1607.272c-2.271,8.762-10.72,15.8-20.808,8.264a14.584,14.584,0,0,1-4.259-4.842l0,0,0,0a4.614,4.614,0,0,1-.764-1.777c-.353-1.624-.121-4.234,3.13-7.255,5.5-5.111,10.581.531,15.241,1.509C1789.758,1603.946,1792.881,1604.44,1793.467,1607.272Z" transform="translate(-1767.508 -1599.539)" fill="#ffc8bd"/>
            </g>
            <g id="Grupo_83643" data-name="Grupo 83643" transform="translate(27.228 17.251)">
              <path id="Trazado_117388" data-name="Trazado 117388" d="M1842.9,1597.34a.2.2,0,0,1-.194-.24,50.982,50.982,0,0,0,.946-7.474.192.192,0,0,1,.206-.19.2.2,0,0,1,.19.206,51.466,51.466,0,0,1-.954,7.542A.2.2,0,0,1,1842.9,1597.34Z" transform="translate(-1842.699 -1589.434)" fill="#331832"/>
            </g>
          </g>
          <g id="Grupo_83645" data-name="Grupo 83645" transform="translate(10.951 32.591)">
            <path id="Trazado_117389" data-name="Trazado 117389" d="M1801.8,1640.332a.2.2,0,0,1-.067-.012c-6.525-2.324-4.989-7.249-4.973-7.3a.2.2,0,0,1,.376.124c-.061.187-1.421,4.611,4.73,6.8a.2.2,0,0,1-.066.385Z" transform="translate(-1796.596 -1632.885)" fill="#331832"/>
          </g>
          <g id="Grupo_83646" data-name="Grupo 83646" transform="translate(18.24 31.865)">
            <path id="Trazado_117390" data-name="Trazado 117390" d="M1821.081,1635.4a3.567,3.567,0,0,1-2.558-.929,5.005,5.005,0,0,1-1.281-3.448.2.2,0,0,1,.4.012,4.689,4.689,0,0,0,1.161,3.151,3.369,3.369,0,0,0,2.708.8.2.2,0,1,1,.031.4C1821.382,1635.393,1821.229,1635.4,1821.081,1635.4Z" transform="translate(-1817.241 -1630.83)" fill="#331832"/>
          </g>
          <g id="Grupo_83647" data-name="Grupo 83647" transform="translate(4.777 33.022)">
            <path id="Trazado_117391" data-name="Trazado 117391" d="M1781.561,1639.056a.2.2,0,0,1-.092-.023c-2.325-1.227-2.362-4.586-2.362-4.728a.2.2,0,0,1,.2-.2h0a.2.2,0,0,1,.2.2c0,.032.037,3.264,2.15,4.379a.2.2,0,0,1-.092.374Z" transform="translate(-1779.107 -1634.106)" fill="#331832"/>
          </g>
        </g>
        <g id="Grupo_83649" data-name="Grupo 83649" transform="translate(1731.599 1222.348)">
          <path id="Trazado_117392" data-name="Trazado 117392" d="M1877.36,1610.516a.2.2,0,0,1-.1-.371c4.46-2.482,11.452-2.539,11.522-2.539h0a.2.2,0,0,1,0,.4c-.069,0-6.961.057-11.331,2.489A.2.2,0,0,1,1877.36,1610.516Z" transform="translate(-1877.161 -1607.605)" fill="#331832"/>
        </g>
      </g>
    </g>
  </g>
</svg>
