<svg xmlns="http://www.w3.org/2000/svg" width="438" height="371.478" viewBox="0 0 438 371.478">
  <g id="Grupo_85622" data-name="Grupo 85622" transform="translate(-337.224 -104.747)">
    <g id="Grupo_85605" data-name="Grupo 85605" transform="translate(434.946 104.746)">
      <g id="Grupo_85570" data-name="Grupo 85570" transform="translate(0 173.848)">
        <g id="Grupo_85568" data-name="Grupo 85568" transform="translate(0 99.662)">
          <g id="Grupo_85565" data-name="Grupo 85565" transform="translate(2.887)">
            <path id="Trazado_119235" data-name="Trazado 119235" d="M501.225,385.312l-2.144,13.757s1.3,13.1-3.094,13.475c-4.366.377-76.343,7.078-76.359,3.217.012-3.834,41.537-14.215,42.214-15.976.226-.531-.2-7.107-.9-16.089-1.61-20.9-4.716-54.627-4.716-54.627l47.891-.305Z" transform="translate(-419.628 -328.765)" fill="#f4b795"/>
            <path id="Trazado_119236" data-name="Trazado 119236" d="M499.081,389.13s1.3,13.1-3.094,13.475c-4.366.377-76.343,7.078-76.359,3.217.012-3.834,41.537-14.215,42.214-15.976.226-.531-.2-7.107-.9-16.089a103.111,103.111,0,0,0,40.281,1.615Z" transform="translate(-419.628 -318.825)" fill="#fff"/>
          </g>
          <g id="Grupo_85567" data-name="Grupo 85567" transform="translate(0 70.492)">
            <path id="Trazado_119237" data-name="Trazado 119237" d="M461.167,386.737c-2.2-.811-42,11.4-42.135,16.065s76.938-.446,79.509-2.185,1.675-13.284,1.56-13.75S485.792,395.819,461.167,386.737Z" transform="translate(-416.873 -386.458)" fill="#d26261"/>
            <path id="Trazado_119238" data-name="Trazado 119238" d="M499.718,397.5c-13.766,1.311-27.531,2.831-41.32,3.879-12.628.96-26.736,1.68-39.15-1.237-1.319-.31-2.742,1.408-1.518,2.465,3.45,2.981,8.014,3.13,12.428,3.571a150.943,150.943,0,0,0,22.682.411c15.608-.8,31.2-2.68,46.755-4.13C502.739,402.164,502.893,397.195,499.718,397.5Z" transform="translate(-417.264 -384.075)" fill="#fff"/>
            <g id="Grupo_85566" data-name="Grupo 85566" transform="translate(27.245)">
              <path id="Trazado_119239" data-name="Trazado 119239" d="M448.71,394.957c-1.375-3.073-4.532-6.164-8.069-6.129a.956.956,0,0,0-.69,1.692c1.166.939,2.384,1.847,3.485,2.859s2.043,2.216,3.159,3.229C447.647,397.567,449.252,396.166,448.71,394.957Z" transform="translate(-439.579 -385.988)" fill="#fff"/>
              <path id="Trazado_119240" data-name="Trazado 119240" d="M451.512,393.794c-1.376-3.073-4.533-6.164-8.069-6.129a.955.955,0,0,0-.69,1.692c1.165.939,2.383,1.847,3.483,2.861s2.043,2.215,3.159,3.228C450.447,396.4,452.052,395,451.512,393.794Z" transform="translate(-438.96 -386.245)" fill="#fff"/>
              <path id="Trazado_119241" data-name="Trazado 119241" d="M454.312,392.631c-1.376-3.073-4.533-6.164-8.069-6.129a.955.955,0,0,0-.69,1.692c1.165.939,2.384,1.847,3.485,2.861s2.041,2.215,3.157,3.229C453.248,395.241,454.852,393.84,454.312,392.631Z" transform="translate(-438.341 -386.502)" fill="#fff"/>
            </g>
          </g>
        </g>
        <g id="Grupo_85569" data-name="Grupo 85569" transform="translate(28.425)">
          <path id="Trazado_119242" data-name="Trazado 119242" d="M565.862,312.165s-6.7-8.344-10.39-10.019-54.3-46.626-67.707-53.329-39.215,8.043-45.583,19.775S449.891,401.322,452.572,404s26.144,8.5,34.523,7.49,21.116-9.167,22.792-11.178-9.385-52.623-8.045-53.629,6.943,19.777,33.638,31.843,54.849-8.38,64.57-16.76,14.077-50.546,14.077-50.546Z" transform="translate(-440.545 -247.137)" fill="#deb978"/>
          <path id="Trazado_119243" data-name="Trazado 119243" d="M489.916,313.178a.167.167,0,0,0-.322.089,76.058,76.058,0,0,1,1.889,12.457c-1.662-6.719-4.477-13.037-9.327-18.235-.127-.135-.381.051-.263.2,5.6,7.269,7.824,16.21,10.007,24.955.02.405.04.811.059,1.217a.5.5,0,0,0,1.006,0C493.414,326.8,491.95,319.9,489.916,313.178Z" transform="translate(-431.417 -233.814)" fill="#c49e60"/>
          <path id="Trazado_119244" data-name="Trazado 119244" d="M483.9,315.229c-.006-.051-.087-.055-.083,0,1.225,23.572,5.169,47.191,10.605,70.139.082.342.6.2.525-.145C490,362.052,486.688,338.744,483.9,315.229Z" transform="translate(-430.985 -232.102)" fill="#c49e60"/>
          <path id="Trazado_119245" data-name="Trazado 119245" d="M596.485,304.486c-2.106,11.825-5.151,24.884-12.1,34.961-6.813,9.876-17.677,16.583-29.512,19.009-12.7,2.6-26.71.591-37.659-6.388-9.709-6.19-17.375-15.674-24.223-24.693-.021-.026-.066,0-.046.027,5.614,7.5,10.943,15.1,18.2,21.221A48.368,48.368,0,0,0,536.1,359.741c18.871,2.571,38.9-4.812,49.332-20.882,6.526-10.053,9.439-22.663,11.485-34.257C596.966,304.326,596.534,304.207,596.485,304.486Z" transform="translate(-428.97 -234.502)" fill="#c49e60"/>
        </g>
      </g>
      <g id="Grupo_85574" data-name="Grupo 85574" transform="translate(6.594 86.699)">
        <g id="Grupo_85571" data-name="Grupo 85571" transform="translate(0 3.032)">
          <path id="Trazado_119246" data-name="Trazado 119246" d="M561.7,295.477c-13.287,11.369-30.207,18.784-46.255,23.61a226.267,226.267,0,0,1-52.141,8.955c-2.908,2.132-17.335-1.769-25.312-5.134-8.393-3.526-15.873-3.593-15.3-8.554.536-4.532,7.548-7.67,19.641-9.412,7.7-1.113,18.9.7,21.371-.388,5.108-2.253,14.144-7.468,23.649-13.395,16.022-9.987,33.411-21.988,35.838-25.218,2.091-2.775,12.643-36.468,16.169-59.877,5.35-35.514,35.583-32.753,41.12-15.458C587.885,213.667,578.674,280.971,561.7,295.477Z" transform="translate(-422.664 -178.241)" fill="#eab8a2"/>
          <path id="Trazado_119247" data-name="Trazado 119247" d="M549.994,295.477c-13.287,11.369-30.207,18.784-46.255,23.61-3.58-2.387-7.039-4.934-10.417-7.575-5.229-4.077-11.342-8.46-14.922-14.158a25.077,25.077,0,0,1-2.75-6.195c16.022-9.987,33.411-21.988,35.838-25.218,2.091-2.775,12.643-36.468,16.169-59.877,5.35-35.514,35.583-32.753,41.12-15.458C576.178,213.667,566.968,280.971,549.994,295.477Z" transform="translate(-410.958 -178.241)" fill="#c9777d"/>
        </g>
        <g id="Grupo_85573" data-name="Grupo 85573" transform="translate(70.109)">
          <g id="Grupo_85572" data-name="Grupo 85572" transform="translate(4.898)">
            <path id="Trazado_119248" data-name="Trazado 119248" d="M484.765,278.679c-2.616,2.165,2.514,35.48,14.682,46.034,1.69,1.465,47.177-19.727,56.284-32.6s14.487-54.142,15.193-74.215-2.526-38.924-17.233-41.745-25.733,9.568-29.91,29.715-10.038,50.352-12.126,54.3S487.239,276.629,484.765,278.679Z" transform="translate(-484.098 -175.758)" fill="#454f97"/>
          </g>
          <path id="Trazado_119249" data-name="Trazado 119249" d="M480.417,263.866c-1.326,5.418,1.613,24.524,4.061,29.5s14.3,15.64,16.334,15.789,16.85-5.511,17.783-6.4-10.338-14.522-12.355-20.35-3.868-30.48-5.541-31.64S481.193,260.7,480.417,263.866Z" transform="translate(-480.087 -159.205)" fill="#35417c"/>
        </g>
      </g>
      <g id="Grupo_85579" data-name="Grupo 85579" transform="translate(67.531 237.936)">
        <g id="Grupo_85578" data-name="Grupo 85578" transform="translate(177.157 67.93)">
          <g id="Grupo_85575" data-name="Grupo 85575" transform="translate(0 5.961)">
            <path id="Trazado_119250" data-name="Trazado 119250" d="M639.58,368.594s7.719-10.661,11.256-8.028c3.517,2.614,61.811,45.365,59.26,48.263-2.553,2.858-40.507-16.928-42.181-16.061-.521.248-20.306,12.381-31.353,13.275-3.936-5.84-20.437-38.071-18.768-42.9Z" transform="translate(-617.675 -360.148)" fill="#fff"/>
          </g>
          <g id="Grupo_85577" data-name="Grupo 85577" transform="translate(21.632)">
            <path id="Trazado_119251" data-name="Trazado 119251" d="M664.438,393.826c1.107,2.068,38.988,19.342,42.181,15.942s-57.854-50.72-60.932-51.124-10.068,8.826-10.291,9.251S652.042,370.691,664.438,393.826Z" transform="translate(-635.393 -354.523)" fill="#d26261"/>
            <path id="Trazado_119252" data-name="Trazado 119252" d="M643.108,359.415c11.169,8.153,22.475,16.152,33.486,24.517,10.084,7.661,21.116,16.484,28.467,26.9.781,1.107,2.986.767,2.773-.838-.6-4.52-3.919-7.66-6.929-10.917a150.872,150.872,0,0,0-16.7-15.359c-12.209-9.756-25.117-18.7-37.718-27.936C643.945,353.919,640.533,357.535,643.108,359.415Z" transform="translate(-633.891 -355.266)" fill="#fff"/>
            <g id="Grupo_85576" data-name="Grupo 85576" transform="translate(33.203 34.721)">
              <path id="Trazado_119253" data-name="Trazado 119253" d="M668.852,386.6c-1.01,3.211-.7,7.619,1.969,9.94a.956.956,0,0,0,1.64-.808c-.25-1.476-.559-2.964-.709-4.452-.153-1.5-.059-3.013-.22-4.511C671.379,385.356,669.249,385.339,668.852,386.6Z" transform="translate(-661.321 -383.268)" fill="#fff"/>
              <path id="Trazado_119254" data-name="Trazado 119254" d="M665.985,385.615c-1.01,3.211-.7,7.619,1.969,9.94a.956.956,0,0,0,1.64-.809c-.249-1.474-.558-2.963-.709-4.45-.151-1.5-.057-3.013-.22-4.511C668.514,384.367,666.383,384.351,665.985,385.615Z" transform="translate(-661.955 -383.486)" fill="#fff"/>
              <path id="Trazado_119255" data-name="Trazado 119255" d="M663.119,384.627c-1.01,3.211-.7,7.619,1.969,9.94a.956.956,0,0,0,1.64-.808c-.249-1.476-.559-2.964-.709-4.453s-.059-3.012-.22-4.51C665.647,383.379,663.516,383.362,663.119,384.627Z" transform="translate(-662.588 -383.704)" fill="#fff"/>
            </g>
          </g>
        </g>
        <path id="Trazado_119256" data-name="Trazado 119256" d="M658.761,299.628s5.184,17.972,4.29,31.6c-.643,9.821-7.615,30.787-27.056,37.491-13.42,4.627-92.062,18.322-92.062,18.322s53.628-16.535,66.141-18.769,63.013-2.236,67.483-.894,11.62,24.58,12.96,32.623-7.6,19.664-10.726,20.558-161.391,8.3-175.492,4.469c-27.178-7.373-33.657-36.2-30.529-50.5s67.482-49.322,71.5-53.263,6.45-21.27,6.45-21.27Z" transform="translate(-472.47 -299.628)" fill="#deb978"/>
        <path id="Trazado_119257" data-name="Trazado 119257" d="M627.561,354.038c-8.37.26-17.461.9-25.814,1.387-7.8.455-15.651.744-23.376,1.829a154.4,154.4,0,0,0-25.42,6.053,45.871,45.871,0,0,0-13.971,2.341c-.062.022-.04.1.028.09a93.19,93.19,0,0,1,11.057-1.5c-5.118,1.693-10.189,3.528-15.274,5.392-.051.018-.015.093.039.077,14.014-4.393,28.483-8.854,43.259-11.014,16.048-2.345,33.416-2.669,49.59-4.161C628.363,354.465,628.28,354.016,627.561,354.038Z" transform="translate(-458.835 -287.608)" fill="#c49e60"/>
        <path id="Trazado_119258" data-name="Trazado 119258" d="M662.543,359.366c-37.159-.2-74.619-.78-111.377,5.552-.061.01-.034.1.024.09,36.892-5.3,74.153-5.614,111.352-5.411A.115.115,0,0,0,662.543,359.366Z" transform="translate(-455.22 -286.455)" fill="#c49e60"/>
        <path id="Trazado_119259" data-name="Trazado 119259" d="M633.582,302.673c-.008-.053-.1-.04-.093.012,1.211,11.356,1.74,24.42-1.9,35.4-3.627,10.928-14.434,17.846-24.648,21.886-20.4,8.07-42.842,6.106-63.218,14.175-.338.133-.6.526-.245.4,22.1-7.781,46.779-5.7,68.144-15.8,8.824-4.173,17.507-10.881,20.654-20.468C635.923,327.151,635.375,314.057,633.582,302.673Z" transform="translate(-456.949 -298.963)" fill="#c49e60"/>
        <path id="Trazado_119260" data-name="Trazado 119260" d="M604.765,330.6c-6.963-1.679-14.48-1.7-21.032-4.724-6.913-3.194-10.093-9.788-12.394-16.275-.172-.486-.958-.289-.83.211,1.748,6.808,3.533,13.51,10.612,17.235,6.567,3.455,16.147,4.325,23.563,4.108A.282.282,0,0,0,604.765,330.6Z" transform="translate(-450.942 -297.488)" fill="#c49e60"/>
        <path id="Trazado_119261" data-name="Trazado 119261" d="M537.095,325.249a69.692,69.692,0,0,1-2.795-16.8.2.2,0,0,0-.409,0,40.044,40.044,0,0,0,1.75,16.727c-10.493,5.975-35.48,22.662-44.1,28.568-7.058,4.839-14.068,10.539-17.357,18.7-3.48,8.631-.691,17.729,2.42,26.02a.209.209,0,0,0,.4-.111c-2.658-9.777-5.05-19.622.487-28.915,4.729-7.936,12.84-12.953,20.353-17.926C505.848,346.212,537.41,325.16,537.095,325.249Z" transform="translate(-472.575 -297.723)" fill="#c49e60"/>
      </g>
      <g id="Grupo_85580" data-name="Grupo 85580" transform="translate(121.788 76.155)">
        <path id="Trazado_119262" data-name="Trazado 119262" d="M551.63,173.421c-23.382,2.669-31.66,27.612-32.742,55.84-1.78,46.487.667,119.845,5.027,125.561s38.315-5.627,78.62-5.627c22.792,0,40.214,32.733,47.819,25.354,7.162-6.95,7.918-31.753,6.066-44.713-2.612-18.272-50.036-117.5-57.031-129.317S571.913,171.107,551.63,173.421Z" transform="translate(-516.729 -165.776)" fill="#454f97"/>
        <path id="Trazado_119263" data-name="Trazado 119263" d="M519.059,219.876a.2.2,0,0,0-.4,0q-.291,7.034-.545,14.081c-.328-2.645-.527-5.315-.83-7.952-.019-.17-.281-.178-.272,0,.171,3.653-.028,7.818.985,11.423-1.188,35.585-1.132,71.3,4.876,106.494.125.736,1.215.414,1.11-.306C518.048,302.641,518.8,261.163,519.059,219.876Z" transform="translate(-517.014 -155.509)" fill="#35417c"/>
        <path id="Trazado_119264" data-name="Trazado 119264" d="M553,167.136c3.188.223,9.933,3.88,14.855,9.65,1.859,2.179-4.642,34.433-20.608,51.164-1.438,1.507-10.551-19.441-11.811-19.441s-9.721,19.607-10.015,19.44-5.958-16.927-5.724-22.289,4.255-19.44,9.617-26.647S548.534,166.823,553,167.136Z" transform="translate(-516.422 -167.122)" fill="#35417c"/>
      </g>
      <g id="Grupo_85592" data-name="Grupo 85592" transform="translate(70.547)">
        <g id="Grupo_85582" data-name="Grupo 85582" transform="translate(48.623 54.698)">
          <g id="Grupo_85581" data-name="Grupo 85581">
            <path id="Trazado_119265" data-name="Trazado 119265" d="M560.279,181.368c-1.461,11.773-10.159,29.04-18.708,30.261-8.54,1.244-13.766-4.973-14.489-8.805-.6-3.212.449-6.52-.289-10.333a11.955,11.955,0,0,0-.639-2.278c-3.6-9.3-11.284-19.148-11.284-19.148l26.794-18.921s2.938-3.471,3.356-2.387c2.1,5.329,4.809,10.96,7.367,15.97C556.6,173.967,560.378,180.555,560.279,181.368Z" transform="translate(-514.87 -149.547)" fill="#eab8a2"/>
          </g>
          <path id="Trazado_119266" data-name="Trazado 119266" d="M552.388,165.727a47.972,47.972,0,0,1-6.624,14.517c-3.986,5.792-11.479,11.947-18.972,12.247a11.955,11.955,0,0,0-.639-2.278c-3.6-9.3-11.284-19.148-11.284-19.148l26.794-18.921s2.938-3.471,3.356-2.387C547.121,155.086,549.83,160.717,552.388,165.727Z" transform="translate(-514.87 -149.547)" fill="#c9777d"/>
        </g>
        <g id="Grupo_85591" data-name="Grupo 85591">
          <path id="Trazado_119267" data-name="Trazado 119267" d="M485.214,119.007s-5.653,15.884-1.222,27.758,11.244,16.431,12.5,16.43S485.214,119.007,485.214,119.007Z" transform="translate(-473.443 -101.596)" fill="#292e49"/>
          <g id="Grupo_85583" data-name="Grupo 85583" transform="translate(13.863 4.905)">
            <path id="Trazado_119268" data-name="Trazado 119268" d="M535.838,116.389c9.544,9.263,23.848,43.7,21.134,55.6-2.615,11.46-27.687,28.735-44.139,19.8-15.948-8.656-30.6-55.091-25.346-66.492C495.222,108.505,521.741,102.706,535.838,116.389Z" transform="translate(-486.4 -108.764)" fill="#eab8a2"/>
          </g>
          <g id="Grupo_85588" data-name="Grupo 85588" transform="translate(21.97 37.48)">
            <g id="Grupo_85584" data-name="Grupo 85584" transform="translate(25.837 8.515)">
              <path id="Trazado_119269" data-name="Trazado 119269" d="M514.269,145.221c-.016-.093.22.04.253.134.8,2.308,2.111,4.815,4.464,4.781.073,0,.11.116.031.134C516.363,150.882,514.66,147.536,514.269,145.221Z" transform="translate(-514.186 -141.806)" fill="#292e49"/>
              <path id="Trazado_119270" data-name="Trazado 119270" d="M515.406,142.671c3.559-1.686,6.67,5.559,3.372,7.12C515.532,151.328,512.421,144.085,515.406,142.671Z" transform="translate(-514.201 -142.418)" fill="#292e49"/>
            </g>
            <g id="Grupo_85585" data-name="Grupo 85585" transform="translate(5.35 16.455)">
              <path id="Trazado_119271" data-name="Trazado 119271" d="M501.349,150.226c-.054-.079-.129.181-.088.271,1.034,2.214,1.847,4.923.137,6.54-.053.05,0,.16.072.117C503.8,155.742,502.684,152.156,501.349,150.226Z" transform="translate(-496.576 -148.636)" fill="#292e49"/>
              <path id="Trazado_119272" data-name="Trazado 119272" d="M499.184,149.027c-3.726,1.276-.9,8.636,2.552,7.454C505.133,155.317,502.308,147.958,499.184,149.027Z" transform="translate(-497.422 -148.921)" fill="#292e49"/>
            </g>
            <path id="Trazado_119273" data-name="Trazado 119273" d="M521.053,162.356c-.311.756-.537,1.709-1.322,2.128a6.474,6.474,0,0,1-2.654.471.085.085,0,0,0-.048.156,3.289,3.289,0,0,0,3.371,0,2.6,2.6,0,0,0,.912-2.742C521.292,162.219,521.1,162.245,521.053,162.356Z" transform="translate(-487.749 -129.519)" fill="#c9777d"/>
            <path id="Trazado_119274" data-name="Trazado 119274" d="M517.674,139.672a31.061,31.061,0,0,1-3.229.216c-1.24.07-2.221.253-3.337-.408a1.667,1.667,0,0,1-.549-1.96c.673-1.43,2.171-1.891,3.66-2.037a6.073,6.073,0,0,1,4.253,1.034A1.779,1.779,0,0,1,517.674,139.672Z" transform="translate(-489.196 -135.444)" fill="#292e49"/>
            <path id="Trazado_119275" data-name="Trazado 119275" d="M495.785,148.2a30.509,30.509,0,0,0,2.558-1.983c.974-.772,1.829-1.286,2.225-2.52a1.668,1.668,0,0,0-.891-1.831c-1.452-.62-2.879.028-4.089.91a6.07,6.07,0,0,0-2.492,3.6A1.778,1.778,0,0,0,495.785,148.2Z" transform="translate(-493.04 -134.081)" fill="#292e49"/>
            <path id="Trazado_119276" data-name="Trazado 119276" d="M512,162.216s3.957,3.682,7.075,1.2c2.353-1.874-1.48-6.605-1.48-6.605S515.367,161.005,512,162.216Z" transform="translate(-488.851 -130.724)" fill="#fff"/>
            <g id="Grupo_85587" data-name="Grupo 85587" transform="translate(8.641 6.035)">
              <g id="Grupo_85586" data-name="Grupo 85586">
                <path id="Trazado_119277" data-name="Trazado 119277" d="M520.514,160.548a8.315,8.315,0,0,1-3.641,5.589,10.446,10.446,0,0,1-2.695,1.305,2.918,2.918,0,0,1-.551.166c-.172.051-.328.1-.525.136a.607.607,0,0,1-.665-.309l-.006-.017a1.157,1.157,0,0,1-.078-.238l-.006-.017-.082-.2c-.789-1.707-1.748-4.406-1.748-4.406-.5.587-3.094,3.417-3.43,2.492-2.763-7.664-5.835-16.187-6.965-24.4a.226.226,0,0,1,.435-.118c2.946,7.261,4.6,14.991,7.439,22.332a14.572,14.572,0,0,1,3.137-2.643c.276-.034,1.764,5.251,2.179,5.99a.309.309,0,0,0,.05.076c3.062-.875,4.874-2.692,6.855-5.851C520.329,160.237,520.572,160.311,520.514,160.548Z" transform="translate(-500.117 -140.387)" fill="#c9777d"/>
              </g>
            </g>
          </g>
          <g id="Grupo_85589" data-name="Grupo 85589">
            <path id="Trazado_119278" data-name="Trazado 119278" d="M548.567,149.078c-6.776,1.682-12.616-13.177-17.717-19.205-5.312-6.279-14.811-1.079-20.681,3.137-10.241,7.354-20.424,7.172-25.967,2.35-11.3-9.832-8.938-22.911.94-27.627,10.867-5.188,38.393-1.083,42.273-1.47s12.551-3.557,20.19,2.745C555.756,115.729,557.339,146.9,548.567,149.078Z" transform="translate(-474.684 -104.672)" fill="#292e49"/>
            <path id="Trazado_119279" data-name="Trazado 119279" d="M520.658,123.211c-9.936,6.123-21.928,20.4-34.9,13.519-5.832-3.09-10.17-8.55-9.859-15.376.292-6.41,5.038-11.678,10.919-13.735.154-.054.051-.276-.1-.23a16.122,16.122,0,0,0-11.457,12.557c-1.078,6.49,2.074,11.95,7.112,15.773,14.2,10.775,27.168-5.167,38.418-12.35C520.9,123.3,520.767,123.143,520.658,123.211Z" transform="translate(-475.045 -104.164)" fill="#292e49"/>
            <path id="Trazado_119280" data-name="Trazado 119280" d="M535.143,105.76c-4.245-1.7-8.759-.993-12.892.146-.042.011-.02.087.022.078,4.27-.786,8.814-1.316,13.008.709,4.666,2.254,7.024,7.4,8.326,12.3,2.433,9.163.927,16.728-1.3,25.431-.083.322.123.325.225,0,2.959-9.6,4.671-19.231.765-29.2C541.681,111.1,539.246,107.4,535.143,105.76Z" transform="translate(-464.621 -104.746)" fill="#292e49"/>
          </g>
          <g id="Grupo_85590" data-name="Grupo 85590" transform="translate(73.223 32.232)">
            <path id="Trazado_119281" data-name="Trazado 119281" d="M535.018,145.419s1.825-14.385,7.976-14.271,8.638,18.268,4.132,23.3a6.438,6.438,0,0,1-9.246.951Z" transform="translate(-535.018 -131.146)" fill="#eab8a2"/>
            <path id="Trazado_119282" data-name="Trazado 119282" d="M542.813,135.427c.085-.056.17.061.109.134-3.093,3.657-3.245,8.388-2.708,12.926.4-2.068,1.576-3.7,4.255-3.334.14.018.127.231,0,.266a3.96,3.96,0,0,0-3.215,3.251,19.156,19.156,0,0,0-.206,4.091c0,.448-.733.593-.811.118-.006-.035-.011-.072-.016-.107C537.492,147.815,537.7,138.759,542.813,135.427Z" transform="translate(-534.253 -130.204)" fill="#c9777d"/>
          </g>
        </g>
      </g>
      <g id="Grupo_85601" data-name="Grupo 85601" transform="translate(0.447 142.321)">
        <path id="Trazado_119283" data-name="Trazado 119283" d="M497.25,237.439a15.682,15.682,0,0,1-8.068,6.382,53.531,53.531,0,0,1,5.1,16.286c.495,3.088,2.321,15.161-11.93,22.577q-1.494.784-3.24,1.492s15.547,10.488,18.5,11.946,7.73,6.3,4.267,9.984-12.08-.112-12.08-.112c4.539,7.711-.772,14.773-.772,14.773,1.328,1.764,11.1,7.946,9.681,12.529-3.652,11.753-15.485,14.2-20.236,13.451s-9.14-16.446-9.14-16.446c-5.942,1.315-15.9,1.311-21.256-1.4a8.074,8.074,0,0,1-.766-.43c-.032-.015-.059-.029-.085-.044a16.805,16.805,0,0,1-8.306-12.944c-.011-.127-.022-.254-.033-.376a16.239,16.239,0,0,1,.321-4.931c.664-11.866,8.68-22.593,8.929-22.928l0-.007c-5.57-1.131-11.158-3.394-14.959-7.572a18.342,18.342,0,0,1-4.668-10.85c-.07-.647-.105-1.311-.12-2a50.234,50.234,0,0,1,3.587-20.137,15.291,15.291,0,0,1-7.351-5.007c-4.856-6.066-2.09-14.817,6.99-16.978,6.141-1.471,10.118,3.365,12.052,6.655.234-.173.471-.335.707-.5a30.235,30.235,0,0,1,13.123-5.014,29.575,29.575,0,0,1,11.518,1.037,31.355,31.355,0,0,1,7.484,3.19c.094.055.193.109.287.17,1.336-3.394,4.754-9.656,11.55-8.853C497.6,222.477,501.367,230.848,497.25,237.439Z" transform="translate(-416.607 -221.314)" fill="#d8997b"/>
        <path id="Trazado_119284" data-name="Trazado 119284" d="M446.806,278.125a32.419,32.419,0,0,0-8.068,19.5,40.321,40.321,0,0,1-4.968.781c-8.611.723-10.24-3.1-9.076-6.614.709-2.146,3.234-4.307,6.348-6.268C437.454,281.494,446.341,278.361,446.806,278.125Z" transform="translate(-416.143 -208.763)" fill="#d8997b"/>
        <path id="Trazado_119285" data-name="Trazado 119285" d="M445.6,278.125a32.419,32.419,0,0,0-8.068,19.5,40.321,40.321,0,0,1-4.968.781,20.311,20.311,0,0,0-2.721-12.877l-.007,0C436.245,281.494,445.132,278.361,445.6,278.125Z" transform="translate(-414.934 -208.763)" fill="#292e49"/>
        <path id="Trazado_119286" data-name="Trazado 119286" d="M470.076,231.986s1.7-6.853,6.973-6.229,7.418,5.389,5.074,9.136A9.225,9.225,0,0,1,475.609,239Z" transform="translate(-406.043 -220.342)" fill="#eabb97"/>
        <path id="Trazado_119287" data-name="Trazado 119287" d="M439.282,233.493s-2.481-6.609-7.65-5.376-6.741,6.216-3.978,9.665a8.391,8.391,0,0,0,6.254,3.361Z" transform="translate(-415.713 -219.845)" fill="#eabb97"/>
        <path id="Trazado_119288" data-name="Trazado 119288" d="M448.327,311.427a36.284,36.284,0,0,1-16.412,11.667c-12.453,4.182-18.242-16.353-11.325-17.3,5.875-.808,16.338-5.856,19.35-7.351a16.785,16.785,0,0,0,8.3,12.943A.317.317,0,0,0,448.327,311.427Z" transform="translate(-417.63 -204.275)" fill="#d8997b"/>
        <path id="Trazado_119289" data-name="Trazado 119289" d="M429.413,285.448c2.154,3.054,2.375,7.277,1.695,10.805-.249,1.3,1.779,1.559,2.027.272.788-4.089.358-8.836-2.112-12.339-.758-1.074-2.366.187-1.609,1.261Z" transform="translate(-415.071 -207.514)" fill="#d26261"/>
        <path id="Trazado_119290" data-name="Trazado 119290" d="M468.237,325.548a17.512,17.512,0,0,1,2.894-5.572,20.424,20.424,0,0,1,4.545-4.405,20.655,20.655,0,0,1,5.672-2.808,21.941,21.941,0,0,1,6.2-1.024,34.261,34.261,0,0,0-5.986,1.626,24.6,24.6,0,0,0-2.8,1.272c-.457.231-.894.5-1.337.752-.429.278-.864.546-1.276.85a23.923,23.923,0,0,0-4.521,4.134A24.244,24.244,0,0,0,468.237,325.548Z" transform="translate(-406.45 -201.337)" fill="#eabb97"/>
        <path id="Trazado_119291" data-name="Trazado 119291" d="M472.121,305.606a26.823,26.823,0,0,1,2.062,2.123c.656.733,1.275,1.494,1.885,2.262s1.189,1.562,1.742,2.375a26.649,26.649,0,0,1,1.562,2.515,26.836,26.836,0,0,1-2.065-2.122c-.656-.734-1.273-1.5-1.883-2.264s-1.189-1.562-1.742-2.375A26.966,26.966,0,0,1,472.121,305.606Z" transform="translate(-405.592 -202.692)" fill="#eabb97"/>
        <path id="Trazado_119292" data-name="Trazado 119292" d="M454.351,286.957a18.294,18.294,0,0,1-2.453-3.306c-.175-.3-.36-.589-.525-.89l-.484-.913c-.338-.6-.6-1.239-.9-1.862a50.057,50.057,0,0,1-2.609-7.842,72.066,72.066,0,0,1-1.7-16.417l.022-2.067c.023-.687.071-1.376.105-2.063s.057-1.376.129-2.062l.193-2.059a59.477,59.477,0,0,1,1.365-8.152,43.69,43.69,0,0,1,2.643-7.831,25.978,25.978,0,0,1,2.013-3.612,10.531,10.531,0,0,1,2.8-3.006,7.57,7.57,0,0,0-1.448,1.442c-.212.267-.407.549-.61.823s-.37.574-.555.86a25.673,25.673,0,0,0-1.829,3.655,43.668,43.668,0,0,0-2.4,7.809,77.05,77.05,0,0,0-1.612,16.268,75.348,75.348,0,0,0,1.491,16.274,50.278,50.278,0,0,0,2.366,7.825c.266.628.5,1.272.806,1.881l.44.927c.15.306.321.6.481.9A20.432,20.432,0,0,0,454.351,286.957Z" transform="translate(-411.432 -220.528)" fill="#eabb97"/>
        <path id="Trazado_119293" data-name="Trazado 119293" d="M418.976,305.816a14.984,14.984,0,0,1,4.349,2.246,15.268,15.268,0,0,1,3.436,3.526,14.031,14.031,0,0,1,1.99,4.505,15.4,15.4,0,0,1,.358,2.436,16.744,16.744,0,0,1-.041,2.45,18.833,18.833,0,0,0-.62-4.808,16.4,16.4,0,0,0-.829-2.264,14.315,14.315,0,0,0-1.194-2.089,15.908,15.908,0,0,0-3.289-3.509,17.546,17.546,0,0,0-1.994-1.38A15.889,15.889,0,0,0,418.976,305.816Z" transform="translate(-417.333 -202.646)" fill="#eabb97"/>
        <path id="Trazado_119294" data-name="Trazado 119294" d="M420.6,307.955c.775-.214,1.548-.427,2.314-.673q1.152-.344,2.29-.734c1.516-.516,3.023-1.061,4.5-1.686,1.48-.608,2.919-1.306,4.332-2.056.69-.4,1.4-.779,2.057-1.234.692-.408,1.313-.913,1.973-1.376a23.6,23.6,0,0,1-3.874,2.883,40.779,40.779,0,0,1-4.331,2.161c-1.5.6-3.014,1.153-4.56,1.608A39.576,39.576,0,0,1,420.6,307.955Z" transform="translate(-416.974 -203.887)" fill="#eabb97"/>
        <path id="Trazado_119295" data-name="Trazado 119295" d="M480.063,276.247a52.567,52.567,0,0,1-38.946,4.211c-1.37-4.873,2.909-4.527,2.909-4.527C465.054,278.073,475,272.86,475,272.86,479.732,271.2,480.063,276.247,480.063,276.247Z" transform="translate(-412.501 -210.001)" fill="#d26261"/>
        <g id="Grupo_85593" data-name="Grupo 85593" transform="translate(18.876 66.247)">
          <path id="Trazado_119296" data-name="Trazado 119296" d="M496.357,284.819a16.245,16.245,0,0,0-5.566,10.319l-1-.336-2.392-.8c1.84,2.463,3.173,7.144,3.686,9.148.149.593.228.951.228.951A93.277,93.277,0,0,1,481.293,308c-31.294,10.081-48.315-4.461-48.2-5.169.045-.3.1-.591.155-.888,1.933-10.259,9.587-22.153,9.587-22.153a47.188,47.188,0,0,0,14.552,1.949,52.879,52.879,0,0,0,24.393-6.161l13.685,8.68Z" transform="translate(-433.091 -275.574)" fill="#292e49"/>
          <path id="Trazado_119297" data-name="Trazado 119297" d="M439.852,283.328a50.836,50.836,0,0,0-3.263,5.127c.029-.178.06-.357.1-.534a20.905,20.905,0,0,1,.737-2.513c.044-.126-.143-.205-.193-.081a14.493,14.493,0,0,0-1.155,4.106,20.929,20.929,0,0,0-2.41,8.083.169.169,0,0,0,.332.056,52.53,52.53,0,0,1,5.926-14.2C439.948,283.33,439.88,283.289,439.852,283.328Z" transform="translate(-432.964 -273.864)" fill="#525a7c"/>
        </g>
        <path id="Trazado_119298" data-name="Trazado 119298" d="M486.731,284.141c-2.72,2.378-5.03,5.918-5.183,9.653-.055,1.315-2.082,1.034-2.027-.27,0-.067.006-.135.015-.2.237-4.067,2.735-7.895,5.67-10.549.087-.085.175-.159.263-.238C486.466,281.66,487.718,283.276,486.731,284.141Z" transform="translate(-403.957 -207.845)" fill="#d26261"/>
        <path id="Trazado_119299" data-name="Trazado 119299" d="M492.941,300.037a52.119,52.119,0,0,1-7.616,3.085l-.752.249a93.411,93.411,0,0,1-16.224,3.713c-6.664.923-13.478,1.38-20.076-.175-5.945-1.405-12.289-4.211-16.6-8.688-.916-.949.706-2.2,1.608-1.263.1.1.214.216.333.328A32.24,32.24,0,0,0,438.6,300.9c10.289,6.062,22.152,5.583,33.534,3.508,2.163-.393,4.36-.847,6.547-1.385a60.071,60.071,0,0,0,12.779-4.52c.225-.111.448-.227.672-.344C493.3,297.545,494.092,299.432,492.941,300.037Z" transform="translate(-414.587 -204.676)" fill="#d26261"/>
        <path id="Trazado_119300" data-name="Trazado 119300" d="M479.577,291.559a19.854,19.854,0,0,1-2.963-.746c-.969-.309-1.916-.684-2.85-1.084a28.832,28.832,0,0,1-2.725-1.37,18.551,18.551,0,0,1-2.537-1.706c.966.345,1.889.747,2.82,1.134l2.77,1.193c.917.41,1.839.813,2.752,1.24S478.674,291.075,479.577,291.559Z" transform="translate(-406.391 -206.879)" fill="#525a7c"/>
        <g id="Grupo_85600" data-name="Grupo 85600" transform="translate(21.178 34.607)">
          <g id="Grupo_85595" data-name="Grupo 85595" transform="translate(6.411 8.867)">
            <path id="Trazado_119301" data-name="Trazado 119301" d="M464.173,265.829c.436,5.425-4.564,10.253-11.169,10.784s-12.314-3.434-12.75-8.859,4.564-10.253,11.169-10.784S463.736,260.4,464.173,265.829Z" transform="translate(-440.227 -256.922)" fill="#eabb97"/>
            <g id="Grupo_85594" data-name="Grupo 85594" transform="translate(7.907 4.145)">
              <path id="Trazado_119302" data-name="Trazado 119302" d="M452.033,264.387a.081.081,0,0,0-.15.024,8.013,8.013,0,0,1-.142,1.872,1.891,1.891,0,0,1-1.822,1.524c-1.571-.084-2.373-1.293-3.082-2.282-.038-.054-.154-.013-.132.051.441,1.26,1.73,2.972,3.6,2.7C452.419,267.959,452.44,265.639,452.033,264.387Z" transform="translate(-446.704 -259.427)" fill="#292e49"/>
              <path id="Trazado_119303" data-name="Trazado 119303" d="M448.241,260.38c-.009-.083-.147-.087-.149,0a20.51,20.51,0,0,0,1.323,8.559c.079.189.4.111.358-.1A83.538,83.538,0,0,1,448.241,260.38Z" transform="translate(-446.4 -260.317)" fill="#292e49"/>
            </g>
            <path id="Trazado_119304" data-name="Trazado 119304" d="M443.769,260.318c.189,1.134,4.382,2.68,5.714,2.422s5.116-2.6,4.984-3.7c-.157-1.326-2.863-1.674-5.631-1.457C446.831,257.74,443.548,259,443.769,260.318Z" transform="translate(-439.447 -256.789)" fill="#292e49"/>
          </g>
          <g id="Grupo_85597" data-name="Grupo 85597" transform="translate(0 9.116)">
            <g id="Grupo_85596" data-name="Grupo 85596">
              <path id="Trazado_119305" data-name="Trazado 119305" d="M438.415,257.126c-4.7-.049-4.439,7.881-.081,7.925C442.624,265.1,442.359,257.165,438.415,257.126Z" transform="translate(-434.976 -257.126)" fill="#292e49"/>
            </g>
          </g>
          <g id="Grupo_85599" data-name="Grupo 85599" transform="translate(30.846 7.78)">
            <g id="Grupo_85598" data-name="Grupo 85598">
              <path id="Trazado_119306" data-name="Trazado 119306" d="M463.2,256.051c-4.672.547-3.406,8.379.923,7.871C468.388,263.422,467.121,255.591,463.2,256.051Z" transform="translate(-460.241 -256.031)" fill="#292e49"/>
            </g>
          </g>
          <path id="Trazado_119307" data-name="Trazado 119307" d="M437.3,251.423a2.888,2.888,0,0,0-2,1.1.993.993,0,0,0,.65,1.563,5.943,5.943,0,0,0,1.68-.238C439.2,253.579,438.82,251.066,437.3,251.423Z" transform="translate(-434.94 -249.277)" fill="#292e49"/>
          <path id="Trazado_119308" data-name="Trazado 119308" d="M462.623,249.661a2.886,2.886,0,0,1,2.157.745.992.992,0,0,1-.371,1.651,5.941,5.941,0,0,1-1.7.054C461.121,252.112,461.067,249.569,462.623,249.661Z" transform="translate(-429.119 -249.659)" fill="#292e49"/>
        </g>
      </g>
      <g id="Grupo_85604" data-name="Grupo 85604" transform="translate(19.831 101.727)">
        <g id="Grupo_85602" data-name="Grupo 85602" transform="translate(0 3.025)">
          <path id="Trazado_119309" data-name="Trazado 119309" d="M587.191,307.279c-17.778,12.7-43.532,18.81-66.1,21.706a314.033,314.033,0,0,1-48.225,2.387c-3.1,1.877-17.12-3.259-24.776-7.307-8.057-4.25-15.512-4.961-14.492-9.854.912-4.465,8.178-6.985,20.378-7.682,7.763-.43,18.771,2.345,21.317,1.475,5.658-1.9,18.127-6.825,31.386-12.348,20.15-8.406,42.111-18.233,44.713-21.129,2.319-2.587,15.739-35.234,21.29-58.254,8.42-34.925,38.277-29.535,42.312-11.838C620.36,228.057,605.345,294.3,587.191,307.279Z" transform="translate(-433.506 -190.544)" fill="#eab8a2"/>
          <path id="Trazado_119310" data-name="Trazado 119310" d="M573.95,307.279c-17.778,12.7-43.532,18.81-66.1,21.706a48.471,48.471,0,0,1-14.412-33.33c20.15-8.406,42.111-18.233,44.713-21.129,2.318-2.587,15.739-35.234,21.29-58.254,8.42-34.925,38.277-29.535,42.313-11.838C607.119,228.057,592.1,294.3,573.95,307.279Z" transform="translate(-420.265 -190.544)" fill="#c9777d"/>
        </g>
        <g id="Grupo_85603" data-name="Grupo 85603" transform="translate(81.723)">
          <path id="Trazado_119311" data-name="Trazado 119311" d="M509.1,285.054c-2.794,1.93-.571,35.566,10.635,47.134,1.556,1.605,48.709-15.563,58.9-27.6s19.127-52.682,21.57-72.618.858-39-13.549-43.082-26.466,7.3-32.374,27.009-14.365,49.292-16.788,53.049S511.748,283.226,509.1,285.054Z" transform="translate(-498.769 -188.066)" fill="#454f97"/>
          <path id="Trazado_119312" data-name="Trazado 119312" d="M601.4,241.6c-1.794,2.237-3.594,4.558-5.206,6.98,2.01-6.605,4.124-13.18,6.531-19.62.116-.313-.378-.444-.5-.138-4.179,10.86-8.537,21.591-12.1,32.687-3.244,10.112-5.7,23.237-12.622,31.393-3.547,4.176-19.824,13.9-28.7,17.866-10.178,4.544-20.449,8.456-30.876,12.26a.236.236,0,0,0,.126.454c25.836-4.621,57.993-24.862,61.435-29.538,5.736-7.791,9.177-19.882,11.828-28.914q1.776-6.045,3.572-12.118c2.309-3.671,4.371-7.472,6.843-11.052C601.878,241.66,601.555,241.411,601.4,241.6Z" transform="translate(-496.613 -179.101)" fill="#35417c"/>
          <path id="Trazado_119313" data-name="Trazado 119313" d="M549.336,224.586a.137.137,0,0,0-.264-.074c-.957,2.873-2.028,5.73-3.06,8.6.039-1.66-.027-3.327-.079-4.948a.111.111,0,0,0-.222,0,51.532,51.532,0,0,1-1.184,9.263c-.774,2.354-3.9,12.281-5.58,18.254-.546,1.292-1.109,2.576-1.736,3.823-1.869,3.718-5.516,5.06-9.041,6.874-6.605,3.4-13.369,6.672-19.591,10.743-.028.018-.011.071.024.057,7.8-2.951,15.218-6.978,22.656-10.722,2.441-1.228,5.024-2.391,6.52-4.788a29.283,29.283,0,0,0,2.8-6.915C543.678,245.569,547.775,230.712,549.336,224.586Z" transform="translate(-498.647 -180.036)" fill="#35417c"/>
          <path id="Trazado_119314" data-name="Trazado 119314" d="M501.292,271.658c-1.787,5.478-.5,25.473,1.508,30.837s12.9,17.429,14.915,17.763,17.263-4.189,18.268-5.028-9.05-15.92-10.557-22.121-1.233-31.828-2.8-33.176S502.338,268.452,501.292,271.658Z" transform="translate(-500.442 -172.217)" fill="#35417c"/>
        </g>
      </g>
    </g>
    <g id="Grupo_85621" data-name="Grupo 85621" transform="translate(337.224 305.879)">
      <path id="Trazado_119315" data-name="Trazado 119315" d="M367.275,364.082c3.078-1.309,62.486,1.326,63.677.685s7.087-14.392,9.52-13.459-.493,28.247-2.245,29.313-84.776,21.56-88.5,21.653S358.387,367.859,367.275,364.082Z" transform="translate(-334.613 -251.418)" fill="#9daebd"/>
      <g id="Grupo_85606" data-name="Grupo 85606" transform="translate(30.475 54.093)">
        <path id="Trazado_119316" data-name="Trazado 119316" d="M370.889,345.263c3.27,1.5,24.353,3.583,31.734.567s26.907-18.874,30.1-23.76-.617-10.69-7.7-7.232-25.079,12.47-27.168,13.376-18.332-.386-23.464-.365C362.805,327.894,359.93,340.24,370.889,345.263Z" transform="translate(-361.78 -313.79)" fill="#ebada0"/>
        <path id="Trazado_119317" data-name="Trazado 119317" d="M420.323,316.4c1.968-.414,8.278,9.046,7.2,13.275-.7,2.748-19.3,14.555-23.532,16.033-6.665,2.33-19.271,5.2-32.11-.19s-12.809-17.972-.6-18.795c8.63-.582,26.276-.538,27.858-.8S418.481,316.783,420.323,316.4Z" transform="translate(-362.185 -313.217)" fill="#9daebd"/>
      </g>
      <g id="Grupo_85608" data-name="Grupo 85608" transform="translate(0 67.175)">
        <g id="Grupo_85607" data-name="Grupo 85607">
          <path id="Trazado_119318" data-name="Trazado 119318" d="M376.384,325.829c7.925,3.3,21.629,22.922,26.94,41.343s4.43,24.174-7.7,34.2c-16,13.228-15.964,21.938-24.952,24.231-11.259,2.872-20.818-.674-25.077-5.056-9.034-9.295-10.716-19.774-5.243-38.379,3.217-10.932,8.085-36.964,12.92-46.092C358.877,325.5,368.2,322.423,376.384,325.829Z" transform="translate(-337.224 -324.504)" fill="#9daebd"/>
          <path id="Trazado_119319" data-name="Trazado 119319" d="M396.62,371.156c-1.7-7.538-4.973-14.5-8.794-21.16-.482-2.679-1.8-5.389-2.706-7.9a.129.129,0,0,0-.244.085c.425,1.547.769,3.237,1.222,4.875-1.646-2.732-3.356-5.422-5.064-8.086-.063-.1-.2,0-.149.1,8.329,15.1,25.8,41.748,7.921,56.222a.248.248,0,0,0,.277.41C397.781,391.212,398.525,379.632,396.62,371.156Z" transform="translate(-327.581 -321.317)" fill="#8396a5"/>
        </g>
        <path id="Trazado_119320" data-name="Trazado 119320" d="M379.262,379.6c3.445-.576,49.118,9.482,64.513,16.269,1.294.57,10.719-12.887,12.961-11.344s-7.409,28.571-9.45,29.227-91.638,4.273-97.678-1.343C346.755,409.76,369.309,381.27,379.262,379.6Z" transform="translate(-334.543 -312.337)" fill="#9daebd"/>
        <path id="Trazado_119321" data-name="Trazado 119321" d="M446.53,419.617c-12.616.444-25.226,1.267-37.835,1.868-1.546.073-3.107.154-4.666.232-.089-.514-.183-1.027-.26-1.529-.037-.233-.393-.236-.377.013.033.505.051,1.024.077,1.543l-1.337.067c-.046-.587-.087-1.173-.092-1.763,0-.336-.5-.306-.513.018-.031.548-.062,1.161-.066,1.778-10.506.512-21.225.824-31.5-1.128a41.984,41.984,0,0,1-13.671-5.075,4.073,4.073,0,0,0,.422-.465.221.221,0,0,0-.278-.336,4.359,4.359,0,0,0-.691.452c-.37-.232-.742-.458-1.1-.7.427-.342.861-.674,1.286-1.02a.287.287,0,1,0-.365-.44c-.442.391-.871.795-1.308,1.19a24.362,24.362,0,0,1-9.721-13.055c-1.927-6.586-.628-13.524.853-20.059,1.176-5.184,2.293-10.36,3.271-15.581.242-.037.476-.072.682-.089a.33.33,0,0,0-.024-.659l-.515.026c.037-.2.081-.4.117-.595q.092-.5.183-1a5.048,5.048,0,0,0,1.067.023c.27-.029.353-.455.05-.507a7.554,7.554,0,0,0-1.013-.087c2.112-11.57,4.454-23.193,10.986-33.2.055-.084-.084-.186-.144-.1-6.575,9.1-9.078,20.072-11.092,30.926l-.44,2.365c-.332,0-.664,0-.99-.023-.194-.012-.223.3-.034.341.3.057.617.118.933.173l-.326,1.756a2.21,2.21,0,0,0-1.317.524.063.063,0,0,0,.016.1,2.358,2.358,0,0,0,1.159.122c-.812,4.3-1.658,8.6-2.658,12.872-1.416,6.051-2.95,12.329-2.261,18.59a23.393,23.393,0,0,0,10.618,17.694c-.491.448-.99.888-1.476,1.344-.106.1.048.291.166.2.56-.43,1.107-.878,1.661-1.316.375.244.778.459,1.166.687-.32.3-.624.617-.908.908a.194.194,0,0,0,.245.3c.394-.267.828-.553,1.233-.868,12.057,6.77,29.99,6.719,42.3,6.278,1.138-.04,2.279-.094,3.417-.138a6.109,6.109,0,0,0,.37,2.107.274.274,0,0,0,.532-.092,13.643,13.643,0,0,0-.2-2.044c.443-.017.886-.04,1.331-.057a12.832,12.832,0,0,0,.252,2.022c.071.316.542.208.542-.093a12.272,12.272,0,0,0-.181-1.956c14.147-.57,28.323-1.352,42.436-2.328A.1.1,0,0,0,446.53,419.617Z" transform="translate(-335.977 -323.423)" fill="#8396a5"/>
      </g>
      <g id="Grupo_85610" data-name="Grupo 85610" transform="translate(14.8 73.613)">
        <path id="Trazado_119322" data-name="Trazado 119322" d="M360.465,360.552c3.61,2.016,27.581,6.333,36.315,3.552s32.561-19.17,36.671-24.477.271-12.307-8.163-8.991-29.882,12-32.359,12.844-20.972-2.118-26.855-2.565C352.79,339.908,348.364,353.794,360.465,360.552Z" transform="translate(-348.453 -329.777)" fill="#ebada0"/>
        <path id="Trazado_119323" data-name="Trazado 119323" d="M414.69,334.045c2.323.7,11.275,14.871,7.034,17.827-4.215,2.935-19.613,14.008-25.581,14.815s-26.561.182-33.84-4c-10.384-5.963-17.625-19.32-9.391-24.323,8.954-5.442,32.031,2.99,36.91,3.167S410.961,332.925,414.69,334.045Z" transform="translate(-349.346 -328.856)" fill="#9daebd"/>
        <g id="Grupo_85609" data-name="Grupo 85609" transform="translate(5.145 6.163)">
          <path id="Trazado_119324" data-name="Trazado 119324" d="M364.965,337.2a.175.175,0,0,1,.057-.344,80.553,80.553,0,0,1,10.34,2.021c3.391.777,6.881,1.349,10.225,2.3a4.009,4.009,0,0,1,2.359.041,19.115,19.115,0,0,1,3.9-1.907,137.98,137.98,0,0,1,13.815-4.488c.093-.023.118.116.04.153-3.878,1.834-8.012,3.214-12.026,4.719a27.54,27.54,0,0,0-5.511,2.5c-1.89,1.237-3.16,2.984-4.661,4.615-.161.175-.521.017-.392-.227a13.966,13.966,0,0,1,3.961-4.732,5.631,5.631,0,0,0-2.648.65c-1.214.679-2.225,1.679-3.431,2.376-.184.106-.441-.12-.272-.3a13.824,13.824,0,0,1,3.883-3.04,44.921,44.921,0,0,1-8.988-1.625C372.069,339.036,368.484,338.184,364.965,337.2Z" transform="translate(-351.071 -334.825)" fill="#8396a5"/>
          <path id="Trazado_119325" data-name="Trazado 119325" d="M364.324,362.083c3.778-.121,7.581.657,11.3,1.194,4.41.635,14.015.551,18.327-.978,8.435-2.991,17.53-10.107,25.272-14.428a.083.083,0,0,1,.1.137,87.3,87.3,0,0,1-13.5,9.481c-3.769,2.133-7.786,4.513-11.913,5.865-3.614,1.187-12.33,1.564-16.011,1.056-.841-.116-1.68-.238-2.52-.357-2.057.485-4.248.658-6.339.947-.16.023-.223-.238-.062-.281a43.64,43.64,0,0,1,4.3-.965c-2.989-.426-5.979-.857-8.969-1.27A.2.2,0,0,1,364.324,362.083Z" transform="translate(-351.221 -331.946)" fill="#8396a5"/>
          <path id="Trazado_119326" data-name="Trazado 119326" d="M353.564,349.048c-.122-5.124,2.765-12.1,8.593-12.591.068-.006.087.1.017.107-6.16.91-8.713,8.415-8.1,13.843.632,5.643,4.524,10.25,9.295,13.044.06.035,0,.139-.059.109A16.916,16.916,0,0,1,353.564,349.048Z" transform="translate(-353.56 -334.465)" fill="#8396a5"/>
        </g>
      </g>
      <g id="Grupo_85620" data-name="Grupo 85620" transform="translate(5.692)">
        <g id="Grupo_85611" data-name="Grupo 85611" transform="translate(19.393 53.863)">
          <path id="Trazado_119327" data-name="Trazado 119327" d="M374.786,335.305s.147,4.064-3.887,3.991c-4.995-.089-11.515-6.863-12.068-7.914a40.866,40.866,0,0,1-1.016-7.905c-.011-.365-.023-.73-.034-1.1s-.015-.713-.007-1.059c0-.463.007-.917.016-1.37.059-3.426.145-6.352.145-6.352l2.336.956,16.279,7.174-1.115,8.593-.061.525-.027.172-.353,2.588,0,.022Z" transform="translate(-357.77 -313.601)" fill="#ebada0"/>
          <path id="Trazado_119328" data-name="Trazado 119328" d="M375.373,330.849a20.147,20.147,0,0,1-6.517-.557,21.177,21.177,0,0,1-11.041-6.815c-.011-.365-.023-.73-.034-1.1s-.015-.713-.007-1.059c0-.463.007-.917.016-1.37.059-3.426.145-6.352.145-6.352l2.336.956,16.279,7.174-1.115,8.593Z" transform="translate(-357.77 -313.601)" fill="#c47c8a"/>
        </g>
        <g id="Grupo_85619" data-name="Grupo 85619">
          <path id="Trazado_119329" data-name="Trazado 119329" d="M377.071,274.666a18.449,18.449,0,0,1,10.6,6.091c4.216,5.045,3.36,14.989,3.36,14.989Z" transform="translate(-334.113 -268.34)" fill="#292e49"/>
          <path id="Trazado_119330" data-name="Trazado 119330" d="M402.428,309.429c.651,18.191-17.034,22.906-24.351,24.055-6.865,1.061-18.121-.961-24.476-9.41-6.868-9.118-10.74-31.917-2.667-40.929,10.024-11.2,26.492-12.446,35.7-6.5,4.585,2.973,10.272,13.312,13.418,22.353a46.48,46.48,0,0,1,2.174,8.318A20.3,20.3,0,0,1,402.428,309.429Z" transform="translate(-340.887 -268.679)" fill="#ebada0"/>
          <g id="Grupo_85616" data-name="Grupo 85616" transform="translate(29.556 20.737)">
            <path id="Trazado_119331" data-name="Trazado 119331" d="M371.017,294.762a18.383,18.383,0,0,0,1.555-1.148c.592-.448,1.11-.744,1.364-1.475a1,1,0,0,0-.507-1.106,2.473,2.473,0,0,0-2.455.486,3.634,3.634,0,0,0-1.538,2.113A1.062,1.062,0,0,0,371.017,294.762Z" transform="translate(-365.365 -285.497)" fill="#292e49"/>
            <path id="Trazado_119332" data-name="Trazado 119332" d="M387.316,288.961a18.6,18.6,0,0,1-1.914.145,3.106,3.106,0,0,1-1.979-.225.987.987,0,0,1-.336-1.159,2.448,2.448,0,0,1,2.159-1.226,3.6,3.6,0,0,1,2.526.59A1.055,1.055,0,0,1,387.316,288.961Z" transform="translate(-362.355 -286.469)" fill="#292e49"/>
            <g id="Grupo_85612" data-name="Grupo 85612" transform="translate(14.228 22.133)">
              <path id="Trazado_119333" data-name="Trazado 119333" d="M377.748,305.011a7.649,7.649,0,0,0,.116,1c.222,1.317.919,3.506,3.061,3.517a3.675,3.675,0,0,0,2.221-.8A9.959,9.959,0,0,0,385.9,304.6,9.033,9.033,0,0,1,377.748,305.011Z" transform="translate(-377.748 -304.597)" fill="#292e49"/>
              <path id="Trazado_119334" data-name="Trazado 119334" d="M377.843,305.758c.222,1.317.919,3.507,3.061,3.517a3.675,3.675,0,0,0,2.221-.8,5.509,5.509,0,0,0-2.554-2.236A5.694,5.694,0,0,0,377.843,305.758Z" transform="translate(-377.727 -304.346)" fill="#c47c8a"/>
            </g>
            <g id="Grupo_85614" data-name="Grupo 85614" transform="translate(7.482 11.383)">
              <g id="Grupo_85613" data-name="Grupo 85613">
                <path id="Trazado_119335" data-name="Trazado 119335" d="M373.736,295.877c-3.167,1.055-.825,7.312,2.11,6.334C378.733,301.25,376.39,294.993,373.736,295.877Z" transform="translate(-372.223 -295.792)" fill="#292e49"/>
              </g>
            </g>
            <g id="Grupo_85615" data-name="Grupo 85615" transform="translate(23.096 6.3)">
              <path id="Trazado_119336" data-name="Trazado 119336" d="M385.838,291.807c2.623-1.27,5.238,4.619,2.808,5.8C386.255,298.762,383.64,292.873,385.838,291.807Z" transform="translate(-385.011 -291.629)" fill="#292e49"/>
            </g>
            <path id="Trazado_119337" data-name="Trazado 119337" d="M381.748,292.322c1.739,3.725.985,2.442,2.884,6.09.875-.2,4.806-1.4,4.63-.96a36.268,36.268,0,0,1-3.016,4.732c.786.9,2.916,1.463,2.858,1.576-3.266,6.423-8.947,5.251-11.087,4.185-.429-.214-.294-.251-.048-.177,2.01.613,7.377,1.814,10.119-3.662a5.089,5.089,0,0,1-2.621-1.724c-.072-.093,1.77-2.688,2.408-3.98-1.206.311-2.652.8-3.541,1.043-.209.056-1.79-2.792-2.933-7.008A.183.183,0,0,1,381.748,292.322Z" transform="translate(-363.521 -285.202)" fill="#c47c8a"/>
            <path id="Trazado_119338" data-name="Trazado 119338" d="M380.957,312.19a1.439,1.439,0,0,1,.16,1.335,1.46,1.46,0,0,1-1.127.883,1.363,1.363,0,0,1-1.138-.287,1.106,1.106,0,0,1-.316-1.167.047.047,0,0,1,.092.01,1.059,1.059,0,0,0,1.927.557.931.931,0,0,0-.156-1.193.575.575,0,0,0-.713.055.3.3,0,0,0,.143.509.72.72,0,0,0,.507-.245c.021-.028.064,0,.057.031a.591.591,0,0,1-.641.542.676.676,0,0,1-.641-.669.93.93,0,0,1,.764-.817A1,1,0,0,1,380.957,312.19Z" transform="translate(-363.355 -280.894)" fill="#c47c8a"/>
            <path id="Trazado_119339" data-name="Trazado 119339" d="M368.825,301.771c6.175-3.477,11.59,6.114,5.4,9.6S362.64,305.255,368.825,301.771Z" transform="translate(-366.094 -283.253)" fill="#c47c8a" opacity="0.5"/>
            <path id="Trazado_119340" data-name="Trazado 119340" d="M392.7,302.633c-2.839-1.472-4.316-5.571-2.174-8.318A46.476,46.476,0,0,1,392.7,302.633Z" transform="translate(-360.922 -284.736)" fill="#c47c8a" opacity="0.5"/>
          </g>
          <g id="Grupo_85617" data-name="Grupo 85617">
            <path id="Trazado_119341" data-name="Trazado 119341" d="M358.125,291.156s5.508,8.162,5.256,12.336-5.853,15.923-5.638,18.623a13.006,13.006,0,0,1-.783,5.2s-7.577-3.283-12.578-16.409c-4.936-12.952,1.811-21.648,2.836-23.156,0,0,5.565-12.847,16.082-15.577s22.626.746,24.357,3.148-.7,8.412,2.874,11.368a23.966,23.966,0,0,1-22.775-.36,12.853,12.853,0,0,0,8.151,4.2S368.759,295.15,358.125,291.156Z" transform="translate(-341.729 -269.112)" fill="#292e49"/>
            <path id="Trazado_119342" data-name="Trazado 119342" d="M372.963,289.121a26.188,26.188,0,0,1-19.928-2.87c-.275-.165-.545.234-.32.448,4.9,4.666,14.307,4.6,20.294,2.572A.079.079,0,0,0,372.963,289.121Z" transform="translate(-339.512 -265.789)" fill="#292e49"/>
            <path id="Trazado_119343" data-name="Trazado 119343" d="M356.518,288.2c-.034-.062-.143-.013-.114.052a65.591,65.591,0,0,0,3,6.122c2.154,3.7,2.675,6.079.871,10.158-1.986,4.488-5.176,8.565-5.969,13.5a.315.315,0,0,0,.612.145,57.866,57.866,0,0,1,4.021-9.2c1.272-2.393,2.815-4.924,3.31-7.626C363.124,296.565,358.623,292.112,356.518,288.2Z" transform="translate(-339.143 -265.355)" fill="#292e49"/>
            <path id="Trazado_119344" data-name="Trazado 119344" d="M386.257,285.613c-8.449,2.964-19.507,3.152-25.241-4.929a.21.21,0,0,0-.36.215c4.3,8.5,18.261,9.086,25.638,4.8C386.339,285.672,386.309,285.595,386.257,285.613Z" transform="translate(-337.745 -267.031)" fill="#292e49"/>
            <path id="Trazado_119345" data-name="Trazado 119345" d="M385.287,286.079c-2.956-3.67.991-9.531-3.408-12.263-4.007-2.489-9.7-2.507-14.232-2.623-.208,0-.184.3.011.314,4.494.426,12.309.379,14.8,4.74,1.325,2.321.861,4.185,1.27,6.713a5.617,5.617,0,0,0,1.392,3.259C385.2,286.308,385.365,286.176,385.287,286.079Z" transform="translate(-336.227 -269.107)" fill="#292e49"/>
            <path id="Trazado_119346" data-name="Trazado 119346" d="M376.9,270.043c-7.348-.641-15.357-.573-21.485,4.106-4.245,3.24-10.03,10.235-9.539,15.918.032.363.58.56.748.175,2.466-5.65,5.722-11.175,10.7-14.958,5.715-4.343,12.663-4.9,19.592-4.8C377.2,270.486,377.174,270.066,376.9,270.043Z" transform="translate(-341.011 -269.425)" fill="#292e49"/>
            <path id="Trazado_119347" data-name="Trazado 119347" d="M359.2,269.5c-8.1,3.071-15.2,13.746-13.627,22.565.046.26.474.231.514-.02,1.435-8.791,5.024-17.827,13.27-22.206A.189.189,0,0,0,359.2,269.5Z" transform="translate(-341.121 -269.484)" fill="#292e49"/>
            <path id="Trazado_119348" data-name="Trazado 119348" d="M352.57,321.66c-4.7-4.872-8.382-10.589-9.5-17.574-1.239-7.725,1.207-14.22,5.53-20.276.112-.158-.079-.357-.216-.214-11.029,11.44-6.888,28.482,3.994,38.285C352.517,322.007,352.7,321.8,352.57,321.66Z" transform="translate(-341.886 -266.378)" fill="#292e49"/>
          </g>
          <g id="Grupo_85618" data-name="Grupo 85618" transform="translate(7.938 38.753)">
            <path id="Trazado_119349" data-name="Trazado 119349" d="M362.685,306.057s-7.026-6.084-11.589-4.6c-4.824,1.571-2.6,10.567,1.975,12.941,5.376,2.786,10.667-.926,10.667-.926Z" transform="translate(-348.388 -301.225)" fill="#ebada0"/>
            <path id="Trazado_119350" data-name="Trazado 119350" d="M353.847,305.3a11.945,11.945,0,0,0-2.83-.763.1.1,0,0,1,.017-.2c3.911.125,8.357,2.548,9.314,6.644a.132.132,0,0,1-.237.107c-.214-.315-.424-.624-.635-.932a7.848,7.848,0,0,0-3.018-1.662,6.6,6.6,0,0,0-3.521.16c-.134.044-.186-.151-.062-.205a6.543,6.543,0,0,1,5.384.07,10.347,10.347,0,0,0-2.135-2,11.971,11.971,0,0,0-2.277-1.221" transform="translate(-347.824 -300.537)" fill="#c47c8a"/>
            <path id="Trazado_119351" data-name="Trazado 119351" d="M360.125,311.414a.023.023,0,0,1,.023.04A.023.023,0,0,1,360.125,311.414Z" transform="translate(-345.798 -298.975)" fill="#c47c8a"/>
          </g>
        </g>
      </g>
    </g>
  </g>
</svg>
