<svg xmlns="http://www.w3.org/2000/svg" xmlns:xlink="http://www.w3.org/1999/xlink" width="420" height="268" viewBox="0 0 420 268">
  <defs>
    <clipPath id="clip-path">
      <rect id="Rectángulo_34293" data-name="Rectángulo 34293" width="420" height="268" transform="translate(810 2687)" fill="#fff" stroke="#707070" stroke-width="1"/>
    </clipPath>
  </defs>
  <g id="_6" data-name="6" transform="translate(-370 -3834.5)">
    <path id="Rectángulo_34294" data-name="Rectángulo 34294" d="M20,0H400a20,20,0,0,1,20,20V196a0,0,0,0,1,0,0H0a0,0,0,0,1,0,0V20A20,20,0,0,1,20,0Z" transform="translate(370 3905.5)" fill="#d5d6f0"/>
    <g id="Enmascarar_grupo_99" data-name="Enmascarar grupo 99" transform="translate(-440 1147.5)" clip-path="url(#clip-path)">
      <g id="Grupo_86964" data-name="Grupo 86964" transform="translate(646.934 2616.245)">
        <g id="Nightstand" transform="translate(461.347 283.152)">
          <g id="Grupo_86696" data-name="Grupo 86696">
            <g id="Grupo_86682" data-name="Grupo 86682">
              <rect id="Rectángulo_34948" data-name="Rectángulo 34948" width="98.864" height="75.202" fill="#b56d50"/>
            </g>
            <g id="Grupo_86683" data-name="Grupo 86683" transform="translate(44.415)" opacity="0.3">
              <rect id="Rectángulo_34949" data-name="Rectángulo 34949" width="54.449" height="75.202"/>
            </g>
            <g id="Grupo_86684" data-name="Grupo 86684" transform="translate(17.385 75.202)">
              <path id="Trazado_119597" data-name="Trazado 119597" d="M603,432.243l-12.473,38.843h3.656L611.6,432.243Z" transform="translate(-590.528 -432.243)" fill="#b56d50"/>
            </g>
            <g id="Grupo_86685" data-name="Grupo 86685" transform="translate(66.246 75.202)">
              <path id="Trazado_119598" data-name="Trazado 119598" d="M660.977,432.243l12.473,38.843h-3.656l-17.419-38.843Z" transform="translate(-652.375 -432.243)" fill="#b56d50"/>
            </g>
            <g id="Grupo_86687" data-name="Grupo 86687" transform="translate(0.236 75.36)">
              <g id="Grupo_86686" data-name="Grupo 86686">
                <path id="Trazado_119599" data-name="Trazado 119599" d="M668.276,432.647c0,.114-22.266.206-49.724.206s-49.73-.092-49.73-.206,22.261-.205,49.73-.205S668.276,432.534,668.276,432.647Z" transform="translate(-568.822 -432.442)" fill="#263238"/>
              </g>
            </g>
            <g id="Grupo_86689" data-name="Grupo 86689" transform="translate(1.765 3.519)">
              <g id="Grupo_86688" data-name="Grupo 86688">
                <path id="Trazado_119600" data-name="Trazado 119600" d="M611.253,357.92a2.58,2.58,0,0,1-.014-.3c0-.212-.01-.491-.016-.847-.009-.761-.021-1.842-.036-3.224-.019-2.8-.045-6.822-.078-11.791l.144.144-40.283.062c-.185.184.247-.251.2-.2v4.2q0,2.08,0,4.109c0,2.7,0,5.33-.006,7.851l-.2-.2,28.834.092,8.4.055,2.258.025.589.013a1.532,1.532,0,0,1,.208.012.835.835,0,0,1-.183.013l-.566.012-2.217.025-8.351.055-28.968.093h-.2v-.2c0-2.521,0-5.148-.006-7.851q0-2.028,0-4.109,0-1.04,0-2.091v-2.109c-.045.043.391-.39.208-.207l40.283.062h.145v.144c-.033,5.006-.06,9.055-.078,11.878-.015,1.368-.028,2.439-.036,3.193-.006.344-.012.615-.016.821A1.571,1.571,0,0,1,611.253,357.92Z" transform="translate(-570.758 -341.508)" fill="#263238"/>
              </g>
            </g>
            <g id="Grupo_86691" data-name="Grupo 86691" transform="translate(19.496 8.952)">
              <g id="Grupo_86690" data-name="Grupo 86690">
                <path id="Trazado_119601" data-name="Trazado 119601" d="M598.238,350.977a4.517,4.517,0,0,1-.153-.57,2.415,2.415,0,0,0-.889-1.234,2.28,2.28,0,0,0-2.132-.286,2.231,2.231,0,0,0,0,4.182,2.28,2.28,0,0,0,2.132-.286,2.414,2.414,0,0,0,.889-1.235,4.571,4.571,0,0,1,.153-.57,1.082,1.082,0,0,1,0,.61,2.412,2.412,0,0,1-.868,1.427,2.551,2.551,0,0,1-2.438.411,2.594,2.594,0,0,1,0-4.894,2.551,2.551,0,0,1,2.438.411,2.407,2.407,0,0,1,.868,1.427A1.079,1.079,0,0,1,598.238,350.977Z" transform="translate(-593.2 -348.385)" fill="#263238"/>
              </g>
            </g>
            <g id="Grupo_86693" data-name="Grupo 86693" transform="translate(35.11 44.744)">
              <g id="Grupo_86692" data-name="Grupo 86692">
                <path id="Trazado_119602" data-name="Trazado 119602" d="M618,396.283a4.59,4.59,0,0,1-.153-.57,2.419,2.419,0,0,0-.889-1.235,2.282,2.282,0,0,0-2.132-.286,2.232,2.232,0,0,0,0,4.182,2.282,2.282,0,0,0,2.132-.287,2.41,2.41,0,0,0,.889-1.234,4.54,4.54,0,0,1,.153-.57,1.078,1.078,0,0,1,0,.609,2.4,2.4,0,0,1-.868,1.427,2.551,2.551,0,0,1-2.438.412,2.594,2.594,0,0,1,0-4.9,2.551,2.551,0,0,1,2.438.411,2.411,2.411,0,0,1,.868,1.427A1.08,1.08,0,0,1,618,396.283Z" transform="translate(-612.964 -393.69)" fill="#263238"/>
              </g>
            </g>
            <g id="Grupo_86695" data-name="Grupo 86695" transform="translate(1.769 23.427)">
              <g id="Grupo_86694" data-name="Grupo 86694">
                <path id="Trazado_119603" data-name="Trazado 119603" d="M610.9,413.2a1.945,1.945,0,0,1-.011-.228c0-.16-.005-.374-.01-.649,0-.585-.012-1.425-.021-2.512-.011-2.2-.028-5.4-.048-9.461-.022-8.122-.054-19.669-.092-33.437l.182.182-39.931.024h0l.205-.205c-.012,17.076-.023,32.989-.032,46.286l-.173-.174,28.934.089,8.11.045,2.144.02c.487.007.748.02.748.02s-.235.013-.711.019l-2.111.02-8.07.045-29.043.089h-.174V413.2c-.009-13.3-.021-29.21-.032-46.286v-.205h.21l39.931.023h.183v.182c-.038,13.817-.07,25.4-.092,33.554-.021,4.039-.037,7.226-.048,9.42-.01,1.07-.017,1.9-.021,2.475,0,.268-.008.475-.01.63A1.647,1.647,0,0,1,610.9,413.2Z" transform="translate(-570.762 -366.708)" fill="#263238"/>
              </g>
            </g>
          </g>
        </g>
        <g id="Clock" transform="translate(459.926 238.673)">
          <g id="Grupo_86741" data-name="Grupo 86741" transform="translate(0 0)">
            <g id="Grupo_86732" data-name="Grupo 86732" transform="translate(5.944 6.366)">
              <g id="Grupo_86699" data-name="Grupo 86699" transform="translate(15.726 2.092)">
                <g id="Grupo_86697" data-name="Grupo 86697" transform="translate(0 0)">
                  <rect id="Rectángulo_34950" data-name="Rectángulo 34950" width="2.515" height="1.105" transform="matrix(0.989, -0.15, 0.15, 0.989, 0, 0.378)" fill="#e0e0e0"/>
                </g>
                <g id="Grupo_86698" data-name="Grupo 86698" transform="translate(1.089 0.9)">
                  <rect id="Rectángulo_34951" data-name="Rectángulo 34951" width="0.543" height="3.416" transform="matrix(0.989, -0.15, 0.15, 0.989, 0, 0.082)" fill="#e0e0e0"/>
                </g>
              </g>
              <g id="Grupo_86731" data-name="Grupo 86731">
                <g id="Grupo_86700" data-name="Grupo 86700" transform="translate(10.451 30.036)">
                  <path id="Trazado_119604" data-name="Trazado 119604" d="M588.231,326.831l-.754,3.4.948.509,2.213-2.529Z" transform="translate(-587.477 -326.831)" fill="#e0e0e0"/>
                </g>
                <g id="Grupo_86701" data-name="Grupo 86701" transform="translate(26.781 27.508)">
                  <path id="Trazado_119605" data-name="Trazado 119605" d="M608.147,325.446l2.962,1.836.794-.727-1.655-2.925Z" transform="translate(-608.147 -323.631)" fill="#e0e0e0"/>
                </g>
                <g id="Grupo_86702" data-name="Grupo 86702" transform="translate(5.849 2.696)">
                  <rect id="Rectángulo_34952" data-name="Rectángulo 34952" width="1.685" height="1.227" transform="matrix(0.835, -0.551, 0.551, 0.835, 0, 0.928)" fill="#ff725e"/>
                </g>
                <g id="Grupo_86703" data-name="Grupo 86703" transform="translate(7.914 5.425)">
                  <rect id="Rectángulo_34953" data-name="Rectángulo 34953" width="0.99" height="3.777" transform="translate(0 0.545) rotate(-33.402)" fill="#ff725e"/>
                </g>
                <g id="Grupo_86704" data-name="Grupo 86704" transform="translate(26.723 0.677)">
                  <rect id="Rectángulo_34954" data-name="Rectángulo 34954" width="1.685" height="1.228" transform="translate(0.587 0) rotate(28.576)" fill="#ff725e"/>
                </g>
                <g id="Grupo_86705" data-name="Grupo 86705" transform="translate(24.651 3.718)">
                  <rect id="Rectángulo_34955" data-name="Rectángulo 34955" width="0.99" height="3.777" transform="matrix(0.878, 0.478, -0.478, 0.878, 1.807, 0)" fill="#ff725e"/>
                </g>
                <g id="Grupo_86709" data-name="Grupo 86709" transform="translate(0 0.027)">
                  <g id="Grupo_86706" data-name="Grupo 86706" transform="translate(0 0)">
                    <circle id="Elipse_4833" data-name="Elipse 4833" cx="13.749" cy="13.749" r="13.749" transform="translate(0 24.018) rotate(-60.858)" fill="#ff725e"/>
                  </g>
                  <g id="Grupo_86708" data-name="Grupo 86708" transform="translate(4.761 4.796)">
                    <g id="Grupo_86707" data-name="Grupo 86707">
                      <path id="Trazado_119606" data-name="Trazado 119606" d="M607.812,306.76a21.771,21.771,0,0,0-1-3.223,13.129,13.129,0,0,0-2.062-3.353,13.595,13.595,0,0,0-17.008-3.254,12.738,12.738,0,0,0-3.112,2.342,15.22,15.22,0,0,0-1.322,1.523,15.527,15.527,0,0,0-1.076,1.753,13.5,13.5,0,0,0,2.406,15.833,15.443,15.443,0,0,0,1.548,1.354A15.259,15.259,0,0,0,587.9,320.8a12.757,12.757,0,0,0,3.667,1.312,13.635,13.635,0,0,0,15.274-8.161,13.15,13.15,0,0,0,.972-3.814,21.732,21.732,0,0,0,0-3.375.9.9,0,0,1,.043.219c.022.17.051.384.085.65a6.381,6.381,0,0,1,.073,1.064,9.791,9.791,0,0,1-.043,1.458,12.976,12.976,0,0,1-.918,3.885,13.87,13.87,0,0,1-8.239,7.922,13.944,13.944,0,0,1-7.322.525,13.078,13.078,0,0,1-3.776-1.337,12.8,12.8,0,0,1-3.366-2.48,13.861,13.861,0,0,1-2.477-16.3,12.74,12.74,0,0,1,2.476-3.366,13.1,13.1,0,0,1,3.208-2.4,13.939,13.939,0,0,1,7.147-1.674,13.865,13.865,0,0,1,10.221,5.116,13,13,0,0,1,2.032,3.437,9.779,9.779,0,0,1,.474,1.379,6.332,6.332,0,0,1,.246,1.038l.111.646A.871.871,0,0,1,607.812,306.76Z" transform="translate(-580.275 -294.917)" fill="#263238"/>
                    </g>
                  </g>
                </g>
                <g id="Grupo_86710" data-name="Grupo 86710" transform="translate(1.168 1.281)">
                  <circle id="Elipse_4834" data-name="Elipse 4834" cx="12.349" cy="12.349" r="12.349" transform="translate(0 17.157) rotate(-43.998)" fill="#fff"/>
                  <path id="Trazado_119607" data-name="Trazado 119607" d="M594.415,321.9a12.746,12.746,0,1,1,12.626-14.662h0a12.744,12.744,0,0,1-10.684,14.515A12.917,12.917,0,0,1,594.415,321.9Zm.033-24.7a11.955,11.955,0,1,0,11.813,10.159h0A11.975,11.975,0,0,0,594.448,297.193Z" transform="translate(-576.98 -291.687)" fill="#ff725e"/>
                </g>
                <g id="Grupo_86711" data-name="Grupo 86711" transform="translate(18.352 19.281)">
                  <path id="Trazado_119608" data-name="Trazado 119608" d="M597.478,313.307c0,.145.173,3.468.173,3.468l.727,2.781.194-2.991-.508-3.347Z" transform="translate(-597.478 -313.218)" fill="#263238"/>
                </g>
                <g id="Grupo_86712" data-name="Grupo 86712" transform="translate(19.02 12.259)">
                  <path id="Trazado_119609" data-name="Trazado 119609" d="M598.7,309.548c.126-.073,4.672-3.163,4.672-3.163l2.008-2.056-2.664,1.375-4.4,3.388Z" transform="translate(-598.324 -304.329)" fill="#263238"/>
                </g>
                <g id="Grupo_86713" data-name="Grupo 86713" transform="translate(17.072 16.489)">
                  <path id="Trazado_119610" data-name="Trazado 119610" d="M598.887,310.978a1.523,1.523,0,1,1-1.735-1.277A1.523,1.523,0,0,1,598.887,310.978Z" transform="translate(-595.858 -309.684)" fill="#263238"/>
                </g>
                <g id="Grupo_86717" data-name="Grupo 86717" transform="translate(3.914 2.229)">
                  <g id="Grupo_86714" data-name="Grupo 86714" transform="translate(0.105 0.202)">
                    <path id="Trazado_119611" data-name="Trazado 119611" d="M579.795,299.726s-2-3.385,2.334-6.424,7.051-.229,7.051-.229Z" transform="translate(-579.336 -291.89)" fill="#ff725e"/>
                  </g>
                  <g id="Grupo_86716" data-name="Grupo 86716">
                    <g id="Grupo_86715" data-name="Grupo 86715">
                      <path id="Trazado_119612" data-name="Trazado 119612" d="M579.767,299.673a7.4,7.4,0,0,1,.731-.584l1.968-1.468c1.664-1.23,3.953-2.907,6.568-4.769l-.028.308a4.226,4.226,0,0,0-1.486-.866,5.622,5.622,0,0,0-4.783.774,7.226,7.226,0,0,0-2.875,2.9,4.324,4.324,0,0,0-.369,2.707c.12.654.3.986.274,1a2.162,2.162,0,0,1-.43-.966,4.308,4.308,0,0,1,.261-2.864,7.354,7.354,0,0,1,2.942-3.1,7.255,7.255,0,0,1,2.357-.989,5.1,5.1,0,0,1,2.758.15,4.552,4.552,0,0,1,1.643.971l.175.164-.2.144c-2.693,1.9-5.1,3.552-6.8,4.708l-2,1.342A4.806,4.806,0,0,1,579.767,299.673Z" transform="translate(-579.203 -291.634)" fill="#263238"/>
                    </g>
                  </g>
                </g>
                <g id="Grupo_86721" data-name="Grupo 86721" transform="translate(20.816 0.562)">
                  <g id="Grupo_86718" data-name="Grupo 86718" transform="translate(0.002 0.145)">
                    <path id="Trazado_119613" data-name="Trazado 119613" d="M600.6,291.526s2.05-3.351,6.767-.958,3.515,6.116,3.515,6.116Z" transform="translate(-600.599 -289.707)" fill="#ff725e"/>
                  </g>
                  <g id="Grupo_86720" data-name="Grupo 86720">
                    <g id="Grupo_86719" data-name="Grupo 86719">
                      <path id="Trazado_119614" data-name="Trazado 119614" d="M600.6,291.488a7.618,7.618,0,0,1,.858.371l2.221,1.048c1.868.89,4.424,2.124,7.3,3.558l-.285.119a4.238,4.238,0,0,0,.066-1.718,5.622,5.622,0,0,0-2.931-3.859,7.232,7.232,0,0,0-3.907-1.178,4.334,4.334,0,0,0-2.564.946c-.521.414-.727.732-.754.712a2.164,2.164,0,0,1,.65-.833,4.306,4.306,0,0,1,2.651-1.115,7.344,7.344,0,0,1,4.117,1.142A7.224,7.224,0,0,1,610,292.3a5.1,5.1,0,0,1,1.163,2.505,4.542,4.542,0,0,1-.085,1.907l-.062.231-.223-.112c-2.945-1.484-5.53-2.83-7.35-3.79l-2.123-1.131A4.731,4.731,0,0,1,600.6,291.488Z" transform="translate(-600.597 -289.524)" fill="#263238"/>
                    </g>
                  </g>
                </g>
                <g id="Grupo_86725" data-name="Grupo 86725" transform="translate(5.217 2.055)">
                  <g id="Grupo_86722" data-name="Grupo 86722" transform="translate(0.111 0.204)">
                    <path id="Trazado_119615" data-name="Trazado 119615" d="M581.109,293.654s-.5-.856.591-1.625a1.332,1.332,0,0,1,1.783-.058Z" transform="translate(-580.993 -291.672)" fill="#e0e0e0"/>
                  </g>
                  <g id="Grupo_86724" data-name="Grupo 86724">
                    <g id="Grupo_86723" data-name="Grupo 86723">
                      <path id="Trazado_119616" data-name="Trazado 119616" d="M581.08,293.6a18.474,18.474,0,0,1,2.256-1.849l-.028.308a.953.953,0,0,0-.317-.179,1.3,1.3,0,0,0-1.086.171,1.8,1.8,0,0,0-.7.656,1.772,1.772,0,0,0-.123.893c-.022.014-.1-.058-.167-.232a1.092,1.092,0,0,1,.025-.783,1.92,1.92,0,0,1,.769-.859,1.618,1.618,0,0,1,1.417-.236,1.265,1.265,0,0,1,.475.284l.177.167-.205.141A13.738,13.738,0,0,1,581.08,293.6Z" transform="translate(-580.853 -291.414)" fill="#263238"/>
                    </g>
                  </g>
                </g>
                <g id="Grupo_86729" data-name="Grupo 86729" transform="translate(26.567)">
                  <g id="Grupo_86726" data-name="Grupo 86726" transform="translate(0.008 0.15)">
                    <path id="Trazado_119617" data-name="Trazado 119617" d="M607.886,289.463s.519-.848,1.712-.242.89,1.547.89,1.547Z" transform="translate(-607.886 -289.003)" fill="#e0e0e0"/>
                  </g>
                  <g id="Grupo_86728" data-name="Grupo 86728">
                    <g id="Grupo_86727" data-name="Grupo 86727">
                      <path id="Trazado_119618" data-name="Trazado 119618" d="M607.884,289.423a18.485,18.485,0,0,1,2.692,1.123l-.285.12a.967.967,0,0,0,.01-.364,1.3,1.3,0,0,0-.662-.878,1.8,1.8,0,0,0-.91-.311c-.554,0-.8.359-.845.31-.023-.013,0-.118.126-.256a1.093,1.093,0,0,1,.7-.345,1.916,1.916,0,0,1,1.12.276,1.62,1.62,0,0,1,.875,1.14,1.28,1.28,0,0,1-.028.553l-.064.235-.221-.115A13.789,13.789,0,0,1,607.884,289.423Z" transform="translate(-607.876 -288.813)" fill="#263238"/>
                    </g>
                  </g>
                </g>
                <g id="Grupo_86730" data-name="Grupo 86730" transform="translate(17.81 17.237)">
                  <path id="Trazado_119619" data-name="Trazado 119619" d="M598.453,311.34a.835.835,0,1,1-.951-.7A.836.836,0,0,1,598.453,311.34Z" transform="translate(-596.792 -310.631)" fill="#e0e0e0"/>
                </g>
              </g>
            </g>
            <g id="Grupo_86734" data-name="Grupo 86734" transform="translate(3.967 6.198)">
              <g id="Grupo_86733" data-name="Grupo 86733">
                <path id="Trazado_119620" data-name="Trazado 119620" d="M571.8,297a3.634,3.634,0,0,1,.013-1.471A9.925,9.925,0,0,1,575.2,289.4a3.6,3.6,0,0,1,1.237-.8A12.877,12.877,0,0,0,571.8,297Z" transform="translate(-571.747 -288.6)" fill="#263238"/>
              </g>
            </g>
            <g id="Grupo_86736" data-name="Grupo 86736" transform="translate(0 6.333)">
              <g id="Grupo_86735" data-name="Grupo 86735">
                <path id="Trazado_119621" data-name="Trazado 119621" d="M566.823,296.818a3.235,3.235,0,0,1-.077-1.376,9.057,9.057,0,0,1,2.875-5.883,3.22,3.22,0,0,1,1.133-.784,11.891,11.891,0,0,0-3.93,8.043Z" transform="translate(-566.725 -288.771)" fill="#263238"/>
              </g>
            </g>
            <g id="Grupo_86738" data-name="Grupo 86738" transform="translate(32.969 2.916)">
              <g id="Grupo_86737" data-name="Grupo 86737">
                <path id="Trazado_119622" data-name="Trazado 119622" d="M616.708,289.392a11.839,11.839,0,0,0-8.252-4.887,3.576,3.576,0,0,1,1.481.014,9.373,9.373,0,0,1,6.047,3.581A3.573,3.573,0,0,1,616.708,289.392Z" transform="translate(-608.456 -284.446)" fill="#263238"/>
              </g>
            </g>
            <g id="Grupo_86740" data-name="Grupo 86740" transform="translate(34.637)">
              <g id="Grupo_86739" data-name="Grupo 86739">
                <path id="Trazado_119623" data-name="Trazado 119623" d="M617.942,285.2a12.952,12.952,0,0,0-7.374-4.408,8.634,8.634,0,0,1,7.374,4.408Z" transform="translate(-610.568 -280.754)" fill="#263238"/>
              </g>
            </g>
          </g>
        </g>
        <g id="Lamp" transform="translate(507.833 211.701)">
          <g id="Grupo_86749" data-name="Grupo 86749">
            <g id="Grupo_86743" data-name="Grupo 86743" transform="translate(9.389 30.355)">
              <g id="Grupo_86742" data-name="Grupo 86742">
                <path id="Trazado_119624" data-name="Trazado 119624" d="M674,307.371c-1.6-8.1-6.015-10.3-12.03-13.111s-3.408-9.223-3.408-9.223h-3.51s2.606,6.416-3.409,9.223-10.425,5.012-12.029,13.111,2.606,18.95,2.606,18.95l14.586-.178,14.587.178S675.6,315.47,674,307.371Z" transform="translate(-639.248 -285.037)" fill="#455a64"/>
              </g>
            </g>
            <g id="Grupo_86748" data-name="Grupo 86748">
              <g id="Grupo_86747" data-name="Grupo 86747">
                <g id="Grupo_86744" data-name="Grupo 86744" transform="translate(0 0.202)">
                  <path id="Trazado_119625" data-name="Trazado 119625" d="M627.364,278.814H682.3L668.4,246.871H639.361Z" transform="translate(-627.364 -246.871)" fill="#fafafa"/>
                </g>
                <g id="Grupo_86746" data-name="Grupo 86746">
                  <g id="Grupo_86745" data-name="Grupo 86745">
                    <path id="Trazado_119626" data-name="Trazado 119626" d="M627.364,278.76s.059-.186.2-.565l.614-1.681c.552-1.5,1.354-3.674,2.374-6.443l8.653-23.314.041-.111h.119l29.044-.032h.133l.053.122,5.305,12.191,8.581,19.754.121.277h-.3l-39.479-.1-11.4-.053-3.029-.021-.774-.01a1.938,1.938,0,0,1-.253-.01s.1-.006.281-.009l.8-.01,3.077-.021,11.453-.053,39.318-.1-.181.276c-2.685-6.169-5.589-12.841-8.6-19.747l-5.3-12.193.186.122-29.044-.032.16-.111c-3.653,9.613-6.673,17.562-8.788,23.125-1.061,2.775-1.9,4.954-2.471,6.458q-.425,1.1-.658,1.706C627.452,278.553,627.364,278.76,627.364,278.76Z" transform="translate(-627.364 -246.615)" fill="#263238"/>
                  </g>
                </g>
              </g>
            </g>
          </g>
        </g>
        <g id="Character" transform="translate(58.066 80.329)">
          <g id="Grupo_86963" data-name="Grupo 86963">
            <g id="Grupo_86919" data-name="Grupo 86919" transform="translate(138.746)">
              <g id="Grupo_86752" data-name="Grupo 86752" transform="translate(26.842)">
                <g id="Grupo_86750" data-name="Grupo 86750" transform="translate(2.269 19.814)">
                  <path id="Trazado_119627" data-name="Trazado 119627" d="M270.541,107.847c-.212,1.126,3.389,25.04,6.355,36.246s13.2,42.216,15.076,46.874l13.65-14.016s-11.143-22.214-12.2-29.342-5.932-18.943-9.533-26.633-6.355-15.567-6.355-15.567Z" transform="translate(-270.532 -105.409)" fill="#ffbf9d"/>
                </g>
                <g id="Grupo_86751" data-name="Grupo 86751">
                  <path id="Trazado_119628" data-name="Trazado 119628" d="M272.343,80.329s-2.568,3.118-3.118,4.861a49.282,49.282,0,0,0-1.559,10.364c.092,2.476,2.449,9.208,2.449,9.208l8.414-.3-.922-3.332s7.759-4.563,7.576-6.489-6.328-11.1-6.878-11.556-1.926,0-2.66.55a28.5,28.5,0,0,0-2.843,3.852s.995-3.187,1.285-4.31C274.819,80.329,272.343,80.329,272.343,80.329Z" transform="translate(-267.66 -80.329)" fill="#ffbf9d"/>
                </g>
              </g>
              <g id="Grupo_86877" data-name="Grupo 86877" transform="translate(64.116 40.522)">
                <g id="Grupo_86866" data-name="Grupo 86866" transform="translate(0 2.218)">
                  <g id="Grupo_86754" data-name="Grupo 86754" transform="translate(35.601 6.98)">
                    <g id="Grupo_86753" data-name="Grupo 86753">
                      <path id="Trazado_119629" data-name="Trazado 119629" d="M374.972,143.564a12.1,12.1,0,0,1,8.939,8.2,9.63,9.63,0,0,1-4.051,10.378,3.648,3.648,0,0,1,.145,5.677,4.668,4.668,0,0,1-6.2-1.117c.488,2.15-1.252,4.285-3.539,4.821a8.051,8.051,0,0,1-6.688-1.829,12.436,12.436,0,0,1-3.674-5.686l3.569-16.9A11.833,11.833,0,0,1,374.972,143.564Z" transform="translate(-359.903 -143.263)" fill="#263238"/>
                    </g>
                  </g>
                  <g id="Grupo_86863" data-name="Grupo 86863">
                    <g id="Grupo_86758" data-name="Grupo 86758" transform="translate(1.11 0.091)">
                      <g id="Grupo_86757" data-name="Grupo 86757">
                        <g id="Grupo_86756" data-name="Grupo 86756">
                          <g id="Grupo_86755" data-name="Grupo 86755">
                            <path id="Trazado_119630" data-name="Trazado 119630" d="M360.67,167.027a6.141,6.141,0,0,0,1.772-7.672c1.485-1.021,1.736-3.219,1.052-4.886a12.026,12.026,0,0,0-3.415-4.13,8.267,8.267,0,0,0-7.452-8.587c-1.127-3.631-5.34-5.433-9.141-5.481a9.716,9.716,0,0,1-2.766-.226,15.883,15.883,0,0,1-1.852-.858c-3.405-1.563-7.693-.139-10.087,2.743a6.883,6.883,0,0,1-1.224,1.308,9.324,9.324,0,0,1-2.184.867,5.93,5.93,0,0,0-3.453,3.529c-.479,1.362-.487,2.959-1.451,4.035a21.641,21.641,0,0,0-1.59,1.469c-1.236,1.694.273,4.273-.717,6.12-.2.378-.5.7-.728,1.055a3.655,3.655,0,0,0-.534,2.512,5.245,5.245,0,0,1,.233,1.994,5.882,5.882,0,0,1-.725,1.347c-.6,1.1.553,6.4,1.372,7.351l30.24,9.531a5.924,5.924,0,0,0,5.874-3.539,2.177,2.177,0,0,1,.623-1.029,2.55,2.55,0,0,1,.992-.285c2.272-.452,3.327-3.061,3.795-5.33a2.812,2.812,0,0,1,.3-.92A3.534,3.534,0,0,1,360.67,167.027Z" transform="translate(-316.245 -134.543)" fill="#263238"/>
                          </g>
                        </g>
                      </g>
                    </g>
                    <g id="Grupo_86762" data-name="Grupo 86762" transform="translate(0 7.97)">
                      <g id="Grupo_86761" data-name="Grupo 86761">
                        <g id="Grupo_86760" data-name="Grupo 86760">
                          <g id="Grupo_86759" data-name="Grupo 86759">
                            <path id="Trazado_119631" data-name="Trazado 119631" d="M351.674,166.511a16.978,16.978,0,0,0-4.284-16.785,20.973,20.973,0,0,0-7.177-4.237,12.839,12.839,0,0,0-7.609-.684c-1.791-.118-9.629,3.62-11.8,9.608-2.418,6.653-5.108,14.87-5.789,20.163-1.372,10.644,6.042,14.227,6.042,14.227l-5.861,16.6,23.246-1.816Z" transform="translate(-314.841 -144.516)" fill="#ffbf9d"/>
                          </g>
                        </g>
                      </g>
                    </g>
                    <g id="Grupo_86766" data-name="Grupo 86766" transform="translate(10.774 38.2)">
                      <g id="Grupo_86765" data-name="Grupo 86765">
                        <g id="Grupo_86764" data-name="Grupo 86764">
                          <g id="Grupo_86763" data-name="Grupo 86763">
                            <path id="Trazado_119632" data-name="Trazado 119632" d="M332.716,185.486a4.468,4.468,0,0,0-.115-2.154c-.479-.833-1.6-.541-2.514-.294s-1.609.517-1.609.517l.089,1.576c.213.714.472,1.667,1.15,1.976a3.361,3.361,0,0,0,.324.126,2.05,2.05,0,0,0,1.579.02A2.727,2.727,0,0,0,332.716,185.486Z" transform="translate(-328.478 -182.78)" fill="#ff9a6c"/>
                          </g>
                        </g>
                      </g>
                    </g>
                    <g id="Grupo_86776" data-name="Grupo 86776" transform="translate(5.688 25.193)">
                      <g id="Grupo_86775" data-name="Grupo 86775">
                        <g id="Grupo_86774" data-name="Grupo 86774">
                          <g id="Grupo_86773" data-name="Grupo 86773">
                            <g id="Grupo_86772" data-name="Grupo 86772">
                              <g id="Grupo_86771" data-name="Grupo 86771">
                                <g id="Grupo_86770" data-name="Grupo 86770">
                                  <g id="Grupo_86769" data-name="Grupo 86769">
                                    <g id="Grupo_86768" data-name="Grupo 86768">
                                      <g id="Grupo_86767" data-name="Grupo 86767">
                                        <path id="Trazado_119633" data-name="Trazado 119633" d="M322.046,166.972c.1.224,1.326-.135,2.7.374,1.377.489,2.124,1.566,2.335,1.453.1-.047.05-.408-.271-.888a3.728,3.728,0,0,0-1.794-1.368,3.58,3.58,0,0,0-2.224-.09C322.249,166.62,322,166.868,322.046,166.972Z" transform="translate(-322.04 -166.317)" fill="#263238"/>
                                      </g>
                                    </g>
                                  </g>
                                </g>
                              </g>
                            </g>
                          </g>
                        </g>
                      </g>
                    </g>
                    <g id="Grupo_86785" data-name="Grupo 86785" transform="translate(8.773 24.443)">
                      <g id="Grupo_86784" data-name="Grupo 86784">
                        <g id="Grupo_86783" data-name="Grupo 86783">
                          <g id="Grupo_86782" data-name="Grupo 86782">
                            <g id="Grupo_86781" data-name="Grupo 86781">
                              <g id="Grupo_86780" data-name="Grupo 86780">
                                <g id="Grupo_86779" data-name="Grupo 86779">
                                  <g id="Grupo_86778" data-name="Grupo 86778">
                                    <g id="Grupo_86777" data-name="Grupo 86777">
                                      <path id="Trazado_119634" data-name="Trazado 119634" d="M329.276,176.875a9.75,9.75,0,0,0-2.159-1.081c-.347-.142-.665-.313-.654-.575a1.893,1.893,0,0,1,.551-.992l1.862-2.418c2.612-3.452,4.616-6.335,4.476-6.439s-2.372,2.61-4.984,6.064q-.954,1.281-1.822,2.447a2.161,2.161,0,0,0-.6,1.353.94.94,0,0,0,.435.7,2.536,2.536,0,0,0,.584.263A9.5,9.5,0,0,0,329.276,176.875Z" transform="translate(-325.945 -165.367)" fill="#263238"/>
                                    </g>
                                  </g>
                                </g>
                              </g>
                            </g>
                          </g>
                        </g>
                      </g>
                    </g>
                    <g id="Grupo_86793" data-name="Grupo 86793" transform="translate(5.313 52.258)">
                      <g id="Grupo_86792" data-name="Grupo 86792">
                        <g id="Grupo_86791" data-name="Grupo 86791">
                          <g id="Grupo_86790" data-name="Grupo 86790">
                            <g id="Grupo_86789" data-name="Grupo 86789">
                              <g id="Grupo_86788" data-name="Grupo 86788">
                                <g id="Grupo_86787" data-name="Grupo 86787">
                                  <g id="Grupo_86786" data-name="Grupo 86786">
                                    <path id="Trazado_119635" data-name="Trazado 119635" d="M322.464,200.574a27.069,27.069,0,0,0,14.731.383s-5.731,6.1-15.629,2.162Z" transform="translate(-321.566 -200.574)" fill="#ff9a6c"/>
                                  </g>
                                </g>
                              </g>
                            </g>
                          </g>
                        </g>
                      </g>
                    </g>
                    <g id="Grupo_86804" data-name="Grupo 86804" transform="translate(9.711 16.423)">
                      <g id="Grupo_86803" data-name="Grupo 86803">
                        <g id="Grupo_86802" data-name="Grupo 86802">
                          <g id="Grupo_86801" data-name="Grupo 86801">
                            <g id="Grupo_86800" data-name="Grupo 86800">
                              <g id="Grupo_86799" data-name="Grupo 86799">
                                <g id="Grupo_86798" data-name="Grupo 86798">
                                  <g id="Grupo_86797" data-name="Grupo 86797">
                                    <g id="Grupo_86796" data-name="Grupo 86796">
                                      <g id="Grupo_86795" data-name="Grupo 86795">
                                        <g id="Grupo_86794" data-name="Grupo 86794">
                                          <path id="Trazado_119636" data-name="Trazado 119636" d="M327.139,155.908c.135.412,1.277.5,2.5.972,1.24.434,2.168,1.109,2.534.882.167-.115.128-.489-.205-.961a4.158,4.158,0,0,0-4.058-1.493C327.354,155.451,327.086,155.712,327.139,155.908Z" transform="translate(-327.132 -155.216)" fill="#263238"/>
                                        </g>
                                      </g>
                                    </g>
                                  </g>
                                </g>
                              </g>
                            </g>
                          </g>
                        </g>
                      </g>
                    </g>
                    <g id="Grupo_86814" data-name="Grupo 86814" transform="translate(19.068 29.637)">
                      <g id="Grupo_86813" data-name="Grupo 86813">
                        <g id="Grupo_86812" data-name="Grupo 86812">
                          <g id="Grupo_86811" data-name="Grupo 86811">
                            <g id="Grupo_86810" data-name="Grupo 86810">
                              <g id="Grupo_86809" data-name="Grupo 86809">
                                <g id="Grupo_86808" data-name="Grupo 86808">
                                  <g id="Grupo_86807" data-name="Grupo 86807">
                                    <g id="Grupo_86806" data-name="Grupo 86806">
                                      <g id="Grupo_86805" data-name="Grupo 86805">
                                        <path id="Trazado_119637" data-name="Trazado 119637" d="M344.051,174.337c-.216.115-.95-.935-2.339-1.4-1.38-.48-2.637-.107-2.731-.327-.049-.1.216-.349.767-.524a3.74,3.74,0,0,1,2.256.055,3.576,3.576,0,0,1,1.791,1.321C344.113,173.935,344.155,174.288,344.051,174.337Z" transform="translate(-338.976 -171.942)" fill="#263238"/>
                                      </g>
                                    </g>
                                  </g>
                                </g>
                              </g>
                            </g>
                          </g>
                        </g>
                      </g>
                    </g>
                    <g id="Grupo_86825" data-name="Grupo 86825" transform="translate(22.647 20.581)">
                      <g id="Grupo_86824" data-name="Grupo 86824">
                        <g id="Grupo_86823" data-name="Grupo 86823">
                          <g id="Grupo_86822" data-name="Grupo 86822">
                            <g id="Grupo_86821" data-name="Grupo 86821">
                              <g id="Grupo_86820" data-name="Grupo 86820">
                                <g id="Grupo_86819" data-name="Grupo 86819">
                                  <g id="Grupo_86818" data-name="Grupo 86818">
                                    <g id="Grupo_86817" data-name="Grupo 86817">
                                      <g id="Grupo_86816" data-name="Grupo 86816">
                                        <g id="Grupo_86815" data-name="Grupo 86815">
                                          <path id="Trazado_119638" data-name="Trazado 119638" d="M348.723,163.061c-.378.224-1.34-.461-2.621-.909-1.267-.486-2.448-.584-2.587-1-.057-.2.22-.455.8-.594a4.186,4.186,0,0,1,2.311.2,4.135,4.135,0,0,1,1.886,1.336C348.854,162.573,348.894,162.947,348.723,163.061Z" transform="translate(-343.507 -160.478)" fill="#263238"/>
                                        </g>
                                      </g>
                                    </g>
                                  </g>
                                </g>
                              </g>
                            </g>
                          </g>
                        </g>
                      </g>
                    </g>
                    <g id="Grupo_86833" data-name="Grupo 86833" transform="translate(30.447 36.935)">
                      <g id="Grupo_86832" data-name="Grupo 86832">
                        <g id="Grupo_86831" data-name="Grupo 86831">
                          <g id="Grupo_86830" data-name="Grupo 86830">
                            <g id="Grupo_86829" data-name="Grupo 86829">
                              <g id="Grupo_86828" data-name="Grupo 86828">
                                <g id="Grupo_86827" data-name="Grupo 86827">
                                  <g id="Grupo_86826" data-name="Grupo 86826">
                                    <path id="Trazado_119639" data-name="Trazado 119639" d="M355.3,183.367c.224-.757,1.624-2.286,2.406-2.183,2.089.276,5.642,1.493,4.185,6.575-1.99,6.948-8.555,3.516-8.509,3.313C353.414,190.913,354.523,185.979,355.3,183.367Z" transform="translate(-353.379 -181.179)" fill="#ffbf9d"/>
                                  </g>
                                </g>
                              </g>
                            </g>
                          </g>
                        </g>
                      </g>
                    </g>
                    <g id="Grupo_86842" data-name="Grupo 86842" transform="translate(33.075 39.676)">
                      <g id="Grupo_86841" data-name="Grupo 86841">
                        <g id="Grupo_86840" data-name="Grupo 86840">
                          <g id="Grupo_86839" data-name="Grupo 86839">
                            <g id="Grupo_86838" data-name="Grupo 86838">
                              <g id="Grupo_86837" data-name="Grupo 86837">
                                <g id="Grupo_86836" data-name="Grupo 86836">
                                  <g id="Grupo_86835" data-name="Grupo 86835">
                                    <g id="Grupo_86834" data-name="Grupo 86834">
                                      <path id="Trazado_119640" data-name="Trazado 119640" d="M356.721,189.811c.037-.013.1.12.274.272a1.258,1.258,0,0,0,.9.278c.811-.058,1.763-1.047,2.155-2.29a4.154,4.154,0,0,0,.158-1.831,1.451,1.451,0,0,0-.645-1.189.641.641,0,0,0-.809.126c-.149.168-.144.319-.184.321-.024.012-.116-.159.022-.43a.8.8,0,0,1,.4-.357.949.949,0,0,1,.72.015,1.77,1.77,0,0,1,.956,1.439,4.278,4.278,0,0,1-.136,2.056c-.446,1.387-1.537,2.492-2.625,2.494a1.349,1.349,0,0,1-1.054-.5C356.685,189.983,356.693,189.817,356.721,189.811Z" transform="translate(-356.706 -184.648)" fill="#ff9a6c"/>
                                    </g>
                                  </g>
                                </g>
                              </g>
                            </g>
                          </g>
                        </g>
                      </g>
                    </g>
                    <g id="Grupo_86846" data-name="Grupo 86846" transform="translate(4.391 5.306)">
                      <g id="Grupo_86845" data-name="Grupo 86845">
                        <g id="Grupo_86844" data-name="Grupo 86844">
                          <g id="Grupo_86843" data-name="Grupo 86843">
                            <path id="Trazado_119641" data-name="Trazado 119641" d="M320.4,153.35a4.2,4.2,0,0,0,3.3-3.066c.848.55,2.143-.368,2.921-1.013s1.561-.854,1.8-1.834a1.144,1.144,0,0,1,.235-.542,1.224,1.224,0,0,1,.887-.22,4.842,4.842,0,0,0,4.009-2.327,10.231,10.231,0,0,0,4.52,2.183,3.914,3.914,0,0,0,6.435,1.594,3.506,3.506,0,0,0,1.764,2.323,10.38,10.38,0,0,0,2.829,1,4.145,4.145,0,0,0,1.291,5.273c.224.149.487.307.532.573s-.165.518-.334.741a3.262,3.262,0,0,0,.923,4.6,2.432,2.432,0,0,0-.866,3.718c.207.227.483.506.358.787a.685.685,0,0,1-.239.25,4.737,4.737,0,0,0-1.768,1.97,1.746,1.746,0,0,0,.827,2.258,2.319,2.319,0,0,0-1.328,1.259c-.187.6.242,1.393.867,1.341.266-.022,3.918.316,4.131.155,2.745-2.086,1.144-5.754,1.922-9.112a22.408,22.408,0,0,0-.239-10.247,16.4,16.4,0,0,0-1.478-4.066,21.838,21.838,0,0,0-2.985-3.929,19.939,19.939,0,0,0-4.781-4.288c-3.481-1.985-7.768-1.77-11.732-1.185a16.959,16.959,0,0,0-4.419,1.112,15.39,15.39,0,0,0-4.393,3.208,19.157,19.157,0,0,0-4.6,6.358" transform="translate(-320.399 -141.144)" fill="#263238"/>
                          </g>
                        </g>
                      </g>
                    </g>
                    <g id="Grupo_86850" data-name="Grupo 86850" transform="translate(3.747)">
                      <g id="Grupo_86849" data-name="Grupo 86849">
                        <g id="Grupo_86848" data-name="Grupo 86848">
                          <g id="Grupo_86847" data-name="Grupo 86847">
                            <path id="Trazado_119642" data-name="Trazado 119642" d="M319.583,149.114a2.752,2.752,0,0,1,.593-.633c.216-.187.5-.394.8-.68a3.373,3.373,0,0,0,.771-1.18,10.469,10.469,0,0,0,.477-1.723,7.917,7.917,0,0,1,.663-2.041,6,6,0,0,1,1.556-1.913,5.927,5.927,0,0,1,1.142-.729,8.831,8.831,0,0,1,1.335-.49,4.51,4.51,0,0,0,1.322-.6,5.849,5.849,0,0,0,1.043-1.111,9.7,9.7,0,0,1,5.771-3.452,8.642,8.642,0,0,1,1.853-.134,7.766,7.766,0,0,1,1.883.333,8.832,8.832,0,0,1,.912.35c.3.14.581.3.872.441a4.651,4.651,0,0,0,1.851.55c.657.062,1.331.017,2.019.048a12.677,12.677,0,0,1,4.1.816,10.962,10.962,0,0,1,1.921.976,7.123,7.123,0,0,1,2.807,3.334l.156.417-.1-.077a8.385,8.385,0,0,1,7.548,8.7l-.035-.086a22.855,22.855,0,0,1,2.049,2,7.6,7.6,0,0,1,1.458,2.361,4.951,4.951,0,0,1,.194,2.659,3.41,3.41,0,0,1-1.356,2.146l.028-.118a5.982,5.982,0,0,1,.541,4.03,6.123,6.123,0,0,1-1.74,3.23,5.837,5.837,0,0,1-.663.55,7.455,7.455,0,0,0-.66.477,1.542,1.542,0,0,0-.448.606,4.5,4.5,0,0,0-.194.725,11.842,11.842,0,0,1-.852,2.608,5.755,5.755,0,0,1-1.275,1.8,3.55,3.55,0,0,1-1.411.805c-.427.13-.77.128-.984.2a1.714,1.714,0,0,0-.314.134.846.846,0,0,1,.306-.16c.216-.086.562-.094.978-.23a3.52,3.52,0,0,0,1.372-.812,5.689,5.689,0,0,0,1.236-1.785,11.862,11.862,0,0,0,.823-2.59,4.452,4.452,0,0,1,.2-.748,1.68,1.68,0,0,1,.48-.66,7.978,7.978,0,0,1,.669-.49,5.789,5.789,0,0,0,.642-.54,5.979,5.979,0,0,0,1.681-3.156,5.824,5.824,0,0,0-.539-3.911l-.039-.072.067-.046a3.226,3.226,0,0,0,1.274-2.037,4.758,4.758,0,0,0-.193-2.553,7.434,7.434,0,0,0-1.426-2.3,22.706,22.706,0,0,0-2.035-1.98l-.038-.034,0-.052a8.179,8.179,0,0,0-7.354-8.469l-.07,0-.027-.072-.151-.4a6.911,6.911,0,0,0-2.722-3.232,10.831,10.831,0,0,0-1.881-.957,12.5,12.5,0,0,0-4.032-.807c-.675-.031-1.354.013-2.03-.051a4.99,4.99,0,0,1-1-.186,5.922,5.922,0,0,1-.924-.388c-.295-.148-.579-.3-.867-.44a8.7,8.7,0,0,0-.885-.342,7.564,7.564,0,0,0-1.831-.328,8.4,8.4,0,0,0-1.811.126,9.545,9.545,0,0,0-5.675,3.37,5.954,5.954,0,0,1-1.078,1.135,4.623,4.623,0,0,1-1.37.613,8.83,8.83,0,0,0-1.319.476,5.831,5.831,0,0,0-1.119.7,5.9,5.9,0,0,0-1.535,1.862,7.844,7.844,0,0,0-.67,2.008,10.486,10.486,0,0,1-.5,1.733,3.409,3.409,0,0,1-.805,1.195c-.307.285-.6.486-.816.667a4.342,4.342,0,0,0-.474.435C319.631,149.056,319.588,149.118,319.583,149.114Z" transform="translate(-319.583 -134.428)" fill="#455a64"/>
                          </g>
                        </g>
                      </g>
                    </g>
                    <g id="Grupo_86854" data-name="Grupo 86854" transform="translate(22.449 2.927)">
                      <g id="Grupo_86853" data-name="Grupo 86853">
                        <g id="Grupo_86852" data-name="Grupo 86852">
                          <g id="Grupo_86851" data-name="Grupo 86851">
                            <path id="Trazado_119643" data-name="Trazado 119643" d="M355.5,140.019c-.015.013-.152-.159-.439-.424a4.852,4.852,0,0,0-1.38-.888,4.562,4.562,0,0,0-2.375-.344,4.713,4.713,0,0,0-2.63,1.262,4.009,4.009,0,0,0-.577.681.9.9,0,0,0-.166.745l.1.286-.256-.162a2.989,2.989,0,0,0-2.218-.381,2.884,2.884,0,0,0-1.556.934,3.153,3.153,0,0,0-.609,1.061c-.092.274-.115.434-.131.431s-.006-.041,0-.118a1.962,1.962,0,0,1,.061-.334,3.015,3.015,0,0,1,2.194-2.152,3.147,3.147,0,0,1,2.372.38l-.157.124a1.1,1.1,0,0,1,.183-.928,4.151,4.151,0,0,1,.609-.724,4.843,4.843,0,0,1,2.756-1.3,4.608,4.608,0,0,1,2.462.4,4.537,4.537,0,0,1,1.377.969,3.1,3.1,0,0,1,.3.349C355.476,139.968,355.5,140.015,355.5,140.019Z" transform="translate(-343.256 -138.133)" fill="#455a64"/>
                          </g>
                        </g>
                      </g>
                    </g>
                    <g id="Grupo_86858" data-name="Grupo 86858" transform="translate(33.711 15.348)">
                      <g id="Grupo_86857" data-name="Grupo 86857">
                        <g id="Grupo_86856" data-name="Grupo 86856">
                          <g id="Grupo_86855" data-name="Grupo 86855">
                            <path id="Trazado_119644" data-name="Trazado 119644" d="M367.372,154.609a1.071,1.071,0,0,1-.315.176,4.745,4.745,0,0,1-.946.312,3.454,3.454,0,0,1-1.505,0,2.583,2.583,0,0,1-1.566-1.03l.16.022-.288.224c-.1.07-.21.134-.317.2a4.375,4.375,0,0,1-2.051.563,4.49,4.49,0,0,1-1.712-.282,3.993,3.993,0,0,1-1.018-.573,1.4,1.4,0,0,1-.3-.3,6.207,6.207,0,0,0,1.373.728,4.566,4.566,0,0,0,1.654.227,4.3,4.3,0,0,0,1.949-.551c.1-.065.2-.125.3-.191l.273-.21.1-.074.064.1a2.43,2.43,0,0,0,1.432.964,3.48,3.48,0,0,0,1.432.04C366.9,154.808,367.359,154.572,367.372,154.609Z" transform="translate(-357.511 -153.855)" fill="#455a64"/>
                          </g>
                        </g>
                      </g>
                    </g>
                    <g id="Grupo_86862" data-name="Grupo 86862" transform="translate(34.567 20.587)">
                      <g id="Grupo_86861" data-name="Grupo 86861">
                        <g id="Grupo_86860" data-name="Grupo 86860">
                          <g id="Grupo_86859" data-name="Grupo 86859">
                            <path id="Trazado_119645" data-name="Trazado 119645" d="M369.354,163.513c.006,0-.012.045-.055.122a1.255,1.255,0,0,1-.254.29,1.928,1.928,0,0,1-1.336.411,3.683,3.683,0,0,1-1.915-.8,11.7,11.7,0,0,1-.965-.755,1.98,1.98,0,0,1-.7-1.156l-.01-.124.148.1a8.307,8.307,0,0,1-2.421.624,3.722,3.722,0,0,1-2.005-.377,2.683,2.683,0,0,1-1.037-.9,1.7,1.7,0,0,1-.175-.331c-.03-.08-.043-.122-.036-.126s.088.157.279.408a2.788,2.788,0,0,0,1.036.813,3.675,3.675,0,0,0,1.923.314,8.5,8.5,0,0,0,2.357-.628l.136-.054.013.152.009.1a1.789,1.789,0,0,0,.627,1.026c.3.277.633.519.938.749a3.629,3.629,0,0,0,1.808.811,1.918,1.918,0,0,0,1.274-.324A3.1,3.1,0,0,0,369.354,163.513Z" transform="translate(-358.594 -160.486)" fill="#455a64"/>
                          </g>
                        </g>
                      </g>
                    </g>
                  </g>
                  <g id="Grupo_86865" data-name="Grupo 86865" transform="translate(10.746 38.091)">
                    <g id="Grupo_86864" data-name="Grupo 86864">
                      <path id="Trazado_119646" data-name="Trazado 119646" d="M331.072,187.285a1.788,1.788,0,0,0,1.047-.68,4.091,4.091,0,0,0,.367-3,.712.712,0,0,0-.469-.523,1.985,1.985,0,0,0-.782,0c-.545.069-1.034.149-1.445.222a5.9,5.9,0,0,1-1.346.2,3.721,3.721,0,0,1,1.282-.485,14.534,14.534,0,0,1,1.454-.314,2.241,2.241,0,0,1,.947-.011,1.112,1.112,0,0,1,.751.785,4.013,4.013,0,0,1-.527,3.307,1.5,1.5,0,0,1-.9.547C331.2,187.364,331.068,187.309,331.072,187.285Z" transform="translate(-328.443 -182.641)" fill="#263238"/>
                    </g>
                  </g>
                </g>
                <g id="Grupo_86868" data-name="Grupo 86868" transform="translate(43.225 6.329)">
                  <g id="Grupo_86867" data-name="Grupo 86867">
                    <path id="Trazado_119647" data-name="Trazado 119647" d="M387.374,146.158a7.3,7.3,0,0,0-.451-1.384,4.933,4.933,0,0,0-2.862-2.525,4.185,4.185,0,0,0-2.628.015,4.875,4.875,0,0,0-2.415,1.807,3.217,3.217,0,0,0-.517,3.119,1.08,1.08,0,0,0,1.275.673,2.193,2.193,0,0,0,1.24-1.162,4.371,4.371,0,0,0,.16-3.5,4.611,4.611,0,0,0-2.147-2.51,6.217,6.217,0,0,0-5.585-.1,8.474,8.474,0,0,0-3.037,2.485c-.58.743-.818,1.216-.851,1.2a1.326,1.326,0,0,1,.149-.354,8,8,0,0,1,.573-.938,8.233,8.233,0,0,1,3.039-2.652,6.477,6.477,0,0,1,5.895.028,4.984,4.984,0,0,1,2.342,2.7,4.754,4.754,0,0,1-.174,3.832,2.58,2.58,0,0,1-1.5,1.366,1.407,1.407,0,0,1-1.059-.126,1.649,1.649,0,0,1-.686-.77,2.945,2.945,0,0,1-.171-1.887,4.625,4.625,0,0,1,.743-1.624,5.19,5.19,0,0,1,2.62-1.913,4.47,4.47,0,0,1,2.826.034,4.99,4.99,0,0,1,2.914,2.735A3.108,3.108,0,0,1,387.374,146.158Z" transform="translate(-369.554 -139.632)" fill="#263238"/>
                  </g>
                </g>
                <g id="Grupo_86870" data-name="Grupo 86870" transform="translate(0.112 8.15)">
                  <g id="Grupo_86869" data-name="Grupo 86869">
                    <path id="Trazado_119648" data-name="Trazado 119648" d="M314.984,142.981c-.01-.006.018-.083.1-.213a1.773,1.773,0,0,1,.491-.472,2.181,2.181,0,0,1,1.029-.349,2.011,2.011,0,0,1,1.394.4,5.422,5.422,0,0,1,1.567,3.3l.242,1.026a2.948,2.948,0,0,1,.11,1.151,1.05,1.05,0,0,1-.317.6,1,1,0,0,1-.655.246,1.506,1.506,0,0,1-1.179-.562,2.163,2.163,0,0,1-.129-2.391,2.348,2.348,0,0,1,1.933-1.124,2.72,2.72,0,0,1,1.916.642,3.377,3.377,0,0,1,.992,1.44,4.048,4.048,0,0,1,.039,2.473,2.25,2.25,0,0,1-.363.828c-.032-.013.092-.31.208-.866a4.131,4.131,0,0,0-.156-2.331,3.134,3.134,0,0,0-.935-1.279,2.39,2.39,0,0,0-1.676-.529,1.979,1.979,0,0,0-1.608.945,1.773,1.773,0,0,0,.1,1.934,1.109,1.109,0,0,0,.851.412.569.569,0,0,0,.583-.51,2.666,2.666,0,0,0-.1-1.007q-.114-.517-.224-1.014a5.309,5.309,0,0,0-1.375-3.156,1.968,1.968,0,0,0-2.164-.143A3.762,3.762,0,0,0,314.984,142.981Z" transform="translate(-314.982 -141.937)" fill="#263238"/>
                  </g>
                </g>
                <g id="Grupo_86872" data-name="Grupo 86872" transform="translate(14.021)">
                  <g id="Grupo_86871" data-name="Grupo 86871">
                    <path id="Trazado_119649" data-name="Trazado 119649" d="M352.266,137.917a3.589,3.589,0,0,0,.337-1.067,3.333,3.333,0,0,0-1.1-2.727,4.9,4.9,0,0,0-4.328-.819,6.851,6.851,0,0,0-2.518,1.032,2.874,2.874,0,0,0-1.418,2.333l-.363-.123a2.214,2.214,0,0,0,.435-1.684,3.207,3.207,0,0,0-1.8-2.47,4.855,4.855,0,0,0-2.975-.264,8.422,8.422,0,0,0-4.512,2.491,4.877,4.877,0,0,0-1.268,3.206,6.968,6.968,0,0,0,.18,1.293.937.937,0,0,1-.149-.313,3.423,3.423,0,0,1-.191-.976,4.9,4.9,0,0,1,1.207-3.4,8.569,8.569,0,0,1,4.66-2.674,5.21,5.21,0,0,1,3.218.269,3.6,3.6,0,0,1,2.038,2.785,2.618,2.618,0,0,1-.526,1.994l-.349.427-.013-.551a3.254,3.254,0,0,1,1.6-2.667,7.129,7.129,0,0,1,2.669-1.065,5.136,5.136,0,0,1,4.589.976,3.433,3.433,0,0,1,1.061,2.948,2.305,2.305,0,0,1-.3.814C352.34,137.846,352.276,137.925,352.266,137.917Z" transform="translate(-332.588 -131.621)" fill="#263238"/>
                  </g>
                </g>
                <g id="Grupo_86874" data-name="Grupo 86874" transform="translate(27.434 28.193)">
                  <g id="Grupo_86873" data-name="Grupo 86873">
                    <path id="Trazado_119650" data-name="Trazado 119650" d="M351.155,179.312c-.009.011-.081-.038-.212-.143a3.585,3.585,0,0,1-.5-.532,4.466,4.466,0,0,1-.872-2.534,4.219,4.219,0,0,1,1.748-3.524,4.556,4.556,0,0,1,2.232-.874,2.133,2.133,0,0,1,1.334.187.76.76,0,0,1,.31.747.978.978,0,0,1-.42.664,1.61,1.61,0,0,1-1.4.077,2.681,2.681,0,0,1-1.093-.732,3.025,3.025,0,0,1-.777-2.286,3.313,3.313,0,0,1,.954-1.962,3.614,3.614,0,0,1,1.631-.958,4.229,4.229,0,0,1,2.672.186,2.331,2.331,0,0,1,.848.495c-.017.031-.315-.153-.9-.344a4.284,4.284,0,0,0-2.536-.056,3.234,3.234,0,0,0-2.288,2.675,2.663,2.663,0,0,0,.7,1.98,2.3,2.3,0,0,0,.929.616,1.227,1.227,0,0,0,1.041-.033c.263-.167.34-.6.1-.734a1.878,1.878,0,0,0-1.058-.12,4.224,4.224,0,0,0-2.047.78,3.947,3.947,0,0,0-1.68,3.215,4.537,4.537,0,0,0,.712,2.444C350.914,179.057,351.182,179.285,351.155,179.312Z" transform="translate(-349.565 -167.306)" fill="#263238"/>
                  </g>
                </g>
                <g id="Grupo_86876" data-name="Grupo 86876" transform="translate(57.583 14.966)">
                  <g id="Grupo_86875" data-name="Grupo 86875">
                    <path id="Trazado_119651" data-name="Trazado 119651" d="M398.614,154.9c-.017.033-.352-.147-1-.343a6.7,6.7,0,0,0-2.809-.221,6.171,6.171,0,0,0-1.86.544,3.166,3.166,0,0,0-1.614,1.361,1.184,1.184,0,0,0,.009,1.025,1.1,1.1,0,0,0,.918.506,2.6,2.6,0,0,0,2.033-1.307,5.4,5.4,0,0,0,1.148-2.324,2.728,2.728,0,0,0-.522-2.223,3.106,3.106,0,0,0-1.913-.906,14.239,14.239,0,0,0-1.962-.148,4,4,0,0,0-2.639.792,4.155,4.155,0,0,0-.677.785.572.572,0,0,1,.088-.265,2.256,2.256,0,0,1,.483-.641,4.02,4.02,0,0,1,2.739-.962,13.543,13.543,0,0,1,2.018.1,3.422,3.422,0,0,1,2.149.994,3.1,3.1,0,0,1,.634,2.541,5.726,5.726,0,0,1-1.221,2.508,4.957,4.957,0,0,1-1,1.023,2.1,2.1,0,0,1-1.38.435,1.49,1.49,0,0,1-1.236-.717,1.56,1.56,0,0,1-.013-1.368,3.445,3.445,0,0,1,1.819-1.521,6.512,6.512,0,0,1,4.861-.164,4.307,4.307,0,0,1,.72.335C398.543,154.829,398.621,154.883,398.614,154.9Z" transform="translate(-387.727 -150.565)" fill="#263238"/>
                  </g>
                </g>
              </g>
              <g id="Grupo_86892" data-name="Grupo 86892" transform="translate(100.329 27.398)">
                <g id="Grupo_86878" data-name="Grupo 86878" transform="translate(0 18.17)">
                  <path id="Trazado_119652" data-name="Trazado 119652" d="M410.4,138.007s-19.583,20.7-24.723,25.292c-4.868,4.346-25,21.811-25,21.811l7.134,20.382s19.99-22.665,23.762-27.767l16.9-22.428c2.3-3.419,9.5-12.993,9.5-12.993Z" transform="translate(-360.678 -138.007)" fill="#ffbf9d"/>
                </g>
                <g id="Grupo_86879" data-name="Grupo 86879" transform="translate(47.794 0.006)">
                  <path id="Trazado_119653" data-name="Trazado 119653" d="M423.1,133.005s-.465-4.46-.7-5.48-1.492-4.24-1.178-5.889,2.906-4.712,3.926-5.733,2.827-1.335,3.456,0c0,0,2.2.156,2.67,1.021a6.68,6.68,0,0,1,.628,1.571l2.828-.55a2.48,2.48,0,0,1-.472,2.591s1.413.078,1.65,1.256a7.527,7.527,0,0,1-.55,3.848c-.314.314-1.963,1.727-1.963,1.727s.943,6.2.235,7.46-5.74,4.625-5.74,4.625Z" transform="translate(-421.174 -115.015)" fill="#ffbf9d"/>
                </g>
                <g id="Grupo_86883" data-name="Grupo 86883" transform="translate(57.107 6.832)">
                  <g id="Grupo_86880" data-name="Grupo 86880" transform="translate(0.007 0)">
                    <path id="Trazado_119654" data-name="Trazado 119654" d="M432.97,128.158c.357.585,1.364,1.325,2,1.08a2.5,2.5,0,0,0,1.35-1.473,7.41,7.41,0,0,0,.382-2.015l.2-2.1" transform="translate(-432.97 -123.656)" fill="#ffbf9d"/>
                  </g>
                  <g id="Grupo_86882" data-name="Grupo 86882">
                    <g id="Grupo_86881" data-name="Grupo 86881">
                      <path id="Trazado_119655" data-name="Trazado 119655" d="M436.9,123.656a3.929,3.929,0,0,1,.025,1.272c-.02.392-.043.852-.089,1.374a5.435,5.435,0,0,1-.388,1.69,2.669,2.669,0,0,1-1.19,1.323,1.13,1.13,0,0,1-.829.113,2,2,0,0,1-.628-.284c-.687-.465-.884-.969-.837-.985a8.536,8.536,0,0,0,.986.735,1.092,1.092,0,0,0,1.131.085,2.421,2.421,0,0,0,.99-1.154,12.741,12.741,0,0,0,.564-2.924A3.971,3.971,0,0,1,436.9,123.656Z" transform="translate(-432.962 -123.656)" fill="#ff9a6c"/>
                    </g>
                  </g>
                </g>
                <g id="Grupo_86887" data-name="Grupo 86887" transform="translate(51.321)">
                  <g id="Grupo_86884" data-name="Grupo 86884" transform="translate(0 0.006)">
                    <path id="Trazado_119656" data-name="Trazado 119656" d="M425.639,120.914a1.856,1.856,0,0,0,1.471-1.669,4.767,4.767,0,0,0-.081,1.439,1.613,1.613,0,0,0,.732,1.189,1.66,1.66,0,0,0,2.008-.59,5,5,0,0,0,.622-3.4c-.049-.849.032-2.343-1.643-2.87" transform="translate(-425.639 -115.015)" fill="#ffbf9d"/>
                  </g>
                  <g id="Grupo_86886" data-name="Grupo 86886">
                    <g id="Grupo_86885" data-name="Grupo 86885">
                      <path id="Trazado_119657" data-name="Trazado 119657" d="M428.748,115.014a1.11,1.11,0,0,1,.568.16,2.045,2.045,0,0,1,1.041,1.236,4.315,4.315,0,0,1,.187,1.106c.022.388.061.805.069,1.252a3.921,3.921,0,0,1-.834,2.815,2.042,2.042,0,0,1-1.378.641,1.424,1.424,0,0,1-1.263-.7,2.233,2.233,0,0,1-.31-1.24,6.427,6.427,0,0,1,.133-1.067l.3.032a1.922,1.922,0,0,1-.985,1.5c-.386.2-.637.184-.637.163-.009-.036.224-.077.548-.3a1.819,1.819,0,0,0,.771-1.372l.3.032a2.992,2.992,0,0,0,.2,2.053,1.037,1.037,0,0,0,.929.5,1.666,1.666,0,0,0,1.094-.524,3.668,3.668,0,0,0,.751-2.526,11.37,11.37,0,0,0-.155-2.276,1.991,1.991,0,0,0-.842-1.181C428.934,115.116,428.735,115.051,428.748,115.014Z" transform="translate(-425.639 -115.008)" fill="#ff9a6c"/>
                    </g>
                  </g>
                </g>
                <g id="Grupo_86891" data-name="Grupo 86891" transform="translate(50.441 2.851)">
                  <g id="Grupo_86888" data-name="Grupo 86888" transform="translate(0.001 0.202)">
                    <path id="Trazado_119658" data-name="Trazado 119658" d="M424.526,126.437a28.624,28.624,0,0,1,4.6-5.174,9.632,9.632,0,0,1,6.357-2.384,2.6,2.6,0,0,1-.671,2.4,12.639,12.639,0,0,1-2.014,1.646,4.321,4.321,0,0,0-1.624,1.986,6.786,6.786,0,0,0,.262,3.358,11.034,11.034,0,0,1-1.028,7.162" transform="translate(-424.526 -118.872)" fill="#ffbf9d"/>
                  </g>
                  <g id="Grupo_86890" data-name="Grupo 86890">
                    <g id="Grupo_86889" data-name="Grupo 86889">
                      <path id="Trazado_119659" data-name="Trazado 119659" d="M430.411,135.382c-.032-.016.173-.423.443-1.194a11.457,11.457,0,0,0,.627-3.373,10.828,10.828,0,0,0-.175-2.357,14.563,14.563,0,0,1-.458-2.752,3.045,3.045,0,0,1,.42-1.515,4.825,4.825,0,0,1,1.073-1.207,14.844,14.844,0,0,0,2.462-2.068,2.323,2.323,0,0,0,.488-2.026l.185.141a8.943,8.943,0,0,0-5.073,1.484,16.128,16.128,0,0,0-3.288,2.839c-.833.916-1.452,1.7-1.889,2.229a5.9,5.9,0,0,1-.7.8,5.748,5.748,0,0,1,.584-.892c.4-.559.989-1.369,1.8-2.319a15.592,15.592,0,0,1,3.3-2.963,9.168,9.168,0,0,1,5.285-1.587l.141.006.043.137a2.714,2.714,0,0,1-.548,2.4,14.5,14.5,0,0,1-2.531,2.13,3.188,3.188,0,0,0-1.372,2.424,15.084,15.084,0,0,0,.415,2.683,10.716,10.716,0,0,1,.13,2.429,10.552,10.552,0,0,1-.769,3.417,7.821,7.821,0,0,1-.41.859C430.487,135.293,430.423,135.389,430.411,135.382Z" transform="translate(-424.524 -118.617)" fill="#ff9a6c"/>
                    </g>
                  </g>
                </g>
              </g>
              <g id="Grupo_86903" data-name="Grupo 86903" transform="translate(45.257 87.847)">
                <g id="Grupo_86893" data-name="Grupo 86893" transform="translate(1.168)">
                  <path id="Trazado_119660" data-name="Trazado 119660" d="M299.874,219.562l-7.426-16.672L309.2,191.523l6.584,13.186Z" transform="translate(-292.448 -191.523)" fill="#ff725e"/>
                </g>
                <g id="Grupo_86894" data-name="Grupo 86894" transform="translate(0 4.822)">
                  <path id="Trazado_119661" data-name="Trazado 119661" d="M366.469,290.444c-4.883-4.611-16.807-17.066-20.427-28.518-.247-.784.623-25.74,1.437-30.081s6.966-12.039,6.966-12.039l-8.4-22.179-9.326,7.47s-4.534,1.727-9.222,3.612c-7.993,1.62-12.935-4.558-12.935-4.558a28.3,28.3,0,0,0-5.681,3.25s-18.176,17.2-17.905,27.775,3.007,11.61,4.1,19.667c1.056,7.8,4.28,17.38,5.228,24.964a25.641,25.641,0,0,0,4.858,11.993s2.092,3.979,8.874,3.707,28.648-4.773,40.586-1.26,17.6,10.593,17.6,10.593S371.352,295.056,366.469,290.444Z" transform="translate(-290.969 -197.627)" fill="#ff725e"/>
                </g>
                <g id="Grupo_86896" data-name="Grupo 86896" transform="translate(16.127 44.366)">
                  <g id="Grupo_86895" data-name="Grupo 86895">
                    <path id="Trazado_119662" data-name="Trazado 119662" d="M330.774,264.821a4.938,4.938,0,0,1-1.117.055,17.021,17.021,0,0,1-3.035-.326,18.948,18.948,0,0,1-14.451-12.783,17.063,17.063,0,0,1-.7-2.972,4.992,4.992,0,0,1-.082-1.115,36.377,36.377,0,0,0,1.052,3.993,19.439,19.439,0,0,0,14.236,12.592A36.232,36.232,0,0,0,330.774,264.821Z" transform="translate(-311.382 -247.68)" fill="#263238"/>
                  </g>
                </g>
                <g id="Grupo_86898" data-name="Grupo 86898" transform="translate(46.908 19.764)">
                  <g id="Grupo_86897" data-name="Grupo 86897">
                    <path id="Trazado_119663" data-name="Trazado 119663" d="M354.977,233.088c-.022.017-.19-.163-.476-.506a14.051,14.051,0,0,1-1.1-1.54,20.089,20.089,0,0,1-3.01-11.953,14.069,14.069,0,0,1,.239-1.877,2.241,2.241,0,0,1,.18-.672c.071.012-.088.984-.129,2.562a22.522,22.522,0,0,0,2.969,11.791C354.434,232.263,355.034,233.044,354.977,233.088Z" transform="translate(-350.343 -216.54)" fill="#263238"/>
                  </g>
                </g>
                <g id="Grupo_86900" data-name="Grupo 86900" transform="translate(1.53 16.63)">
                  <g id="Grupo_86899" data-name="Grupo 86899">
                    <path id="Trazado_119664" data-name="Trazado 119664" d="M292.91,232.523a4.228,4.228,0,0,1,.3-.913c.209-.583.565-1.4,1.033-2.406a43.352,43.352,0,0,1,4.532-7.351c2.041-2.692,4.07-4.969,5.516-6.633l1.726-1.958a4.293,4.293,0,0,1,.672-.687,4.271,4.271,0,0,1-.548.789c-.372.493-.931,1.19-1.627,2.045-1.39,1.713-3.382,4.019-5.409,6.693a51.2,51.2,0,0,0-4.6,7.232C293.5,231.288,292.977,232.551,292.91,232.523Z" transform="translate(-292.906 -212.573)" fill="#263238"/>
                  </g>
                </g>
                <g id="Grupo_86902" data-name="Grupo 86902" transform="translate(29.029 92.447)">
                  <g id="Grupo_86901" data-name="Grupo 86901">
                    <path id="Trazado_119665" data-name="Trazado 119665" d="M362.13,308.809a13.474,13.474,0,0,1-1.4-.054,19.464,19.464,0,0,0-3.792.254,30.557,30.557,0,0,0-5.449,1.459c-2.007.713-4.16,1.648-6.425,2.628a56.356,56.356,0,0,1-6.538,2.438,24.193,24.193,0,0,1-5.618,1,15.147,15.147,0,0,1-3.837-.277,9.008,9.008,0,0,1-1.014-.26,1.255,1.255,0,0,1-.343-.125,20.674,20.674,0,0,0,5.176.371,25.27,25.27,0,0,0,5.529-1.071,60.656,60.656,0,0,0,6.481-2.452c2.263-.98,4.431-1.908,6.462-2.608a28.909,28.909,0,0,1,5.532-1.389,17.136,17.136,0,0,1,3.844-.126,9.811,9.811,0,0,1,1.037.133A1.248,1.248,0,0,1,362.13,308.809Z" transform="translate(-327.713 -308.539)" fill="#263238"/>
                  </g>
                </g>
              </g>
              <g id="Grupo_86905" data-name="Grupo 86905" transform="translate(61.24 134.345)" opacity="0.3">
                <g id="Grupo_86904" data-name="Grupo 86904">
                  <path id="Trazado_119666" data-name="Trazado 119666" d="M318.021,260.618c-3.139-2.684-5.97-6.1-6.3-10.216l-.229-.024a13.7,13.7,0,0,0,4.244,12.936c3.573,3.144,8.3,3.674,12.788,2.075C324.5,264.448,321.16,263.3,318.021,260.618Z" transform="translate(-311.2 -250.378)"/>
                </g>
              </g>
              <g id="Grupo_86918" data-name="Grupo 86918" transform="translate(0 181.189)">
                <g id="Grupo_86906" data-name="Grupo 86906">
                  <path id="Trazado_119667" data-name="Trazado 119667" d="M292.308,313.844a171.185,171.185,0,0,0-22.587-3.892c-8.7-.708-29.187-.425-33.02,4.957a14.494,14.494,0,0,0-2.064,14.021c1.326,3.682,13.119,10.481,18.426,13.738s36.264,4.391,36.264,4.391L302,316.609Z" transform="translate(-233.685 -309.671)" fill="#ff725e"/>
                </g>
                <g id="Grupo_86907" data-name="Grupo 86907" transform="translate(51.36 4.671)">
                  <path id="Trazado_119668" data-name="Trazado 119668" d="M323.064,318.876c-.743.059-13.6.667-17.139,6.072s-7.076,12.027-7.223,15.946,2.064,6.486,6.191,7.838,18.869,1.621,24.471.811,32.928-5.689,38.824-8.257,7.482-8.066,4.4-15.911c-2.422-6.17-14.185-7.454-20.819-9.346S323.064,318.876,323.064,318.876Z" transform="translate(-298.695 -315.583)" fill="#ff725e"/>
                </g>
                <g id="Grupo_86909" data-name="Grupo 86909" transform="translate(19.091 10.774)">
                  <g id="Grupo_86908" data-name="Grupo 86908">
                    <path id="Trazado_119669" data-name="Trazado 119669" d="M257.85,323.317a9.035,9.035,0,0,1,1.4.1c.45.041,1,.113,1.633.209s1.36.2,2.154.351c1.6.27,3.473.7,5.548,1.222,2.066.551,4.32,1.226,6.649,2.045s4.5,1.729,6.451,2.61c1.936.909,3.661,1.77,5.059,2.586.709.388,1.33.775,1.876,1.114s1.014.634,1.383.9a9.215,9.215,0,0,1,1.134.829,9.137,9.137,0,0,1-1.221-.694c-.381-.24-.856-.521-1.415-.833s-1.184-.687-1.9-1.056c-1.409-.78-3.14-1.609-5.075-2.5-1.948-.857-4.116-1.743-6.432-2.568s-4.557-1.5-6.609-2.067c-2.059-.538-3.923-1-5.5-1.3-.788-.171-1.505-.3-2.135-.409s-1.172-.213-1.619-.279A9.222,9.222,0,0,1,257.85,323.317Z" transform="translate(-257.85 -323.307)" fill="#263238"/>
                  </g>
                </g>
                <g id="Grupo_86911" data-name="Grupo 86911" transform="translate(91.903 7.814)">
                  <g id="Grupo_86910" data-name="Grupo 86910">
                    <path id="Trazado_119670" data-name="Trazado 119670" d="M376.817,332.85a6.747,6.747,0,0,1-.909-.783c-.559-.529-1.4-1.265-2.459-2.137s-2.374-1.853-3.881-2.865a46.891,46.891,0,0,0-10.56-5.232c-1.718-.587-3.292-1.042-4.631-1.352s-2.43-.538-3.19-.662a6.725,6.725,0,0,1-1.174-.249,6.69,6.69,0,0,1,1.2.09,32.389,32.389,0,0,1,3.23.537,42.345,42.345,0,0,1,4.69,1.277,43.618,43.618,0,0,1,10.647,5.275,42.3,42.3,0,0,1,3.857,2.958,32.327,32.327,0,0,1,2.384,2.245A6.7,6.7,0,0,1,376.817,332.85Z" transform="translate(-350.013 -319.561)" fill="#263238"/>
                  </g>
                </g>
                <g id="Grupo_86913" data-name="Grupo 86913" transform="translate(57.987 3.484)">
                  <g id="Grupo_86912" data-name="Grupo 86912">
                    <path id="Trazado_119671" data-name="Trazado 119671" d="M374.1,328.677a.638.638,0,0,1-.156-.106l-.43-.343-1.632-1.338a63.251,63.251,0,0,0-6.23-4.594,30.925,30.925,0,0,0-4.732-2.442,27.259,27.259,0,0,0-5.887-1.593,78.283,78.283,0,0,0-14.03-.481c-4.993.155-9.743.512-14.045.988-2.15.24-4.2.493-6.093.782a19.354,19.354,0,0,1-5.363.44,9.607,9.607,0,0,1-4.186-1.481,14.021,14.021,0,0,1-2.636-2.076,7.8,7.8,0,0,1-1.293-1.679,3.3,3.3,0,0,1-.3-.674c.021-.009.118.227.374.631a8.527,8.527,0,0,0,1.335,1.608,14.418,14.418,0,0,0,2.64,1.992,9.457,9.457,0,0,0,4.095,1.389,19.325,19.325,0,0,0,5.281-.487c1.91-.306,3.95-.571,6.106-.822,4.31-.5,9.07-.868,14.075-1.023a76.594,76.594,0,0,1,14.1.519,27.269,27.269,0,0,1,5.955,1.65,30.54,30.54,0,0,1,4.758,2.513,56.728,56.728,0,0,1,6.178,4.717l1.583,1.4.4.374A.7.7,0,0,1,374.1,328.677Z" transform="translate(-307.083 -314.081)" fill="#263238"/>
                  </g>
                </g>
                <g id="Grupo_86915" data-name="Grupo 86915" transform="translate(49.665 8.023)">
                  <g id="Grupo_86914" data-name="Grupo 86914">
                    <path id="Trazado_119672" data-name="Trazado 119672" d="M325.756,319.831a2.263,2.263,0,0,1-.491.113c-.322.067-.8.13-1.413.26a47.175,47.175,0,0,0-5.116,1.277,45.169,45.169,0,0,0-15.222,8.16,18.791,18.791,0,0,0-5.884,7.334,11.613,11.613,0,0,0-.186,7.586,17.927,17.927,0,0,0,2.233,4.734c.686,1.038,1.13,1.57,1.1,1.594a2.342,2.342,0,0,1-.345-.366c-.219-.246-.521-.629-.886-1.138a16.922,16.922,0,0,1-2.38-4.739,13.246,13.246,0,0,1-.613-3.634,11,11,0,0,1,.723-4.172,18.924,18.924,0,0,1,5.977-7.516,43.775,43.775,0,0,1,15.4-8.12,40,40,0,0,1,5.172-1.157c.617-.106,1.1-.143,1.429-.184A2.287,2.287,0,0,1,325.756,319.831Z" transform="translate(-296.55 -319.825)" fill="#263238"/>
                  </g>
                </g>
                <g id="Grupo_86917" data-name="Grupo 86917" transform="translate(86.544 2.268)" opacity="0.3">
                  <g id="Grupo_86916" data-name="Grupo 86916">
                    <path id="Trazado_119673" data-name="Trazado 119673" d="M367.927,313.586c-1.655-1.187-3.873-1.143-5.9-.917a86.681,86.681,0,0,0-18.8,4.027c8.4-1.413,16.806-2.608,24.547-2.084a.586.586,0,0,0,.483-.171C368.483,314.177,368.208,313.786,367.927,313.586Z" transform="translate(-343.229 -312.542)"/>
                  </g>
                </g>
              </g>
            </g>
            <g id="Grupo_86927" data-name="Grupo 86927" transform="translate(286.064 172.286)">
              <g id="Grupo_86920" data-name="Grupo 86920">
                <path id="Trazado_119674" data-name="Trazado 119674" d="M518.51,322.681a20,20,0,0,0-5.048-9.144c-8.315-9.345-20.889-14.171-33.37-14.993s-24.943,2.022-36.792,6.032c-6.7,2.269-13.533,5.088-18.26,10.355s-6.711,13.616-2.82,19.528l5.24.978-2.514.107a780.472,780.472,0,0,0,80.744-.335c3.521-.2,7.32-.528,9.978-2.845S519.193,326.138,518.51,322.681Z" transform="translate(-420.155 -298.402)" fill="#e0e0e0"/>
              </g>
              <g id="Grupo_86922" data-name="Grupo 86922" transform="translate(64.64 11.979)">
                <g id="Grupo_86921" data-name="Grupo 86921">
                  <path id="Trazado_119675" data-name="Trazado 119675" d="M501.983,313.565a2.554,2.554,0,0,1,.258.692c.142.453.318,1.116.509,1.942a43.983,43.983,0,0,1,.947,13.175c-.07.845-.15,1.526-.226,1.994a2.55,2.55,0,0,1-.156.722,26.544,26.544,0,0,1,.092-2.734,57.6,57.6,0,0,0-.942-13.1A26.6,26.6,0,0,1,501.983,313.565Z" transform="translate(-501.974 -313.565)" fill="#263238"/>
                </g>
              </g>
              <g id="Grupo_86924" data-name="Grupo 86924" transform="translate(11.328 10.51)">
                <g id="Grupo_86923" data-name="Grupo 86923">
                  <path id="Trazado_119676" data-name="Trazado 119676" d="M481.6,313.517a2.195,2.195,0,0,1-.483-.032l-1.372-.171c-1.187-.164-2.911-.368-5.044-.58s-4.678-.4-7.508-.525c-2.83-.1-5.945-.138-9.212-.04-3.268.113-6.375.348-9.193.634-2.816.307-5.345.653-7.459,1.008s-3.821.664-5,.9l-1.357.258a2.205,2.205,0,0,1-.48.063,2.083,2.083,0,0,1,.461-.144l1.341-.334c1.165-.29,2.867-.649,4.98-1.035s4.644-.77,7.467-1.1c2.825-.308,5.942-.555,9.221-.668s6.4-.053,9.242.073c2.838.145,5.389.358,7.522.613s3.855.5,5.037.712l1.36.247A2.089,2.089,0,0,1,481.6,313.517Z" transform="translate(-434.494 -311.705)" fill="#263238"/>
                </g>
              </g>
              <g id="Grupo_86926" data-name="Grupo 86926" transform="translate(67.694 11.14)">
                <g id="Grupo_86925" data-name="Grupo 86925">
                  <path id="Trazado_119677" data-name="Trazado 119677" d="M522.493,313.393a17.6,17.6,0,0,1-2.442-.156c-1.5-.126-3.58-.265-5.879-.313s-4.381.014-5.887.08a17.653,17.653,0,0,1-2.447.059,12.236,12.236,0,0,1,2.427-.35,55.25,55.25,0,0,1,11.816.234A12.337,12.337,0,0,1,522.493,313.393Z" transform="translate(-505.839 -312.503)" fill="#263238"/>
                </g>
              </g>
            </g>
            <g id="Grupo_86928" data-name="Grupo 86928" transform="translate(17.208 277.565)">
              <path id="Trazado_119678" data-name="Trazado 119678" d="M88.075,470.964H82.136l-2.288-39.3h9.995Z" transform="translate(-79.848 -431.661)" fill="#b56d50"/>
            </g>
            <g id="Grupo_86929" data-name="Grupo 86929" transform="translate(134.373 272.476)">
              <path id="Trazado_119679" data-name="Trazado 119679" d="M236.378,469.612h-5.939l-2.288-44.392h9.995Z" transform="translate(-228.151 -425.219)" fill="#b56d50"/>
            </g>
            <g id="Grupo_86930" data-name="Grupo 86930" transform="translate(376.613 266.496)">
              <path id="Trazado_119680" data-name="Trazado 119680" d="M543,468.022h-5.939l-2.288-50.373h9.995Z" transform="translate(-534.769 -417.649)" fill="#b56d50"/>
            </g>
            <g id="Grupo_86931" data-name="Grupo 86931" transform="translate(0.341 207.794)">
              <path id="Rectángulo_34956" data-name="Rectángulo 34956" d="M19.963,0H384.152a11.919,11.919,0,0,1,11.919,11.919V44.536A14.165,14.165,0,0,1,381.906,58.7H0a0,0,0,0,1,0,0V19.963A19.963,19.963,0,0,1,19.963,0Z" fill="#e0e0e0"/>
            </g>
            <g id="Grupo_86932" data-name="Grupo 86932" transform="translate(270.806 207.763)" opacity="0.3">
              <path id="Trazado_119681" data-name="Trazado 119681" d="M407.853,402.192l6.652-.151-4.982-58.277-8.681-.456Z" transform="translate(-400.842 -343.307)"/>
            </g>
            <g id="Grupo_86933" data-name="Grupo 86933" transform="translate(0.037 176.445)">
              <path id="Trazado_119682" data-name="Trazado 119682" d="M58.113,397.372V344.92a12.9,12.9,0,0,1,12.855-12.88l82.849-.37s10.223-10.276,17.526-10.21,13.148-17.746,36.7-17.793c26.632-.052,20,7.614,34.548,12.562s35.9-5.518,49.265,5.232,34.3,4.585,38.68,13.98,5.356,64.258,5.356,64.258Z" transform="translate(-58.113 -303.667)" fill="#455a64"/>
            </g>
            <g id="Grupo_86934" data-name="Grupo 86934" transform="translate(0 259.445)">
              <path id="Trazado_119683" data-name="Trazado 119683" d="M58.1,408.724V419.43c-.341,9.491,1.679,9.887,6,11.576s9.144.521,13.5-1.044,8.742-3.539,13.347-3.429c9.239.223,16.946,8.72,26.187,8.821,11.826.13,21.158-13.421,32.936-12.287,8.962.863,16.189,10.187,25.151,9.317,6.244-.606,11.236-6.1,17.429-7.134,8-1.338,15.311,4.969,23.329,6.16,10.858,1.612,21.367-6.293,32.281-5.185,9.386.954,17.356,8.424,26.757,9.207,11.8.982,22.655-8.765,34.447-7.688,9.808.9,18.243,9.178,28.083,8.878l-1.883-23.339Z" transform="translate(-58.066 -408.724)" fill="#455a64"/>
            </g>
            <g id="Grupo_86936" data-name="Grupo 86936" transform="translate(149.762 211.581)">
              <g id="Grupo_86935" data-name="Grupo 86935">
                <path id="Trazado_119684" data-name="Trazado 119684" d="M247.834,408.716c-.114,0-.205-13.562-.205-30.287s.092-30.289.205-30.289.206,13.559.206,30.289S247.948,408.716,247.834,408.716Z" transform="translate(-247.629 -348.14)" fill="#263238"/>
              </g>
            </g>
            <g id="Grupo_86938" data-name="Grupo 86938" transform="translate(14.893 205.445)">
              <g id="Grupo_86937" data-name="Grupo 86937">
                <path id="Trazado_119685" data-name="Trazado 119685" d="M217.082,340.579s-.122.014-.362.021l-1.062.021-4.084.039-15.019.066-49.552.06-49.561-.06-15.019-.066-4.083-.039-1.062-.021c-.239-.007-.362-.021-.362-.021s.122-.013.362-.021l1.062-.021,4.083-.039,15.019-.066,49.561-.06,49.552.06,15.019.066,4.084.039,1.062.021C216.959,340.566,217.082,340.579,217.082,340.579Z" transform="translate(-76.917 -340.374)" fill="#263238"/>
              </g>
            </g>
            <g id="Grupo_86940" data-name="Grupo 86940" transform="translate(154.909 190.295)">
              <g id="Grupo_86939" data-name="Grupo 86939">
                <path id="Trazado_119686" data-name="Trazado 119686" d="M279.878,321.44c-.006.085-1.6-.081-4.169.07a32.9,32.9,0,0,0-4.468.584,32.62,32.62,0,0,0-10.253,3.953,32.826,32.826,0,0,0-3.706,2.566c-2,1.611-3.076,2.8-3.136,2.746a5.8,5.8,0,0,1,.727-.858,11.957,11.957,0,0,1,.925-.941c.377-.351.79-.77,1.3-1.172a29.871,29.871,0,0,1,3.7-2.666,30.921,30.921,0,0,1,10.376-4,29.679,29.679,0,0,1,4.529-.5c.647-.044,1.235-.01,1.749,0a12.312,12.312,0,0,1,1.318.077A5.934,5.934,0,0,1,279.878,321.44Z" transform="translate(-254.144 -321.197)" fill="#263238"/>
              </g>
            </g>
            <g id="Grupo_86942" data-name="Grupo 86942" transform="translate(198.377 206.988)">
              <g id="Grupo_86941" data-name="Grupo 86941">
                <path id="Trazado_119687" data-name="Trazado 119687" d="M375.178,343.1c0,.114-14.782.044-33.008-.154s-33.008-.453-33.006-.566,14.778-.044,33.011.155S375.179,342.987,375.178,343.1Z" transform="translate(-309.164 -342.326)" fill="#263238"/>
              </g>
            </g>
            <g id="Grupo_86944" data-name="Grupo 86944" transform="translate(266.109 216.029)">
              <g id="Grupo_86943" data-name="Grupo 86943">
                <path id="Trazado_119688" data-name="Trazado 119688" d="M399.594,415.673c-.114.009-1.255-13.843-2.549-30.934s-2.252-30.96-2.139-30.969,1.254,13.84,2.549,30.937S399.707,415.664,399.594,415.673Z" transform="translate(-394.896 -353.77)" fill="#263238"/>
              </g>
            </g>
            <g id="Grupo_86946" data-name="Grupo 86946" transform="translate(51.057 245.181)">
              <g id="Grupo_86945" data-name="Grupo 86945">
                <path id="Trazado_119689" data-name="Trazado 119689" d="M123.863,390.67c.113,0-.049,6.986-.362,15.591s-.659,15.582-.773,15.578.048-6.984.362-15.593S123.749,390.666,123.863,390.67Z" transform="translate(-122.692 -390.67)" fill="#263238"/>
              </g>
            </g>
            <g id="Grupo_86948" data-name="Grupo 86948" transform="translate(64.954 226.401)">
              <g id="Grupo_86947" data-name="Grupo 86947" transform="translate(0)">
                <path id="Trazado_119690" data-name="Trazado 119690" d="M140.487,415.073c-.114,0-.205-10.785-.205-24.086s.092-24.088.205-24.088.205,10.782.205,24.088S140.6,415.073,140.487,415.073Z" transform="translate(-140.282 -366.899)" fill="#263238"/>
              </g>
            </g>
            <g id="Grupo_86950" data-name="Grupo 86950" transform="translate(98.54 231.357)">
              <g id="Grupo_86949" data-name="Grupo 86949">
                <path id="Trazado_119691" data-name="Trazado 119691" d="M186.18,411.442a1.4,1.4,0,0,1-.1-.38c-.055-.3-.122-.663-.2-1.1-.168-.958-.386-2.35-.634-4.072-.5-3.445-1.084-8.218-1.548-13.509s-.713-10.1-.821-13.574c-.055-1.739-.082-3.147-.083-4.12l.006-1.12a1.417,1.417,0,0,1,.031-.392,1.437,1.437,0,0,1,.052.389c.019.3.043.672.07,1.118.054,1.035.126,2.425.213,4.113.183,3.471.48,8.265.941,13.551s1,10.055,1.426,13.506l.5,4.088c.05.444.092.811.126,1.113A1.466,1.466,0,0,1,186.18,411.442Z" transform="translate(-182.795 -373.172)" fill="#263238"/>
              </g>
            </g>
            <g id="Grupo_86952" data-name="Grupo 86952" transform="translate(107.836 235.604)">
              <g id="Grupo_86951" data-name="Grupo 86951">
                <path id="Trazado_119692" data-name="Trazado 119692" d="M201.13,417.87a1.542,1.542,0,0,1-.189-.363l-.469-1.074c-.406-.933-.935-2.308-1.533-4.028s-1.234-3.794-1.843-6.124c-.589-2.335-1.144-4.926-1.578-7.672s-.678-5.388-.826-7.791c-.128-2.406-.159-4.576-.1-6.4s.135-3.291.239-4.3c.048-.468.089-.852.121-1.166a1.533,1.533,0,0,1,.07-.4,1.55,1.55,0,0,1,.013.411c-.012.314-.026.7-.043,1.169-.055,1.014-.1,2.483-.107,4.3s.043,3.975.191,6.368c.168,2.392.435,5.016.853,7.752s.975,5.313,1.541,7.643c.585,2.325,1.183,4.4,1.751,6.125s1.048,3.112,1.407,4.062l.4,1.1A1.541,1.541,0,0,1,201.13,417.87Z" transform="translate(-194.561 -378.547)" fill="#263238"/>
              </g>
            </g>
            <g id="Grupo_86954" data-name="Grupo 86954" transform="translate(174.978 234.555)">
              <g id="Grupo_86953" data-name="Grupo 86953">
                <path id="Trazado_119693" data-name="Trazado 119693" d="M283.154,377.22c.113.009-.6,9.143-1.593,20.4s-1.889,20.374-2,20.364.6-9.142,1.592-20.4S283.041,377.21,283.154,377.22Z" transform="translate(-279.547 -377.22)" fill="#263238"/>
              </g>
            </g>
            <g id="Grupo_86956" data-name="Grupo 86956" transform="translate(193.107 229.59)">
              <g id="Grupo_86955" data-name="Grupo 86955">
                <path id="Trazado_119694" data-name="Trazado 119694" d="M308.078,413.09a1.732,1.732,0,0,1-.163-.4l-.391-1.183c-.337-1.027-.774-2.531-1.27-4.4a114.981,114.981,0,0,1-3.757-29.918c.017-1.934.07-3.5.141-4.577l.086-1.242a1.728,1.728,0,0,1,.058-.431,1.744,1.744,0,0,1,.025.435c0,.33,0,.742-.009,1.244-.023,1.079-.031,2.642-.011,4.571a130.483,130.483,0,0,0,3.748,29.847c.458,1.875.852,3.387,1.142,4.427.127.486.232.884.316,1.2A1.768,1.768,0,0,1,308.078,413.09Z" transform="translate(-302.493 -370.935)" fill="#263238"/>
              </g>
            </g>
            <g id="Grupo_86958" data-name="Grupo 86958" transform="translate(239.357 239.511)">
              <g id="Grupo_86957" data-name="Grupo 86957">
                <path id="Trazado_119695" data-name="Trazado 119695" d="M363.276,418.555c-.113.007-.7-7.836-1.315-17.517s-1.019-17.538-.905-17.545.7,7.835,1.316,17.519S363.389,418.548,363.276,418.555Z" transform="translate(-361.036 -383.493)" fill="#263238"/>
              </g>
            </g>
            <g id="Grupo_86960" data-name="Grupo 86960" transform="translate(273.64 207.589)">
              <g id="Grupo_86959" data-name="Grupo 86959">
                <path id="Trazado_119696" data-name="Trazado 119696" d="M518.32,343.292c0,.114-25.5.205-56.943.205s-56.948-.092-56.948-.205,25.492-.205,56.948-.205S518.32,343.179,518.32,343.292Z" transform="translate(-404.429 -343.087)" fill="#263238"/>
              </g>
            </g>
            <g id="Grupo_86962" data-name="Grupo 86962" transform="translate(146.479 188.265)" opacity="0.3">
              <g id="Grupo_86961" data-name="Grupo 86961">
                <path id="Trazado_119697" data-name="Trazado 119697" d="M274.813,320.857a2.215,2.215,0,0,0-1.6-1.368,35.859,35.859,0,0,0-14.55-.215,25.928,25.928,0,0,0-13.717,7.422c-.92.983-1.8,2.184-1.357,3.629a3.338,3.338,0,0,0,3.29,2.207,9.133,9.133,0,0,0,5.343-2.035l4.4-4.089c5.8-4.532,16.319-6.007,18.19-5.541Z" transform="translate(-243.474 -318.628)"/>
              </g>
            </g>
          </g>
        </g>
      </g>
    </g>
  </g>
</svg>
