<svg xmlns="http://www.w3.org/2000/svg" xmlns:xlink="http://www.w3.org/1999/xlink" width="172.939" height="574.68" viewBox="0 0 172.939 574.68">
  <defs>
    <linearGradient id="linear-gradient" x1="-0.435" y1="0.994" x2="1.004" y2="0.233" gradientUnits="objectBoundingBox">
      <stop offset="0" stop-color="#fb9d89" stop-opacity="0"/>
      <stop offset="1" stop-color="#f77" stop-opacity="0.502"/>
    </linearGradient>
    <linearGradient id="linear-gradient-2" x1="-0.773" y1="0.916" x2="1.304" y2="0.226" xlink:href="#linear-gradient"/>
  </defs>
  <g id="Grupo_88042" data-name="Grupo 88042" transform="translate(-191.472 -77.671)">
    <path id="Trazado_120052" data-name="Trazado 120052" d="M262.4,146.963a25.5,25.5,0,0,0-3.324.941c-7.472,2.672-12.979,8.72-20.409,11.391-4.81,1.728-10.067,3.038-13.861,6.685a15.115,15.115,0,0,0-4.479,12.351c.322,2.928,1.751,6.4.592,9.294-1.126,2.811-4.325,4.175-6.778,5.6-4.029,2.344-7.72,5.551-9.712,9.765s-2.008,9.548.768,13.292c1.183,1.6,2.883,3.01,3.1,4.983.218,1.95-1.091,3.687-2.052,5.4-2,3.561-2.6,8.1-.733,11.734,2.942,5.722,8.64,4.607,13.864,3.883,11.657-1.614,23.879-2.356,35.274-5.363a17.224,17.224,0,0,0,7.205-3.356c2.526-2.243,3.744-5.6,4.563-8.874,1.71-6.844,2.09-13.937,2.7-20.966q1.283-14.717,3.97-29.269,1.328-7.2,3-14.331c.628-2.683,3.232-8.033.706-10.338C272.987,146.3,267.388,145.908,262.4,146.963Z" transform="translate(5.836 34.697)" fill="#f77"/>
    <g id="Grupo_88019" data-name="Grupo 88019" transform="translate(191.472 77.812)">
      <g id="Grupo_88015" data-name="Grupo 88015" transform="translate(95.341)">
        <g id="Grupo_88013" data-name="Grupo 88013" transform="translate(15.778)">
          <path id="Trazado_120053" data-name="Trazado 120053" d="M265.279,224.578s7.55-51.089,9.283-64.229,12.776-60.673,12.776-60.673l10.611.217s-3.9,49.344-3.9,60.456-3.562,60.542-5.581,68.777-3.225,13.637-3.225,13.637Z" transform="translate(-265.279 -66.759)" fill="#fb9d89"/>
          <g id="Grupo_88012" data-name="Grupo 88012" transform="translate(8.204)">
            <path id="Trazado_120054" data-name="Trazado 120054" d="M296.853,103.234a42.658,42.658,0,0,1-1.662,5.089l-10.6-.221s-14.078-6.463-13.858-12.01c.2-5.563,3.461-11.924,5.327-12.637a2.825,2.825,0,0,1,.339-.1,23.279,23.279,0,0,1,7.4-.119.033.033,0,0,1,.051,0,20.711,20.711,0,0,1,4.375,1c.17.051.34.119.509.187a10.923,10.923,0,0,1,3.172,1.8,5.524,5.524,0,0,1,.492.425c.119.117.238.22.339.339,1,1.085,1.68,1.9,2.24,2.612v.035q.228.33.406.61a4.261,4.261,0,0,1,.831,3.324,29.042,29.042,0,0,1-.39,3.987H295.8c-.018.17-.035.306-.051.425-.035.17-.051.271-.051.271A6.615,6.615,0,0,1,296.853,103.234Z" transform="translate(-270.728 -75.185)" fill="#fb9d89"/>
            <path id="Trazado_120055" data-name="Trazado 120055" d="M273.746,92.539s1.733-14.616,5.089-14.724,3.424,6.388,3.5,10.286,0,4.98,0,4.98Z" transform="translate(-269.203 -77.811)" fill="#fb9d89"/>
            <path id="Trazado_120056" data-name="Trazado 120056" d="M275.484,97.7s-2.526-2.492-1.948-4.619,1.593-7.635,1.593-7.635,1-7.451,3.856-7.632,3.509,5.557,3.5,7.632-1.086,5.829,0,7.635,5.271,2.237,7.365,6.713" transform="translate(-269.353 -77.812)" fill="none" stroke="#42353b" stroke-linecap="round" stroke-linejoin="round" stroke-width="0.282"/>
            <path id="Trazado_120057" data-name="Trazado 120057" d="M282.652,93.17a.145.145,0,0,1-.05.1.185.185,0,0,1-.154.068h-.033a.2.2,0,0,1-.17-.236c0-.035.017-.051.017-.086.476-2.9,1-6.174.135-9.193.17.051.34.119.509.187C283.688,87.064,283.145,90.286,282.652,93.17Z" transform="translate(-264.907 -74.773)" fill="#42353b"/>
            <path id="Trazado_120058" data-name="Trazado 120058" d="M284.265,94.573c-.035.086-.068.154-.1.221a.234.234,0,0,1-.187.1.216.216,0,0,1-.1-.017.223.223,0,0,1-.1-.288,15.676,15.676,0,0,0,1.543-9.449,5.53,5.53,0,0,1,.492.425A16.318,16.318,0,0,1,284.265,94.573Z" transform="translate(-264.144 -74.107)" fill="#42353b"/>
            <path id="Trazado_120059" data-name="Trazado 120059" d="M289.18,93.331c-.018.17-.035.306-.051.425a1.074,1.074,0,0,1-.238.017,2.839,2.839,0,0,1-.729-.084,13.637,13.637,0,0,1-4.225-1.935c-.033-.033-.068-.068-.068-.1a.151.151,0,0,1-.017-.187.225.225,0,0,1,.288-.084c.035.017.051.033.086.05a19.559,19.559,0,0,0,2.493,1.358c.119.051.254.1.373.152a8.959,8.959,0,0,0,1.153.339A2.618,2.618,0,0,0,289.18,93.331Z" transform="translate(-264.106 -70.965)" fill="#42353b"/>
            <path id="Trazado_120060" data-name="Trazado 120060" d="M287.786,88.028a16.888,16.888,0,0,1-1.629,6.886.036.036,0,0,1-.033.035.164.164,0,0,1-.154.084.216.216,0,0,1-.1-.017.205.205,0,0,1-.119-.22.1.1,0,0,1,.017-.068,16.457,16.457,0,0,0,1.612-7.311v-.035Z" transform="translate(-263.136 -72.973)" fill="#42353b"/>
          </g>
        </g>
        <g id="Grupo_88014" data-name="Grupo 88014" transform="translate(0 160.44)">
          <path id="Trazado_120061" data-name="Trazado 120061" d="M293.762,197.9l-2.476,6.768-7.531,20.66-.136.407-.288.78-22.781-14.978-5.75-3.783,1.442-3.834L261.6,189.6l1.951-5.224,1.255.56,18.2,8.142,8.261,3.7.153.068Z" transform="translate(-254.799 -184.38)" fill="#a66cde"/>
          <path id="Trazado_120062" data-name="Trazado 120062" d="M266.364,203.732A62.111,62.111,0,0,1,277.81,216" transform="translate(-248.953 -174.597)" fill="none" stroke="#42353b" stroke-linecap="round" stroke-linejoin="round" stroke-width="0.282"/>
        </g>
        <path id="Trazado_120063" data-name="Trazado 120063" d="M286.8,194.728a8.936,8.936,0,0,1-3.342,5.394,6.352,6.352,0,0,1-.848.525l-7.531,20.66a12.869,12.869,0,0,1-2.969-3.969c-.644-1.764.915-3.749,1.527-5.429,1.034-2.85,1.73-5.834,2.645-8.735a36.468,36.468,0,0,1,1.545-4.325,15.356,15.356,0,0,1,2.6-4.224,7.549,7.549,0,0,1,2.12-1.679,1.3,1.3,0,0,1,.2-.119c.035-.017.051-.033.084-.051a3,3,0,0,1,2.511-.271A2.9,2.9,0,0,1,286.8,194.728Z" transform="translate(-246.125 -19.92)" fill="#a66cde" opacity="0.32" style="mix-blend-mode: multiply;isolation: isolate"/>
      </g>
      <g id="Grupo_88016" data-name="Grupo 88016" transform="translate(34.497 179.524)">
        <path id="Trazado_120064" data-name="Trazado 120064" d="M238.038,201.654s-11.323,9.071-15.112,15.639c0,0,11.35,26.2,17.722,37.753s8.621,24.633,7.37,29c-.345,1.2-.044,1.606-.044,1.606s32.188,17.076,53.035,6.1c1.021-.543,1.213-5.735,1.417-6.885.653-3.7,1.328-7.388,1.859-11.112q1.54-10.815,2.1-21.755c.36-6.907.628-14.552-1.009-21.281-1.57-6.453-6.055-12.454-10.367-17.089a92.587,92.587,0,0,0-10.254-9.264c-1.742-1.387-3.716-2.612-5.331-4.16-.823-.789-1.951-3.311-3.3-3.145Z" transform="translate(-210.067 -197.056)" fill="#a66cde"/>
        <path id="Trazado_120065" data-name="Trazado 120065" d="M227.244,210.5s-12.835,15.517-12.848,39.774l-.011,18.911,38.377-1.588s1.909-9.239-5.019-22.52S227.244,210.5,227.244,210.5Z" transform="translate(-214.385 -190.26)" fill="#a66cde"/>
        <path id="Trazado_120066" data-name="Trazado 120066" d="M234.426,224.451s6.249,19.344,7.228,27.717l.977,8.374" transform="translate(-204.254 -183.207)" fill="none" stroke="#42353b" stroke-linecap="round" stroke-linejoin="round" stroke-width="0.282"/>
        <path id="Trazado_120067" data-name="Trazado 120067" d="M237.874,240.525s.708-9.062,0-12.526" transform="translate(-202.511 -181.413)" fill="none" stroke="#42353b" stroke-linecap="round" stroke-linejoin="round" stroke-width="0.282"/>
        <line id="Línea_213" data-name="Línea 213" y1="1.496" x2="37.883" transform="translate(0 73.095)" fill="none" stroke="#42353b" stroke-linecap="round" stroke-linejoin="round" stroke-width="0.282"/>
        <path id="Trazado_120068" data-name="Trazado 120068" d="M220.848,213.324a28.8,28.8,0,0,1,21.195,12.205" transform="translate(-211.118 -188.832)" fill="none" stroke="#42353b" stroke-linecap="round" stroke-linejoin="round" stroke-width="0.282"/>
      </g>
      <g id="Grupo_88018" data-name="Grupo 88018" transform="translate(0 257.199)">
        <path id="Trazado_120069" data-name="Trazado 120069" d="M223.911,249.652,217.56,297.4l-10.29,44.6,10.774,3.838s14.129-33.545,18.265-47.054,11.845-50.128,11.845-50.128Z" transform="translate(-183.485 -248.649)" fill="#fb9d89"/>
        <g id="Grupo_88017" data-name="Grupo 88017" transform="translate(0 93.34)">
          <path id="Trazado_120070" data-name="Trazado 120070" d="M226.036,314.48l-5.6,16.912c-1.646,5.8-18.184,24.682-20.389,25.224-.745.187-2.136-1.56-3.6-4.088-.086-.135-.154-.271-.238-.408a47.025,47.025,0,0,1-2.341-4.816,3.2,3.2,0,0,1-.187-.425c-.577-1.375-1.085-2.764-1.475-4.036-.051-.17-.084-.324-.136-.492-.628-2.239-.831-4.122-.306-5.021,1.935-3.308,23.476-26.682,23.476-26.682Z" transform="translate(-191.472 -310.647)" fill="#fb9d89"/>
          <path id="Trazado_120071" data-name="Trazado 120071" d="M210.107,328.314s-2.62,18.059-.828,18.61,4.274-1.319,4.962-4.8,3.1-28.93,3.1-28.93l-6,4.5Z" transform="translate(-182.786 -309.357)" fill="#fb9d89"/>
          <path id="Trazado_120072" data-name="Trazado 120072" d="M210.211,326.435l-15.35,18.286c-.086-.135-.154-.271-.238-.408l15.266-18.149a.211.211,0,0,1,.289-.033A.217.217,0,0,1,210.211,326.435Z" transform="translate(-189.878 -302.841)" fill="#42353b"/>
          <path id="Trazado_120073" data-name="Trazado 120073" d="M207.278,323.924l-14.147,16.844a3.2,3.2,0,0,1-.187-.425l14.012-16.69a.21.21,0,0,1,.288-.035A.218.218,0,0,1,207.278,323.924Z" transform="translate(-190.727 -304.111)" fill="#42353b"/>
          <path id="Trazado_120074" data-name="Trazado 120074" d="M204.969,321.882l-12.96,15.454c-.051-.17-.084-.324-.136-.492l12.773-15.233a.217.217,0,0,1,.306-.017A.2.2,0,0,1,204.969,321.882Z" transform="translate(-191.268 -305.141)" fill="#42353b"/>
        </g>
      </g>
    </g>
    <g id="Grupo_88031" data-name="Grupo 88031" transform="translate(248.44 183.186)">
      <path id="Trazado_120075" data-name="Trazado 120075" d="M299.19,215.711a7.8,7.8,0,0,1-.238,1.527,8.936,8.936,0,0,1-3.342,5.394,6.355,6.355,0,0,1-.848.525c-1.951,1.12-4.309,1.543-6.328,2.528a7.749,7.749,0,0,0-1.968,1.256c-1.543,1.356-2.442,3.357-4.139,4.494-1.917,1.272-4.426,1.171-6.648.577a2.372,2.372,0,0,0-.322-.084c-2.087-.61-4.089-1.543-6.225-1.968a12.623,12.623,0,0,0-5.105.068,12.149,12.149,0,0,0-3.7,1.375,13.3,13.3,0,0,1-2.171,1.137,3.1,3.1,0,0,1-1.305.152,4.354,4.354,0,0,1-2.6-1.781,24.133,24.133,0,0,1-4.19-7.344c-.221-.56-.408-1.12-.577-1.68a35.311,35.311,0,0,1-1.34-6.819c-.135-1.256-.2-2.511-.221-3.749-.017-.628,0-1.256.018-1.883a83.7,83.7,0,0,1,.729-9.006c.119-.9.238-1.781.357-2.663.339-2.443.7-4.869,1-7.311l.051-.408c.238-1.9.425-3.8.595-5.716.068-.848.136-1.713.185-2.561.119-1.7.2-3.408.273-5.105.033-1.153.051-2.29.068-3.427.017-1.221.017-2.46,0-3.681q-.025-4.555-.357-9.108c-.017-.254-.033-.492-.051-.73a14.785,14.785,0,0,1,.154-4.766,5.405,5.405,0,0,1,1.373-2.526,4.668,4.668,0,0,1,.646-.646,3.241,3.241,0,0,1,.458-.372,11.476,11.476,0,0,1,1.391-.985c.033-.017.084-.051.117-.068a18.037,18.037,0,0,1,10.975-2.477c2.918.271,5.954,1.256,7.735,3.579.9,1.171,1.424,2.579,2.29,3.749a9.465,9.465,0,0,0,4.24,3.088c4.054,1.611,9.211,1.7,12.824,4.325a13.726,13.726,0,0,1,4.885,8.023,21.97,21.97,0,0,1,.084,9.8c-.763,3.393-2.306,6.531-3.46,9.805s-1.883,6.852-.95,10.194a28.629,28.629,0,0,0,3.189,6.361c.221.39.441.78.644,1.188A15,15,0,0,1,299.19,215.711Z" transform="translate(-219.903 -147.803)" fill="#f77"/>
      <g id="Grupo_88020" data-name="Grupo 88020" transform="translate(5.5 47.688)">
        <path id="Trazado_120076" data-name="Trazado 120076" d="M257.406,224.955c-11.4,3.172-24.442-14.415-24.442-14.415s1.917-1.037,4.088-9.111c2.171-8.091,1.153-21.949,1.153-21.949l16.759,13.5,6.344,5.123a27.067,27.067,0,0,0,.9,6.972,93.873,93.873,0,0,0,3.138,10.346S268.806,221.783,257.406,224.955Z" transform="translate(-232.964 -179.479)" fill="#fb9d89"/>
        <path id="Trazado_120077" data-name="Trazado 120077" d="M259.382,202.445a9.991,9.991,0,0,1-3.816.864c-9.568.458-17.014-18.625-17.014-18.625l13.587,5.665,6.344,5.123A27.069,27.069,0,0,0,259.382,202.445Z" transform="translate(-230.139 -176.848)" fill="#f77"/>
        <path id="Trazado_120078" data-name="Trazado 120078" d="M259.382,202.445a9.991,9.991,0,0,1-3.816.864c-9.568.458-17.014-18.625-17.014-18.625l13.587,5.665,6.344,5.123A27.069,27.069,0,0,0,259.382,202.445Z" transform="translate(-230.139 -176.848)" fill="#f77" opacity="0.35" style="mix-blend-mode: multiply;isolation: isolate"/>
      </g>
      <path id="Trazado_120079" data-name="Trazado 120079" d="M280.787,179.4c-.068,1.239-.17,2.443-.289,3.613-.254,2.477-.644,4.8-1.018,6.751a46.683,46.683,0,0,1-1.373,5.445,34.308,34.308,0,0,1-7.21,12.467,18.658,18.658,0,0,1-10.889,5.9c-10.28,1.509-18.828-7.056-22.17-15.894a49.95,49.95,0,0,1-3.408-15.52s-.254-31.568,26.716-31.33C278.5,150.992,281.466,166.547,280.787,179.4Z" transform="translate(-226.724 -146.269)" fill="#fb9d89"/>
      <path id="Trazado_120080" data-name="Trazado 120080" d="M253.174,155.981c1.957.476,4.018.185,6.018.422,4.355.518,8.1,3.552,10.477,7.237s3.58,7.99,4.625,12.249a3.166,3.166,0,0,0,.729,1.6,1.083,1.083,0,0,0,1.569.009,1.535,1.535,0,0,0,.208-.805,32.734,32.734,0,0,0-3.743-17.3,14.373,14.373,0,0,0-10.3-8.083A32.051,32.051,0,0,0,251,150.34C246.95,150.76,251.148,155.487,253.174,155.981Z" transform="translate(-219.206 -146.607)" fill="#f77"/>
      <g id="Grupo_88022" data-name="Grupo 88022" transform="translate(0 23.328)">
        <path id="Trazado_120081" data-name="Trazado 120081" d="M243.228,172.5s-4.474-11.838-10.105-8.663-5.2,20.644,2.454,20.355,7.651-2.165,7.651-2.165Z" transform="translate(-229.311 -163.299)" fill="#fb9d89"/>
        <g id="Grupo_88021" data-name="Grupo 88021" transform="translate(2.486 4.302)">
          <path id="Trazado_120082" data-name="Trazado 120082" d="M238.751,169.849c-.235-1.409-.671-3.05-2.023-3.555a3.236,3.236,0,0,0-2.942.664c-2.452,1.805-3.253,5.226-2.612,8.176a6.117,6.117,0,0,0,1.777,3.366,3.389,3.389,0,0,0,3.624.637A4.116,4.116,0,0,0,238.3,177.2" transform="translate(-230.962 -166.156)" fill="none" stroke="#42353b" stroke-linecap="round" stroke-linejoin="round" stroke-width="0.286"/>
          <path id="Trazado_120083" data-name="Trazado 120083" d="M233.632,166.27s3.061,3.957,2.355,12.237" transform="translate(-229.613 -166.098)" fill="none" stroke="#42353b" stroke-linecap="round" stroke-linejoin="round" stroke-width="0.286"/>
        </g>
      </g>
      <g id="Grupo_88030" data-name="Grupo 88030" transform="translate(9.288 25.32)">
        <path id="Trazado_120084" data-name="Trazado 120084" d="M257.12,182.106a10.82,10.82,0,1,1-10.82-10.82A10.821,10.821,0,0,1,257.12,182.106Z" transform="translate(-235.48 -161.253)" fill="url(#linear-gradient)"/>
        <path id="Trazado_120085" data-name="Trazado 120085" d="M268.135,176.7a46.7,46.7,0,0,1-1.373,5.445,34.309,34.309,0,0,1-7.21,12.467,10.7,10.7,0,0,1-2.68-7.108,10.808,10.808,0,0,1,10.822-10.822A3.771,3.771,0,0,1,268.135,176.7Z" transform="translate(-224.666 -158.524)" fill="url(#linear-gradient-2)"/>
        <g id="Grupo_88029" data-name="Grupo 88029" transform="translate(12.842)">
          <path id="Trazado_120086" data-name="Trazado 120086" d="M246.568,165.376a3.629,3.629,0,0,0-2.558,2.052,44.214,44.214,0,0,1,13.036,1.647c1.28.36,3.654-.047,2.651-1.956-.509-.968-2.331-1.3-3.267-1.624A15.373,15.373,0,0,0,246.568,165.376Z" transform="translate(-244.01 -164.622)" fill="#f77"/>
          <path id="Trazado_120087" data-name="Trazado 120087" d="M267.338,170.267c-.068,1.239-.17,2.443-.289,3.613a40.957,40.957,0,0,0-4.1-1.68c-1.256-.44-2.969-2.136-1.052-3.121.967-.509,2.647.272,3.613.544A13.833,13.833,0,0,1,267.338,170.267Z" transform="translate(-235.404 -162.453)" fill="#f77"/>
          <g id="Grupo_88028" data-name="Grupo 88028" transform="translate(1.318 8.246)">
            <g id="Grupo_88026" data-name="Grupo 88026" transform="translate(14.821)">
              <g id="Grupo_88025" data-name="Grupo 88025">
                <g id="Grupo_88024" data-name="Grupo 88024">
                  <g id="Grupo_88023" data-name="Grupo 88023">
                    <path id="Trazado_120088" data-name="Trazado 120088" d="M254.887,187.73a.19.19,0,0,1-.151-.146.2.2,0,0,1,.133-.242,6.715,6.715,0,0,0,2.489-1.323,1.734,1.734,0,0,0,.5-.592,2.293,2.293,0,0,0-.313-1.754c-.063-.14-.125-.279-.179-.416-.911-2.245-.029-4.863.842-6.892a62.842,62.842,0,0,1,3.058-6.171.18.18,0,0,1,.254-.066.207.207,0,0,1,.062.272,61.842,61.842,0,0,0-3.038,6.129c-.891,2.076-1.686,4.48-.84,6.57.054.131.114.266.175.4a2.61,2.61,0,0,1,.315,2.091,2.107,2.107,0,0,1-.61.738,7.055,7.055,0,0,1-2.623,1.4A.154.154,0,0,1,254.887,187.73Z" transform="translate(-254.73 -170.099)" fill="#42353b"/>
                  </g>
                </g>
              </g>
            </g>
            <g id="Grupo_88027" data-name="Grupo 88027" transform="translate(0 0.346)">
              <path id="Trazado_120089" data-name="Trazado 120089" d="M252.1,170.353a1.46,1.46,0,0,1,.637.126.464.464,0,0,1,.254.525,2.257,2.257,0,0,0-.12.26c-.092.429.851.915,1.149,1.134a4.184,4.184,0,0,1,1.26,1.274c.113.208.122.51-.2.492a2.756,2.756,0,0,1-1.049-.333c-.711-.343-1.394-.739-2.133-1.028a12.764,12.764,0,0,0-2.317-.656,18.261,18.261,0,0,0-3.932-.154,2.185,2.185,0,0,1-.358-.029c-.16-.024-.339-.077-.394-.221a.3.3,0,0,1,.06-.289.789.789,0,0,1,.25-.193,9.574,9.574,0,0,1,3.384-.805A22.935,22.935,0,0,1,252.1,170.353Z" transform="translate(-244.885 -170.329)" fill="#42353b"/>
              <path id="Trazado_120090" data-name="Trazado 120090" d="M264.644,174.289a1.11,1.11,0,0,1,.512.134.353.353,0,0,1,.141.447,2.227,2.227,0,0,0-.134.209c-.133.351.584.8.8.994a2.974,2.974,0,0,1,.878,1.113c.066.176.033.429-.229.4a2.129,2.129,0,0,1-.825-.324c-.544-.318-1.057-.677-1.63-.951a9.852,9.852,0,0,0-1.834-.65,14.926,14.926,0,0,0-3.238-.309,1.585,1.585,0,0,1-.294-.041c-.13-.026-.271-.078-.3-.2a.274.274,0,0,1,.089-.238.738.738,0,0,1,.233-.149,8.481,8.481,0,0,1,2.909-.51A19.028,19.028,0,0,1,264.644,174.289Z" transform="translate(-238.008 -168.379)" fill="#42353b"/>
            </g>
            <path id="Trazado_120091" data-name="Trazado 120091" d="M248.336,180.63s4.908,5.992,12.415,4.693" transform="translate(-243.141 -164.776)" fill="none" stroke="#42353b" stroke-linecap="round" stroke-linejoin="round" stroke-width="0.282"/>
            <path id="Trazado_120092" data-name="Trazado 120092" d="M250.541,183.869a11.752,11.752,0,0,0,5.631,1.548" transform="translate(-242.026 -163.138)" fill="none" stroke="#42353b" stroke-linecap="round" stroke-linejoin="round" stroke-width="0.286"/>
          </g>
        </g>
      </g>
      <path id="Trazado_120093" data-name="Trazado 120093" d="M237.743,180.7a1.357,1.357,0,0,0,.342.756.941.941,0,0,0,1.221-.142,3.347,3.347,0,0,0,.655-1.17c1.561-3.735,5.1-6.173,8.128-8.863a42.9,42.9,0,0,0,10.552-14.364c.893-1.98,1.617-4.349.554-6.245-1.128-2.014-3.808-2.573-6.1-2.332a19.619,19.619,0,0,0-9.464,4.119,23.238,23.238,0,0,0-7.457,8.761C233.186,167.77,236.322,174.156,237.743,180.7Z" transform="translate(-226.473 -147.56)" fill="#f77"/>
    </g>
    <g id="Grupo_88041" data-name="Grupo 88041" transform="translate(214.197 344.318)">
      <g id="Grupo_88036" data-name="Grupo 88036" transform="translate(24.358)">
        <path id="Trazado_120094" data-name="Trazado 120094" d="M314.6,371.008c-.018.051-.035.084-.051.136-.17.492-.339,1-.525,1.56-2.154,6.108-5.87,16.437-12.332,33.874-14.283,38.538-38.98,90.886-38.98,90.886l-19.049-8.6c-.866-20.356,16.9-58.029,16.9-58.029l6.293-51.566.254-2.035.033-.289c-16.249.866-18.59.611-18.59.611l-4.885-22.086,17.962-8.837c-15.112-2.2-35.859-10.584-38.606-32.89-3.324-27,25.088-58.911,25.088-58.911l52.99,7.719,10.177,37.605c17.439,9.449,36.063,22.136,37.2,33.706C350.082,350.262,336.581,364.036,314.6,371.008Z" transform="translate(-222.745 -254.831)" fill="#6887ff"/>
        <path id="Trazado_120095" data-name="Trazado 120095" d="M299.737,332.088c-.17.492-.339,1-.525,1.56a14.371,14.371,0,0,1-3.308,1.85,82.894,82.894,0,0,1-10.823,3.443q-9.108,2.468-18.217,4.953c-3.207.881-6.666,1.746-9.787.525-1.289-.509-4.225-2.358-5.037-4.206l.2-1.986.051-.05c1.56-1.646,7.243-1.085,9.057-1.222,7.141-.525,14.248-1.086,21.391-1.7C288.507,334.784,294.377,334.242,299.737,332.088Z" transform="translate(-207.937 -215.776)" fill="#6887ff" opacity="0.27" style="mix-blend-mode: multiply;isolation: isolate"/>
        <path id="Trazado_120096" data-name="Trazado 120096" d="M248.93,322.908h.017a2.794,2.794,0,0,0,.357-.086c2.85-.712,6.6-2.951,7.463-3.392a249.3,249.3,0,0,1,37.42-15,.506.506,0,0,1,.152-.035c.882-.288,1.781-.559,2.68-.831.373-.542-.559-1.034-1.221-1.034a73.873,73.873,0,0,0-14.825,1.408,77.11,77.11,0,0,0-25.138,9.771c-1.781,1.085-10.128,5.5-9.923,7.768a1.861,1.861,0,0,0,.05.322Z" transform="translate(-211.036 -230.716)" fill="#6887ff" opacity="0.27" style="mix-blend-mode: multiply;isolation: isolate"/>
        <g id="Grupo_88035" data-name="Grupo 88035" transform="translate(20.916 1.399)">
          <g id="Grupo_88033" data-name="Grupo 88033" transform="translate(0.211)">
            <g id="Grupo_88032" data-name="Grupo 88032">
              <path id="Trazado_120097" data-name="Trazado 120097" d="M250.4,258.651c-5.885,9.879-8.122,16.654-11.031,27.778-1,3.844-1.814,7.951-.622,11.74,1.283,4.072,4.742,7.162,8.591,9.012s8.1,2.636,12.29,3.469q19.923,3.963,39.394,9.86c2.431.738,5.268,1.947,5.665,4.456.477,3.025-2.906,5.087-5.762,6.2-20.87,8.1-43.07,13.389-62.145,25.1" transform="translate(-236.778 -254.299)" fill="none" stroke="#f5d9d6" stroke-linecap="round" stroke-linejoin="round" stroke-width="0.282"/>
              <path id="Trazado_120098" data-name="Trazado 120098" d="M239.422,279.834a9.026,9.026,0,0,0,4.3,1.009c6.724.239,12.476-1.247,17.265-5.971,4.867-4.8,6.293-8.648,8.923-13.545" transform="translate(-235.441 -252.946)" fill="none" stroke="#f5d9d6" stroke-linecap="round" stroke-linejoin="round" stroke-width="0.282"/>
              <path id="Trazado_120099" data-name="Trazado 120099" d="M273.5,262.4a238.871,238.871,0,0,1,.379,28.394" transform="translate(-218.215 -252.404)" fill="none" stroke="#f5d9d6" stroke-linecap="round" stroke-linejoin="round" stroke-width="0.282"/>
              <path id="Trazado_120100" data-name="Trazado 120100" d="M275.094,279.8a2.863,2.863,0,0,1-3.339-1.552,8.349,8.349,0,0,1-.658-3.937c-.023-5.4-.139-6.508-.161-11.91" transform="translate(-219.51 -252.404)" fill="none" stroke="#f5d9d6" stroke-linecap="round" stroke-linejoin="round" stroke-width="0.282"/>
              <path id="Trazado_120101" data-name="Trazado 120101" d="M238.539,255.76c2.827,2.239,6.4,3.263,9.9,4.142a205.954,205.954,0,0,0,45.67,5.853" transform="translate(-235.888 -255.76)" fill="none" stroke="#f5d9d6" stroke-linecap="round" stroke-linejoin="round" stroke-width="0.282"/>
            </g>
            <path id="Trazado_120102" data-name="Trazado 120102" d="M267.821,335.681c-2.227,14.123-4.453,27.67-6.68,41.793a89.219,89.219,0,0,1-3.577,16.129,110.878,110.878,0,0,1-5.436,11.845c-6.915,13.964-12.445,28.974-12.91,44.55" transform="translate(-235.545 -215.358)" fill="none" stroke="#f5d9d6" stroke-linecap="round" stroke-linejoin="round" stroke-width="0.282"/>
          </g>
          <g id="Grupo_88034" data-name="Grupo 88034" transform="translate(0 33.417)">
            <path id="Trazado_120103" data-name="Trazado 120103" d="M260.322,277.956s18.349,2.5,31.959,10.516" transform="translate(-224.665 -277.956)" fill="none" stroke="#42353b" stroke-linecap="round" stroke-linejoin="round" stroke-width="0.282"/>
            <path id="Trazado_120104" data-name="Trazado 120104" d="M236.638,330.988s47.784-24.829,65.972-27.717" transform="translate(-236.638 -265.159)" fill="none" stroke="#42353b" stroke-linecap="round" stroke-linejoin="round" stroke-width="0.282"/>
            <path id="Trazado_120105" data-name="Trazado 120105" d="M252.234,337.929s38.983-2.723,47.454-5.93" transform="translate(-228.754 -250.636)" fill="none" stroke="#42353b" stroke-linecap="round" stroke-linejoin="round" stroke-width="0.282"/>
          </g>
        </g>
      </g>
      <g id="Grupo_88038" data-name="Grupo 88038" transform="translate(26.136 234.912)">
        <g id="Grupo_88037" data-name="Grupo 88037" transform="translate(0 10.928)">
          <path id="Trazado_120106" data-name="Trazado 120106" d="M255,431.165s-1.7,5.039-4.106,11.874c-.051.135-.1.289-.152.441-.662,1.865-1.375,3.884-2.138,5.954a2.5,2.5,0,0,1-.152.423c-1.612,4.462-3.359,9.211-5.072,13.587l-.152.406c-2.7,6.888-5.259,12.807-6.9,15.182a3.319,3.319,0,0,1-.254.357,2,2,0,0,1-.848.747c-3.681,1.067-9.974-12.315-11.127-17.744s3.817-16.555,4.6-20.8c.78-4.223-3.987-11.618-1-17.86a8.2,8.2,0,0,1,4.461-3.935,4.071,4.071,0,0,1,.492-.187,23.825,23.825,0,0,1,8.329-1.256,4.236,4.236,0,0,0,.441.017c.339.017.543.035.543.035Z" transform="translate(-223.926 -418.004)" fill="#6887ff"/>
          <path id="Trazado_120107" data-name="Trazado 120107" d="M235.526,479.131a.2.2,0,0,1-.083-.017,12.494,12.494,0,0,1-4.744-3.839,24.883,24.883,0,0,1-5.086-14.572,40.76,40.76,0,0,1,2.719-15.31c.1-.266.2-.536.3-.8a14.082,14.082,0,0,0,.977-9.723c-.1-.58-.2-1.158-.283-1.737a25.108,25.108,0,0,1,2.1-13.923.212.212,0,1,1,.385.178,24.669,24.669,0,0,0-2.064,13.685c.08.575.181,1.15.282,1.724a14.489,14.489,0,0,1-1,9.944l-.294.8a40.241,40.241,0,0,0-2.693,15.147,24.45,24.45,0,0,0,4.992,14.324,12.08,12.08,0,0,0,4.578,3.714.212.212,0,0,1-.083.407Z" transform="translate(-223.084 -417.637)" fill="#f5d9d6"/>
          <path id="Trazado_120108" data-name="Trazado 120108" d="M228.3,428.752a.208.208,0,0,1-.191-.122.211.211,0,0,1,.1-.281,26.03,26.03,0,0,0,9.033-7.017,7.392,7.392,0,0,0,1.682-3.04.212.212,0,0,1,.416.086,7.772,7.772,0,0,1-1.769,3.222,26.485,26.485,0,0,1-9.181,7.133A.213.213,0,0,1,228.3,428.752Z" transform="translate(-221.821 -418.122)" fill="#f5d9d6"/>
          <path id="Trazado_120109" data-name="Trazado 120109" d="M242.565,449.049l-.152.407a36.243,36.243,0,0,0-16.318-1.966,1.926,1.926,0,0,0-.306.033.147.147,0,0,1-.119-.033.184.184,0,0,1-.017-.34.1.1,0,0,1,.084-.051,2.361,2.361,0,0,1,.34-.033A36.983,36.983,0,0,1,242.565,449.049Z" transform="translate(-223.106 -403.608)" fill="#f5d9d6"/>
          <path id="Trazado_120110" data-name="Trazado 120110" d="M245.632,436.255c-.051.135-.1.289-.152.441a17.469,17.469,0,0,1-4.258-1.034,43.951,43.951,0,0,1-6.769-3.494.219.219,0,0,1-.084-.289.2.2,0,0,1,.289-.068,43.906,43.906,0,0,0,6.716,3.443A16.573,16.573,0,0,0,245.632,436.255Z" transform="translate(-218.659 -411.22)" fill="#f5d9d6"/>
          <path id="Trazado_120111" data-name="Trazado 120111" d="M243.766,440.439a2.5,2.5,0,0,1-.152.423,17.761,17.761,0,0,1-10.042-4.342.216.216,0,1,1,.288-.322A17.305,17.305,0,0,0,243.766,440.439Z" transform="translate(-219.084 -409.009)" fill="#f5d9d6"/>
        </g>
        <path id="Trazado_120112" data-name="Trazado 120112" d="M239.046,410.864,235.8,425.145c-.337,1.486.419,3.24.962,4.6a8.376,8.376,0,0,0,2.931,4.017,11.322,11.322,0,0,0,4.964,1.524c.45.06,3.922.811,4.136.256l6.62-17.289Z" transform="translate(-217.964 -410.864)" fill="#fb9d89"/>
      </g>
      <g id="Grupo_88040" data-name="Grupo 88040" transform="translate(0 102.052)">
        <g id="Grupo_88039" data-name="Grupo 88039" transform="translate(0 4.362)">
          <path id="Trazado_120113" data-name="Trazado 120113" d="M246.02,343.5s-2.764,3.63-6.751,8.7a4.161,4.161,0,0,1-.271.339c-1.137,1.442-2.358,3-3.646,4.631-.086.1-.17.2-.273.322-4.24,5.327-9.092,11.3-13.315,16.183l-.306.355a74.434,74.434,0,0,1-8.515,8.788c-.135.084-.254.185-.373.254a1.916,1.916,0,0,1-1.034.441c-3.816-.17-5.479-14.86-4.834-20.373.661-5.513,8.956-14.452,11.043-18.217,2.1-3.749-.018-12.282,4.8-17.235a6.973,6.973,0,0,1,3.427-1.865,2.916,2.916,0,0,1,.644-.135,17.994,17.994,0,0,1,7.464.593,3.968,3.968,0,0,1,.474.137,29.813,29.813,0,0,1,3.8,1.34Z" transform="translate(-206.566 -325.513)" fill="#6887ff"/>
          <path id="Trazado_120114" data-name="Trazado 120114" d="M226.117,325.632a17.159,17.159,0,0,0-3.24,6.819c-.033.135-.068.289-.1.424-.018.017-.018.017-.018.035-.271,1.135-.509,2.29-.745,3.425a36.945,36.945,0,0,1-1.883,7.04,38.619,38.619,0,0,1-5.021,7.99,50.75,50.75,0,0,0-3.851,5.614,24.447,24.447,0,0,0-2.306,5.649,2.016,2.016,0,0,0-.119.425,25.73,25.73,0,0,0,.679,15.334,8.7,8.7,0,0,0,2.934,4.377c-.135.084-.254.185-.373.254a9.419,9.419,0,0,1-2.967-4.5,26.38,26.38,0,0,1,1.781-21.746,50.279,50.279,0,0,1,3.884-5.665,37.566,37.566,0,0,0,4.97-7.906,38.263,38.263,0,0,0,1.865-6.954c.221-1.137.458-2.306.747-3.443a18.688,18.688,0,0,1,3.121-7.04A2.919,2.919,0,0,1,226.117,325.632Z" transform="translate(-206.068 -325.453)" fill="#f5d9d6"/>
          <path id="Trazado_120115" data-name="Trazado 120115" d="M220.927,361.208l-.306.355a39.466,39.466,0,0,0-7.413-8.446,9.1,9.1,0,0,0-4.715-2.477,1.392,1.392,0,0,0-.271-.035l.035-.425a2.607,2.607,0,0,1,.355.035,9.524,9.524,0,0,1,4.869,2.577A40.933,40.933,0,0,1,220.927,361.208Z" transform="translate(-205.729 -313.042)" fill="#f5d9d6"/>
          <path id="Trazado_120116" data-name="Trazado 120116" d="M229.029,326.163a34.207,34.207,0,0,1-6.921,5.343,8.753,8.753,0,0,1-3.85,1.2,2.509,2.509,0,0,1-.509-.035,1.22,1.22,0,0,1-.254-.035l.068-.423a1.7,1.7,0,0,0,.288.033,7.356,7.356,0,0,0,4.054-1.137,32.487,32.487,0,0,0,6.65-5.089A3.974,3.974,0,0,1,229.029,326.163Z" transform="translate(-201.041 -325.254)" fill="#f5d9d6"/>
          <path id="Trazado_120117" data-name="Trazado 120117" d="M231.237,345.513a4.15,4.15,0,0,1-.271.339A37.77,37.77,0,0,1,222.5,339.1a.21.21,0,0,1,.017-.288.214.214,0,0,1,.306,0A36.415,36.415,0,0,0,231.237,345.513Z" transform="translate(-198.535 -318.822)" fill="#f5d9d6"/>
          <path id="Trazado_120118" data-name="Trazado 120118" d="M228.4,348.492c-.086.1-.17.2-.272.322a36.325,36.325,0,0,1-7.752-5.768.21.21,0,0,1-.017-.288.216.216,0,0,1,.306-.017A35.38,35.38,0,0,0,228.4,348.492Z" transform="translate(-199.617 -316.831)" fill="#f5d9d6"/>
        </g>
        <path id="Trazado_120119" data-name="Trazado 120119" d="M241.611,322.616l-14.025,6.93s-1.835,6.627,2.7,11.707c3.181,3.562,5.292,3.72,5.292,3.72l10.477-2.687Z" transform="translate(-196.126 -322.616)" fill="#fb9d89"/>
      </g>
    </g>
  </g>
</svg>
