<svg xmlns="http://www.w3.org/2000/svg" xmlns:xlink="http://www.w3.org/1999/xlink" width="240.904" height="475.385" viewBox="0 0 240.904 475.385">
  <defs>
    <linearGradient id="linear-gradient" x1="-2.827" y1="0.746" x2="-1.388" y2="-0.015" gradientUnits="objectBoundingBox">
      <stop offset="0" stop-color="#fb9d89" stop-opacity="0"/>
      <stop offset="1" stop-color="#f77" stop-opacity="0.502"/>
    </linearGradient>
    <linearGradient id="linear-gradient-2" x1="1.333" y1="0.935" x2="-0.734" y2="0.142" xlink:href="#linear-gradient"/>
  </defs>
  <g id="Grupo_88076" data-name="Grupo 88076" transform="translate(-312.167 -91.058)">
    <g id="Grupo_88044" data-name="Grupo 88044" transform="translate(347.067 155.916)">
      <path id="Trazado_120120" data-name="Trazado 120120" d="M406.256,192.366l-33.66,65.8-21.388-5.046,3.231-21.937-6.677,21.129-9.8-2.318,2.912-10.9c2.927-10.9,7.988-10.7,11.876-17.517s-1.556-12.455,6.036-26.708,13.614-9.879,22.761-15.534a18.054,18.054,0,0,0,8.964-14.7Z" transform="translate(-337.96 -129.997)" fill="#42353b"/>
      <g id="Grupo_88043" data-name="Grupo 88043" transform="translate(58.767)">
        <path id="Trazado_120121" data-name="Trazado 120121" d="M415.308,139.039a12.345,12.345,0,0,1,8.593,3.617,23.17,23.17,0,0,1,5.151,7.979,20.82,20.82,0,0,1,1.843,7.44,10.47,10.47,0,0,1-2.331,7.163,11.935,11.935,0,0,1-4.005,2.825c-2.132.995-4.728,1.6-6.773.437a8.254,8.254,0,0,1-2.609-2.76C411.094,159.617,400.822,139.4,415.308,139.039Z" transform="translate(-372.063 -139.036)" fill="#42353b"/>
        <path id="Trazado_120122" data-name="Trazado 120122" d="M468.715,261.343s-2.775,1.036-7.059,2.592c-2.316-5.733-7.928-18.981-12.73-25.291l5.794,27.761c-12.866,4.527-30.9,10.5-37.381,10.9-10.519.655-35.947-129.733-35.947-129.733s7.273-8.964,21.541-6.631,20.108,8.7,21.922,16.22-.9,17.394,1.433,22.059,11.159,2.988,14.788,14.528-2.073,19.33,4.8,25.17,15.7,5.579,19.59,22.836S468.715,261.343,468.715,261.343Z" transform="translate(-381.393 -138.5)" fill="#42353b"/>
        <path id="Trazado_120123" data-name="Trazado 120123" d="M404.75,142.94s9.267.41,13.42,12.605-.995,18.787,2.487,25.351a36.147,36.147,0,0,0,6.984,9.636l-11.445-7.61-2.956-12.3Z" transform="translate(-373.147 -137.657)" fill="#42353b"/>
      </g>
    </g>
    <path id="Trazado_120124" data-name="Trazado 120124" d="M417.391,235.015l-15.35,37.806-6.587-.35c.656-2.7,1.571-5.335,2.44-7.972q3.933-11.891,6.952-24.072c.579-2.3,1.051-9.13,3.109-10,2.15-.915,7,1.739,9.3,3.218Z" transform="translate(29.405 49.08)" fill="#6887ff" opacity="0.27" style="mix-blend-mode: multiply;isolation: isolate"/>
    <path id="Trazado_120125" data-name="Trazado 120125" d="M423.015,320.677a49.537,49.537,0,0,1-2.5-4.985c-3.993-8.37-10.473-15.245-15.976-22.7s-10.229-16.189-9.787-25.443a28.16,28.16,0,0,1,.579-4.406c.107-.564.244-1.128.38-1.693l6.587.35c-.35,15.382,5.533,12.654,13.4,32.9,3.384,8.706,5.473,15.6,6.434,21.312v.031A25.288,25.288,0,0,1,423.015,320.677Z" transform="translate(29.148 60.1)" fill="#6887ff" opacity="0.27" style="mix-blend-mode: multiply;isolation: isolate"/>
    <g id="Grupo_88061" data-name="Grupo 88061" transform="translate(312.167 91.225)">
      <g id="Grupo_88046" data-name="Grupo 88046" transform="translate(103.965 416.32)">
        <g id="Grupo_88045" data-name="Grupo 88045" transform="translate(10.239 1.893)">
          <path id="Trazado_120126" data-name="Trazado 120126" d="M413.047,457.276a2.959,2.959,0,0,1-1.216-.046,3.781,3.781,0,0,1-.549-.189c-.962-.421-2.074-1.48-2.638-3.987-.53-2.341-1.528-6.833-2.732-11.441-.028-.134-.061-.253-.093-.371-.664-2.486-1.36-4.979-2.082-7.182-.043-.137-.076-.256-.123-.378a42.062,42.062,0,0,0-1.643-4.25c-.047-.122-.108-.249-.16-.356-.127-.238-.248-.442-.354-.643-.5-.884-.973-1.778-1.425-2.651-.066-.111-.127-.238-.179-.345-1.931-3.8-3.281-7.113-3.281-7.113l5.7-14.95.015,0,.064-.187s.06-.049.175-.129A15.452,15.452,0,0,1,418.432,402c.154.072.295.139.445.226.6.3,1.219.645,1.844,1.027a2.354,2.354,0,0,1,1.1,1.842c.292,4.232,1.272,18.56.725,24.213C421.9,435.976,420.344,457.553,413.047,457.276Z" transform="translate(-396.571 -400.312)" fill="#a66cde"/>
          <path id="Trazado_120127" data-name="Trazado 120127" d="M413.758,448.972c-.87,2.514-2.207,5.618-4.878,7.305-.245.157-.56.344-.888.511a3.781,3.781,0,0,1-.549-.189,6.686,6.686,0,0,0,1.237-.641c2.56-1.622,3.862-4.654,4.715-7.112a51.142,51.142,0,0,0,1.68-6.083,1.475,1.475,0,0,0,.077-.359c1.687-8,1.718-16.356,1.556-24.332-.035-2.057-.095-4.086-.253-6.1a51.312,51.312,0,0,0-.855-6.2,2.253,2.253,0,0,0-.078-.367c-.249-1.292-.564-2.571-.928-3.845.154.072.295.139.445.226.342,1.237.651,2.482.893,3.741a51,51,0,0,1,.908,6.422c.16,2.009.214,4.054.246,6.125.161,8.04.127,16.469-1.6,24.543l0,.014c-.011.045,0,.078-.026.1A51.206,51.206,0,0,1,413.758,448.972Z" transform="translate(-392.733 -399.871)" fill="#f5d9d6"/>
          <path id="Trazado_120128" data-name="Trazado 120128" d="M406.4,404.4c-3.168-.819-5.529-1.712-5.577-1.731a.19.19,0,0,1,.135-.356c.108.042,10.72,4.058,17.142,2.8a.186.186,0,0,1,.223.149.189.189,0,0,1-.15.223C414.691,406.171,410.018,405.336,406.4,404.4Z" transform="translate(-395.114 -399.61)" fill="#f5d9d6"/>
          <path id="Trazado_120129" data-name="Trazado 120129" d="M403.434,430.965a.193.193,0,0,1-.141-.161.189.189,0,0,1,.165-.212,31.758,31.758,0,0,1,13.374,1.674.19.19,0,1,1-.133.356,31.679,31.679,0,0,0-13.194-1.652A.213.213,0,0,1,403.434,430.965Z" transform="translate(-394.198 -389.667)" fill="#f5d9d6"/>
          <path id="Trazado_120130" data-name="Trazado 120130" d="M409.559,416.768a.176.176,0,0,1-.189.188c-3.862.074-7.845,1.848-10.2,3.084-.066-.111-.127-.238-.179-.345,2.383-1.243,6.438-3.046,10.377-3.116A.186.186,0,0,1,409.559,416.768Z" transform="translate(-395.715 -394.569)" fill="#f5d9d6"/>
          <path id="Trazado_120131" data-name="Trazado 120131" d="M411.14,419.387a.2.2,0,0,1-.193.2c-3.939.07-8.024,1.928-10.344,3.172-.047-.122-.108-.249-.16-.356,2.372-1.261,6.505-3.123,10.507-3.193C411.05,419.189,411.133,419.291,411.14,419.387Z" transform="translate(-395.204 -393.641)" fill="#f5d9d6"/>
          <path id="Trazado_120132" data-name="Trazado 120132" d="M412.031,422.976a.19.19,0,0,1-.176.191c-3.73.061-7.592,1.725-9.957,2.956-.043-.137-.076-.256-.123-.378,2.413-1.235,6.3-2.891,10.07-2.959A.174.174,0,0,1,412.031,422.976Z" transform="translate(-394.734 -392.377)" fill="#f5d9d6"/>
        </g>
        <path id="Trazado_120133" data-name="Trazado 120133" d="M389,414.714l10.235,4.1a23.335,23.335,0,0,0,4.6-9.531l1.174-5.592-9.134-4.778Z" transform="translate(-389.004 -398.913)" fill="#fb9d89"/>
      </g>
      <g id="Grupo_88048" data-name="Grupo 88048" transform="translate(181.469 397.273)">
        <g id="Grupo_88047" data-name="Grupo 88047" transform="translate(10.938)">
          <path id="Trazado_120134" data-name="Trazado 120134" d="M480.056,440.034a2.961,2.961,0,0,1-1.189.26,3.963,3.963,0,0,1-.579-.046c-1.036-.168-2.379-.915-3.552-3.2-1.1-2.135-3.186-6.235-5.5-10.4-.061-.122-.122-.229-.184-.336-1.265-2.241-2.56-4.481-3.81-6.434-.077-.122-.138-.229-.214-.334a42.094,42.094,0,0,0-2.652-3.7c-.077-.107-.168-.214-.245-.306-.183-.2-.35-.365-.5-.533-.7-.732-1.387-1.479-2.042-2.211-.092-.091-.183-.2-.26-.29-2.82-3.2-4.955-6.067-4.955-6.067l1.785-15.9h.015l.015-.2s.046-.061.138-.168a15.448,15.448,0,0,1,15.138-5c.168.03.319.061.487.107.656.137,1.342.319,2.043.533a2.357,2.357,0,0,1,1.525,1.51c1.341,4.024,5.868,17.653,6.753,23.263C483.3,417.2,487.19,438.479,480.056,440.034Z" transform="translate(-454.368 -384.837)" fill="#a66cde"/>
          <path id="Trazado_120135" data-name="Trazado 120135" d="M478.036,431.2c-.214,2.652-.732,5.991-2.9,8.293-.2.214-.457.472-.732.717a3.963,3.963,0,0,1-.579-.046,6.738,6.738,0,0,0,1.036-.93c2.074-2.211,2.576-5.473,2.79-8.066a51.181,51.181,0,0,0,.107-6.311,1.5,1.5,0,0,0-.015-.365c-.367-8.171-2.425-16.266-4.573-23.95-.549-1.981-1.114-3.932-1.768-5.838a51.479,51.479,0,0,0-2.379-5.792,2.345,2.345,0,0,0-.168-.336c-.564-1.189-1.189-2.348-1.859-3.491.168.03.319.061.487.107.64,1.112,1.25,2.241,1.8,3.4a51.238,51.238,0,0,1,2.484,5.991c.656,1.906,1.219,3.872,1.768,5.87,2.165,7.744,4.238,15.915,4.588,24.163v.015c0,.046.016.076,0,.107A50.8,50.8,0,0,1,478.036,431.2Z" transform="translate(-449.909 -384.75)" fill="#f5d9d6"/>
          <path id="Trazado_120136" data-name="Trazado 120136" d="M461.569,389.843c-3.272,0-5.78-.276-5.833-.281a.189.189,0,0,1-.168-.21.193.193,0,0,1,.21-.169c.115.014,11.394,1.252,17.3-1.575a.19.19,0,1,1,.164.342C470.041,389.484,465.306,389.843,461.569,389.843Z" transform="translate(-453.945 -383.865)" fill="#f5d9d6"/>
          <path id="Trazado_120137" data-name="Trazado 120137" d="M465.329,416.338a.191.191,0,0,1-.07-.368,31.8,31.8,0,0,1,13.368-1.721.19.19,0,0,1-.039.379,31.667,31.667,0,0,0-13.188,1.7A.186.186,0,0,1,465.329,416.338Z" transform="translate(-450.566 -374.501)" fill="#f5d9d6"/>
          <path id="Trazado_120138" data-name="Trazado 120138" d="M467.527,401.276a.174.174,0,0,1-.137.229c-3.72,1.038-7.135,3.751-9.1,5.534-.092-.091-.183-.2-.26-.29,2-1.8,5.473-4.557,9.268-5.61A.187.187,0,0,1,467.527,401.276Z" transform="translate(-453.075 -379.084)" fill="#f5d9d6"/>
          <path id="Trazado_120139" data-name="Trazado 120139" d="M469.707,403.425a.2.2,0,0,1-.137.245c-3.8,1.051-7.288,3.872-9.222,5.656-.077-.107-.168-.214-.245-.306,1.982-1.813,5.519-4.649,9.375-5.717A.177.177,0,0,1,469.707,403.425Z" transform="translate(-452.343 -378.322)" fill="#f5d9d6"/>
          <path id="Trazado_120140" data-name="Trazado 120140" d="M471.483,406.651a.192.192,0,0,1-.122.229c-3.6.99-6.922,3.567-8.9,5.35-.077-.122-.138-.229-.214-.334,2.027-1.8,5.381-4.376,9.01-5.383A.176.176,0,0,1,471.483,406.651Z" transform="translate(-451.587 -377.186)" fill="#f5d9d6"/>
        </g>
        <path id="Trazado_120141" data-name="Trazado 120141" d="M446.284,404.194l10.934,1.413a23.341,23.341,0,0,0,2.077-10.379l-.26-5.709L449,387.175Z" transform="translate(-446.284 -384.011)" fill="#fb9d89"/>
      </g>
      <g id="Grupo_88052" data-name="Grupo 88052" transform="translate(31.211 138.74)">
        <g id="Grupo_88049" data-name="Grupo 88049">
          <path id="Trazado_120142" data-name="Trazado 120142" d="M430.665,247.891,415.315,285.7c-2.379.549-4.711.992-6.967,1.342-27.152,4.268-45.307-4.132-45.307-4.132,0-5.182-6.708-25.732-4.863-40.275,1.951-15.383,20.626-47.762,20.626-47.762h10.9a42.378,42.378,0,0,0,25.612-1.1h10.152l5.062,52.748Z" transform="translate(-327.246 -193.76)" fill="#6887ff"/>
          <path id="Trazado_120143" data-name="Trazado 120143" d="M385.062,194.862s-18.97,25.021-12.842,30.64c6.366,5.838,17.519.973,25.107-6.616s13.343-25.122,13.343-25.122-13.928,10.21-20.546,7.351S385.062,194.862,385.062,194.862Z" transform="translate(-322.606 -193.763)" fill="#fbb81b"/>
          <path id="Trazado_120144" data-name="Trazado 120144" d="M488.518,430.267l-3.461,21.708s-38.569,2.164-68.463-.885l-11.129,17.882s-67.457-28.858-70.049-45.261,23.355-96.56,23.355-96.56c3.629-15.4,12.257-67.5,12.257-67.5l45.687,2.44,6.587.35c-.35,15.382,5.533,12.654,13.4,32.9,3.384,8.706,5.473,15.6,6.434,21.312v.031a25.288,25.288,0,0,1,.884,4.634c2.744,25.489-17.348,88.19-17.348,88.19Z" transform="translate(-335.234 -170.502)" fill="#6887ff"/>
        </g>
        <g id="Grupo_88050" data-name="Grupo 88050" transform="translate(33.397 25.17)">
          <path id="Trazado_120145" data-name="Trazado 120145" d="M398.176,218.134a2.676,2.676,0,1,1-2.676-2.676A2.675,2.675,0,0,1,398.176,218.134Z" transform="translate(-348.297 -211.274)" fill="#f5d9d6"/>
          <circle id="Elipse_4841" data-name="Elipse 4841" cx="2.676" cy="2.676" r="2.676" transform="translate(7.12)" fill="#f5d9d6"/>
          <path id="Trazado_120146" data-name="Trazado 120146" d="M364.678,220.886s20.327,2.629,40.328,3.6c0,0-5.242,26.961-26.891,24.457S364.678,220.886,364.678,220.886Z" transform="translate(-358.774 -209.357)" fill="none" stroke="#f5d9d6" stroke-linecap="round" stroke-linejoin="round" stroke-width="0.282"/>
          <path id="Trazado_120147" data-name="Trazado 120147" d="M361.69,259.65s32.464,6.754,52.267,2.794" transform="translate(-359.29 -195.671)" fill="none" stroke="#f5d9d6" stroke-linecap="round" stroke-linejoin="round" stroke-width="0.282"/>
          <path id="Trazado_120148" data-name="Trazado 120148" d="M359.916,263.6s34.864,6.9,54.668,2.938" transform="translate(-359.916 -194.277)" fill="none" stroke="#f5d9d6" stroke-linecap="round" stroke-linejoin="round" stroke-width="0.282"/>
          <path id="Trazado_120149" data-name="Trazado 120149" d="M412.422,232.75s-17.867,36.6-15.59,45.9,23.554,36.19,21.738,61.671-20.849,72.968-16.782,81.27,64.468,21.79,64.468,21.79" transform="translate(-346.953 -205.169)" fill="none" stroke="#f5d9d6" stroke-linecap="round" stroke-linejoin="round" stroke-width="0.282"/>
          <path id="Trazado_120150" data-name="Trazado 120150" d="M386.012,266.817c-.486,10.452,1.653,21.278,7.6,29.886s16.055,14.654,26.509,14.2" transform="translate(-350.726 -193.141)" fill="none" stroke="#f5d9d6" stroke-linecap="round" stroke-linejoin="round" stroke-width="0.282"/>
        </g>
        <g id="Grupo_88051" data-name="Grupo 88051" transform="translate(35.797 138.768)">
          <path id="Trazado_120151" data-name="Trazado 120151" d="M361.69,296.322l12.6,14.5s-10.171,100.539,0,113.764,32.962,13.547,32.962,13.547" transform="translate(-361.69 -296.322)" fill="none" stroke="#42353b" stroke-linecap="round" stroke-linejoin="round" stroke-width="0.282"/>
          <path id="Trazado_120152" data-name="Trazado 120152" d="M369.719,332.267c-3.561,17.629-7.133,35.35-7.8,53.321-.287,7.727-.022,15.566,2.085,23.006,1.888,6.671,6.443,13.74,13.364,14.158-6.986-5.966-7.75-16.315-7.842-25.5q-.211-21.037.617-42.067c.539-13.705,2.664-28.349,3.266-41.527C371.493,317.785,370.66,327.6,369.719,332.267Z" transform="translate(-361.644 -290.201)" fill="#6887ff" opacity="0.27" style="mix-blend-mode: multiply;isolation: isolate"/>
        </g>
      </g>
      <g id="Grupo_88060" data-name="Grupo 88060">
        <path id="Trazado_120153" data-name="Trazado 120153" d="M317.534,141.14s4.281,40.822,17.126,58.417,41.121,52.331,41.121,52.331L393.043,216.3s-28.413-20.152-32.694-28.723-28.414-54.5-28.414-54.5Z" transform="translate(-310.272 -76.449)" fill="#fbb81b"/>
        <g id="Grupo_88059" data-name="Grupo 88059">
          <g id="Grupo_88054" data-name="Grupo 88054">
            <path id="Trazado_120154" data-name="Trazado 120154" d="M321.032,144.73l-5.368-21.652,10.12-4.671,6.811,19.851Z" transform="translate(-310.932 -81.628)" fill="#fb9d89"/>
            <g id="Grupo_88053" data-name="Grupo 88053">
              <path id="Trazado_120155" data-name="Trazado 120155" d="M316.9,132.674a15.344,15.344,0,0,1-4.218-12.715,36.444,36.444,0,0,1,4.218-12.585s-2.982-.137-3.828-2.335c-1.446-3.761-1.168-9.99.908-12.065s12.845-2.205,15.57-.908,4.151,4.021,4.281,8.562,1.168,6.746.52,9.861-7.331,17.515-7.331,17.515Z" transform="translate(-312.167 -91.225)" fill="#fb9d89"/>
              <path id="Trazado_120156" data-name="Trazado 120156" d="M331.22,109.053s-2.043-18.488-4.573-16.346-3.5,11.87-2.822,16.346c0,0-5.838,1.752-7.3,5.645" transform="translate(-310.627 -90.763)" fill="none" stroke="#42353b" stroke-linecap="round" stroke-linejoin="round" stroke-width="0.282"/>
              <path id="Trazado_120157" data-name="Trazado 120157" d="M316.614,91.533a19.588,19.588,0,0,0-1.552,8.987,25.605,25.605,0,0,0,1.552,6.742" transform="translate(-311.174 -91.117)" fill="none" stroke="#42353b" stroke-linecap="round" stroke-linejoin="round" stroke-width="0.282"/>
              <path id="Trazado_120158" data-name="Trazado 120158" d="M319.744,91.237A22.023,22.023,0,0,0,318.45,99.5a40.3,40.3,0,0,0,1.035,7.756" transform="translate(-309.955 -91.221)" fill="none" stroke="#42353b" stroke-linecap="round" stroke-linejoin="round" stroke-width="0.282"/>
              <path id="Trazado_120159" data-name="Trazado 120159" d="M325.986,91.415a30.908,30.908,0,0,0-1.858,8.758c-.486,5.579-.2,6.679-.2,6.679a64.108,64.108,0,0,1-8.263.456" transform="translate(-310.932 -91.158)" fill="none" stroke="#42353b" stroke-linecap="round" stroke-linejoin="round" stroke-width="0.282"/>
            </g>
          </g>
          <g id="Grupo_88058" data-name="Grupo 88058" transform="translate(8.522 5.346)">
            <path id="Trazado_120160" data-name="Trazado 120160" d="M410.318,211.039s-.216.424-.585,1.2c-3.559,7.476-21.29,47.636,5.79,52.918,0,0,10.022-17.648,17.874-27.057s50.408-74.249,50.408-74.249L467.2,144.873s-36.328,54-39.182,56.972Z" transform="translate(-289.415 -77.631)" fill="#fbb81b"/>
            <g id="Grupo_88056" data-name="Grupo 88056" transform="translate(179.133)">
              <path id="Trazado_120161" data-name="Trazado 120161" d="M450.856,154.067,472.341,123.2l9.86,5.449L462.448,167.31Z" transform="translate(-450.856 -85.282)" fill="#fb9d89"/>
              <g id="Grupo_88055" data-name="Grupo 88055" transform="translate(20.739)">
                <path id="Trazado_120162" data-name="Trazado 120162" d="M498.583,111.944c-1.036,4.162-9.344,13.233-11.159,16.357a19.659,19.659,0,0,1-7.256,7,8.286,8.286,0,0,0-3.613,3.7l-9.62-5.9s-1.691-1.951,0-10.122,4.665-21.937,7-22.2c2.255-.245,2.8,9.634,2.851,11.738v.2c0,.122.061.107.2-.016,1.479-1.448,11.037-18.323,13.309-17.5a8.956,8.956,0,0,1,2.851,2.927c.076.107.153.214.229.336a39.575,39.575,0,0,1,2.408,3.964,2.887,2.887,0,0,1,.2.38,33.869,33.869,0,0,1,1.905,4.315c.046.152.092.29.137.426A8.581,8.581,0,0,1,498.583,111.944Z" transform="translate(-466.183 -95.176)" fill="#fb9d89"/>
                <path id="Trazado_120163" data-name="Trazado 120163" d="M475.531,119.741h-.012a.193.193,0,0,1-.179-.2c.288-4.683-1.434-11.225-1.453-11.291a.191.191,0,0,1,.369-.1c.018.066,1.755,6.669,1.465,11.414A.192.192,0,0,1,475.531,119.741Z" transform="translate(-463.466 -90.647)" fill="#42353b"/>
                <path id="Trazado_120164" data-name="Trazado 120164" d="M489.178,97.7,478.4,112.53a.207.207,0,0,1-.152.076.2.2,0,0,1-.122-.046.187.187,0,0,1-.031-.258l10.854-14.94C489.025,97.468,489.1,97.575,489.178,97.7Z" transform="translate(-461.991 -94.405)" fill="#42353b"/>
                <path id="Trazado_120165" data-name="Trazado 120165" d="M490.818,100.919l-9.681,12.608a.184.184,0,0,1-.152.076.282.282,0,0,1-.107-.03.2.2,0,0,1-.046-.275l9.787-12.759A2.887,2.887,0,0,1,490.818,100.919Z" transform="translate(-461.024 -93.283)" fill="#42353b"/>
                <path id="Trazado_120166" data-name="Trazado 120166" d="M492.019,104.435l-8.49,11.1a.244.244,0,0,1-.153.077.171.171,0,0,1-.122-.046.176.176,0,0,1-.03-.258l8.658-11.3C491.928,104.161,491.974,104.3,492.019,104.435Z" transform="translate(-460.183 -92.058)" fill="#42353b"/>
              </g>
            </g>
            <g id="Grupo_88057" data-name="Grupo 88057" transform="translate(0 59.344)">
              <line id="Línea_214" data-name="Línea 214" x1="9.254" y2="29.321" transform="translate(124.158 98.392)" fill="none" stroke="#42353b" stroke-linecap="round" stroke-linejoin="round" stroke-width="0.282"/>
              <path id="Trazado_120167" data-name="Trazado 120167" d="M357.858,206.5l3.686,21.114,1.5-25.771" transform="translate(-304.557 -116.862)" fill="none" stroke="#42353b" stroke-linecap="round" stroke-linejoin="round" stroke-width="0.282"/>
              <line id="Línea_215" data-name="Línea 215" x2="16.991" y2="18.527" transform="translate(173.952 13.583)" fill="none" stroke="#42353b" stroke-linecap="round" stroke-linejoin="round" stroke-width="0.282"/>
              <line id="Línea_216" data-name="Línea 216" y1="9.214" x2="17.372" fill="none" stroke="#42353b" stroke-linecap="round" stroke-linejoin="round" stroke-width="0.282"/>
            </g>
          </g>
        </g>
      </g>
    </g>
    <g id="Grupo_88075" data-name="Grupo 88075" transform="translate(396.115 160.525)">
      <g id="Grupo_88062" data-name="Grupo 88062" transform="translate(0 3.289)">
        <path id="Trazado_120168" data-name="Trazado 120168" d="M417.406,174.983a3.858,3.858,0,0,1-.107.472,10.234,10.234,0,0,1-.319,1.265,65.462,65.462,0,0,1-4.955,12.226,35.571,35.571,0,0,0-3.6,11.494,25.524,25.524,0,0,0,.015,6.189c.168,1.22.778,2.348,1.038,3.537.7,3.111-3.644,5.976-5.884,7.5a24.5,24.5,0,0,1-10.458,4.086,20.494,20.494,0,0,1-5.718,0c-3.262-.442-6.386-1.479-5.228-5.442.518-1.739,1.586-3.247,1.982-5.031.336-1.571.518-3.157.747-4.741.03-.2.061-.382.091-.579a1.7,1.7,0,0,0,.046-.382.266.266,0,0,0,.015-.107c.046-.2.077-.411.107-.625.046-.214.061-.411.092-.625.03-.2.046-.4.061-.594a1.739,1.739,0,0,0,.03-.26,4.827,4.827,0,0,0,.062-2.316v-.092c.015-.031-.016-.061-.031-.076a.16.16,0,0,0-.031-.046c-1.524-.3-3.155-.244-4.542-.976-3.216-1.632-4.772-4.863-5.564-8.293-.031-.153-.077-.321-.092-.474a39.063,39.063,0,0,1-.747-5.4,65.878,65.878,0,0,1,.092-11.494c.015-.306.061-.625.091-.93.168-1.449.382-2.912.64-4.33l.046-.229a14,14,0,0,1,.321-1.525l.2-.793.046-.168.61-2.362.137-.518a1.015,1.015,0,0,1,.061-.2c.076-.3.168-.563.244-.838.107-.306.184-.579.321-.885a26.743,26.743,0,0,1,5.824-9.923,21.5,21.5,0,0,1,15.123-6.633,19.212,19.212,0,0,1,4.542.549c.336.061.64.168.99.26.168.046.306.091.488.152.336.122.64.214,1.007.35a20.831,20.831,0,0,1,10.915,9.895c1.555,2.91,1.905,6.783,2.042,10.076A35.692,35.692,0,0,1,417.406,174.983Z" transform="translate(-374.21 -144.873)" fill="#fb9d89"/>
        <path id="Trazado_120169" data-name="Trazado 120169" d="M396.614,183.51s-7.308,9.024-14.52,9.388a22.194,22.194,0,0,0,.552-5.488.134.134,0,0,1-.011-.074.12.12,0,0,0-.023-.091q-.018-.047-.041-.049S393.262,185.836,396.614,183.51Z" transform="translate(-371.427 -131.232)" fill="#f77"/>
      </g>
      <g id="Grupo_88065" data-name="Grupo 88065" transform="translate(36.706 32.555)">
        <g id="Grupo_88063" data-name="Grupo 88063">
          <path id="Trazado_120170" data-name="Trazado 120170" d="M404.217,171.5c.8-.694,4.215-6.464,8.6-4.65s2.836,12.976-3.3,14.794-8.171-1.33-8.171-1.33Z" transform="translate(-401.338 -166.503)" fill="#fb9d89"/>
        </g>
        <g id="Grupo_88064" data-name="Grupo 88064" transform="translate(4.232 2.054)">
          <path id="Trazado_120171" data-name="Trazado 120171" d="M406.314,170.4c.621-1.111,1.479-2.358,2.752-2.379a2.827,2.827,0,0,1,2.241,1.432c1.487,2.245,1.116,5.353-.308,7.638a5.491,5.491,0,0,1-2.492,2.293,2.96,2.96,0,0,1-3.2-.544,3.649,3.649,0,0,1-.843-2.141" transform="translate(-404.466 -168.021)" fill="none" stroke="#42353b" stroke-linecap="round" stroke-linejoin="round" stroke-width="0.282"/>
          <path id="Trazado_120172" data-name="Trazado 120172" d="M410.406,168.426s-3.736,2.407-5.656,9.563" transform="translate(-404.366 -167.878)" fill="none" stroke="#42353b" stroke-linecap="round" stroke-linejoin="round" stroke-width="0.282"/>
        </g>
      </g>
      <g id="Grupo_88066" data-name="Grupo 88066" transform="translate(0.008)">
        <path id="Trazado_120173" data-name="Trazado 120173" d="M417.3,176.313a17.673,17.673,0,0,0-5.092-2.425c-.015,0-.03-.015-.046-.015L410.911,161.3s.168,8.994.061,12.134c-1.556-.625-3.278-1.433-5.215-2.256-.229-4.284-.472-12.593.61-16.739a122.284,122.284,0,0,0-4.284,15.336c-1.068-.35-2.18-.671-3.369-.944-2.591-.6-7.9-1.418-12.9-2.135.291-3.628,1.038-10.854,2.638-14.65-.518.915-4.6,8.2-6.174,14.116-4.5-.64-8.066-1.1-8.066-1.1a32.742,32.742,0,0,1,9.711-18.157c8.568-8.186,23.233-2.607,23.233-2.607s6.1,1.174,10.137,8.431C421.353,160,417.3,176.313,417.3,176.313Z" transform="translate(-374.216 -142.442)" fill="#42353b"/>
        <path id="Trazado_120174" data-name="Trazado 120174" d="M402.852,175.274a.535.535,0,0,0,.085.327c.2.246.587-.02.773-.279,1.51-2.113,2.421-4.626,4.059-6.639a11.557,11.557,0,0,0,1.5-1.981,2.348,2.348,0,0,0,0-2.368,2.438,2.438,0,0,0-1.7-.886c-2.164-.295-4.052.817-4.324,2.946A54.264,54.264,0,0,0,402.852,175.274Z" transform="translate(-364.12 -135.042)" fill="#42353b"/>
      </g>
      <g id="Grupo_88074" data-name="Grupo 88074" transform="translate(0 22.263)">
        <g id="Grupo_88073" data-name="Grupo 88073" transform="translate(0 7.194)">
          <g id="Grupo_88072" data-name="Grupo 88072" transform="translate(3.77)">
            <g id="Grupo_88071" data-name="Grupo 88071">
              <g id="Grupo_88070" data-name="Grupo 88070">
                <g id="Grupo_88069" data-name="Grupo 88069">
                  <g id="Grupo_88068" data-name="Grupo 88068">
                    <path id="Trazado_120175" data-name="Trazado 120175" d="M380.988,177.956a.155.155,0,0,0,.154-.053.141.141,0,0,0-.034-.2,5.6,5.6,0,0,1-1.522-1.625,1.254,1.254,0,0,1-.218-.544c-.028-.424.356-.755.727-1.077.087-.074.172-.148.252-.223,1.317-1.225,1.373-3.234,1.276-4.848a41.991,41.991,0,0,0-.609-5.028.154.154,0,0,0-.175-.12.141.141,0,0,0-.122.164,41.668,41.668,0,0,1,.6,4.994c.1,1.651.035,3.492-1.189,4.632-.077.073-.16.145-.244.216-.4.349-.859.743-.821,1.3a1.533,1.533,0,0,0,.258.674,5.9,5.9,0,0,0,1.606,1.713A.173.173,0,0,0,380.988,177.956Z" transform="translate(-376.266 -164.205)" fill="#42353b"/>
                    <g id="Grupo_88067" data-name="Grupo 88067">
                      <path id="Trazado_120176" data-name="Trazado 120176" d="M377.032,165.279a1.323,1.323,0,1,0,1.594-1.034A1.342,1.342,0,0,0,377.032,165.279Z" transform="translate(-376.997 -164.213)" fill="#42353b"/>
                      <path id="Trazado_120177" data-name="Trazado 120177" d="M387.82,166.914a1.541,1.541,0,0,0,.785,2.019,1.51,1.51,0,0,0,1.979-.832,1.544,1.544,0,0,0-.785-2.02A1.509,1.509,0,0,0,387.82,166.914Z" transform="translate(-373.219 -163.595)" fill="#42353b"/>
                    </g>
                  </g>
                </g>
              </g>
            </g>
          </g>
          <path id="Trazado_120178" data-name="Trazado 120178" d="M384.717,178.36a8.935,8.935,0,0,1-4.813-.248" transform="translate(-372.2 -159.306)" fill="none" stroke="#42353b" stroke-linecap="round" stroke-linejoin="round" stroke-width="0.229"/>
          <path id="Trazado_120179" data-name="Trazado 120179" d="M388.679,175.885a11.512,11.512,0,0,1-10.984.133" transform="translate(-372.98 -160.092)" fill="none" stroke="#42353b" stroke-linecap="round" stroke-linejoin="round" stroke-width="0.272"/>
          <path id="Trazado_120180" data-name="Trazado 120180" d="M387.22,176.793a9.391,9.391,0,1,0,10.508-8.121A9.392,9.392,0,0,0,387.22,176.793Z" transform="translate(-369.644 -162.666)" fill="url(#linear-gradient)"/>
          <path id="Trazado_120181" data-name="Trazado 120181" d="M380.621,176.2a9.321,9.321,0,0,1-1.249,3.628,9.425,9.425,0,0,1-4.208,3.734,39.063,39.063,0,0,1-.747-5.4,65.878,65.878,0,0,1,.092-11.494,4.364,4.364,0,0,1,.061-.457A9.378,9.378,0,0,1,380.621,176.2Z" transform="translate(-374.21 -163.507)" fill="url(#linear-gradient-2)"/>
        </g>
        <path id="Trazado_120182" data-name="Trazado 120182" d="M386.726,162.6a6.131,6.131,0,0,1,2.854-.961,8.036,8.036,0,0,1,3.029.3,8.654,8.654,0,0,1,2.679,1.384,4.584,4.584,0,0,1,1.846,2.637.486.486,0,0,1-.368.58.493.493,0,0,1-.363-.061l-.235-.147a15.232,15.232,0,0,0-2.065-1.061c-.732-.3-1.54-.637-2.27-.862a28.422,28.422,0,0,0-4.876-1.026l-.055-.008a.427.427,0,0,1-.359-.484A.433.433,0,0,1,386.726,162.6Z" transform="translate(-369.858 -157.939)" fill="#42353b"/>
        <path id="Trazado_120183" data-name="Trazado 120183" d="M381.883,162.394a.508.508,0,0,1-.367.03l-.258-.091A15.9,15.9,0,0,0,379,161.8c-.792-.122-1.645-.258-2.408-.3-.4-.031-.793-.046-1.2-.046l.046-.168.61-2.362a5.5,5.5,0,0,1,.716-.015,8.67,8.67,0,0,1,2.927.716,4.506,4.506,0,0,1,2.41,2.135A.47.47,0,0,1,381.883,162.394Z" transform="translate(-373.794 -158.896)" fill="#42353b"/>
      </g>
    </g>
  </g>
</svg>
