<svg xmlns="http://www.w3.org/2000/svg" xmlns:xlink="http://www.w3.org/1999/xlink" width="150.61" height="150.741" viewBox="0 0 150.61 150.741">
  <defs>
    <clipPath id="clip-path">
      <rect id="Rectángulo_41313" data-name="Rectángulo 41313" width="150.61" height="150.741" fill="none"/>
    </clipPath>
  </defs>
  <g id="Grupo_166607" data-name="Grupo 166607" transform="translate(0 0)">
    <g id="Grupo_166606" data-name="Grupo 166606" transform="translate(0 0)" clip-path="url(#clip-path)">
      <path id="Trazado_153805" data-name="Trazado 153805" d="M23.767,127.176c-1.654.967-2.381.9-3.6-.427A73.657,73.657,0,0,1,.5,84.184c-3.617-32.327,12.67-62.411,41.88-76.532A75.25,75.25,0,0,1,148.562,57.9a69.074,69.074,0,0,1,1.776,11.306c.017.231-.037.5.272.6V81.288a75.124,75.124,0,0,1-1.333,10.287,74.721,74.721,0,0,1-15.826,32.267,76.416,76.416,0,0,1-19.55,16.723,73.991,73.991,0,0,1-27.96,9.79c-1.683.233-3.4.092-5.079.384H69.679c-1.848-.648-3.809-.559-5.711-.858a75.579,75.579,0,0,1-36.54-16.288c-1.217-.989-1.319-1.836-.518-3.34a2.082,2.082,0,0,1,3.245-.558c1.455.994,2.794,2.148,4.239,3.167a70.079,70.079,0,0,0,32.583,12.53,69,69,0,0,0,40.986-7.484,69.865,69.865,0,0,0,27.071-25.081,52.336,52.336,0,0,0,4.373-8.143,65.64,65.64,0,0,0,6.025-22.325A69.237,69.237,0,0,0,135.24,38.342a70.087,70.087,0,0,0-29.95-26.78A69.065,69.065,0,0,0,80.676,5.13a69.061,69.061,0,0,0-37.822,7.647,70,70,0,0,0-28.66,27.35A68.619,68.619,0,0,0,5.422,65.55a70.712,70.712,0,0,0,2.167,29.68,77.256,77.256,0,0,0,3.5,9.359,65.107,65.107,0,0,0,8.8,14.512c1.241,1.574,2.57,3.076,3.916,4.564,1.207,1.336,1.163,2.437-.036,3.512" transform="translate(0 0)"/>
      <path id="Trazado_153806" data-name="Trazado 153806" d="M135.248,61.681a55.955,55.955,0,0,1-7.632,13C116.645,89.032,102.4,98.367,84.6,101.765c-21.251,4.055-40.517-.731-57.71-13.859q-.586-.446-1.161-.9a2.248,2.248,0,0,0-3.28.1q-1.571-1.54-3.143-3.078c.957-1.384.527-2.51-.537-3.648A69.4,69.4,0,0,1,6.789,62.762c-.165-.347-.277-.721-.415-1.081.716-.1.9.484,1.156.93A73.269,73.269,0,0,0,21.547,80.275,72.435,72.435,0,0,0,63.56,99.212a72.655,72.655,0,0,0,50.877-14.228,74.423,74.423,0,0,0,19.516-22.113c.3-.513.437-1.261,1.3-1.19" transform="translate(4.46 43.15)" fill="#e5485d"/>
      <path id="Trazado_153807" data-name="Trazado 153807" d="M137.931,103.061a13.851,13.851,0,0,0-2.221,3.4,69.738,69.738,0,0,1-13.339,16.077,71.17,71.17,0,0,1-29.685,16.176,81.868,81.868,0,0,1-13.79,2.361,70.729,70.729,0,0,1-21.637-1.594,72.654,72.654,0,0,1-40.188-24.933,73.578,73.578,0,0,1-7.5-10.992,2.453,2.453,0,0,0-.517-.5A64.107,64.107,0,0,1,3.22,83.154,67.969,67.969,0,0,1,6.406,50.707C14.309,28.723,29.289,13.59,51.5,6.317c21.3-6.974,41.782-4.309,60.611,7.921,17.062,11.08,27.508,26.879,31.157,46.969a69.24,69.24,0,0,1-4.922,41.082c-.117.265-.275.515-.413.772" transform="translate(1.777 1.77)" fill="#fe5876"/>
      <path id="Trazado_153808" data-name="Trazado 153808" d="M111.892,25.775c.862,1.173,2.165,1.977,2.808,3.335-.231,2.009.843,3.462,1.955,4.978a57.462,57.462,0,0,1,10.909,28.3,58.15,58.15,0,0,1-4.941,30.634,4.93,4.93,0,0,1-.632,1.156c-1.525,1.672-2.567,3.688-3.916,5.488A60.815,60.815,0,0,1,78.114,124a65.1,65.1,0,0,1-7.293.707c-.571.031-1.46.333-1.6-.741a5.15,5.15,0,0,0,1.418-4.166c-.054-1.076-.007-2.155-.012-3.231a5.611,5.611,0,0,0-.148-1.458c-.26-.957-.675-1.778-1.841-1.757-1.084.019-1.491.79-1.739,1.7a6.044,6.044,0,0,0-.168,1.6c-.005,1.174.025,2.351-.008,3.525a4.834,4.834,0,0,0,1.365,3.748c.025,1.079-.846.8-1.365.784a61.545,61.545,0,0,1-7.309-.68A61.327,61.327,0,0,1,17.8,97.582a22.784,22.784,0,0,0-2.385-3.347,45.71,45.71,0,0,1-4.331-11.83A55.2,55.2,0,0,1,9.439,68a59.869,59.869,0,0,1,5.131-23.226A59.25,59.25,0,0,1,61.258,10.028a58.476,58.476,0,0,1,34.876,6.253,54.407,54.407,0,0,1,11.587,7.994c1.222,1.1,2.461,1.885,4.171,1.5" transform="translate(6.596 6.666)" fill="#e3edf8"/>
      <path id="Trazado_153809" data-name="Trazado 153809" d="M113.585,27.418c-1.3.892-2.414.62-3.547-.416a56.827,56.827,0,0,0-31.05-14.774c-17.41-2.417-33.039,1.978-46.522,13.285A56.974,56.974,0,0,0,12.244,61.565a56.3,56.3,0,0,0,5.148,34.126c3.525,6.014,7.275,11.864,12.387,16.693a58.4,58.4,0,0,0,32.915,15.9,58.363,58.363,0,0,0,57.28-27.08c1.14-1.825,2.288-3.648,3.367-5.512a53.812,53.812,0,0,0,5.346-18.039,57.936,57.936,0,0,0-6.7-35.476,54.119,54.119,0,0,0-5.347-8.07,2.531,2.531,0,0,1-.246-3.35c1.654-1.062,2.522-.933,3.744.637A61.353,61.353,0,0,1,133.39,65.8c1.754,27.421-13.106,51.873-38.228,62.754a59.284,59.284,0,0,1-32.333,4.536c-24.761-3.51-42.071-16.994-51.438-40.069-9.433-23.24-3.252-50.314,14.8-67.852A61.09,61.09,0,0,1,61.4,7.812c19.506-2.585,36.73,2.735,51.5,15.8,1.555,1.377,1.654,2.038.68,3.8" transform="translate(4.903 5.023)"/>
      <path id="Trazado_153810" data-name="Trazado 153810" d="M39.016,46.864c-1.193.959-2.245.61-3.275-.311-4.055-3.627-8.143-7.219-12.178-10.868a6.636,6.636,0,1,1,8.854-9.87q12.536,11.129,25.038,22.3a4.129,4.129,0,0,0,5.318-.126c4.027-4.084,8.014-8.21,12.092-12.245A6.582,6.582,0,0,1,85.953,38.73a6.478,6.478,0,0,1-1.8,6.476c-4.346,4.39-8.64,8.835-13.037,13.174-1.319,1.3-.943,3.116-1.752,4.55-.218.388.466.673.787.943Q81.122,73.1,92.106,82.308a15.156,15.156,0,0,1,1.214,1.069,2.189,2.189,0,0,1-2.878,3.3c-.478-.34-.911-.743-1.361-1.12Q78.214,76.43,67.363,67.29a1.435,1.435,0,0,0-1.99-.2A9.68,9.68,0,0,1,51.06,61.026a3.389,3.389,0,0,0-1.1-1.825c-2.255-1.961-4.479-3.962-6.709-5.954-1.484-1.329-1.6-1.931-.75-3.7a2.114,2.114,0,0,1,3.16-.471c1.489.962,2.594,2.381,4.027,3.411.605.427.962,1.584,1.778,1.231.848-.367,1.276-1.416,1.829-2.21.187-.269-.019-.561-.218-.79-.318-.369-.688-.69-1.035-1.033Q45.828,44.2,39.652,38.665c-3.129-2.816-6.338-5.541-9.4-8.429a9.123,9.123,0,0,0-1.231-1.044,1.864,1.864,0,0,0-2.546.121,1.837,1.837,0,0,0,.119,2.652c1.033,1.037,2.148,2,3.26,2.957,3.042,2.619,5.993,5.339,9.019,7.977,1.708,1.489,1.7,2.867.146,3.965" transform="translate(14.768 16.737)"/>
      <path id="Trazado_153811" data-name="Trazado 153811" d="M119.065,59.253a54.275,54.275,0,0,1-12.049,16.854,58.319,58.319,0,0,1-34.83,16.344c-24.095,2.742-48.457-10.8-58.971-32.775a1.9,1.9,0,0,1-.1-.422c1.552,1.571,2.514,3.566,3.812,5.323A62.209,62.209,0,0,0,29.07,76.96,60.042,60.042,0,0,0,53.284,88.182a72.094,72.094,0,0,0,10.827,1.372c.466.029.989.158,1.392-.253a.764.764,0,0,1,1.181,0,3.415,3.415,0,0,0,2.417.236A67.075,67.075,0,0,0,85.807,86.3,61.617,61.617,0,0,0,105.83,74.747a67.874,67.874,0,0,0,12.484-14.631c.211-.323.34-.716.751-.863" transform="translate(9.179 41.46)" fill="#d4dff1"/>
      <path id="Trazado_153812" data-name="Trazado 153812" d="M47.727,51c-1.176-1.013-2.381-1.994-3.522-3.046a2.5,2.5,0,0,0-3.532-.238c-1.225-.816-2.014-2.2-3.489-2.687,1.159-1.53,1.13-2.323-.338-3.641-3.821-3.432-7.674-6.826-11.526-10.224-.816-.722-1.7-1.416-1.588-2.645a2.2,2.2,0,0,1,3.756-1.363c2.07,1.715,4.042,3.549,6.051,5.339Q41.7,39.769,49.855,47.047a8.237,8.237,0,0,1,.588.649A5.064,5.064,0,0,1,47.727,51" transform="translate(16.599 18.57)" fill="#405b6c"/>
      <path id="Trazado_153813" data-name="Trazado 153813" d="M45.794,81.554H44.613a2.354,2.354,0,0,1-1.62-2.463c-.022-2.109-.039-4.219.005-6.326.034-1.547.86-2.42,2.167-2.441,1.368-.022,2.213.875,2.245,2.514.041,2.058-.012,4.12.017,6.178a2.6,2.6,0,0,1-1.633,2.538" transform="translate(30.066 49.206)" fill="#020202"/>
      <path id="Trazado_153814" data-name="Trazado 153814" d="M47.406,17.5c0,1.122.058,2.249-.015,3.365a2.185,2.185,0,0,1-4.37-.024q-.107-3.437,0-6.879a2.041,2.041,0,0,1,2.121-2.15,2.148,2.148,0,0,1,2.264,2.174,2.8,2.8,0,0,1,.012.292q0,1.611,0,3.221h-.015" transform="translate(30.065 8.26)" fill="#020202"/>
      <path id="Trazado_153815" data-name="Trazado 153815" d="M17.475,43.068c1.074,0,2.15-.054,3.219.014a2.142,2.142,0,0,1,2.245,2.2,2.116,2.116,0,0,1-2.235,2.2q-3.365.107-6.734,0a2.121,2.121,0,0,1-2.245-2.193,2.188,2.188,0,0,1,2.237-2.216,2.8,2.8,0,0,1,.292-.012h3.221v.01" transform="translate(8.204 30.121)" fill="#020202"/>
      <path id="Trazado_153816" data-name="Trazado 153816" d="M75.843,43.069c1.122,0,2.249-.054,3.367.014a2.144,2.144,0,0,1,2.25,2.191,2.122,2.122,0,0,1-2.233,2.2c-2.242.073-4.491.071-6.732,0a2.115,2.115,0,0,1-2.249-2.187,2.139,2.139,0,0,1,2.23-2.208c1.118-.071,2.245-.015,3.367-.015" transform="translate(49.151 30.121)" fill="#020202"/>
      <path id="Trazado_153817" data-name="Trazado 153817" d="M48.775,43.029c3.257-3.313,6.5-6.637,9.778-9.933a2.277,2.277,0,0,1,3.163-.184,2.235,2.235,0,0,1,.012,3.173c-3.4,3.45-6.841,6.851-10.268,10.27a6.73,6.73,0,0,1-2.686-3.326" transform="translate(34.128 22.641)" fill="#405b6b"/>
      <path id="Trazado_153818" data-name="Trazado 153818" d="M41.193,46.845a5.269,5.269,0,1,1,10.516,0c-2.208,3.083-8.312,3.08-10.516,0" transform="translate(28.819 28.853)" fill="#fe5875"/>
      <path id="Trazado_153819" data-name="Trazado 153819" d="M41.191,44.536c1.285.636,2.383,1.569,3.908,1.81a7.528,7.528,0,0,0,5.845-1.389,6.91,6.91,0,0,1,.763-.42,5.264,5.264,0,0,1-10.516,0" transform="translate(28.821 31.162)" fill="#e5485d"/>
      <path id="Trazado_153820" data-name="Trazado 153820" d="M37.846,42.293q1.359-1.652,2.716-3.306c.331.28.648.583,1,.835.857.612.816,1.2.008,1.814a3.077,3.077,0,0,0-.495.534c-1.52,1.919-1.52,1.921-3.229.124" transform="translate(26.481 27.28)" fill="#2d4355"/>
      <path id="Trazado_153821" data-name="Trazado 153821" d="M49.378,38.636a30.952,30.952,0,0,1,2.684,3.326c-1.438,1.691-1.438,1.691-2.854.161-.032-.036-.066-.07-.1-.105-1.635-1.732-1.635-1.732.27-3.382" transform="translate(33.525 27.034)" fill="#2d4355"/>
    </g>
  </g>
</svg>
