<svg xmlns="http://www.w3.org/2000/svg" width="244" height="820" viewBox="0 0 244 820">
  <g id="Grupo_168922" data-name="Grupo 168922" transform="translate(4723 725)">
    <g id="Trazado_153986" data-name="Trazado 153986" transform="translate(-4723 -296)" fill="#e1e8ff">
      <path d="M 231 176.5 L 13 176.5 C 9.661125183105469 176.5 6.522093772888184 175.1997833251953 4.161156177520752 172.8388366699219 C 1.80021870136261 170.4779052734375 0.5 167.3388824462891 0.5 164 L 0.5 13 C 0.5 9.661125183105469 1.80021870136261 6.522124767303467 4.161156177520752 4.161156177520752 C 6.522124767303467 1.80021870136261 9.661125183105469 0.5 13 0.5 L 231 0.5 C 234.3388824462891 0.5 237.4779052734375 1.80021870136261 239.8388366699219 4.161156177520752 C 242.1997833251953 6.522093772888184 243.5 9.661125183105469 243.5 13 L 243.5 164 C 243.5 167.3388824462891 242.1997833251953 170.4779052734375 239.8388366699219 172.8388366699219 C 237.4779052734375 175.1997833251953 234.3388824462891 176.5 231 176.5 Z" stroke="none"/>
      <path d="M 13 1 C 9.794692993164062 1 6.781219482421875 2.248214721679688 4.514724731445312 4.514724731445312 C 2.248214721679688 6.781219482421875 1 9.794692993164062 1 13 L 1 164 C 1 167.2053070068359 2.248214721679688 170.2187805175781 4.514724731445312 172.4852752685547 C 6.781219482421875 174.7517852783203 9.794692993164062 176 13 176 L 231 176 C 234.2053070068359 176 237.2187805175781 174.7517852783203 239.4852752685547 172.4852752685547 C 241.7517852783203 170.2187805175781 243 167.2053070068359 243 164 L 243 13 C 243 9.794692993164062 241.7517852783203 6.781219482421875 239.4852752685547 4.514724731445312 C 237.2187805175781 2.248214721679688 234.2053070068359 1 231 1 L 13 1 M 13 0 L 231 0 C 238.1796875 0 244 5.820281982421875 244 13 L 244 164 C 244 171.1796875 238.1796875 177 231 177 L 13 177 C 5.820281982421875 177 0 171.1796875 0 164 L 0 13 C 0 5.820281982421875 5.820281982421875 0 13 0 Z" stroke="none" fill="#6b8dff"/>
    </g>
    <g id="Trazado_153982" data-name="Trazado 153982" transform="translate(-4723 -510)" fill="#ffbfc1">
      <path d="M 231 176.5 L 13 176.5 C 9.661125183105469 176.5 6.522093772888184 175.1997833251953 4.161156177520752 172.8388366699219 C 1.80021870136261 170.4779052734375 0.5 167.3388824462891 0.5 164 L 0.5 13 C 0.5 9.661125183105469 1.80021870136261 6.522124767303467 4.161156177520752 4.161156177520752 C 6.522124767303467 1.80021870136261 9.661125183105469 0.5 13 0.5 L 231 0.5 C 234.3388824462891 0.5 237.4779052734375 1.80021870136261 239.8388366699219 4.161156177520752 C 242.1997833251953 6.522093772888184 243.5 9.661125183105469 243.5 13 L 243.5 164 C 243.5 167.3388824462891 242.1997833251953 170.4779052734375 239.8388366699219 172.8388366699219 C 237.4779052734375 175.1997833251953 234.3388824462891 176.5 231 176.5 Z" stroke="none"/>
      <path d="M 13 1 C 9.794692993164062 1 6.781219482421875 2.248214721679688 4.514724731445312 4.514724731445312 C 2.248214721679688 6.781219482421875 1 9.794692993164062 1 13 L 1 164 C 1 167.2053070068359 2.248214721679688 170.2187805175781 4.514724731445312 172.4852752685547 C 6.781219482421875 174.7517852783203 9.794692993164062 176 13 176 L 231 176 C 234.2053070068359 176 237.2187805175781 174.7517852783203 239.4852752685547 172.4852752685547 C 241.7517852783203 170.2187805175781 243 167.2053070068359 243 164 L 243 13 C 243 9.794692993164062 241.7517852783203 6.781219482421875 239.4852752685547 4.514724731445312 C 237.2187805175781 2.248214721679688 234.2053070068359 1 231 1 L 13 1 M 13 0 L 231 0 C 238.1796875 0 244 5.820281982421875 244 13 L 244 164 C 244 171.1796875 238.1796875 177 231 177 L 13 177 C 5.820281982421875 177 0 171.1796875 0 164 L 0 13 C 0 5.820281982421875 5.820281982421875 0 13 0 Z" stroke="none" fill="#ff5f65"/>
    </g>
    <g id="Trazado_153979" data-name="Trazado 153979" transform="translate(-4723 -725)" fill="#d5d6f0">
      <path d="M 231 176.5 L 13 176.5 C 9.661125183105469 176.5 6.522093772888184 175.1997833251953 4.161156177520752 172.8388366699219 C 1.80021870136261 170.4779052734375 0.5 167.3388824462891 0.5 164 L 0.5 13 C 0.5 9.661125183105469 1.80021870136261 6.522124767303467 4.161156177520752 4.161156177520752 C 6.522124767303467 1.80021870136261 9.661125183105469 0.5 13 0.5 L 231 0.5 C 234.3388824462891 0.5 237.4779052734375 1.80021870136261 239.8388366699219 4.161156177520752 C 242.1997833251953 6.522093772888184 243.5 9.661125183105469 243.5 13 L 243.5 164 C 243.5 167.3388824462891 242.1997833251953 170.4779052734375 239.8388366699219 172.8388366699219 C 237.4779052734375 175.1997833251953 234.3388824462891 176.5 231 176.5 Z" stroke="none"/>
      <path d="M 13 1 C 9.794692993164062 1 6.781219482421875 2.248214721679688 4.514724731445312 4.514724731445312 C 2.248214721679688 6.781219482421875 1 9.794692993164062 1 13 L 1 164 C 1 167.2053070068359 2.248214721679688 170.2187805175781 4.514724731445312 172.4852752685547 C 6.781219482421875 174.7517852783203 9.794692993164062 176 13 176 L 231 176 C 234.2053070068359 176 237.2187805175781 174.7517852783203 239.4852752685547 172.4852752685547 C 241.7517852783203 170.2187805175781 243 167.2053070068359 243 164 L 243 13 C 243 9.794692993164062 241.7517852783203 6.781219482421875 239.4852752685547 4.514724731445312 C 237.2187805175781 2.248214721679688 234.2053070068359 1 231 1 L 13 1 M 13 0 L 231 0 C 238.1796875 0 244 5.820281982421875 244 13 L 244 164 C 244 171.1796875 238.1796875 177 231 177 L 13 177 C 5.820281982421875 177 0 171.1796875 0 164 L 0 13 C 0 5.820281982421875 5.820281982421875 0 13 0 Z" stroke="none" fill="#3c3fa7"/>
    </g>
    <g id="Trazado_153990" data-name="Trazado 153990" transform="translate(-4723 -82)" fill="#fff0b5">
      <path d="M 231 176.5 L 13 176.5 C 9.661125183105469 176.5 6.522093772888184 175.1997833251953 4.161156177520752 172.8388366699219 C 1.80021870136261 170.4779052734375 0.5 167.3388824462891 0.5 164 L 0.5 13 C 0.5 9.661125183105469 1.80021870136261 6.522124767303467 4.161156177520752 4.161156177520752 C 6.522124767303467 1.80021870136261 9.661125183105469 0.5 13 0.5 L 231 0.5 C 234.3388824462891 0.5 237.4779052734375 1.80021870136261 239.8388366699219 4.161156177520752 C 242.1997833251953 6.522093772888184 243.5 9.661125183105469 243.5 13 L 243.5 164 C 243.5 167.3388824462891 242.1997833251953 170.4779052734375 239.8388366699219 172.8388366699219 C 237.4779052734375 175.1997833251953 234.3388824462891 176.5 231 176.5 Z" stroke="none"/>
      <path d="M 13 1 C 9.794692993164062 1 6.781219482421875 2.248214721679688 4.514724731445312 4.514724731445312 C 2.248214721679688 6.781219482421875 1 9.794692993164062 1 13 L 1 164 C 1 167.2053070068359 2.248214721679688 170.2187805175781 4.514724731445312 172.4852752685547 C 6.781219482421875 174.7517852783203 9.794692993164062 176 13 176 L 231 176 C 234.2053070068359 176 237.2187805175781 174.7517852783203 239.4852752685547 172.4852752685547 C 241.7517852783203 170.2187805175781 243 167.2053070068359 243 164 L 243 13 C 243 9.794692993164062 241.7517852783203 6.781219482421875 239.4852752685547 4.514724731445312 C 237.2187805175781 2.248214721679688 234.2053070068359 1 231 1 L 13 1 M 13 0 L 231 0 C 238.1796875 0 244 5.820281982421875 244 13 L 244 164 C 244 171.1796875 238.1796875 177 231 177 L 13 177 C 5.820281982421875 177 0 171.1796875 0 164 L 0 13 C 0 5.820281982421875 5.820281982421875 0 13 0 Z" stroke="none" fill="#ffd947"/>
    </g>
    <path id="Trazado_153981" data-name="Trazado 153981" d="M9.271,18.9h5v4.233h-5v5.728H4.656V23.134H-.354V18.9h5.01V13.334H9.271Z" transform="translate(-4609 -547)" fill="#3c3fa7"/>
    <path id="Trazado_153985" data-name="Trazado 153985" d="M9.271,18.9h5v4.233h-5v5.728H4.656V23.134H-.354V18.9h5.01V13.334H9.271Z" transform="translate(-4609 -333)" fill="#3c3fa7"/>
    <path id="Trazado_153989" data-name="Trazado 153989" d="M9.271,18.9h5v4.233h-5v5.728H4.656V23.134H-.354V18.9h5.01V13.334H9.271Z" transform="translate(-4609 -119)" fill="#3c3fa7"/>
    <path id="Trazado_153975" data-name="Trazado 153975" d="M-13.211-3.3l2.742-8.07h2.336L-12.359,0h-2.3l-.6-7.578L-18.242,0h-2.3l-.672-11.375h2.234l.227,8.031,3.063-8.031h1.945Zm7.7-4.211A2.946,2.946,0,0,1-3.227-8.609a2.143,2.143,0,0,1,1.848.9A3.548,3.548,0,0,1-.937-5.328L-1.828,0h-2.2l.9-5.358a2.6,2.6,0,0,0,.016-.563A.885.885,0,0,0-4.1-6.789a1.9,1.9,0,0,0-1.562.766L-6.727,0h-2.2l2.078-12h2.211ZM3.906.156A3.677,3.677,0,0,1,1.941-.387,3.292,3.292,0,0,1,.664-1.855,4.093,4.093,0,0,1,.336-3.914l.023-.312a5.465,5.465,0,0,1,.719-2.266,4.341,4.341,0,0,1,1.547-1.59,3.827,3.827,0,0,1,2.094-.527,2.924,2.924,0,0,1,2.473,1.2,4.117,4.117,0,0,1,.637,2.962L7.7-3.484H2.523a1.814,1.814,0,0,0,.4,1.313,1.521,1.521,0,0,0,1.172.508A2.7,2.7,0,0,0,6.2-2.6l1.008,1.25A3.135,3.135,0,0,1,5.836-.23,4.5,4.5,0,0,1,3.906.156Zm.7-6.945a1.565,1.565,0,0,0-1.082.383A3.363,3.363,0,0,0,2.68-5.023H5.711l.047-.2a2.071,2.071,0,0,0,.008-.594,1.134,1.134,0,0,0-.383-.707A1.2,1.2,0,0,0,4.609-6.789Zm9.539.453a4.548,4.548,0,0,0-.742-.078,2.136,2.136,0,0,0-1.867.883L10.563,0h-2.2L9.828-8.453l2.07-.008L11.7-7.43a2.325,2.325,0,0,1,1.969-1.2,3.214,3.214,0,0,1,.766.109ZM18.117.156a3.677,3.677,0,0,1-1.965-.543,3.292,3.292,0,0,1-1.277-1.469,4.093,4.093,0,0,1-.328-2.059l.023-.312a5.465,5.465,0,0,1,.719-2.266,4.341,4.341,0,0,1,1.547-1.59,3.827,3.827,0,0,1,2.094-.527,2.924,2.924,0,0,1,2.473,1.2,4.117,4.117,0,0,1,.637,2.962l-.125.962h-5.18a1.814,1.814,0,0,0,.4,1.313,1.521,1.521,0,0,0,1.172.508A2.7,2.7,0,0,0,20.414-2.6l1.008,1.25A3.135,3.135,0,0,1,20.047-.23,4.5,4.5,0,0,1,18.117.156Zm.7-6.945a1.565,1.565,0,0,0-1.082.383,3.363,3.363,0,0,0-.848,1.383h3.031l.047-.2a2.071,2.071,0,0,0,.008-.594,1.134,1.134,0,0,0-.383-.707A1.2,1.2,0,0,0,18.82-6.789ZM-5.8,20.7l2.742-8.07H-.727L-4.953,24h-2.3l-.6-7.578L-10.836,24h-2.3l-.672-11.375h2.234l.227,8.031,3.063-8.031h1.945Zm7.7-4.211A2.946,2.946,0,0,1,4.18,15.391a2.143,2.143,0,0,1,1.848.9,3.548,3.548,0,0,1,.441,2.379L5.578,24h-2.2l.9-5.358a2.6,2.6,0,0,0,.016-.563.885.885,0,0,0-.984-.868,1.9,1.9,0,0,0-1.562.766L.68,24h-2.2L.555,12H2.766Zm8.992,4.3L13.3,15.547H15.75L10.8,25.273a4.231,4.231,0,0,1-1.246,1.641,2.723,2.723,0,0,1-1.652.523,5.035,5.035,0,0,1-1.062-.164l.164-1.719.3.016a1.651,1.651,0,0,0,1.578-.789l.484-.9L7.992,15.547h2.281ZM-10.492,44.7l2.742-8.07h2.336L-9.641,48h-2.3l-.6-7.578L-15.523,48h-2.3L-18.5,36.625h2.234l.227,8.031,3.063-8.031h1.945Zm7.7-4.211A2.946,2.946,0,0,1-.508,39.391a2.143,2.143,0,0,1,1.848.9,3.548,3.548,0,0,1,.441,2.379L.891,48h-2.2l.9-5.358A2.6,2.6,0,0,0-.4,42.079a.885.885,0,0,0-.984-.868,1.9,1.9,0,0,0-1.562.766L-4.008,48h-2.2l2.078-12h2.211Zm9.422,7.672a3.677,3.677,0,0,1-1.965-.543,3.292,3.292,0,0,1-1.277-1.469,4.093,4.093,0,0,1-.328-2.059l.023-.312A5.465,5.465,0,0,1,3.8,41.508a4.341,4.341,0,0,1,1.547-1.59,3.827,3.827,0,0,1,2.094-.527,2.924,2.924,0,0,1,2.473,1.2,4.117,4.117,0,0,1,.637,2.962l-.125.962H5.242a1.814,1.814,0,0,0,.4,1.313,1.521,1.521,0,0,0,1.172.508A2.7,2.7,0,0,0,8.922,45.4l1.008,1.25A3.135,3.135,0,0,1,8.555,47.77,4.5,4.5,0,0,1,6.625,48.156Zm.7-6.945a1.565,1.565,0,0,0-1.082.383A3.363,3.363,0,0,0,5.4,42.977H8.43l.047-.2a2.071,2.071,0,0,0,.008-.594,1.134,1.134,0,0,0-.383-.707A1.2,1.2,0,0,0,7.328,41.211Zm7.234-1.672-.187,1a3.042,3.042,0,0,1,2.461-1.148,2.028,2.028,0,0,1,1.766.875,3.526,3.526,0,0,1,.414,2.359L18.125,48h-2.2l.906-5.4a2.528,2.528,0,0,0,.016-.555.9.9,0,0,0-1-.82,1.9,1.9,0,0,0-1.555.8L13.234,48h-2.2L12.5,39.547Z" transform="translate(-4601 -625)" fill="#3c3fa7"/>
    <path id="Trazado_153978" data-name="Trazado 153978" d="M-36.676-3.219l2.414-5.234h2.453l-4.945,9.727A4.231,4.231,0,0,1-38,2.914a2.723,2.723,0,0,1-1.652.523,5.035,5.035,0,0,1-1.062-.164l.164-1.719.3.016A1.651,1.651,0,0,0-38.668.781l.484-.9-1.383-8.336h2.281Zm8.3,3.375a3.677,3.677,0,0,1-1.965-.543,3.292,3.292,0,0,1-1.277-1.469,4.093,4.093,0,0,1-.328-2.059l.023-.312a5.465,5.465,0,0,1,.719-2.266,4.341,4.341,0,0,1,1.547-1.59,3.827,3.827,0,0,1,2.094-.527,2.924,2.924,0,0,1,2.473,1.2,4.117,4.117,0,0,1,.637,2.962l-.125.962h-5.18a1.814,1.814,0,0,0,.4,1.313,1.521,1.521,0,0,0,1.172.508A2.7,2.7,0,0,0-26.082-2.6l1.008,1.25A3.135,3.135,0,0,1-26.449-.23,4.5,4.5,0,0,1-28.379.156Zm.7-6.945a1.565,1.565,0,0,0-1.082.383,3.363,3.363,0,0,0-.848,1.383h3.031l.047-.2a2.071,2.071,0,0,0,.008-.594,1.134,1.134,0,0,0-.383-.707A1.2,1.2,0,0,0-27.676-6.789Zm8.648,4.406q.125-.625-.867-.906l-.711-.18q-2.523-.7-2.453-2.453A2.428,2.428,0,0,1-22-7.871a3.942,3.942,0,0,1,2.457-.738,3.536,3.536,0,0,1,2.313.758,2.5,2.5,0,0,1,.9,1.977l-2.187-.008a.963.963,0,0,0-1.078-1.1,1.551,1.551,0,0,0-.895.258,1.061,1.061,0,0,0-.465.7q-.117.625.945.883l.313.07a6.285,6.285,0,0,1,1.648.59,2.488,2.488,0,0,1,.879.824,2.04,2.04,0,0,1,.285,1.18,2.251,2.251,0,0,1-.52,1.406,3.18,3.18,0,0,1-1.359.93,4.736,4.736,0,0,1-1.816.3,3.568,3.568,0,0,1-2.344-.809A2.607,2.607,0,0,1-23.879-2.7l2.078.016a1.142,1.142,0,0,0,1.3,1.227,1.845,1.845,0,0,0,1-.25A.987.987,0,0,0-19.027-2.383Zm7.625-8.148-.367,2.078h1.406L-10.652-6.8h-1.406l-.719,4.234a1.077,1.077,0,0,0,.063.609q.109.211.531.227.125.008.672-.039l-.156,1.727a3.706,3.706,0,0,1-1.266.18,1.985,1.985,0,0,1-1.617-.68,2.456,2.456,0,0,1-.437-1.8l.727-4.461h-1.2l.289-1.656h1.2l.359-2.078ZM-6.535.156A3.677,3.677,0,0,1-8.5-.387,3.292,3.292,0,0,1-9.777-1.855a4.093,4.093,0,0,1-.328-2.059l.023-.312a5.465,5.465,0,0,1,.719-2.266,4.341,4.341,0,0,1,1.547-1.59,3.827,3.827,0,0,1,2.094-.527,2.924,2.924,0,0,1,2.473,1.2,4.117,4.117,0,0,1,.637,2.962l-.125.962h-5.18a1.814,1.814,0,0,0,.4,1.313,1.521,1.521,0,0,0,1.172.508A2.7,2.7,0,0,0-4.238-2.6l1.008,1.25A3.135,3.135,0,0,1-4.605-.23,4.5,4.5,0,0,1-6.535.156Zm.7-6.945a1.565,1.565,0,0,0-1.082.383,3.363,3.363,0,0,0-.848,1.383H-4.73l.047-.2a2.071,2.071,0,0,0,.008-.594,1.134,1.134,0,0,0-.383-.707A1.2,1.2,0,0,0-5.832-6.789Zm9.539.453a4.548,4.548,0,0,0-.742-.078A2.136,2.136,0,0,0,1.1-5.531L.121,0h-2.2L-.613-8.453l2.07-.008-.2,1.031a2.325,2.325,0,0,1,1.969-1.2,3.214,3.214,0,0,1,.766.109ZM7.855-8.617a2.4,2.4,0,0,1,1.906.945L10.59-12H12.8L10.723,0H8.754l.125-.906a2.736,2.736,0,0,1-2.2,1.07A2.433,2.433,0,0,1,5.293-.25a2.607,2.607,0,0,1-.918-1.168,4.7,4.7,0,0,1-.355-1.7,6.4,6.4,0,0,1,.023-.953l.047-.352A6.767,6.767,0,0,1,4.813-6.7,3.766,3.766,0,0,1,6.125-8.164,3.094,3.094,0,0,1,7.855-8.617ZM6.254-4.07a6.327,6.327,0,0,0-.039,1q.078,1.375,1.109,1.4a1.885,1.885,0,0,0,1.617-.875l.6-3.359a1.248,1.248,0,0,0-1.219-.875,1.606,1.606,0,0,0-1.34.621A4.176,4.176,0,0,0,6.254-4.07ZM17.371,0a2.281,2.281,0,0,1-.086-.766,2.863,2.863,0,0,1-2.156.922,2.594,2.594,0,0,1-1.84-.723,2.186,2.186,0,0,1-.684-1.746,2.527,2.527,0,0,1,1.16-2.121,5.266,5.266,0,0,1,2.965-.738l1.031.016.109-.508a1.764,1.764,0,0,0,.023-.492.846.846,0,0,0-.277-.574.955.955,0,0,0-.629-.215,1.345,1.345,0,0,0-.875.254,1.231,1.231,0,0,0-.461.777l-2.211.008a2.457,2.457,0,0,1,1.113-1.965,4.312,4.312,0,0,1,2.613-.738,3.117,3.117,0,0,1,2.25.855,2.5,2.5,0,0,1,.68,2.121l-.648,4.047-.039.5a2.412,2.412,0,0,0,.133.938L19.535,0Zm-1.7-1.555a2.017,2.017,0,0,0,1.664-.828l.273-1.461-.766-.008a2.139,2.139,0,0,0-1.758.742,1.292,1.292,0,0,0-.242.633.75.75,0,0,0,.176.668A.891.891,0,0,0,15.676-1.555Zm8.789-1.664,2.414-5.234h2.453L24.387,1.273a4.231,4.231,0,0,1-1.246,1.641,2.723,2.723,0,0,1-1.652.523,5.035,5.035,0,0,1-1.062-.164l.164-1.719.3.016A1.651,1.651,0,0,0,22.473.781l.484-.9L21.574-8.453h2.281Zm5.875.891A1.22,1.22,0,0,1,31.234-2a1.111,1.111,0,0,1,.371.855,1.151,1.151,0,0,1-.344.879,1.194,1.194,0,0,1-.883.363A1.2,1.2,0,0,1,29.5-.219a1.149,1.149,0,0,1-.375-.852,1.161,1.161,0,0,1,.336-.883A1.238,1.238,0,0,1,30.34-2.328Zm3.586,0A1.22,1.22,0,0,1,34.82-2a1.111,1.111,0,0,1,.371.855,1.151,1.151,0,0,1-.344.879,1.194,1.194,0,0,1-.883.363,1.2,1.2,0,0,1-.883-.312,1.149,1.149,0,0,1-.375-.852,1.161,1.161,0,0,1,.336-.883A1.238,1.238,0,0,1,33.926-2.328Zm3.516,0A1.22,1.22,0,0,1,38.336-2a1.111,1.111,0,0,1,.371.855,1.151,1.151,0,0,1-.344.879,1.194,1.194,0,0,1-.883.363A1.2,1.2,0,0,1,36.6-.219a1.149,1.149,0,0,1-.375-.852,1.161,1.161,0,0,1,.336-.883A1.238,1.238,0,0,1,37.441-2.328ZM-20.727,24a2.281,2.281,0,0,1-.086-.766,2.863,2.863,0,0,1-2.156.922,2.594,2.594,0,0,1-1.84-.723,2.186,2.186,0,0,1-.684-1.746,2.527,2.527,0,0,1,1.16-2.121,5.266,5.266,0,0,1,2.965-.738l1.031.016.109-.508a1.764,1.764,0,0,0,.023-.492.846.846,0,0,0-.277-.574.955.955,0,0,0-.629-.215,1.345,1.345,0,0,0-.875.254,1.231,1.231,0,0,0-.461.777l-2.211.008a2.457,2.457,0,0,1,1.113-1.965,4.312,4.312,0,0,1,2.613-.738,3.117,3.117,0,0,1,2.25.855A2.5,2.5,0,0,1-18,18.367l-.648,4.047-.039.5a2.412,2.412,0,0,0,.133.938l-.008.148Zm-1.7-1.555a2.017,2.017,0,0,0,1.664-.828l.273-1.461-.766-.008a2.139,2.139,0,0,0-1.758.742,1.292,1.292,0,0,0-.242.633.75.75,0,0,0,.176.668A.891.891,0,0,0-22.422,22.445Zm8.688-6.906-.187,1a3.042,3.042,0,0,1,2.461-1.148,2.028,2.028,0,0,1,1.766.875,3.526,3.526,0,0,1,.414,2.359L-10.172,24h-2.2l.906-5.4a2.528,2.528,0,0,0,.016-.555.9.9,0,0,0-1-.82,1.9,1.9,0,0,0-1.555.8L-15.062,24h-2.2l1.469-8.453Zm5.711,4.227a5.849,5.849,0,0,1,1.277-3.184,3.242,3.242,0,0,1,2.629-1.2,2.37,2.37,0,0,1,2.016.977l.289-.82,2.023.008-1.383,8.164a3.983,3.983,0,0,1-1.437,2.672,4.471,4.471,0,0,1-3,.953,4.168,4.168,0,0,1-1.672-.379,3.575,3.575,0,0,1-1.312-1L-7.5,24.617a2.349,2.349,0,0,0,1.844.961,2.166,2.166,0,0,0,1.469-.449,2.4,2.4,0,0,0,.828-1.355l.125-.508a2.749,2.749,0,0,1-2.07.891,2.428,2.428,0,0,1-1.961-.918,3.947,3.947,0,0,1-.8-2.348A7.89,7.89,0,0,1-8.023,19.766Zm2.164.927a2.02,2.02,0,0,0,.309,1.178,1.08,1.08,0,0,0,.895.466,1.972,1.972,0,0,0,1.594-.767l.656-3.583a1.3,1.3,0,0,0-1.242-.767,1.728,1.728,0,0,0-1.43.681,3.561,3.561,0,0,0-.734,1.87A8.214,8.214,0,0,0-5.859,20.693ZM6.281,17.664a4.548,4.548,0,0,0-.742-.078,2.136,2.136,0,0,0-1.867.883L2.7,24H.492l1.469-8.453,2.07-.008-.2,1.031a2.325,2.325,0,0,1,1.969-1.2,3.214,3.214,0,0,1,.766.109ZM9.82,20.781l2.414-5.234h2.453L9.742,25.273A4.231,4.231,0,0,1,8.5,26.914a2.723,2.723,0,0,1-1.652.523,5.035,5.035,0,0,1-1.062-.164l.164-1.719.3.016a1.651,1.651,0,0,0,1.578-.789l.484-.9L6.93,15.547H9.211Zm5.875.891A1.22,1.22,0,0,1,16.59,22a1.111,1.111,0,0,1,.371.855,1.151,1.151,0,0,1-.344.879,1.323,1.323,0,0,1-1.766.051,1.149,1.149,0,0,1-.375-.852,1.161,1.161,0,0,1,.336-.883A1.238,1.238,0,0,1,15.7,21.672Zm3.586,0a1.22,1.22,0,0,1,.895.324,1.111,1.111,0,0,1,.371.855,1.151,1.151,0,0,1-.344.879,1.323,1.323,0,0,1-1.766.051,1.149,1.149,0,0,1-.375-.852,1.161,1.161,0,0,1,.336-.883A1.238,1.238,0,0,1,19.281,21.672Zm3.516,0a1.22,1.22,0,0,1,.895.324,1.111,1.111,0,0,1,.371.855,1.151,1.151,0,0,1-.344.879,1.323,1.323,0,0,1-1.766.051,1.149,1.149,0,0,1-.375-.852,1.161,1.161,0,0,1,.336-.883A1.238,1.238,0,0,1,22.8,21.672ZM-33.8,48a2.281,2.281,0,0,1-.086-.766,2.863,2.863,0,0,1-2.156.922,2.594,2.594,0,0,1-1.84-.723,2.186,2.186,0,0,1-.684-1.746,2.527,2.527,0,0,1,1.16-2.121,5.266,5.266,0,0,1,2.965-.738l1.031.016.109-.508a1.764,1.764,0,0,0,.023-.492.846.846,0,0,0-.277-.574.955.955,0,0,0-.629-.215,1.345,1.345,0,0,0-.875.254,1.231,1.231,0,0,0-.461.777l-2.211.008a2.457,2.457,0,0,1,1.113-1.965A4.312,4.312,0,0,1-34,39.391a3.117,3.117,0,0,1,2.25.855,2.5,2.5,0,0,1,.68,2.121l-.648,4.047-.039.5a2.412,2.412,0,0,0,.133.938l-.008.148Zm-1.7-1.555a2.017,2.017,0,0,0,1.664-.828l.273-1.461-.766-.008a2.139,2.139,0,0,0-1.758.742,1.292,1.292,0,0,0-.242.633.75.75,0,0,0,.176.668A.891.891,0,0,0-35.5,46.445Zm14.047-.828q.125-.625-.867-.906l-.711-.18q-2.523-.7-2.453-2.453a2.428,2.428,0,0,1,1.059-1.949,3.942,3.942,0,0,1,2.457-.738,3.536,3.536,0,0,1,2.313.758,2.5,2.5,0,0,1,.9,1.977l-2.187-.008a.963.963,0,0,0-1.078-1.1,1.551,1.551,0,0,0-.895.258,1.061,1.061,0,0,0-.465.7q-.117.625.945.883l.313.07a6.285,6.285,0,0,1,1.648.59,2.488,2.488,0,0,1,.879.824,2.04,2.04,0,0,1,.285,1.18,2.251,2.251,0,0,1-.52,1.406,3.18,3.18,0,0,1-1.359.93,4.736,4.736,0,0,1-1.816.3,3.568,3.568,0,0,1-2.344-.809A2.607,2.607,0,0,1-26.3,45.3l2.078.016a1.142,1.142,0,0,0,1.3,1.227,1.845,1.845,0,0,0,1-.25A.988.988,0,0,0-21.449,45.617Zm7.625-8.148-.367,2.078h1.406l-.289,1.656H-14.48l-.719,4.234a1.077,1.077,0,0,0,.063.609q.109.211.531.227.125.008.672-.039l-.156,1.727a3.706,3.706,0,0,1-1.266.18,1.985,1.985,0,0,1-1.617-.68,2.456,2.456,0,0,1-.437-1.8l.727-4.461h-1.2l.289-1.656h1.2l.359-2.078Zm6.086,9.656a2.919,2.919,0,0,1-2.328,1.031,2.172,2.172,0,0,1-1.844-.875,3.2,3.2,0,0,1-.484-2.266l.914-5.469h2.2l-.93,5.5a2.175,2.175,0,0,0-.008.485.8.8,0,0,0,.867.806,2.014,2.014,0,0,0,1.7-.79l1.055-6h2.219L-5.848,48H-7.9Zm7.727-7.742a2.4,2.4,0,0,1,1.906.945L2.723,36H4.934L2.855,48H.887l.125-.906a2.736,2.736,0,0,1-2.2,1.07,2.433,2.433,0,0,1-1.383-.414,2.607,2.607,0,0,1-.918-1.168,4.7,4.7,0,0,1-.355-1.7,6.4,6.4,0,0,1,.023-.953l.047-.352A6.767,6.767,0,0,1-3.055,41.3a3.766,3.766,0,0,1,1.313-1.461A3.1,3.1,0,0,1-.012,39.383Zm-1.6,4.547a6.327,6.327,0,0,0-.039,1q.078,1.375,1.109,1.4a1.885,1.885,0,0,0,1.617-.875l.6-3.359a1.248,1.248,0,0,0-1.219-.875,1.606,1.606,0,0,0-1.34.621A4.176,4.176,0,0,0-1.613,43.93ZM8.629,48.156a3.677,3.677,0,0,1-1.965-.543,3.292,3.292,0,0,1-1.277-1.469,4.093,4.093,0,0,1-.328-2.059l.023-.312A5.465,5.465,0,0,1,5.8,41.508a4.341,4.341,0,0,1,1.547-1.59,3.827,3.827,0,0,1,2.094-.527,2.924,2.924,0,0,1,2.473,1.2,4.117,4.117,0,0,1,.637,2.962l-.125.962H7.246a1.814,1.814,0,0,0,.4,1.313,1.521,1.521,0,0,0,1.172.508,2.7,2.7,0,0,0,2.109-.937l1.008,1.25a3.135,3.135,0,0,1-1.375,1.121A4.5,4.5,0,0,1,8.629,48.156Zm.7-6.945a1.565,1.565,0,0,0-1.082.383A3.363,3.363,0,0,0,7.4,42.977h3.031l.047-.2a2.071,2.071,0,0,0,.008-.594,1.134,1.134,0,0,0-.383-.707A1.2,1.2,0,0,0,9.332,41.211Zm7.234-1.672-.187,1a3.042,3.042,0,0,1,2.461-1.148,2.028,2.028,0,0,1,1.766.875,3.526,3.526,0,0,1,.414,2.359L20.129,48h-2.2l.906-5.4a2.528,2.528,0,0,0,.016-.555.9.9,0,0,0-1-.82,1.9,1.9,0,0,0-1.555.8L15.238,48h-2.2L14.5,39.547Zm9.758-2.07-.367,2.078h1.406L27.074,41.2H25.668l-.719,4.234a1.077,1.077,0,0,0,.063.609q.109.211.531.227.125.008.672-.039l-.156,1.727a3.706,3.706,0,0,1-1.266.18,1.985,1.985,0,0,1-1.617-.68,2.456,2.456,0,0,1-.437-1.8l.727-4.461h-1.2l.289-1.656h1.2l.359-2.078Zm2.445,8.2a1.22,1.22,0,0,1,.895.324,1.111,1.111,0,0,1,.371.855,1.151,1.151,0,0,1-.344.879,1.323,1.323,0,0,1-1.766.051,1.149,1.149,0,0,1-.375-.852,1.161,1.161,0,0,1,.336-.883A1.238,1.238,0,0,1,28.77,45.672Zm3.586,0A1.22,1.22,0,0,1,33.25,46a1.111,1.111,0,0,1,.371.855,1.151,1.151,0,0,1-.344.879,1.323,1.323,0,0,1-1.766.051,1.149,1.149,0,0,1-.375-.852,1.161,1.161,0,0,1,.336-.883A1.238,1.238,0,0,1,32.355,45.672Zm3.516,0a1.22,1.22,0,0,1,.895.324,1.111,1.111,0,0,1,.371.855,1.151,1.151,0,0,1-.344.879,1.323,1.323,0,0,1-1.766.051,1.149,1.149,0,0,1-.375-.852,1.161,1.161,0,0,1,.336-.883A1.238,1.238,0,0,1,35.871,45.672Z" transform="translate(-4604 18)" fill="#3c3fa7"/>
    <path id="Trazado_153973" data-name="Trazado 153973" d="M-6.312-3.078-4.3-8.453h2.2L-5.664,0H-7.508l-.625-5.289L-10.6,0h-1.844l-.625-8.453h2.063l.133,5.32,2.414-5.32h1.594ZM2.43,0a2.281,2.281,0,0,1-.086-.766A2.863,2.863,0,0,1,.188.156a2.594,2.594,0,0,1-1.84-.723,2.186,2.186,0,0,1-.684-1.746,2.527,2.527,0,0,1,1.16-2.121,5.266,5.266,0,0,1,2.965-.738l1.031.016.109-.508a1.764,1.764,0,0,0,.023-.492.846.846,0,0,0-.277-.574.955.955,0,0,0-.629-.215,1.345,1.345,0,0,0-.875.254,1.231,1.231,0,0,0-.461.777L-1.5-5.906A2.457,2.457,0,0,1-.387-7.871a4.312,4.312,0,0,1,2.613-.738,3.117,3.117,0,0,1,2.25.855,2.5,2.5,0,0,1,.68,2.121L4.508-1.586l-.039.5A2.412,2.412,0,0,0,4.6-.148L4.594,0ZM.734-1.555A2.017,2.017,0,0,0,2.4-2.383l.273-1.461-.766-.008a2.139,2.139,0,0,0-1.758.742,1.292,1.292,0,0,0-.242.633.75.75,0,0,0,.176.668A.891.891,0,0,0,.734-1.555Zm10.1-.828q.125-.625-.867-.906l-.711-.18Q6.734-4.164,6.8-5.922A2.428,2.428,0,0,1,7.863-7.871a3.942,3.942,0,0,1,2.457-.738,3.536,3.536,0,0,1,2.313.758,2.5,2.5,0,0,1,.9,1.977l-2.187-.008a.963.963,0,0,0-1.078-1.1,1.552,1.552,0,0,0-.895.258,1.061,1.061,0,0,0-.465.7q-.117.625.945.883l.313.07a6.285,6.285,0,0,1,1.648.59,2.488,2.488,0,0,1,.879.824,2.04,2.04,0,0,1,.285,1.18,2.251,2.251,0,0,1-.52,1.406,3.18,3.18,0,0,1-1.359.93,4.736,4.736,0,0,1-1.816.3A3.568,3.568,0,0,1,6.938-.652,2.607,2.607,0,0,1,5.984-2.7l2.078.016a1.142,1.142,0,0,0,1.3,1.227,1.845,1.845,0,0,0,1-.25A.987.987,0,0,0,10.836-2.383Zm-20.262,23.3,2.008-5.375h2.2L-8.777,24h-1.844l-.625-5.289L-13.715,24h-1.844l-.625-8.453h2.063l.133,5.32,2.414-5.32H-9.98Zm7.867,3.234a3.677,3.677,0,0,1-1.965-.543A3.292,3.292,0,0,1-4.8,22.145a4.093,4.093,0,0,1-.328-2.059l.023-.312a5.465,5.465,0,0,1,.719-2.266,4.341,4.341,0,0,1,1.547-1.59,3.827,3.827,0,0,1,2.094-.527,2.924,2.924,0,0,1,2.473,1.2,4.117,4.117,0,0,1,.637,2.962l-.125.962h-5.18a1.814,1.814,0,0,0,.4,1.313,1.521,1.521,0,0,0,1.172.508A2.7,2.7,0,0,0,.738,21.4l1.008,1.25A3.135,3.135,0,0,1,.371,23.77,4.5,4.5,0,0,1-1.559,24.156Zm.7-6.945a1.565,1.565,0,0,0-1.082.383,3.363,3.363,0,0,0-.848,1.383H.246l.047-.2A2.071,2.071,0,0,0,.3,18.18a1.134,1.134,0,0,0-.383-.707A1.2,1.2,0,0,0-.855,17.211Zm9.539.453a4.548,4.548,0,0,0-.742-.078,2.136,2.136,0,0,0-1.867.883L5.1,24h-2.2l1.469-8.453,2.07-.008-.2,1.031a2.325,2.325,0,0,1,1.969-1.2,3.214,3.214,0,0,1,.766.109Zm3.969,6.492a3.677,3.677,0,0,1-1.965-.543A3.292,3.292,0,0,1,9.41,22.145a4.093,4.093,0,0,1-.328-2.059l.023-.312a5.465,5.465,0,0,1,.719-2.266,4.341,4.341,0,0,1,1.547-1.59,3.827,3.827,0,0,1,2.094-.527,2.924,2.924,0,0,1,2.473,1.2,4.117,4.117,0,0,1,.637,2.962l-.125.962H11.27a1.814,1.814,0,0,0,.4,1.313,1.521,1.521,0,0,0,1.172.508,2.7,2.7,0,0,0,2.109-.937l1.008,1.25a3.135,3.135,0,0,1-1.375,1.121A4.5,4.5,0,0,1,12.652,24.156Zm.7-6.945a1.565,1.565,0,0,0-1.082.383,3.363,3.363,0,0,0-.848,1.383h3.031l.047-.2a2.071,2.071,0,0,0,.008-.594,1.134,1.134,0,0,0-.383-.707A1.2,1.2,0,0,0,13.355,17.211Z" transform="translate(-4603 -398)" fill="#3c3fa7"/>
    <path id="Trazado_153971" data-name="Trazado 153971" d="M-34.531,0H-36.82l1.969-11.375h2.289Zm2.6.977h-1.734l6.2-12.352h1.742Zm8.656-8.492a2.946,2.946,0,0,1,2.289-1.094,2.143,2.143,0,0,1,1.848.9A3.548,3.548,0,0,1-18.7-5.328L-19.586,0h-2.2l.9-5.358a2.6,2.6,0,0,0,.016-.563.885.885,0,0,0-.984-.868,1.9,1.9,0,0,0-1.562.766L-24.484,0h-2.2l2.078-12H-22.4ZM-13.852.156a3.677,3.677,0,0,1-1.965-.543,3.292,3.292,0,0,1-1.277-1.469,4.093,4.093,0,0,1-.328-2.059l.023-.312a5.465,5.465,0,0,1,.719-2.266,4.341,4.341,0,0,1,1.547-1.59,3.827,3.827,0,0,1,2.094-.527,2.924,2.924,0,0,1,2.473,1.2A4.117,4.117,0,0,1-9.93-4.447l-.125.962h-5.18a1.814,1.814,0,0,0,.4,1.313,1.521,1.521,0,0,0,1.172.508A2.7,2.7,0,0,0-11.555-2.6l1.008,1.25A3.135,3.135,0,0,1-11.922-.23,4.5,4.5,0,0,1-13.852.156Zm.7-6.945a1.565,1.565,0,0,0-1.082.383,3.363,3.363,0,0,0-.848,1.383h3.031l.047-.2a2.071,2.071,0,0,0,.008-.594,1.134,1.134,0,0,0-.383-.707A1.2,1.2,0,0,0-13.148-6.789ZM-8.82.977h-1.734l6.2-12.352h1.742Zm10.2-3.359Q1.5-3.008.508-3.289L-.2-3.469q-2.523-.7-2.453-2.453A2.428,2.428,0,0,1-1.6-7.871,3.942,3.942,0,0,1,.859-8.609a3.536,3.536,0,0,1,2.313.758,2.5,2.5,0,0,1,.9,1.977L1.883-5.883A.963.963,0,0,0,.8-6.984a1.552,1.552,0,0,0-.895.258,1.061,1.061,0,0,0-.465.7q-.117.625.945.883l.313.07a6.285,6.285,0,0,1,1.648.59,2.488,2.488,0,0,1,.879.824,2.04,2.04,0,0,1,.285,1.18A2.251,2.251,0,0,1,3-1.078a3.18,3.18,0,0,1-1.359.93A4.736,4.736,0,0,1-.18.156,3.568,3.568,0,0,1-2.523-.652,2.607,2.607,0,0,1-3.477-2.7l2.078.016A1.142,1.142,0,0,0-.1-1.461a1.845,1.845,0,0,0,1-.25A.987.987,0,0,0,1.375-2.383ZM7.891-7.516A2.946,2.946,0,0,1,10.18-8.609a2.143,2.143,0,0,1,1.848.9,3.548,3.548,0,0,1,.441,2.379L11.578,0h-2.2l.9-5.358a2.6,2.6,0,0,0,.016-.563A.885.885,0,0,0,9.3-6.789a1.9,1.9,0,0,0-1.562.766L6.68,0h-2.2L6.555-12H8.766ZM17.313.156a3.677,3.677,0,0,1-1.965-.543A3.292,3.292,0,0,1,14.07-1.855a4.093,4.093,0,0,1-.328-2.059l.023-.312a5.465,5.465,0,0,1,.719-2.266,4.341,4.341,0,0,1,1.547-1.59,3.827,3.827,0,0,1,2.094-.527,2.924,2.924,0,0,1,2.473,1.2,4.117,4.117,0,0,1,.637,2.962l-.125.962H15.93a1.814,1.814,0,0,0,.4,1.313,1.521,1.521,0,0,0,1.172.508A2.7,2.7,0,0,0,19.609-2.6l1.008,1.25A3.135,3.135,0,0,1,19.242-.23,4.5,4.5,0,0,1,17.313.156Zm.7-6.945a1.565,1.565,0,0,0-1.082.383,3.363,3.363,0,0,0-.848,1.383h3.031l.047-.2a2.071,2.071,0,0,0,.008-.594,1.134,1.134,0,0,0-.383-.707A1.2,1.2,0,0,0,18.016-6.789ZM22.344.977H20.609l6.2-12.352h1.742ZM29.969,0H27.75l1.469-8.453h2.219Zm-.492-10.6a1.1,1.1,0,0,1,.344-.867,1.209,1.209,0,0,1,.867-.344,1.215,1.215,0,0,1,.867.3,1.1,1.1,0,0,1,.383.828,1.132,1.132,0,0,1-.324.844,1.215,1.215,0,0,1-.887.375,1.235,1.235,0,0,1-.863-.3A1.091,1.091,0,0,1,29.477-10.6Zm6.828.07-.367,2.078h1.406L37.055-6.8H35.648L34.93-2.562a1.077,1.077,0,0,0,.063.609q.109.211.531.227.125.008.672-.039L36.039-.039a3.706,3.706,0,0,1-1.266.18,1.985,1.985,0,0,1-1.617-.68,2.456,2.456,0,0,1-.437-1.8L33.445-6.8h-1.2l.289-1.656h1.2l.359-2.078ZM-36.148,20.922l2.008-5.375h2.2L-35.5,24h-1.844l-.625-5.289L-40.437,24h-1.844l-.625-8.453h2.063l.133,5.32,2.414-5.32H-36.7Zm7.867,3.234a3.677,3.677,0,0,1-1.965-.543,3.292,3.292,0,0,1-1.277-1.469,4.093,4.093,0,0,1-.328-2.059l.023-.312a5.465,5.465,0,0,1,.719-2.266,4.341,4.341,0,0,1,1.547-1.59,3.827,3.827,0,0,1,2.094-.527A2.924,2.924,0,0,1-25,16.592a4.117,4.117,0,0,1,.637,2.962l-.125.962h-5.18a1.814,1.814,0,0,0,.4,1.313,1.521,1.521,0,0,0,1.172.508,2.7,2.7,0,0,0,2.109-.937l1.008,1.25a3.135,3.135,0,0,1-1.375,1.121A4.5,4.5,0,0,1-28.281,24.156Zm.7-6.945a1.565,1.565,0,0,0-1.082.383,3.363,3.363,0,0,0-.848,1.383h3.031l.047-.2a2.071,2.071,0,0,0,.008-.594,1.134,1.134,0,0,0-.383-.707A1.2,1.2,0,0,0-27.578,17.211Zm4.328,7.766h-1.734l6.2-12.352h1.742Zm8.883-4.2,2.414-5.234H-9.5l-4.945,9.727a4.231,4.231,0,0,1-1.246,1.641,2.723,2.723,0,0,1-1.652.523,5.035,5.035,0,0,1-1.062-.164l.164-1.719.3.016a1.651,1.651,0,0,0,1.578-.789l.484-.9-1.383-8.336h2.281Zm9.117-5.391a3.39,3.39,0,0,1,1.926.574A3.234,3.234,0,0,1-2.137,17.5a4.762,4.762,0,0,1,.27,2.176,5.143,5.143,0,0,1-1.4,3.262,3.96,3.96,0,0,1-3.02,1.215A3.38,3.38,0,0,1-8.2,23.59a3.222,3.222,0,0,1-1.187-1.527,4.657,4.657,0,0,1-.273-2.156,5.3,5.3,0,0,1,1.422-3.328A3.878,3.878,0,0,1-5.25,15.391Zm-2.227,5.315a1.95,1.95,0,0,0,.352,1.182,1.168,1.168,0,0,0,.945.449A1.712,1.712,0,0,0-4.586,21.4a4.647,4.647,0,0,0,.539-2.531,2.122,2.122,0,0,0-.363-1.2,1.149,1.149,0,0,0-.949-.464,1.715,1.715,0,0,0-1.574.924A4.6,4.6,0,0,0-7.477,20.706ZM4,23.125a2.919,2.919,0,0,1-2.328,1.031,2.172,2.172,0,0,1-1.844-.875,3.2,3.2,0,0,1-.484-2.266l.914-5.469h2.2l-.93,5.5a2.175,2.175,0,0,0-.008.485.8.8,0,0,0,.867.806,2.014,2.014,0,0,0,1.7-.79l1.055-6H7.359L5.891,24H3.836Zm4.109,1.852H6.375l6.2-12.352H14.32Zm9.766-11.508-.367,2.078h1.406L18.625,17.2H17.219L16.5,21.438a1.077,1.077,0,0,0,.063.609q.109.211.531.227.125.008.672-.039l-.156,1.727a3.706,3.706,0,0,1-1.266.18,1.985,1.985,0,0,1-1.617-.68,2.456,2.456,0,0,1-.437-1.8l.727-4.461h-1.2l.289-1.656h1.2l.359-2.078Zm4.211,3.016a2.946,2.946,0,0,1,2.289-1.094,2.143,2.143,0,0,1,1.848.9,3.548,3.548,0,0,1,.441,2.379L25.773,24h-2.2l.9-5.358a2.6,2.6,0,0,0,.016-.563.885.885,0,0,0-.984-.868,1.9,1.9,0,0,0-1.562.766L20.875,24h-2.2L20.75,12h2.211Zm9.422,7.672a3.677,3.677,0,0,1-1.965-.543,3.292,3.292,0,0,1-1.277-1.469,4.093,4.093,0,0,1-.328-2.059l.023-.312a5.465,5.465,0,0,1,.719-2.266,4.341,4.341,0,0,1,1.547-1.59,3.827,3.827,0,0,1,2.094-.527,2.924,2.924,0,0,1,2.473,1.2,4.117,4.117,0,0,1,.637,2.962l-.125.962h-5.18a1.814,1.814,0,0,0,.4,1.313,1.521,1.521,0,0,0,1.172.508A2.7,2.7,0,0,0,33.8,21.4l1.008,1.25a3.135,3.135,0,0,1-1.375,1.121A4.5,4.5,0,0,1,31.508,24.156Zm.7-6.945a1.565,1.565,0,0,0-1.082.383,3.363,3.363,0,0,0-.848,1.383h3.031l.047-.2a2.071,2.071,0,0,0,.008-.594,1.134,1.134,0,0,0-.383-.707A1.2,1.2,0,0,0,32.211,17.211Zm7.336,3.57,2.414-5.234h2.453l-4.945,9.727a4.231,4.231,0,0,1-1.246,1.641,2.723,2.723,0,0,1-1.652.523,5.035,5.035,0,0,1-1.062-.164l.164-1.719.3.016a1.651,1.651,0,0,0,1.578-.789l.484-.9-1.383-8.336h2.281Z" transform="translate(-4603 -184)" fill="#3c3fa7"/>
    <path id="Trazado_153984" data-name="Trazado 153984" d="M0,0H61" transform="translate(-4633.5 -391.5)" fill="none" stroke="#3c3fa7" stroke-linecap="round" stroke-width="2"/>
    <path id="Trazado_153988" data-name="Trazado 153988" d="M0,0H131" transform="translate(-4668 -177.5)" fill="none" stroke="#3c3fa7" stroke-linecap="round" stroke-width="2"/>
    <path id="Trazado_153980" data-name="Trazado 153980" d="M10,0H213a10,10,0,0,1,10,10V46a10,10,0,0,1-10,10H10A10,10,0,0,1,0,46V10A10,10,0,0,1,10,0Z" transform="translate(-4712 -714)" fill="#6b8dff"/>
    <path id="Trazado_153976" data-name="Trazado 153976" d="M42.02,13.7l2.742-8.07H47.1L42.871,17h-2.3l-.6-7.578L36.988,17h-2.3L34.012,5.625h2.234l.227,8.031,3.063-8.031H41.48ZM55.5,17H53.207l.844-4.875H49.637L48.785,17H46.5L48.473,5.625h2.289l-.8,4.609h4.422l.8-4.609h2.289Zm6.867-3.961H58.082l.313-1.82h4.289Zm12.711.883,2.008-5.375h2.2L75.723,17H73.879l-.625-5.289L70.785,17H68.941l-.625-8.453h2.063l.133,5.32,2.414-5.32H74.52Zm8.688-5.531a3.39,3.39,0,0,1,1.926.574A3.234,3.234,0,0,1,86.875,10.5a4.762,4.762,0,0,1,.27,2.176,5.143,5.143,0,0,1-1.4,3.262,3.96,3.96,0,0,1-3.02,1.215,3.38,3.38,0,0,1-1.906-.566,3.222,3.222,0,0,1-1.187-1.527,4.657,4.657,0,0,1-.273-2.156,5.3,5.3,0,0,1,1.422-3.328A3.878,3.878,0,0,1,83.762,8.391Zm-2.227,5.315a1.95,1.95,0,0,0,.352,1.182,1.168,1.168,0,0,0,.945.449,1.712,1.712,0,0,0,1.594-.932,4.647,4.647,0,0,0,.539-2.531,2.122,2.122,0,0,0-.363-1.2,1.149,1.149,0,0,0-.949-.464,1.715,1.715,0,0,0-1.574.924A4.6,4.6,0,0,0,81.535,13.706Zm12.031-3.042a4.548,4.548,0,0,0-.742-.078,2.136,2.136,0,0,0-1.867.883L89.98,17h-2.2l1.469-8.453,2.07-.008-.2,1.031a2.325,2.325,0,0,1,1.969-1.2,3.214,3.214,0,0,1,.766.109Zm4.148-2.281a2.4,2.4,0,0,1,1.906.945L100.449,5h2.211l-2.078,12H98.613l.125-.906a2.736,2.736,0,0,1-2.2,1.07,2.433,2.433,0,0,1-1.383-.414,2.607,2.607,0,0,1-.918-1.168,4.7,4.7,0,0,1-.355-1.7,6.4,6.4,0,0,1,.023-.953l.047-.352a6.767,6.767,0,0,1,.723-2.281,3.766,3.766,0,0,1,1.313-1.461A3.094,3.094,0,0,1,97.715,8.383Zm-1.6,4.547a6.327,6.327,0,0,0-.039,1q.078,1.375,1.109,1.4a1.885,1.885,0,0,0,1.617-.875l.6-3.359a1.248,1.248,0,0,0-1.219-.875,1.606,1.606,0,0,0-1.34.621A4.176,4.176,0,0,0,96.113,12.93ZM7.672,32.547V37h-1.5V25.625h4.2a4.215,4.215,0,0,1,2.926.953A3.231,3.231,0,0,1,14.352,29.1a3.189,3.189,0,0,1-1.035,2.551,4.4,4.4,0,0,1-2.965.895Zm0-1.227h2.7a2.7,2.7,0,0,0,1.844-.567,2.075,2.075,0,0,0,.641-1.64,2.143,2.143,0,0,0-.641-1.628,2.525,2.525,0,0,0-1.758-.634H7.672ZM21.172,37a3.036,3.036,0,0,1-.2-.891,3.225,3.225,0,0,1-2.406,1.047,2.984,2.984,0,0,1-2.051-.707,2.287,2.287,0,0,1-.8-1.793,2.39,2.39,0,0,1,1-2.051,4.733,4.733,0,0,1,2.824-.73h1.406v-.664A1.623,1.623,0,0,0,20.492,30a1.821,1.821,0,0,0-1.336-.449,2.108,2.108,0,0,0-1.3.391,1.151,1.151,0,0,0-.523.945H15.883a2,2,0,0,1,.449-1.223,3.066,3.066,0,0,1,1.219-.934,4.1,4.1,0,0,1,1.691-.344,3.342,3.342,0,0,1,2.289.73,2.635,2.635,0,0,1,.859,2.012v3.891a4.757,4.757,0,0,0,.3,1.852V37Zm-2.4-1.1a2.54,2.54,0,0,0,1.289-.352,2.127,2.127,0,0,0,.883-.914V32.9H19.813q-2.656,0-2.656,1.555a1.316,1.316,0,0,0,.453,1.063A1.742,1.742,0,0,0,18.773,35.9ZM26.227,37H24.781V25h1.445Zm7.531,0a3.036,3.036,0,0,1-.2-.891,3.225,3.225,0,0,1-2.406,1.047,2.984,2.984,0,0,1-2.051-.707,2.287,2.287,0,0,1-.8-1.793,2.39,2.39,0,0,1,1-2.051,4.733,4.733,0,0,1,2.824-.73h1.406v-.664A1.623,1.623,0,0,0,33.078,30a1.821,1.821,0,0,0-1.336-.449,2.108,2.108,0,0,0-1.3.391,1.151,1.151,0,0,0-.523.945H28.469a2,2,0,0,1,.449-1.223,3.066,3.066,0,0,1,1.219-.934,4.1,4.1,0,0,1,1.691-.344,3.342,3.342,0,0,1,2.289.73,2.635,2.635,0,0,1,.859,2.012v3.891a4.757,4.757,0,0,0,.3,1.852V37Zm-2.4-1.1a2.54,2.54,0,0,0,1.289-.352,2.127,2.127,0,0,0,.883-.914V32.9H32.4q-2.656,0-2.656,1.555a1.316,1.316,0,0,0,.453,1.063A1.742,1.742,0,0,0,31.359,35.9ZM44.4,32.867a5.026,5.026,0,0,1-.891,3.113,2.846,2.846,0,0,1-2.391,1.176,2.947,2.947,0,0,1-2.477-1.133L38.57,37H37.242V25h1.445v4.477A2.93,2.93,0,0,1,41.1,28.391a2.863,2.863,0,0,1,2.418,1.164,5.177,5.177,0,0,1,.879,3.188ZM42.953,32.7a3.906,3.906,0,0,0-.57-2.281,1.888,1.888,0,0,0-1.641-.8,2.122,2.122,0,0,0-2.055,1.328V34.6a2.181,2.181,0,0,0,2.07,1.328,1.878,1.878,0,0,0,1.617-.8A4.153,4.153,0,0,0,42.953,32.7ZM50.3,29.844a4.331,4.331,0,0,0-.711-.055A1.9,1.9,0,0,0,47.664,31v6H46.219V28.547h1.406l.023.977a2.251,2.251,0,0,1,2.016-1.133,1.477,1.477,0,0,1,.641.109ZM56.539,37a3.036,3.036,0,0,1-.2-.891,3.225,3.225,0,0,1-2.406,1.047,2.984,2.984,0,0,1-2.051-.707,2.287,2.287,0,0,1-.8-1.793,2.39,2.39,0,0,1,1-2.051,4.733,4.733,0,0,1,2.824-.73h1.406v-.664A1.623,1.623,0,0,0,55.859,30a1.821,1.821,0,0,0-1.336-.449,2.107,2.107,0,0,0-1.3.391,1.151,1.151,0,0,0-.523.945H51.25a2,2,0,0,1,.449-1.223,3.066,3.066,0,0,1,1.219-.934,4.1,4.1,0,0,1,1.691-.344,3.342,3.342,0,0,1,2.289.73,2.635,2.635,0,0,1,.859,2.012v3.891a4.757,4.757,0,0,0,.3,1.852V37Zm-2.4-1.1a2.54,2.54,0,0,0,1.289-.352,2.127,2.127,0,0,0,.883-.914V32.9H55.18q-2.656,0-2.656,1.555a1.316,1.316,0,0,0,.453,1.063A1.742,1.742,0,0,0,54.141,35.9Zm13.234.078a2.082,2.082,0,0,0,1.352-.469,1.649,1.649,0,0,0,.641-1.172h1.367a2.621,2.621,0,0,1-.5,1.383A3.293,3.293,0,0,1,69,36.766a3.55,3.55,0,0,1-1.629.391A3.482,3.482,0,0,1,64.629,36a4.59,4.59,0,0,1-1.02-3.152v-.242a5.089,5.089,0,0,1,.453-2.2,3.451,3.451,0,0,1,1.3-1.492,3.7,3.7,0,0,1,2-.531,3.39,3.39,0,0,1,2.363.852,3.043,3.043,0,0,1,1,2.211H69.367a1.992,1.992,0,0,0-.621-1.348,1.932,1.932,0,0,0-1.379-.527,2.023,2.023,0,0,0-1.707.793,3.724,3.724,0,0,0-.605,2.293v.273a3.65,3.65,0,0,0,.6,2.25A2.033,2.033,0,0,0,67.375,35.977Zm4.6-3.281a4.993,4.993,0,0,1,.488-2.234,3.643,3.643,0,0,1,1.359-1.531,3.7,3.7,0,0,1,1.988-.539,3.565,3.565,0,0,1,2.793,1.2,4.6,4.6,0,0,1,1.066,3.18v.1a5.036,5.036,0,0,1-.473,2.215,3.589,3.589,0,0,1-1.352,1.527,3.743,3.743,0,0,1-2.02.547,3.556,3.556,0,0,1-2.785-1.2A4.575,4.575,0,0,1,71.977,32.8Zm1.453.172a3.616,3.616,0,0,0,.652,2.258,2.211,2.211,0,0,0,3.5-.012,3.955,3.955,0,0,0,.648-2.418,3.61,3.61,0,0,0-.66-2.254,2.1,2.1,0,0,0-1.754-.863,2.075,2.075,0,0,0-1.727.852A3.925,3.925,0,0,0,73.43,32.867Zm9.422-4.32.047,1.063a3.08,3.08,0,0,1,2.531-1.219q2.68,0,2.7,3.023V37H86.688V31.406a1.946,1.946,0,0,0-.418-1.352,1.675,1.675,0,0,0-1.277-.437,2.086,2.086,0,0,0-1.234.375,2.546,2.546,0,0,0-.828.984V37H81.484V28.547Zm12.5-3.7.828.563a3.685,3.685,0,0,0-.75,2.141v1.063H93.992v-.906a3.584,3.584,0,0,1,.379-1.578A3.783,3.783,0,0,1,95.352,24.852Zm2.461,0,.828.563a3.685,3.685,0,0,0-.75,2.141v1.063H96.453v-.906a3.584,3.584,0,0,1,.379-1.578A3.783,3.783,0,0,1,97.813,24.852Zm4.8,8.563.219,1.5.32-1.352,2.25-7.937h1.266l2.2,7.938.313,1.375.242-1.531,1.766-7.781h1.508L109.93,37h-1.367l-2.344-8.289-.18-.867-.18.867L103.43,37h-1.367l-2.75-11.375h1.5ZM123.094,37h-1.508V31.742h-5.734V37h-1.5V25.625h1.5v4.891h5.734V25.625h1.508Zm2.633-8.172-.82-.562a3.761,3.761,0,0,0,.75-2.141V25h1.43v1.016a3.86,3.86,0,0,1-1.359,2.813Zm2.4,0-.82-.562a3.761,3.761,0,0,0,.75-2.141V25h1.43v1.016a3.86,3.86,0,0,1-1.359,2.813Z" transform="translate(-4668 -705)" fill="#12263f"/>
    <path id="Trazado_153983" data-name="Trazado 153983" d="M10,0H218a10,10,0,0,1,10,10V46a10,10,0,0,1-10,10H10A10,10,0,0,1,0,46V10A10,10,0,0,1,10,0Z" transform="translate(-4715 -499)" fill="#ff5f65"/>
    <path id="Trazado_153974" data-name="Trazado 153974" d="M17.711,14.156l3.828-8.531h2.625L18.547,17H16.156L14.109,5.625H16.57Zm9.531,3a3.677,3.677,0,0,1-1.965-.543A3.292,3.292,0,0,1,24,15.145a4.093,4.093,0,0,1-.328-2.059l.023-.312a5.465,5.465,0,0,1,.719-2.266,4.341,4.341,0,0,1,1.547-1.59,3.827,3.827,0,0,1,2.094-.527,2.924,2.924,0,0,1,2.473,1.2,4.117,4.117,0,0,1,.637,2.962l-.125.962h-5.18a1.814,1.814,0,0,0,.4,1.313,1.521,1.521,0,0,0,1.172.508,2.7,2.7,0,0,0,2.109-.937l1.008,1.25a3.135,3.135,0,0,1-1.375,1.121A4.5,4.5,0,0,1,27.242,17.156Zm.7-6.945a1.565,1.565,0,0,0-1.082.383,3.363,3.363,0,0,0-.848,1.383h3.031l.047-.2a2.071,2.071,0,0,0,.008-.594,1.134,1.134,0,0,0-.383-.707A1.2,1.2,0,0,0,27.945,10.211Zm9.539.453a4.548,4.548,0,0,0-.742-.078,2.136,2.136,0,0,0-1.867.883L33.9,17H31.7l1.469-8.453,2.07-.008-.2,1.031A2.325,2.325,0,0,1,37,8.375a3.214,3.214,0,0,1,.766.109ZM45.563,12.8A6.061,6.061,0,0,1,44.344,16,3.033,3.033,0,0,1,41.8,17.164a2.357,2.357,0,0,1-2.031-1.078l-.32.914H37.438L39.516,5h2.211l-.852,4.32a2.634,2.634,0,0,1,2.063-.93,2.385,2.385,0,0,1,1.926.879,3.89,3.89,0,0,1,.746,2.387A9.132,9.132,0,0,1,45.563,12.8Zm-2.187-.165a6.554,6.554,0,0,0,.047-1.034q-.086-1.364-1.125-1.387a1.833,1.833,0,0,0-1.617.885l-.609,3.37a1.258,1.258,0,0,0,1.266.878q1.625.047,1.992-2.367Zm10.2-7.9,1.047.641a10.708,10.708,0,0,0-.641,1.074,4.383,4.383,0,0,0-.406,1.184l-.2,1.18h-1.75l.156-1.031A4.779,4.779,0,0,1,53.578,4.734Zm2.594,0,1.047.641a10.708,10.708,0,0,0-.641,1.074,4.383,4.383,0,0,0-.406,1.184l-.2,1.18h-1.75l.156-1.031A4.779,4.779,0,0,1,56.172,4.734Zm4.867,1.734-.367,2.078h1.406L61.789,10.2H60.383l-.719,4.234a1.077,1.077,0,0,0,.063.609q.109.211.531.227.125.008.672-.039l-.156,1.727a3.706,3.706,0,0,1-1.266.18,1.985,1.985,0,0,1-1.617-.68,2.456,2.456,0,0,1-.437-1.8L58.18,10.2h-1.2l.289-1.656h1.2l.359-2.078Zm5.453,1.922a3.39,3.39,0,0,1,1.926.574A3.234,3.234,0,0,1,69.605,10.5a4.762,4.762,0,0,1,.27,2.176,5.143,5.143,0,0,1-1.4,3.262,3.96,3.96,0,0,1-3.02,1.215,3.38,3.38,0,0,1-1.906-.566,3.222,3.222,0,0,1-1.187-1.527,4.657,4.657,0,0,1-.273-2.156,5.3,5.3,0,0,1,1.422-3.328A3.878,3.878,0,0,1,66.492,8.391Zm-2.227,5.315a1.95,1.95,0,0,0,.352,1.182,1.168,1.168,0,0,0,.945.449,1.712,1.712,0,0,0,1.594-.932,4.647,4.647,0,0,0,.539-2.531,2.122,2.122,0,0,0-.363-1.2,1.149,1.149,0,0,0-.949-.464,1.715,1.715,0,0,0-1.574.924A4.6,4.6,0,0,0,64.266,13.706ZM82.578,12.8A6.061,6.061,0,0,1,81.359,16a3.033,3.033,0,0,1-2.547,1.164,2.357,2.357,0,0,1-2.031-1.078l-.32.914H74.453L76.531,5h2.211l-.852,4.32a2.634,2.634,0,0,1,2.063-.93,2.385,2.385,0,0,1,1.926.879,3.89,3.89,0,0,1,.746,2.387A9.133,9.133,0,0,1,82.578,12.8Zm-2.187-.165a6.554,6.554,0,0,0,.047-1.034q-.086-1.364-1.125-1.387A1.833,1.833,0,0,0,77.7,11.1l-.609,3.37a1.258,1.258,0,0,0,1.266.878q1.625.047,1.992-2.367Zm6.891,4.524a3.677,3.677,0,0,1-1.965-.543,3.292,3.292,0,0,1-1.277-1.469,4.093,4.093,0,0,1-.328-2.059l.023-.312a5.465,5.465,0,0,1,.719-2.266A4.341,4.341,0,0,1,86,8.918a3.827,3.827,0,0,1,2.094-.527,2.924,2.924,0,0,1,2.473,1.2,4.117,4.117,0,0,1,.637,2.962l-.125.962H85.9a1.814,1.814,0,0,0,.4,1.313,1.521,1.521,0,0,0,1.172.508,2.7,2.7,0,0,0,2.109-.937l1.008,1.25a3.135,3.135,0,0,1-1.375,1.121A4.5,4.5,0,0,1,87.281,17.156Zm.7-6.945a1.565,1.565,0,0,0-1.082.383,3.363,3.363,0,0,0-.848,1.383h3.031l.047-.2a2.071,2.071,0,0,0,.008-.594,1.134,1.134,0,0,0-.383-.707A1.2,1.2,0,0,0,87.984,10.211Zm5.953-1.078L92.82,8.477a6.183,6.183,0,0,0,1.008-2.031L94.086,5h1.758l-.18,1.156A4.806,4.806,0,0,1,93.938,9.133Zm2.625,0-1.117-.656a6.183,6.183,0,0,0,1.008-2.031L96.711,5h1.758l-.18,1.156A4.806,4.806,0,0,1,96.563,9.133ZM14.086,35.008l3.25-9.383h1.641L14.758,37H13.43L9.219,25.625h1.633Zm9.7,2.148a3.693,3.693,0,0,1-2.8-1.129,4.19,4.19,0,0,1-1.078-3.02v-.266a5.073,5.073,0,0,1,.48-2.246,3.748,3.748,0,0,1,1.344-1.547,3.378,3.378,0,0,1,1.871-.559,3.166,3.166,0,0,1,2.563,1.086,4.7,4.7,0,0,1,.914,3.109v.6H21.352a3,3,0,0,0,.73,2.02,2.3,2.3,0,0,0,1.777.77,2.517,2.517,0,0,0,1.3-.312,3.259,3.259,0,0,0,.93-.828l.883.688A3.55,3.55,0,0,1,23.781,37.156Zm-.18-7.578a1.928,1.928,0,0,0-1.469.637A3.1,3.1,0,0,0,21.4,32h4.234v-.109a2.753,2.753,0,0,0-.594-1.707A1.815,1.815,0,0,0,23.6,29.578Zm9.234.266a4.331,4.331,0,0,0-.711-.055A1.9,1.9,0,0,0,30.2,31v6H28.75V28.547h1.406l.023.977A2.251,2.251,0,0,1,32.2,28.391a1.477,1.477,0,0,1,.641.109Zm8.484,3.023a5.026,5.026,0,0,1-.891,3.113,2.846,2.846,0,0,1-2.391,1.176,2.947,2.947,0,0,1-2.477-1.133l-.07.977H34.164V25h1.445v4.477a2.93,2.93,0,0,1,2.414-1.086,2.863,2.863,0,0,1,2.418,1.164,5.177,5.177,0,0,1,.879,3.188ZM39.875,32.7a3.906,3.906,0,0,0-.57-2.281,1.888,1.888,0,0,0-1.641-.8,2.122,2.122,0,0,0-2.055,1.328V34.6a2.181,2.181,0,0,0,2.07,1.328,1.878,1.878,0,0,0,1.617-.8A4.153,4.153,0,0,0,39.875,32.7Zm2.883-.008a4.993,4.993,0,0,1,.488-2.234,3.643,3.643,0,0,1,1.359-1.531,3.7,3.7,0,0,1,1.988-.539,3.565,3.565,0,0,1,2.793,1.2,4.6,4.6,0,0,1,1.066,3.18v.1a5.036,5.036,0,0,1-.473,2.215,3.589,3.589,0,0,1-1.352,1.527,3.743,3.743,0,0,1-2.02.547,3.556,3.556,0,0,1-2.785-1.2A4.575,4.575,0,0,1,42.758,32.8Zm1.453.172a3.616,3.616,0,0,0,.652,2.258,2.211,2.211,0,0,0,3.5-.012,3.955,3.955,0,0,0,.648-2.418,3.61,3.61,0,0,0-.66-2.254,2.1,2.1,0,0,0-1.754-.863,2.075,2.075,0,0,0-1.727.852A3.925,3.925,0,0,0,44.211,32.867ZM57.3,24.852l.828.563a3.685,3.685,0,0,0-.75,2.141v1.063H55.945v-.906a3.584,3.584,0,0,1,.379-1.578A3.783,3.783,0,0,1,57.3,24.852Zm2.461,0,.828.563a3.685,3.685,0,0,0-.75,2.141v1.063H58.406v-.906a3.584,3.584,0,0,1,.379-1.578A3.783,3.783,0,0,1,59.766,24.852ZM63.844,26.5v2.047h1.578v1.117H63.844v5.249a1.173,1.173,0,0,0,.211.763.888.888,0,0,0,.719.254,3.5,3.5,0,0,0,.688-.094V37a4.215,4.215,0,0,1-1.109.155,1.8,1.8,0,0,1-1.461-.586,2.517,2.517,0,0,1-.492-1.664V29.664H60.859V28.547H62.4V26.5Zm2.727,6.2a4.993,4.993,0,0,1,.488-2.234,3.643,3.643,0,0,1,1.359-1.531,3.7,3.7,0,0,1,1.988-.539,3.565,3.565,0,0,1,2.793,1.2,4.6,4.6,0,0,1,1.066,3.18v.1a5.036,5.036,0,0,1-.473,2.215,3.589,3.589,0,0,1-1.352,1.527,3.743,3.743,0,0,1-2.02.547,3.556,3.556,0,0,1-2.785-1.2A4.575,4.575,0,0,1,66.57,32.8Zm1.453.172a3.616,3.616,0,0,0,.652,2.258,2.211,2.211,0,0,0,3.5-.012A3.955,3.955,0,0,0,72.82,32.7a3.61,3.61,0,0,0-.66-2.254,2.1,2.1,0,0,0-1.754-.863,2.075,2.075,0,0,0-1.727.852A3.925,3.925,0,0,0,68.023,32.867Zm19.172,0A5.026,5.026,0,0,1,86.3,35.98a2.846,2.846,0,0,1-2.391,1.176,2.947,2.947,0,0,1-2.477-1.133l-.07.977H80.039V25h1.445v4.477A2.93,2.93,0,0,1,83.9,28.391a2.863,2.863,0,0,1,2.418,1.164,5.177,5.177,0,0,1,.879,3.188ZM85.75,32.7a3.906,3.906,0,0,0-.57-2.281,1.888,1.888,0,0,0-1.641-.8,2.122,2.122,0,0,0-2.055,1.328V34.6a2.181,2.181,0,0,0,2.07,1.328,1.878,1.878,0,0,0,1.617-.8A4.153,4.153,0,0,0,85.75,32.7Zm6.773,4.453a3.693,3.693,0,0,1-2.8-1.129,4.19,4.19,0,0,1-1.078-3.02v-.266a5.073,5.073,0,0,1,.48-2.246,3.748,3.748,0,0,1,1.344-1.547,3.378,3.378,0,0,1,1.871-.559,3.166,3.166,0,0,1,2.563,1.086,4.7,4.7,0,0,1,.914,3.109v.6H90.094a3,3,0,0,0,.73,2.02,2.3,2.3,0,0,0,1.777.77,2.517,2.517,0,0,0,1.3-.312,3.259,3.259,0,0,0,.93-.828l.883.688A3.55,3.55,0,0,1,92.523,37.156Zm-.18-7.578a1.928,1.928,0,0,0-1.469.637A3.1,3.1,0,0,0,90.141,32h4.234v-.109a2.753,2.753,0,0,0-.594-1.707A1.815,1.815,0,0,0,92.344,29.578Zm5.234-.75-.82-.562a3.761,3.761,0,0,0,.75-2.141V25h1.43v1.016a3.86,3.86,0,0,1-1.359,2.813Zm2.4,0-.82-.562a3.761,3.761,0,0,0,.75-2.141V25h1.43v1.016a3.86,3.86,0,0,1-1.359,2.813Z" transform="translate(-4656 -492)" fill="#12263f"/>
    <path id="Trazado_153987" data-name="Trazado 153987" d="M10,0H215a10,10,0,0,1,10,10V46a10,10,0,0,1-10,10H10A10,10,0,0,1,0,46V10A10,10,0,0,1,10,0Z" transform="translate(-4713 -285)" fill="#6b8dff"/>
    <path id="Trazado_153972" data-name="Trazado 153972" d="M8.289,13.961q.164-.93-.914-1.422l-1.508-.6Q3.242,10.766,3.375,8.711A2.964,2.964,0,0,1,4,7.023,3.758,3.758,0,0,1,5.6,5.871a5.67,5.67,0,0,1,2.227-.4,3.857,3.857,0,0,1,2.664.98,3.267,3.267,0,0,1,1,2.543H9.211a1.628,1.628,0,0,0-.34-1.2A1.531,1.531,0,0,0,7.7,7.344,2.37,2.37,0,0,0,6.336,7.7a1.458,1.458,0,0,0-.687,1.02Q5.5,9.57,6.789,10.07l1.031.391.594.273q2.3,1.141,2.156,3.2a3.09,3.09,0,0,1-.645,1.738A3.633,3.633,0,0,1,8.363,16.8a5.565,5.565,0,0,1-2.176.367,4.873,4.873,0,0,1-2.156-.508,3.349,3.349,0,0,1-1.437-1.367,3.54,3.54,0,0,1-.43-1.875l2.289.008q-.109,1.852,1.82,1.883a2.392,2.392,0,0,0,1.375-.367A1.43,1.43,0,0,0,8.289,13.961Zm8.453,2.164a2.919,2.919,0,0,1-2.328,1.031,2.172,2.172,0,0,1-1.844-.875,3.2,3.2,0,0,1-.484-2.266L13,8.547h2.2l-.93,5.5a2.175,2.175,0,0,0-.008.485.8.8,0,0,0,.867.806,2.014,2.014,0,0,0,1.7-.79l1.055-6H20.1L18.633,17H16.578ZM28.4,12.8A6.061,6.061,0,0,1,27.18,16a3.033,3.033,0,0,1-2.547,1.164A2.357,2.357,0,0,1,22.6,16.086l-.32.914H20.273L22.352,5h2.211l-.852,4.32a2.634,2.634,0,0,1,2.063-.93A2.385,2.385,0,0,1,27.7,9.27a3.89,3.89,0,0,1,.746,2.387A9.133,9.133,0,0,1,28.4,12.8Zm-2.187-.165a6.554,6.554,0,0,0,.047-1.034q-.086-1.364-1.125-1.387a1.833,1.833,0,0,0-1.617.885l-.609,3.37a1.258,1.258,0,0,0,1.266.878q1.625.047,1.992-2.367Zm6.68-4.085-1.516,8.914a3.516,3.516,0,0,1-1.02,2.2,2.984,2.984,0,0,1-2.168.773,6.8,6.8,0,0,1-1.172-.148l.18-1.8a4.309,4.309,0,0,0,.68.1,1.2,1.2,0,0,0,1.266-1.125l1.531-8.922ZM30.883,6.4a1.1,1.1,0,0,1,.328-.855,1.328,1.328,0,0,1,1.77-.035,1.108,1.108,0,0,1,.363.813,1.113,1.113,0,0,1-.328.863,1.257,1.257,0,0,1-.883.355,1.235,1.235,0,0,1-.863-.3A1.091,1.091,0,0,1,30.883,6.4Zm6.328,10.758a3.677,3.677,0,0,1-1.965-.543,3.292,3.292,0,0,1-1.277-1.469,4.093,4.093,0,0,1-.328-2.059l.023-.312a5.465,5.465,0,0,1,.719-2.266,4.341,4.341,0,0,1,1.547-1.59,3.827,3.827,0,0,1,2.094-.527,2.924,2.924,0,0,1,2.473,1.2,4.117,4.117,0,0,1,.637,2.962l-.125.962h-5.18a1.814,1.814,0,0,0,.4,1.313,1.521,1.521,0,0,0,1.172.508,2.7,2.7,0,0,0,2.109-.937l1.008,1.25a3.135,3.135,0,0,1-1.375,1.121A4.5,4.5,0,0,1,37.211,17.156Zm.7-6.945a1.565,1.565,0,0,0-1.082.383,3.363,3.363,0,0,0-.848,1.383h3.031l.047-.2a2.071,2.071,0,0,0,.008-.594,1.134,1.134,0,0,0-.383-.707A1.2,1.2,0,0,0,37.914,10.211Zm7.453,5.133a1.447,1.447,0,0,0,1.016-.332,1.632,1.632,0,0,0,.531-.926l2.07-.008a3.037,3.037,0,0,1-.559,1.6,3.394,3.394,0,0,1-1.344,1.109,3.847,3.847,0,0,1-1.77.375A3.123,3.123,0,0,1,42.875,16.1a3.965,3.965,0,0,1-.867-2.766l.023-.43.008-.086a5.284,5.284,0,0,1,1.391-3.27,3.761,3.761,0,0,1,2.914-1.16,3.047,3.047,0,0,1,2.27.934,3.3,3.3,0,0,1,.824,2.379H47.383a1.73,1.73,0,0,0-.3-1.07,1.128,1.128,0,0,0-.891-.422q-1.578-.047-1.914,2.3a7.782,7.782,0,0,0-.086,1.438Q44.273,15.32,45.367,15.344ZM54.3,6.469l-.367,2.078h1.406L55.055,10.2H53.648l-.719,4.234a1.077,1.077,0,0,0,.063.609q.109.211.531.227.125.008.672-.039l-.156,1.727a3.706,3.706,0,0,1-1.266.18,1.985,1.985,0,0,1-1.617-.68,2.456,2.456,0,0,1-.437-1.8l.727-4.461h-1.2l.289-1.656h1.2l.359-2.078ZM10.77,31.93a7.053,7.053,0,0,1-2.809-1.363,2.6,2.6,0,0,1-.879-2,2.751,2.751,0,0,1,1.074-2.223,4.269,4.269,0,0,1,2.793-.879,4.66,4.66,0,0,1,2.09.453,3.436,3.436,0,0,1,1.422,1.25,3.2,3.2,0,0,1,.5,1.742H13.457a2.08,2.08,0,0,0-.656-1.627,2.669,2.669,0,0,0-1.852-.592,2.732,2.732,0,0,0-1.73.489A1.632,1.632,0,0,0,8.6,28.542a1.468,1.468,0,0,0,.59,1.178,5.785,5.785,0,0,0,2.008.88,9.316,9.316,0,0,1,2.219.88A3.367,3.367,0,0,1,14.6,32.6a2.861,2.861,0,0,1,.387,1.508,2.658,2.658,0,0,1-1.078,2.215,4.6,4.6,0,0,1-2.883.832,5.347,5.347,0,0,1-2.187-.449,3.681,3.681,0,0,1-1.566-1.23A3,3,0,0,1,6.723,33.7H8.23a1.959,1.959,0,0,0,.762,1.629,3.207,3.207,0,0,0,2.035.6,2.948,2.948,0,0,0,1.82-.484,1.573,1.573,0,0,0,.633-1.32,1.545,1.545,0,0,0-.586-1.293A6.755,6.755,0,0,0,10.77,31.93ZM21.9,36.164a3.07,3.07,0,0,1-2.477.992,2.628,2.628,0,0,1-2.059-.785,3.4,3.4,0,0,1-.715-2.324v-5.5H18.1v5.461q0,1.922,1.563,1.922a2.163,2.163,0,0,0,2.2-1.234V28.547h1.445V37H21.934ZM27,28.547v9.43q0,2.438-2.211,2.438a2.7,2.7,0,0,1-.883-.14V39.125a2.794,2.794,0,0,0,.656.063.982.982,0,0,0,.738-.262,1.3,1.3,0,0,0,.254-.911V28.547ZM25.4,26.3a.867.867,0,0,1,.215-.59.79.79,0,0,1,.629-.246.819.819,0,0,1,.641.242.854.854,0,0,1,.219.594.826.826,0,0,1-.219.586.834.834,0,0,1-.641.234.808.808,0,0,1-.633-.234A.843.843,0,0,1,25.4,26.3Zm7.43,10.852a3.693,3.693,0,0,1-2.8-1.129,4.19,4.19,0,0,1-1.078-3.02v-.266a5.073,5.073,0,0,1,.48-2.246,3.748,3.748,0,0,1,1.344-1.547,3.378,3.378,0,0,1,1.871-.559,3.166,3.166,0,0,1,2.563,1.086,4.7,4.7,0,0,1,.914,3.109v.6H30.4a3,3,0,0,0,.73,2.02,2.3,2.3,0,0,0,1.777.77,2.517,2.517,0,0,0,1.3-.312,3.258,3.258,0,0,0,.93-.828l.883.688A3.55,3.55,0,0,1,32.832,37.156Zm-.18-7.578a1.928,1.928,0,0,0-1.469.637A3.1,3.1,0,0,0,30.449,32h4.234v-.109a2.753,2.753,0,0,0-.594-1.707A1.815,1.815,0,0,0,32.652,29.578ZM39.762,26.5v2.047H41.34v1.117H39.762v5.249a1.173,1.173,0,0,0,.211.763.888.888,0,0,0,.719.254,3.5,3.5,0,0,0,.688-.094V37a4.215,4.215,0,0,1-1.109.155,1.8,1.8,0,0,1-1.461-.586,2.517,2.517,0,0,1-.492-1.664V29.664H36.777V28.547h1.539V26.5Zm2.727,6.2a4.993,4.993,0,0,1,.488-2.234,3.643,3.643,0,0,1,1.359-1.531,3.7,3.7,0,0,1,1.988-.539,3.565,3.565,0,0,1,2.793,1.2,4.6,4.6,0,0,1,1.066,3.18v.1a5.036,5.036,0,0,1-.473,2.215,3.589,3.589,0,0,1-1.352,1.527,3.743,3.743,0,0,1-2.02.547,3.556,3.556,0,0,1-2.785-1.2A4.575,4.575,0,0,1,42.488,32.8Zm1.453.172a3.616,3.616,0,0,0,.652,2.258,2.211,2.211,0,0,0,3.5-.012,3.955,3.955,0,0,0,.648-2.418,3.61,3.61,0,0,0-.66-2.254,2.1,2.1,0,0,0-1.754-.863,2.075,2.075,0,0,0-1.727.852A3.925,3.925,0,0,0,43.941,32.867Z" transform="translate(-4630 -277)" fill="#12263f"/>
    <path id="Trazado_153991" data-name="Trazado 153991" d="M10,0H221a10,10,0,0,1,10,10V46a10,10,0,0,1-10,10H10A10,10,0,0,1,0,46V10A10,10,0,0,1,10,0Z" transform="translate(-4716 -71)" fill="#ffd947"/>
    <path id="Trazado_153977" data-name="Trazado 153977" d="M15.859,13.2a4.254,4.254,0,0,1-.8,2.09,4.375,4.375,0,0,1-1.75,1.4,5.329,5.329,0,0,1-2.328.465,3.936,3.936,0,0,1-1.961-.52A3.443,3.443,0,0,1,7.7,15.2a5.312,5.312,0,0,1-.543-2.168,10.634,10.634,0,0,1,.2-2.391A7.578,7.578,0,0,1,8.262,8.1,5.666,5.666,0,0,1,9.813,6.344,4.679,4.679,0,0,1,12.7,5.469a3.839,3.839,0,0,1,2.8,1.09A4.384,4.384,0,0,1,16.641,9.5l-2.281-.008a2.391,2.391,0,0,0-.43-1.578,1.752,1.752,0,0,0-1.336-.531,2.319,2.319,0,0,0-1.926.836,5.027,5.027,0,0,0-1.012,2.555,14.155,14.155,0,0,0-.219,2.445,2.434,2.434,0,0,0,.461,1.52,1.543,1.543,0,0,0,1.18.512,2.356,2.356,0,0,0,1.676-.5,2.625,2.625,0,0,0,.832-1.535Zm5.656-4.812a3.39,3.39,0,0,1,1.926.574A3.234,3.234,0,0,1,24.629,10.5a4.762,4.762,0,0,1,.27,2.176,5.143,5.143,0,0,1-1.4,3.262,3.96,3.96,0,0,1-3.02,1.215,3.38,3.38,0,0,1-1.906-.566,3.222,3.222,0,0,1-1.187-1.527,4.657,4.657,0,0,1-.273-2.156,5.3,5.3,0,0,1,1.422-3.328A3.878,3.878,0,0,1,21.516,8.391Zm-2.227,5.315a1.95,1.95,0,0,0,.352,1.182,1.168,1.168,0,0,0,.945.449A1.712,1.712,0,0,0,22.18,14.4a4.647,4.647,0,0,0,.539-2.531,2.122,2.122,0,0,0-.363-1.2,1.149,1.149,0,0,0-.949-.464,1.715,1.715,0,0,0-1.574.924A4.6,4.6,0,0,0,19.289,13.706Zm9.758-5.167-.18.961a3.112,3.112,0,0,1,2.477-1.109,2.379,2.379,0,0,1,1.3.359,1.679,1.679,0,0,1,.7.93,3.255,3.255,0,0,1,2.625-1.289,2.126,2.126,0,0,1,1.754.8,3.271,3.271,0,0,1,.5,2.234l-.016.2L37.3,17H35.086l.9-5.4a3.908,3.908,0,0,0,.023-.54.837.837,0,0,0-.937-.845,1.86,1.86,0,0,0-1.555.97l-.023.18L32.508,17H30.3l.9-5.383a3.9,3.9,0,0,0,.023-.539.836.836,0,0,0-.93-.852,1.867,1.867,0,0,0-1.508.789L27.734,17h-2.2l1.461-8.453ZM47.164,12.8a6.981,6.981,0,0,1-.7,2.359,3.826,3.826,0,0,1-1.32,1.531,3.058,3.058,0,0,1-1.75.477,2.44,2.44,0,0,1-1.937-.914l-.773,4h-2.2l2.023-11.7,2.031-.008-.148.852a2.7,2.7,0,0,1,2.156-1,2.4,2.4,0,0,1,1.93.9,3.922,3.922,0,0,1,.734,2.363A9.132,9.132,0,0,1,47.164,12.8Zm-2.187-.16.047-.751a2.089,2.089,0,0,0-.277-1.205,1,1,0,0,0-.855-.462,1.818,1.818,0,0,0-1.586.814l-.633,3.49a1.233,1.233,0,0,0,1.242.822,1.59,1.59,0,0,0,1.328-.618A4.234,4.234,0,0,0,44.977,12.636ZM50.188,17H47.969L50.055,5h2.211Zm5.883.156a3.677,3.677,0,0,1-1.965-.543,3.292,3.292,0,0,1-1.277-1.469,4.093,4.093,0,0,1-.328-2.059l.023-.312a5.465,5.465,0,0,1,.719-2.266,4.341,4.341,0,0,1,1.547-1.59,3.827,3.827,0,0,1,2.094-.527,2.924,2.924,0,0,1,2.473,1.2,4.117,4.117,0,0,1,.637,2.962l-.125.962h-5.18a1.814,1.814,0,0,0,.4,1.313,1.521,1.521,0,0,0,1.172.508,2.7,2.7,0,0,0,2.109-.937l1.008,1.25A3.135,3.135,0,0,1,58,16.77,4.5,4.5,0,0,1,56.07,17.156Zm.7-6.945a1.565,1.565,0,0,0-1.082.383,3.363,3.363,0,0,0-.848,1.383h3.031l.047-.2a2.071,2.071,0,0,0,.008-.594,1.134,1.134,0,0,0-.383-.707A1.2,1.2,0,0,0,56.773,10.211Zm7.266-1.672-.18.961a3.112,3.112,0,0,1,2.477-1.109,2.379,2.379,0,0,1,1.3.359,1.679,1.679,0,0,1,.7.93,3.255,3.255,0,0,1,2.625-1.289,2.126,2.126,0,0,1,1.754.8,3.271,3.271,0,0,1,.5,2.234l-.016.2L72.289,17H70.078l.9-5.4a3.907,3.907,0,0,0,.023-.54.837.837,0,0,0-.937-.845,1.86,1.86,0,0,0-1.555.97l-.023.18L67.5,17H65.3l.9-5.383a3.9,3.9,0,0,0,.023-.539.836.836,0,0,0-.93-.852,1.867,1.867,0,0,0-1.508.789L62.727,17h-2.2l1.461-8.453Zm14.016,8.617a3.677,3.677,0,0,1-1.965-.543,3.292,3.292,0,0,1-1.277-1.469,4.093,4.093,0,0,1-.328-2.059l.023-.312a5.465,5.465,0,0,1,.719-2.266,4.341,4.341,0,0,1,1.547-1.59,3.827,3.827,0,0,1,2.094-.527,2.924,2.924,0,0,1,2.473,1.2,4.117,4.117,0,0,1,.637,2.962l-.125.962h-5.18a1.814,1.814,0,0,0,.4,1.313,1.521,1.521,0,0,0,1.172.508,2.7,2.7,0,0,0,2.109-.937l1.008,1.25a3.135,3.135,0,0,1-1.375,1.121A4.5,4.5,0,0,1,78.055,17.156Zm.7-6.945a1.565,1.565,0,0,0-1.082.383,3.363,3.363,0,0,0-.848,1.383h3.031l.047-.2a2.071,2.071,0,0,0,.008-.594,1.134,1.134,0,0,0-.383-.707A1.2,1.2,0,0,0,78.758,10.211Zm7.234-1.672-.187,1a3.042,3.042,0,0,1,2.461-1.148,2.028,2.028,0,0,1,1.766.875,3.526,3.526,0,0,1,.414,2.359L89.555,17h-2.2l.906-5.4a2.528,2.528,0,0,0,.016-.555.9.9,0,0,0-1-.82,1.9,1.9,0,0,0-1.555.8L84.664,17h-2.2L83.93,8.547Zm9.758-2.07-.367,2.078h1.406L96.5,10.2H95.094l-.719,4.234a1.077,1.077,0,0,0,.063.609q.109.211.531.227.125.008.672-.039l-.156,1.727a3.706,3.706,0,0,1-1.266.18,1.985,1.985,0,0,1-1.617-.68,2.456,2.456,0,0,1-.437-1.8l.727-4.461H91.7l.289-1.656h1.2l.359-2.078ZM10.977,33.391a4.185,4.185,0,0,1-1.332,2.785,4.365,4.365,0,0,1-2.98.98,4.008,4.008,0,0,1-3.23-1.445,5.815,5.815,0,0,1-1.215-3.867V30.75a6.481,6.481,0,0,1,.566-2.789,4.231,4.231,0,0,1,1.605-1.848A4.47,4.47,0,0,1,6.8,25.469,4.11,4.11,0,0,1,9.7,26.48a4.235,4.235,0,0,1,1.273,2.8H9.469a3.268,3.268,0,0,0-.848-1.975A2.565,2.565,0,0,0,6.8,26.7a2.684,2.684,0,0,0-2.254,1.063,4.882,4.882,0,0,0-.816,3.026v1.1A5.018,5.018,0,0,0,4.5,34.835,2.5,2.5,0,0,0,6.664,35.93a2.886,2.886,0,0,0,1.918-.566,3.143,3.143,0,0,0,.887-1.973Zm1.438-.7a4.993,4.993,0,0,1,.488-2.234,3.643,3.643,0,0,1,1.359-1.531,3.7,3.7,0,0,1,1.988-.539,3.565,3.565,0,0,1,2.793,1.2,4.6,4.6,0,0,1,1.066,3.18v.1a5.036,5.036,0,0,1-.473,2.215,3.589,3.589,0,0,1-1.352,1.527,3.743,3.743,0,0,1-2.02.547,3.556,3.556,0,0,1-2.785-1.2A4.575,4.575,0,0,1,12.414,32.8Zm1.453.172a3.616,3.616,0,0,0,.652,2.258,2.211,2.211,0,0,0,3.5-.012,3.955,3.955,0,0,0,.648-2.418A3.61,3.61,0,0,0,18,30.441a2.1,2.1,0,0,0-1.754-.863,2.075,2.075,0,0,0-1.727.852A3.925,3.925,0,0,0,13.867,32.867Zm9.414-4.32.039.938a3.122,3.122,0,0,1,2.508-1.094,2.417,2.417,0,0,1,2.414,1.359,3.2,3.2,0,0,1,1.1-.984,3.242,3.242,0,0,1,1.6-.375q2.781,0,2.828,2.945V37H32.32V31.422a1.941,1.941,0,0,0-.414-1.355,1.823,1.823,0,0,0-1.391-.449,1.916,1.916,0,0,0-1.336.48,1.949,1.949,0,0,0-.617,1.293V37H27.109V31.461a1.613,1.613,0,0,0-1.8-1.844,1.934,1.934,0,0,0-1.945,1.211V37H21.914V28.547Zm19.8,4.32a5.062,5.062,0,0,1-.883,3.109,2.829,2.829,0,0,1-2.391,1.18,3.1,3.1,0,0,1-2.422-.977v4.07H35.945v-11.7h1.32l.07.938a2.977,2.977,0,0,1,2.453-1.094,2.882,2.882,0,0,1,2.41,1.148,5.117,5.117,0,0,1,.887,3.2ZM41.641,32.7a3.735,3.735,0,0,0-.609-2.258,1.963,1.963,0,0,0-1.672-.828,2.125,2.125,0,0,0-1.969,1.164V34.82a2.129,2.129,0,0,0,1.984,1.156,1.954,1.954,0,0,0,1.652-.824A4.077,4.077,0,0,0,41.641,32.7ZM46.492,37H45.047V25h1.445Zm5.82.156a3.693,3.693,0,0,1-2.8-1.129,4.19,4.19,0,0,1-1.078-3.02v-.266a5.073,5.073,0,0,1,.48-2.246,3.748,3.748,0,0,1,1.344-1.547,3.378,3.378,0,0,1,1.871-.559A3.166,3.166,0,0,1,54.7,29.477a4.7,4.7,0,0,1,.914,3.109v.6H49.883a3,3,0,0,0,.73,2.02,2.3,2.3,0,0,0,1.777.77,2.517,2.517,0,0,0,1.3-.312,3.258,3.258,0,0,0,.93-.828l.883.688A3.55,3.55,0,0,1,52.313,37.156Zm-.18-7.578a1.928,1.928,0,0,0-1.469.637A3.1,3.1,0,0,0,49.93,32h4.234v-.109a2.753,2.753,0,0,0-.594-1.707A1.815,1.815,0,0,0,52.133,29.578Zm6.508-1.031.039.938a3.122,3.122,0,0,1,2.508-1.094A2.417,2.417,0,0,1,63.6,29.75a3.2,3.2,0,0,1,1.1-.984,3.242,3.242,0,0,1,1.6-.375q2.781,0,2.828,2.945V37H67.68V31.422a1.941,1.941,0,0,0-.414-1.355,1.823,1.823,0,0,0-1.391-.449,1.916,1.916,0,0,0-1.336.48,1.949,1.949,0,0,0-.617,1.293V37H62.469V31.461a1.613,1.613,0,0,0-1.8-1.844,1.934,1.934,0,0,0-1.945,1.211V37H57.273V28.547Zm16.172,8.609a3.693,3.693,0,0,1-2.8-1.129,4.19,4.19,0,0,1-1.078-3.02v-.266a5.073,5.073,0,0,1,.48-2.246,3.748,3.748,0,0,1,1.344-1.547,3.378,3.378,0,0,1,1.871-.559A3.166,3.166,0,0,1,77.2,29.477a4.7,4.7,0,0,1,.914,3.109v.6H72.383a3,3,0,0,0,.73,2.02,2.3,2.3,0,0,0,1.777.77,2.517,2.517,0,0,0,1.3-.312,3.259,3.259,0,0,0,.93-.828l.883.688A3.55,3.55,0,0,1,74.813,37.156Zm-.18-7.578a1.928,1.928,0,0,0-1.469.637A3.1,3.1,0,0,0,72.43,32h4.234v-.109a2.753,2.753,0,0,0-.594-1.707A1.815,1.815,0,0,0,74.633,29.578Zm6.516-1.031.047,1.063a3.08,3.08,0,0,1,2.531-1.219q2.68,0,2.7,3.023V37H84.984V31.406a1.946,1.946,0,0,0-.418-1.352,1.675,1.675,0,0,0-1.277-.437,2.086,2.086,0,0,0-1.234.375,2.546,2.546,0,0,0-.828.984V37H79.781V28.547ZM90.57,26.5v2.047h1.578v1.117H90.57v5.249a1.173,1.173,0,0,0,.211.763.888.888,0,0,0,.719.254,3.5,3.5,0,0,0,.688-.094V37a4.215,4.215,0,0,1-1.109.155,1.8,1.8,0,0,1-1.461-.586,2.517,2.517,0,0,1-.492-1.664V29.664H87.586V28.547h1.539V26.5ZM93.3,32.7a4.993,4.993,0,0,1,.488-2.234,3.643,3.643,0,0,1,1.359-1.531,3.7,3.7,0,0,1,1.988-.539,3.565,3.565,0,0,1,2.793,1.2,4.6,4.6,0,0,1,1.066,3.18v.1a5.036,5.036,0,0,1-.473,2.215,3.589,3.589,0,0,1-1.352,1.527,3.743,3.743,0,0,1-2.02.547,3.556,3.556,0,0,1-2.785-1.2A4.575,4.575,0,0,1,93.3,32.8Zm1.453.172a3.616,3.616,0,0,0,.652,2.258,2.211,2.211,0,0,0,3.5-.012,3.955,3.955,0,0,0,.648-2.418,3.61,3.61,0,0,0-.66-2.254,2.1,2.1,0,0,0-1.754-.863,2.075,2.075,0,0,0-1.727.852A3.925,3.925,0,0,0,94.75,32.867Z" transform="translate(-4655 -64)" fill="#12263f"/>
  </g>
</svg>
