<svg xmlns="http://www.w3.org/2000/svg" xmlns:xlink="http://www.w3.org/1999/xlink" width="85" height="85" viewBox="0 0 85 85">
  <defs>
    <clipPath id="clip-path">
      <rect id="Rectángulo_35407" data-name="Rectángulo 35407" width="85" height="85" transform="translate(265.333 1730)" fill="#fff" stroke="#707070" stroke-width="1"/>
    </clipPath>
  </defs>
  <g id="t1" transform="translate(-265.333 -1710)">
    <circle id="Elipse_4845" data-name="Elipse 4845" cx="42.5" cy="42.5" r="42.5" transform="translate(265.333 1710)" fill="#ffd947"/>
    <g id="t1-2" data-name="t1" transform="translate(0 -20)" clip-path="url(#clip-path)">
      <g id="estudiante" transform="translate(265.333 1730)">
        <g id="Grupo_88092" data-name="Grupo 88092">
          <path id="Trazado_120195" data-name="Trazado 120195" d="M14.792,50.169c0,18.228,12.405,33,27.708,33v-62.5c-15.3,0-27.708,13.208-27.708,29.5Z" fill="#ff8f71"/>
          <path id="Trazado_120196" data-name="Trazado 120196" d="M42.5,20.669v62.5c15.3,0,27.708-14.777,27.708-33,0-16.292-12.405-29.5-27.708-29.5Z" fill="#ffb39d"/>
        </g>
        <g id="Grupo_88093" data-name="Grupo 88093">
          <path id="Trazado_120197" data-name="Trazado 120197" d="M52.533,73.678a12.866,12.866,0,0,0-22.9,8.115v1.962H55.366V81.792A12.988,12.988,0,0,0,52.533,73.678Z" fill="#b7bded"/>
          <path id="Trazado_120198" data-name="Trazado 120198" d="M52.533,73.678a12.866,12.866,0,0,0-22.9,8.115v1.962H55.366V81.792A12.988,12.988,0,0,0,52.533,73.678Z" fill="#8288cb"/>
          <path id="Trazado_120199" data-name="Trazado 120199" d="M45.054,69.07a12.787,12.787,0,0,0-12.587,4.607,12.987,12.987,0,0,0-2.833,8.115v1.962h5.112V81.793A12.983,12.983,0,0,1,45.054,69.07Z" fill="#676fb2"/>
          <path id="Trazado_120200" data-name="Trazado 120200" d="M51.274,71.31l-2.486-.837H36.212l-2.486.837A2.115,2.115,0,0,0,33,74.9l4.977,4.392v.542a2.324,2.324,0,0,0,1.177,2.021l3.345,1.9,3.345-1.9a2.324,2.324,0,0,0,1.177-2.021v-.542L52,74.9A2.115,2.115,0,0,0,51.274,71.31Z" fill="#676fb2"/>
          <path id="Trazado_120201" data-name="Trazado 120201" d="M42.5,65.183l-6.288,5.289A9.718,9.718,0,0,0,42.5,77.634a9.718,9.718,0,0,0,6.288-7.162Z" fill="#ffcbbe"/>
        </g>
        <g id="Grupo_88100" data-name="Grupo 88100">
          <path id="Trazado_120202" data-name="Trazado 120202" d="M66.572,41.421H18.428a5.811,5.811,0,0,0,0,11.621H66.572a5.811,5.811,0,0,0,0-11.621Z" fill="#ffcbbe"/>
          <g id="Grupo_88094" data-name="Grupo 88094">
            <path id="Trazado_120203" data-name="Trazado 120203" d="M46.509,23.493A24.075,24.075,0,1,0,66.572,47.231,24.224,24.224,0,0,0,46.509,23.493Z" fill="#ffddcf"/>
            <path id="Trazado_120204" data-name="Trazado 120204" d="M26.413,47.265a24.1,24.1,0,0,1,20.1-23.772,24.072,24.072,0,1,0,0,47.476A24.035,24.035,0,0,1,26.413,47.265Z" fill="#ffcbbe"/>
          </g>
          <g id="Grupo_88099" data-name="Grupo 88099">
            <g id="Grupo_88098" data-name="Grupo 88098">
              <g id="Grupo_88097" data-name="Grupo 88097">
                <g id="Grupo_88095" data-name="Grupo 88095">
                  <ellipse id="Elipse_4842" data-name="Elipse 4842" cx="4.814" cy="3.818" rx="4.814" ry="3.818" transform="translate(24.404 51.216)" fill="#ff8e9e"/>
                </g>
                <g id="Grupo_88096" data-name="Grupo 88096">
                  <ellipse id="Elipse_4843" data-name="Elipse 4843" cx="4.814" cy="3.818" rx="4.814" ry="3.818" transform="translate(50.967 51.216)" fill="#ff8e9e"/>
                </g>
              </g>
            </g>
          </g>
          <path id="Trazado_120205" data-name="Trazado 120205" d="M68.876,41.107a29.846,29.846,0,0,0-7.088-12.116,27.191,27.191,0,0,0-13.24-7.616,26.184,26.184,0,0,0-6.048-.706,26.77,26.77,0,0,0-19.29,8.323,29.85,29.85,0,0,0-7.086,12.115l3.009.315a24.124,24.124,0,0,0-.706,5.81,28.776,28.776,0,0,0,15.919-4.808A28.524,28.524,0,0,0,42.5,34.232a28.827,28.827,0,0,0,24.072,13,24.122,24.122,0,0,0-.706-5.81Z" fill="#ffb39d"/>
          <path id="Trazado_120206" data-name="Trazado 120206" d="M43.361,24.24a14.889,14.889,0,0,0,5.187-2.865,26.184,26.184,0,0,0-6.048-.706,26.77,26.77,0,0,0-19.29,8.323,29.85,29.85,0,0,0-7.086,12.115l3.009.315a24.124,24.124,0,0,0-.706,5.81,28.8,28.8,0,0,0,8.014-1.14A24.113,24.113,0,0,1,43.361,24.24Z" fill="#ff8f71"/>
        </g>
        <path id="Trazado_120207" data-name="Trazado 120207" d="M23.213,18.3l0,10.692a38.117,38.117,0,0,0,38.577,0V18.3H23.213Z" fill="#676fb2"/>
        <g id="Grupo_88101" data-name="Grupo 88101">
          <path id="Trazado_120208" data-name="Trazado 120208" d="M69.2,12.019,45.44,1.848a7.47,7.47,0,0,0-5.88,0L15.8,12.019a3.735,3.735,0,0,0,0,6.868L39.56,29.057a7.472,7.472,0,0,0,5.88,0L69.2,18.887a3.735,3.735,0,0,0,0-6.868Z" fill="#8288cb"/>
          <path id="Trazado_120209" data-name="Trazado 120209" d="M41.382,1.329a7.458,7.458,0,0,0-1.822.519L15.8,12.019a3.735,3.735,0,0,0,0,6.868L39.56,29.057a7.472,7.472,0,0,0,5.88,0c-7.058-7.5-10.069-19.721-4.058-27.728Z" fill="#676fb2"/>
        </g>
        <circle id="Elipse_4844" data-name="Elipse 4844" cx="3.32" cy="3.32" r="3.32" transform="translate(12.804 23.28)" fill="#ffce71"/>
        <g id="Grupo_88102" data-name="Grupo 88102">
          <path id="Trazado_120210" data-name="Trazado 120210" d="M32.132,48.145a1.245,1.245,0,0,0-1.245,1.245v1.992a1.245,1.245,0,1,0,2.49,0V49.39A1.245,1.245,0,0,0,32.132,48.145Z"/>
          <path id="Trazado_120211" data-name="Trazado 120211" d="M52.868,48.145a1.245,1.245,0,0,0-1.245,1.245v1.992a1.245,1.245,0,0,0,2.49,0V49.39A1.245,1.245,0,0,0,52.868,48.145Z"/>
          <path id="Trazado_120212" data-name="Trazado 120212" d="M46.051,50.3a1.245,1.245,0,0,0-1.757.121,2.378,2.378,0,0,1-3.59,0,1.245,1.245,0,1,0-1.877,1.636,4.868,4.868,0,0,0,7.344,0A1.245,1.245,0,0,0,46.051,50.3Z"/>
          <path id="Trazado_120213" data-name="Trazado 120213" d="M70.119,41.153c.02-.55-1.855-7.064-7.087-12.655V22.881l6.658-2.85a4.98,4.98,0,0,0,0-9.157L45.93.7a8.715,8.715,0,0,0-6.86,0L26.286,6.176a1.245,1.245,0,1,0,.98,2.289L40.05,2.992a6.226,6.226,0,0,1,4.9,0L68.711,13.163a2.487,2.487,0,0,1,0,4.578L44.95,27.913a6.218,6.218,0,0,1-4.9,0L16.29,17.742a2.487,2.487,0,0,1,0-4.579l6.4-2.738a1.245,1.245,0,1,0-.98-2.289l-6.4,2.738a4.978,4.978,0,0,0-.43,8.946v2.389a4.565,4.565,0,1,0,2.49,0v-1.3l4.6,1.968V28.5c-4.883,5.22-7.1,11.78-7.085,12.633a7.051,7.051,0,0,0-1.268,11.25c.629,11.608,6.272,22.127,14.875,27.764a14.432,14.432,0,0,0-.1,1.646v1.962A1.245,1.245,0,0,0,29.634,85H55.366a1.245,1.245,0,0,0,1.245-1.245V81.793a14.426,14.426,0,0,0-.1-1.643,29.455,29.455,0,0,0,4.724-3.865,1.245,1.245,0,0,0-1.765-1.756,27.213,27.213,0,0,1-3.518,2.986,14.327,14.327,0,0,0-2-4.009,3.328,3.328,0,0,0-1.513-3A25.343,25.343,0,0,0,66.821,54.283a7.023,7.023,0,0,0,1.957-.35,34.7,34.7,0,0,1-6.222,16.948,1.245,1.245,0,0,0,2.023,1.452A37.484,37.484,0,0,0,71.392,52.38a7.037,7.037,0,0,0,2.236-5.148,6.92,6.92,0,0,0-3.509-6.078ZM18.2,26.6a2.075,2.075,0,1,1-2.075-2.075A2.077,2.077,0,0,1,18.2,26.6Zm6.257-2.654L39.07,30.2a8.706,8.706,0,0,0,6.86,0l14.613-6.255v4.324a36.88,36.88,0,0,1-36.087,0ZM23.45,30.56A39.306,39.306,0,0,0,40.133,35.4,27.584,27.584,0,0,1,19.71,45.952a22.853,22.853,0,0,1,.633-4.231,1.246,1.246,0,0,0-.228-1.067,1.339,1.339,0,0,0-1.191-.479,11.359,11.359,0,0,0-1.192.037A28.714,28.714,0,0,1,23.45,30.56ZM13.862,47.231a4.556,4.556,0,0,1,3.717-4.487,25.508,25.508,0,0,0-.4,4.487h0a25.482,25.482,0,0,0,.4,4.486,4.573,4.573,0,0,1-3.718-4.487ZM29.045,77.514c-7.09-5.039-11.848-13.8-12.82-23.581a7.008,7.008,0,0,0,1.955.349A25.34,25.34,0,0,0,32.556,70.506a3.328,3.328,0,0,0-1.513,3A14.326,14.326,0,0,0,29.045,77.514Zm1.834,5v-.717a11.905,11.905,0,0,1,.178-2.05,11.753,11.753,0,0,1,1.333-3.722l4.344,3.833a3.576,3.576,0,0,0,1.208,2.655Zm14.9-3.217v.542a1.081,1.081,0,0,1-.546.938l-2.73,1.55-2.73-1.55a1.081,1.081,0,0,1-.546-.938v-.542a1.245,1.245,0,0,0-.421-.934l-4.977-4.393a.869.869,0,0,1,.3-1.477l1.246-.42a11.038,11.038,0,0,0,6.718,6.739,1.245,1.245,0,0,0,.825,0,11.038,11.038,0,0,0,6.718-6.739l1.246.42a.869.869,0,0,1,.3,1.477L46.2,78.359a1.246,1.246,0,0,0-.421.934ZM38.1,72.158a24.985,24.985,0,0,0,8.8,0A8.54,8.54,0,0,1,42.5,76.3a8.538,8.538,0,0,1-4.4-4.144ZM52.61,76.021a11.749,11.749,0,0,1,1.333,3.722,11.909,11.909,0,0,1,.178,2.05v.717H47.058a3.576,3.576,0,0,0,1.208-2.655ZM42.5,70.059A22.783,22.783,0,0,1,19.707,48.446,30.086,30.086,0,0,0,42.5,36.409,30.089,30.089,0,0,0,65.293,48.447,22.784,22.784,0,0,1,42.5,70.059ZM66.1,40.176a1.246,1.246,0,0,0-1.209,1.545,18.668,18.668,0,0,1,.429,4.233A27.59,27.59,0,0,1,44.867,35.4,39.312,39.312,0,0,0,61.548,30.56a28.715,28.715,0,0,1,5.734,9.69,9.537,9.537,0,0,0-1.18-.074ZM67.42,51.718a25.5,25.5,0,0,0,.4-4.486h0a34.651,34.651,0,0,0-.192-4.392,4.443,4.443,0,0,1,3.512,4.392A4.573,4.573,0,0,1,67.42,51.718Z"/>
        </g>
      </g>
    </g>
  </g>
</svg>
