<svg xmlns="http://www.w3.org/2000/svg" xmlns:xlink="http://www.w3.org/1999/xlink" width="85" height="85" viewBox="0 0 85 85">
  <defs>
    <clipPath id="clip-path">
      <rect id="Rectángulo_35408" data-name="Rectángulo 35408" width="85" height="85" transform="translate(810.333 1730)" fill="#fff" stroke="#707070" stroke-width="1"/>
    </clipPath>
  </defs>
  <g id="t2" transform="translate(-810.333 -1710)">
    <circle id="Elipse_4846" data-name="Elipse 4846" cx="42.5" cy="42.5" r="42.5" transform="translate(810.333 1710)" fill="#ffd947"/>
    <g id="t2-2" data-name="t2" transform="translate(0 -20)" clip-path="url(#clip-path)">
      <g id="hermanos" transform="translate(810.333 1730)">
        <g id="Grupo_88103" data-name="Grupo 88103">
          <path id="Trazado_120214" data-name="Trazado 120214" d="M43.553,34.4h5.4a4.412,4.412,0,0,0,4.382-4.413v-.035a4.418,4.418,0,0,0-4.382-4.42h-5.3Z" fill="#bc845e"/>
          <path id="Trazado_120215" data-name="Trazado 120215" d="M16.821,25.535H12.8a4.418,4.418,0,0,0-4.382,4.42v.035A4.412,4.412,0,0,0,12.8,34.4h3.736Z" fill="#bc845e"/>
          <path id="Trazado_120216" data-name="Trazado 120216" d="M45.042,53.509a7.711,7.711,0,0,1,7.711,7.711V81.709L32.9,83.755H10.208a.83.83,0,0,1-.83-.83V61.22a7.711,7.711,0,0,1,7.711-7.711H45.042Z" fill="#ffe07d"/>
          <path id="Trazado_120217" data-name="Trazado 120217" d="M36.367,46.141v7.367a5.3,5.3,0,0,1-10.6,0V46.141Z" fill="#bc845e"/>
          <path id="Trazado_120218" data-name="Trazado 120218" d="M46.97,15.574V32.537a15.9,15.9,0,1,1-31.809,0V15.574Z" fill="#d19a6e"/>
          <path id="Trazado_120219" data-name="Trazado 120219" d="M53.983,23.486a4.377,4.377,0,0,1-1.775,3.526,4.347,4.347,0,0,0-3.259-1.478H46.97v-.362a1.372,1.372,0,0,0-1.3-1.373H16.357a1.3,1.3,0,0,0-1.2,1.431v.3H12.8a4.346,4.346,0,0,0-3.1,1.3,4.39,4.39,0,0,1,.184-6.848,1.356,1.356,0,0,0,.329-1.834,4.73,4.73,0,0,1,2.653-7.2,1.363,1.363,0,0,0,1-1.383c0-.091-.007-.184-.007-.277a5.744,5.744,0,0,1,9.3-4.521,1.348,1.348,0,0,0,1.967-.307,7.094,7.094,0,0,1,11.885,0,1.348,1.348,0,0,0,1.967.307,5.747,5.747,0,0,1,9.3,4.521c0,.093,0,.186-.007.277a1.363,1.363,0,0,0,1,1.383,4.728,4.728,0,0,1,2.655,7.2,1.355,1.355,0,0,0,.327,1.834,4.386,4.386,0,0,1,1.737,3.5Z" fill="#6f6571"/>
          <path id="Trazado_120220" data-name="Trazado 120220" d="M53.983,23.486a4.377,4.377,0,0,1-1.775,3.526,4.347,4.347,0,0,0-3.259-1.478H48.5a4.393,4.393,0,0,0-1.23-5.547,1.355,1.355,0,0,1-.327-1.834,4.731,4.731,0,0,0-2.655-7.2,1.363,1.363,0,0,1-1-1.383c0-.091.007-.184.007-.277a5.75,5.75,0,0,0-3.256-5.18A5.747,5.747,0,0,1,48.27,9.29c0,.093,0,.186-.007.277a1.363,1.363,0,0,0,1,1.383,4.728,4.728,0,0,1,2.655,7.2,1.355,1.355,0,0,0,.327,1.834,4.386,4.386,0,0,1,1.737,3.5Z" fill="#5d5360"/>
          <path id="Trazado_120221" data-name="Trazado 120221" d="M40.608,72.208A7.711,7.711,0,0,0,32.9,79.92v3.005a.83.83,0,0,0,.83.83H75.442a.83.83,0,0,0,.83-.83V79.919a7.711,7.711,0,0,0-7.711-7.711H40.608Z" fill="#fc8d94"/>
          <path id="Trazado_120222" data-name="Trazado 120222" d="M76.272,79.92v3a.83.83,0,0,1-.83.83h-4.98a.83.83,0,0,0,.83-.83v-3a7.71,7.71,0,0,0-7.711-7.711h4.98A7.71,7.71,0,0,1,76.272,79.92Z" fill="#fc7585"/>
          <path id="Trazado_120223" data-name="Trazado 120223" d="M59.886,63.181v9.027a5.3,5.3,0,0,1-10.6,0V63.181Z" fill="#bc845e"/>
          <path id="Trazado_120224" data-name="Trazado 120224" d="M35.789,50.265V64.477A1.928,1.928,0,0,0,37.716,66.4H71.453a1.928,1.928,0,0,0,1.928-1.928V50.072Z" fill="#6f6571"/>
          <path id="Trazado_120225" data-name="Trazado 120225" d="M73.38,50.072V64.477A1.928,1.928,0,0,1,71.453,66.4h-4.98A1.928,1.928,0,0,0,68.4,64.477V50.1Z" fill="#5d5360"/>
          <path id="Trazado_120226" data-name="Trazado 120226" d="M67.175,44.235h5.294a4.418,4.418,0,0,1,4.382,4.42v.035A4.412,4.412,0,0,1,72.468,53.1h-5.4Z" fill="#bc845e"/>
          <path id="Trazado_120227" data-name="Trazado 120227" d="M45.032,53.1H36.315a4.412,4.412,0,0,1-4.382-4.413v-.035a4.418,4.418,0,0,1,4.382-4.42h9.006Z" fill="#bc845e"/>
          <path id="Trazado_120228" data-name="Trazado 120228" d="M70.489,34.274V51.237a15.9,15.9,0,0,1-31.809,0V34.274Z" fill="#d19a6e"/>
          <path id="Trazado_120229" data-name="Trazado 120229" d="M70.488,34.274V51.237a15.916,15.916,0,0,1-18.395,15.71,15.908,15.908,0,0,0,13.414-15.71V34.274Z" fill="#bc845e"/>
          <path id="Trazado_120230" data-name="Trazado 120230" d="M73.38,40.669v3.664a4.235,4.235,0,0,0-.911-.1H69.358A3.856,3.856,0,0,1,65.5,40.38a.964.964,0,0,0-.965-.965H57.476a2.892,2.892,0,0,1-2.892-2.892,2.891,2.891,0,0,1-2.89,2.892H44.631a.964.964,0,0,0-.965.965,3.854,3.854,0,0,1-3.855,3.855h-3.5a4.245,4.245,0,0,0-.526.033v-3.6a18.8,18.8,0,1,1,37.591,0Z" fill="#6f6571"/>
          <path id="Trazado_120231" data-name="Trazado 120231" d="M73.38,40.669v3.664a4.235,4.235,0,0,0-.911-.1H69.358a3.873,3.873,0,0,1-.958-.12V40.669A18.8,18.8,0,0,0,52.092,22.037a18.98,18.98,0,0,1,2.492-.164,18.8,18.8,0,0,1,18.8,18.8Z" fill="#5d5360"/>
          <path id="Trazado_120232" data-name="Trazado 120232" d="M51.68,20.331l-5-3.387a.581.581,0,0,0-.805.155,9.245,9.245,0,0,0,0,11.281.581.581,0,0,0,.805.155l4.965-3.366Z" fill="#a69ded"/>
          <path id="Trazado_120233" data-name="Trazado 120233" d="M57.557,20.285l4.927-3.341a.581.581,0,0,1,.805.155,9.245,9.245,0,0,1,0,11.281.581.581,0,0,1-.805.155l-4.961-3.364Z" fill="#a69ded"/>
          <path id="Trazado_120234" data-name="Trazado 120234" d="M63.29,28.38a.581.581,0,0,1-.805.154L59.4,26.445a8.7,8.7,0,0,0,0-7.409l3.083-2.09a.581.581,0,0,1,.805.154,9.245,9.245,0,0,1,0,11.281Z" fill="#9191e5"/>
          <path id="Trazado_120235" data-name="Trazado 120235" d="M54.585,26.641a3.9,3.9,0,1,0-3.9-3.9A3.9,3.9,0,0,0,54.585,26.641Z" fill="#c3aff0"/>
        </g>
        <g id="Grupo_88104" data-name="Grupo 88104">
          <path id="Trazado_120236" data-name="Trazado 120236" d="M25.082,32.186V30.066a1.245,1.245,0,0,0-2.49,0v2.121a1.245,1.245,0,0,0,2.49,0Z"/>
          <path id="Trazado_120237" data-name="Trazado 120237" d="M59.034,55.834a6.786,6.786,0,0,1-8.894,0,1.245,1.245,0,0,0-1.612,1.9,9.24,9.24,0,0,0,12.109,0,1.245,1.245,0,0,0-1.6-1.906Z"/>
          <path id="Trazado_120238" data-name="Trazado 120238" d="M61.814,47.52a1.245,1.245,0,0,0-1.245,1.245v2.121a1.245,1.245,0,0,0,2.49,0V48.765A1.245,1.245,0,0,0,61.814,47.52Z"/>
          <path id="Trazado_120239" data-name="Trazado 120239" d="M48.6,50.886V48.765a1.245,1.245,0,0,0-2.49,0v2.121a1.245,1.245,0,1,0,2.49,0Z"/>
          <path id="Trazado_120240" data-name="Trazado 120240" d="M71.453,67.65a3.177,3.177,0,0,0,3.173-3.173V53.915A5.666,5.666,0,0,0,78.1,48.69v-.035a5.674,5.674,0,0,0-3.47-5.231V40.669a20.016,20.016,0,0,0-8.311-16.249,10.626,10.626,0,0,0-2-8.02,1.828,1.828,0,0,0-2.533-.485l-4.06,2.753a5.138,5.138,0,0,0-4.167-.97A5.978,5.978,0,0,0,49.6,9.751a.119.119,0,0,1-.092-.122q.008-.169.008-.34A7,7,0,0,0,42.524,2.3a6.92,6.92,0,0,0-4.318,1.493.106.106,0,0,1-.156-.01,8.341,8.341,0,0,0-13.969,0,.106.106,0,0,1-.156.01A6.918,6.918,0,0,0,19.607,2.3,7,7,0,0,0,12.616,9.29c0,.113,0,.225.008.338a.119.119,0,0,1-.092.123,5.977,5.977,0,0,0-3.352,9.1.118.118,0,0,1-.05.145A5.634,5.634,0,0,0,8.06,26.9a5.658,5.658,0,0,0-.891,3.053v.035A5.649,5.649,0,0,0,12.8,35.648h1.4A17.208,17.208,0,0,0,24.519,48.387v3.877h-7.43A8.966,8.966,0,0,0,8.133,61.22a1.245,1.245,0,1,0,2.49,0,6.473,6.473,0,0,1,6.466-6.466h7.548a6.549,6.549,0,0,0,6.428,5.3h.015a6.552,6.552,0,0,0,3.463-1.01v5.431a3.176,3.176,0,0,0,3.173,3.173H48.038v3.314h-7.43a8.966,8.966,0,0,0-8.956,8.956V82.51H10.623V67.03a1.245,1.245,0,0,0-2.49,0V82.925A2.077,2.077,0,0,0,10.208,85H64.635a1.245,1.245,0,0,0,0-2.49H34.142v-2.59a6.473,6.473,0,0,1,6.466-6.466h7.549a6.549,6.549,0,0,0,6.428,5.3H54.6a6.56,6.56,0,0,0,6.411-5.3h7.55a6.473,6.473,0,0,1,6.466,6.466v2.59H70.446a1.245,1.245,0,0,0,0,2.49h5a2.077,2.077,0,0,0,2.075-2.075V79.919a8.966,8.966,0,0,0-8.956-8.956h-7.43V67.65Zm.683-3.173a.683.683,0,0,1-.683.683H64.586a17.178,17.178,0,0,0,6.865-10.812h.685Zm3.47-15.822v.035a3.156,3.156,0,0,1-3.137,3.168h-.747c.007-.206.012-.413.012-.621V45.48h.734A3.16,3.16,0,0,1,75.606,48.655ZM59.275,20.625l3.344-2.267a7.844,7.844,0,0,1,0,8.764l-3.344-2.267a5.127,5.127,0,0,0,0-4.23Zm2.51,8.94a1.837,1.837,0,0,0,2.533-.484,13.978,13.978,0,0,0,1.2-2.137,17.527,17.527,0,0,1,6.613,13.725V42.99H69.361a2.614,2.614,0,0,1-2.611-2.611,2.211,2.211,0,0,0-2.209-2.209H57.477a1.648,1.648,0,0,1-1.647-1.647,1.245,1.245,0,1,0-2.49,0,1.648,1.648,0,0,1-1.647,1.647H44.632a2.212,2.212,0,0,0-2.209,2.209,2.614,2.614,0,0,1-2.611,2.611H37.034V40.669a17.553,17.553,0,0,1,6.613-13.724,13.973,13.973,0,0,0,1.2,2.137,1.837,1.837,0,0,0,2.533.485l4.06-2.753a5.131,5.131,0,0,0,6.281,0ZM49.9,24.855l-3.344,2.267a7.844,7.844,0,0,1,0-8.764l3.344,2.267a5.126,5.126,0,0,0,0,4.23Zm4.69-4.771a2.656,2.656,0,1,1-2.656,2.656A2.659,2.659,0,0,1,54.585,20.084ZM12.8,33.158A3.156,3.156,0,0,1,9.659,29.99v-.035A3.16,3.16,0,0,1,12.8,26.78h1.12v5.757c0,.208.005.415.012.621H12.8Zm1.267-8.868H12.8a5.564,5.564,0,0,0-2.938.836,3.139,3.139,0,0,1,.78-4.147,2.6,2.6,0,0,0,.605-3.522A3.487,3.487,0,0,1,13.2,12.15a2.6,2.6,0,0,0,1.912-2.641q-.005-.109-.005-.219a4.506,4.506,0,0,1,4.5-4.5,4.451,4.451,0,0,1,2.778.96,2.623,2.623,0,0,0,2.04.527,2.582,2.582,0,0,0,1.739-1.131,5.851,5.851,0,0,1,9.8,0,2.581,2.581,0,0,0,1.739,1.131,2.624,2.624,0,0,0,2.041-.527,4.452,4.452,0,0,1,2.778-.96,4.506,4.506,0,0,1,4.5,4.5c0,.073,0,.145-.005.218a2.6,2.6,0,0,0,1.912,2.642,3.487,3.487,0,0,1,1.955,5.307,2.573,2.573,0,0,0-.308.624l-3.2-2.166a1.828,1.828,0,0,0-2.533.484,11.283,11.283,0,0,0-2.145,6.156H16.357a2.4,2.4,0,0,0-2.294,1.735Zm2.343,8.247v-7.37a.112.112,0,0,1,.122-.121H42.035a20.064,20.064,0,0,0-3.308,3.373,1.275,1.275,0,0,0-1.444,1.271v.871a20.018,20.018,0,0,0-2.515,7.126,6.764,6.764,0,0,1-8.146-.55,1.245,1.245,0,0,0-1.612,1.9A9.317,9.317,0,0,0,31.057,41.3a9.185,9.185,0,0,0,3.488-.692c0,.022,0,.043,0,.065v2.611a5.672,5.672,0,0,0-3.665,3.915A14.675,14.675,0,0,1,16.407,32.537ZM34.544,55.6a4.056,4.056,0,0,1-7.534-2.087V49.2a17.116,17.116,0,0,0,3.767.482,5.665,5.665,0,0,0,3.767,4.376V55.6ZM33.179,48.69v-.035a3.16,3.16,0,0,1,3.137-3.175h1.12v5.757c0,.208.005.415.012.621H36.316A3.156,3.156,0,0,1,33.179,48.69ZM37.717,65.16a.683.683,0,0,1-.683-.683V54.348h.685A17.178,17.178,0,0,0,44.584,65.16Zm20.925,7.049a4.063,4.063,0,0,1-4.047,4.056h-.01a4.056,4.056,0,0,1-4.056-4.037c0-.006,0-.013,0-.019s0-.019,0-.029V67.9a17.174,17.174,0,0,0,8.113,0ZM54.585,65.9A14.676,14.676,0,0,1,39.926,51.237V45.477a5.107,5.107,0,0,0,4.98-4.817h6.788a4.123,4.123,0,0,0,2.892-1.181,4.123,4.123,0,0,0,2.892,1.181h6.792a5.107,5.107,0,0,0,4.976,4.817v5.76A14.676,14.676,0,0,1,54.585,65.9Z"/>
        </g>
      </g>
    </g>
  </g>
</svg>
