<svg xmlns="http://www.w3.org/2000/svg" xmlns:xlink="http://www.w3.org/1999/xlink" width="85" height="85" viewBox="0 0 85 85">
  <defs>
    <clipPath id="clip-path">
      <rect id="Rectángulo_35413" data-name="Rectángulo 35413" width="85" height="85" transform="translate(265.333 1853)" fill="#fff" stroke="#707070" stroke-width="1"/>
    </clipPath>
  </defs>
  <g id="t3" transform="translate(-265.333 -1833)">
    <circle id="Elipse_4847" data-name="Elipse 4847" cx="42.5" cy="42.5" r="42.5" transform="translate(265.333 1833)" fill="#ffd947"/>
    <g id="t3-2" data-name="t3" transform="translate(0 -20)" clip-path="url(#clip-path)">
      <g id="pastel-de-cumpleanos" transform="translate(265.333 1853)">
        <g id="Grupo_88113" data-name="Grupo 88113">
          <path id="Trazado_120241" data-name="Trazado 120241" d="M66.562,58.783H18.438V41.005a7.026,7.026,0,0,1,7.026-7.026H59.537a7.026,7.026,0,0,1,7.026,7.026V58.783Z" fill="#fff3a7"/>
          <path id="Trazado_120242" data-name="Trazado 120242" d="M59.537,33.98H52.9a7.026,7.026,0,0,1,7.026,7.026V58.783h6.641V41.005A7.026,7.026,0,0,0,59.537,33.98Z" fill="#fce65b"/>
          <g id="Grupo_88112" data-name="Grupo 88112">
            <g id="Grupo_88111" data-name="Grupo 88111">
              <path id="Trazado_120243" data-name="Trazado 120243" d="M74.775,78.117H10.225v-14.9A7.026,7.026,0,0,1,17.251,56.2h50.5a7.026,7.026,0,0,1,7.026,7.026v14.9Z" fill="#fff3a7"/>
              <path id="Trazado_120244" data-name="Trazado 120244" d="M67.749,56.2H61.108a7.026,7.026,0,0,1,7.026,7.026v14.9h6.641v-14.9A7.026,7.026,0,0,0,67.749,56.2Z" fill="#fce65b"/>
              <g id="Grupo_88105" data-name="Grupo 88105">
                <path id="Trazado_120245" data-name="Trazado 120245" d="M67.749,56.2h-50.5a7.026,7.026,0,0,0-7.026,7.026v.046c5.379,0,5.379,8.746,10.758,8.746s5.379-8.746,10.757-8.746S37.12,72.013,42.5,72.013s5.379-8.746,10.758-8.746,5.379,8.746,10.759,8.746,5.379-8.746,10.759-8.746v-.046A7.026,7.026,0,0,0,67.749,56.2Z" fill="#f54c5a"/>
              </g>
              <g id="Grupo_88106" data-name="Grupo 88106">
                <path id="Trazado_120246" data-name="Trazado 120246" d="M67.749,56.2H61.108a7.026,7.026,0,0,1,7.026,7.026v6.347c1.914-2.588,3.135-6.3,6.641-6.3v-.046A7.026,7.026,0,0,0,67.749,56.2Z" fill="#eb3443"/>
              </g>
              <g id="Grupo_88107" data-name="Grupo 88107">
                <path id="Trazado_120247" data-name="Trazado 120247" d="M26.484,47.778c4,0,4-6.51,8.007-6.51s4,6.51,8.008,6.51,4-6.51,8.008-6.51,4,6.51,8.008,6.51,4-6.51,8.008-6.51h.038v-.263a7.026,7.026,0,0,0-7.026-7.026H25.463a7.026,7.026,0,0,0-7.026,7.026v.263h.038C22.48,41.268,22.48,47.778,26.484,47.778Z" fill="#f54c5a"/>
              </g>
              <g id="Grupo_88108" data-name="Grupo 88108">
                <path id="Trazado_120248" data-name="Trazado 120248" d="M59.537,33.98H52.9a7.026,7.026,0,0,1,7.026,7.026v6.456c2.669-1.3,3.132-6.193,6.6-6.193h.038v-.263a7.026,7.026,0,0,0-7.026-7.026Z" fill="#eb3443"/>
              </g>
              <path id="Trazado_120249" data-name="Trazado 120249" d="M45.885,8.643a3.385,3.385,0,0,1-6.771,0c0-1.867,3.385-7.4,3.385-7.4s3.385,5.531,3.385,7.4Z" fill="#ffdb63"/>
              <g id="Grupo_88110" data-name="Grupo 88110">
                <path id="Trazado_120250" data-name="Trazado 120250" d="M37.952,18.776h9.1v15.2h-9.1Z" fill="#8fe0ff"/>
                <g id="Grupo_88109" data-name="Grupo 88109">
                  <path id="Trazado_120251" data-name="Trazado 120251" d="M38.025,23.892h8.951v4.972H38.025Z" fill="#bdedff"/>
                </g>
              </g>
            </g>
            <path id="Trazado_120252" data-name="Trazado 120252" d="M78.117,83.755H6.883a5.638,5.638,0,0,1-5.638-5.638h82.51A5.638,5.638,0,0,1,78.117,83.755Z" fill="#bdedff"/>
          </g>
        </g>
        <g id="Grupo_88114" data-name="Grupo 88114">
          <path id="Trazado_120253" data-name="Trazado 120253" d="M20.965,67.416a1.246,1.246,0,0,0,0-2.49A1.246,1.246,0,0,0,20.965,67.416Z" fill="#060606"/>
          <path id="Trazado_120254" data-name="Trazado 120254" d="M42.5,67.416a1.246,1.246,0,0,0,0-2.49A1.246,1.246,0,0,0,42.5,67.416Z" fill="#060606"/>
          <path id="Trazado_120255" data-name="Trazado 120255" d="M64.036,67.416a1.246,1.246,0,0,0,0-2.49A1.246,1.246,0,0,0,64.036,67.416Z" fill="#060606"/>
          <path id="Trazado_120256" data-name="Trazado 120256" d="M26.485,43.937a1.246,1.246,0,0,0,0-2.49A1.246,1.246,0,0,0,26.485,43.937Z" fill="#060606"/>
          <path id="Trazado_120257" data-name="Trazado 120257" d="M42.5,43.937a1.246,1.246,0,0,0,0-2.49A1.246,1.246,0,0,0,42.5,43.937Z" fill="#060606"/>
          <path id="Trazado_120258" data-name="Trazado 120258" d="M58.516,43.937a1.246,1.246,0,0,0,0-2.49A1.246,1.246,0,0,0,58.516,43.937Z" fill="#060606"/>
          <path id="Trazado_120259" data-name="Trazado 120259" d="M58.713,13.77a1.341,1.341,0,0,0,1.245-1.251l-.009-1.968a1.246,1.246,0,0,0-2.49.011l.009,1.968a1.245,1.245,0,0,0,1.245,1.24Z" fill="#060606"/>
          <path id="Trazado_120260" data-name="Trazado 120260" d="M53.5,15.275a1.246,1.246,0,0,0,1.752-1.77l-1.4-1.385A1.246,1.246,0,0,0,52.1,13.89Z" fill="#060606"/>
          <path id="Trazado_120261" data-name="Trazado 120261" d="M50.652,20.028h.006l1.971-.009a1.248,1.248,0,0,0-.011-2.49l-1.971.009A1.246,1.246,0,0,0,50.652,20.028Z" fill="#060606"/>
          <path id="Trazado_120262" data-name="Trazado 120262" d="M53.607,22.232l-1.387,1.4a1.246,1.246,0,0,0,1.767,1.754l1.387-1.4A1.246,1.246,0,0,0,53.607,22.232Z" fill="#060606"/>
          <path id="Trazado_120263" data-name="Trazado 120263" d="M62.338,22.114a1.245,1.245,0,0,0,.009,1.761l1.4,1.385A1.246,1.246,0,0,0,65.5,23.49C64.893,22.687,63.376,21.066,62.338,22.114Z" fill="#060606"/>
          <path id="Trazado_120264" data-name="Trazado 120264" d="M63.727,18.612a1.341,1.341,0,0,0,1.251,1.24l1.971-.009a1.248,1.248,0,0,0-.011-2.49l-1.971.009a1.245,1.245,0,0,0-1.24,1.251Z" fill="#060606"/>
          <path id="Trazado_120265" data-name="Trazado 120265" d="M63.1,15.517a1.241,1.241,0,0,0,.884-.368l1.387-1.4A1.246,1.246,0,0,0,63.607,12l-1.387,1.4A1.276,1.276,0,0,0,63.1,15.517Z" fill="#060606"/>
          <path id="Trazado_120266" data-name="Trazado 120266" d="M26.119,5a1.341,1.341,0,0,0,1.245-1.251l-.009-1.968a1.246,1.246,0,0,0-2.49.011l.009,1.968A1.245,1.245,0,0,0,26.119,5Z" fill="#060606"/>
          <path id="Trazado_120267" data-name="Trazado 120267" d="M20.9,6.5a1.246,1.246,0,0,0,1.752-1.77l-1.4-1.385A1.246,1.246,0,0,0,19.5,5.115Z" fill="#060606"/>
          <path id="Trazado_120268" data-name="Trazado 120268" d="M18.057,11.253h.006l1.971-.009a1.248,1.248,0,0,0-.011-2.49l-1.971.009a1.246,1.246,0,0,0,.005,2.49Z" fill="#060606"/>
          <path id="Trazado_120269" data-name="Trazado 120269" d="M21.012,13.457l-1.387,1.4a1.246,1.246,0,0,0,1.767,1.754l1.387-1.4A1.246,1.246,0,0,0,21.012,13.457Z" fill="#060606"/>
          <path id="Trazado_120270" data-name="Trazado 120270" d="M29.744,13.34a1.245,1.245,0,0,0,.009,1.761l1.4,1.385a1.246,1.246,0,0,0,1.752-1.77l-1.4-1.385A1.245,1.245,0,0,0,29.744,13.34Z" fill="#060606"/>
          <path id="Trazado_120271" data-name="Trazado 120271" d="M31.132,9.837a1.245,1.245,0,0,0,1.245,1.24h.006l1.971-.009a1.248,1.248,0,0,0-.011-2.49l-1.971.009A1.245,1.245,0,0,0,31.132,9.837Z" fill="#060606"/>
          <path id="Trazado_120272" data-name="Trazado 120272" d="M30.51,6.742a1.241,1.241,0,0,0,.884-.368l1.387-1.4a1.246,1.246,0,0,0-1.767-1.754l-1.387,1.4A1.276,1.276,0,0,0,30.51,6.742Z" fill="#060606"/>
          <path id="Trazado_120273" data-name="Trazado 120273" d="M83.755,76.872H76.02V63.221a8.279,8.279,0,0,0-8.213-8.269V41.005a8.28,8.28,0,0,0-7.765-8.254V17.938a1.245,1.245,0,1,0-2.49,0v14.8H48.293V18.776a1.245,1.245,0,0,0-1.245-1.245H43.725V13.1c4.957-1.36,3.2-6.329,1.571-9.436C44.44,2.032,43.6.653,43.562.6a1.245,1.245,0,0,0-2.124,0C41.4.653,40.56,2.032,39.7,3.666c-1.624,3.1-3.406,8.022,1.53,9.425v4.44H37.953a1.245,1.245,0,0,0-1.245,1.245V32.735H27.448V9.163a1.246,1.246,0,0,0-2.49,0V32.752a8.28,8.28,0,0,0-7.765,8.254V54.952a8.279,8.279,0,0,0-8.213,8.269V76.872H1.245A1.245,1.245,0,0,0,0,78.117,6.891,6.891,0,0,0,6.883,85H78.117A6.891,6.891,0,0,0,85,78.117,1.245,1.245,0,0,0,83.755,76.872ZM40.36,8.643c0-1.6,1.41-3.606,2.142-4.927.706,1.27,2.412,3.717,2.056,5.3C44.027,11.375,40.36,11.361,40.36,8.643ZM39.2,25.137h6.6v2.482H39.2ZM45.8,20.021v2.625H39.2V20.021ZM39.2,30.109h6.6v2.625H39.2ZM25.463,35.225H59.537A5.788,5.788,0,0,1,65.259,40.2c-1.873.542-2.926,2.251-3.8,3.673-1.015,1.651-1.7,2.662-2.943,2.662s-1.928-1.012-2.944-2.662c-1.055-1.714-2.367-3.848-5.065-3.848s-4.01,2.134-5.065,3.848c-1.015,1.651-1.7,2.662-2.943,2.662s-1.928-1.012-2.943-2.662c-1.054-1.714-2.367-3.848-5.064-3.848a4.471,4.471,0,0,0-3.031,1.171,1.246,1.246,0,0,0,1.648,1.867,1.973,1.973,0,0,1,1.384-.548c1.243,0,1.928,1.012,2.943,2.662,1.054,1.714,2.367,3.848,5.064,3.848s4.01-2.134,5.065-3.848c1.015-1.651,1.7-2.662,2.943-2.662s1.928,1.012,2.943,2.662c1.055,1.714,2.367,3.848,5.065,3.848s4.01-2.134,5.065-3.848a8.145,8.145,0,0,1,1.737-2.257V54.95H19.683V42.918a8.148,8.148,0,0,1,1.736,2.257c1.054,1.714,2.367,3.848,5.064,3.848a4.546,4.546,0,0,0,3.438-1.566,1.246,1.246,0,0,0-1.813-1.707,2.1,2.1,0,0,1-1.625.783c-1.243,0-1.928-1.012-2.943-2.662-.874-1.422-1.927-3.131-3.8-3.673a5.788,5.788,0,0,1,5.723-4.973ZM17.251,57.44h50.5a5.789,5.789,0,0,1,5.684,4.734c-2.5.593-3.87,2.816-5.1,4.813-1.447,2.352-2.459,3.78-4.319,3.78-1.241,0-2.15-.254-4.319-3.78-1.432-2.328-3.054-4.966-6.44-4.966s-5.008,2.638-6.44,4.966c-1.447,2.352-2.459,3.78-4.319,3.78-1.24,0-2.15-.254-4.318-3.78-1.432-2.328-3.054-4.966-6.44-4.966S26.733,64.66,25.3,66.987c-1.446,2.352-2.459,3.78-4.318,3.78-1.24,0-2.15-.254-4.318-3.78-1.228-2-2.6-4.22-5.1-4.813a5.79,5.79,0,0,1,5.684-4.734ZM78.117,82.51H6.883A4.4,4.4,0,0,1,2.67,79.362H60.844a1.246,1.246,0,0,0,0-2.49H11.471V64.733c.783.355,1.661,1.263,3.073,3.559,1.432,2.328,3.054,4.966,6.44,4.966s5.008-2.638,6.439-4.966c1.446-2.352,2.459-3.78,4.318-3.78,1.24,0,2.15.254,4.318,3.78,1.432,2.328,3.054,4.966,6.44,4.966s5.008-2.638,6.44-4.966c1.447-2.352,2.459-3.78,4.319-3.78,1.241,0,2.15.254,4.319,3.78,1.432,2.328,3.054,4.966,6.44,4.966s5.008-2.638,6.44-4.966c1.088-1.77,1.931-3.016,3.074-3.525v12.1H67.15a1.246,1.246,0,0,0,0,2.49H82.33a4.4,4.4,0,0,1-4.214,3.148Z" fill="#060606"/>
        </g>
      </g>
    </g>
  </g>
</svg>
