<svg xmlns="http://www.w3.org/2000/svg" xmlns:xlink="http://www.w3.org/1999/xlink" width="85" height="85" viewBox="0 0 85 85">
  <defs>
    <clipPath id="clip-path">
      <rect id="Rect치ngulo_35410" data-name="Rect치ngulo 35410" width="85" height="85" transform="translate(810.333 1853)" fill="#fff" stroke="#707070" stroke-width="1"/>
    </clipPath>
  </defs>
  <g id="t4" transform="translate(-810.333 -1833)">
    <circle id="Elipse_4849" data-name="Elipse 4849" cx="42.5" cy="42.5" r="42.5" transform="translate(810.333 1833)" fill="#ffd947"/>
    <g id="Enmascarar_grupo_167" data-name="Enmascarar grupo 167" transform="translate(0 -20)" clip-path="url(#clip-path)">
      <g id="novio" transform="translate(809.052 1851.633)">
        <path id="Trazado_120274" data-name="Trazado 120274" d="M49.247,73.871h2.736V86.183H49.247Z" fill="#d8948b"/>
        <path id="Trazado_120275" data-name="Trazado 120275" d="M69.767,69.767H72.5V86.183H69.767Z" fill="#d8948b"/>
        <path id="Trazado_120276" data-name="Trazado 120276" d="M69.5,75.459l3.538.707a2.736,2.736,0,0,1-.985,5.382l-3.471-.579Z" fill="#ecb7ab"/>
        <path id="Trazado_120277" data-name="Trazado 120277" d="M15.048,65.663h2.736v20.52H15.048Z" fill="#333"/>
        <path id="Trazado_120278" data-name="Trazado 120278" d="M69.819,49.588A10.906,10.906,0,0,0,72.5,42.407V39.671a10.944,10.944,0,1,0-21.888,0v2.736a10.91,10.91,0,0,0,3.205,7.739" fill="#553629"/>
        <path id="Trazado_120279" data-name="Trazado 120279" d="M72.467,38.977a10.93,10.93,0,0,0-21.818.015,8.283,8.283,0,0,0,8.294,7.52h5.23A8.282,8.282,0,0,0,72.467,38.977Z" fill="#744634"/>
        <path id="Trazado_120280" data-name="Trazado 120280" d="M43.775,86.183l1.368-18.331a9.561,9.561,0,0,1,3.83-7.661L51.3,58.738l24.213,2a9.559,9.559,0,0,1,3.83,7.661l1.368,17.784Z" fill="#ecb7ab"/>
        <path id="Trazado_120281" data-name="Trazado 120281" d="M79.343,68.4a9.559,9.559,0,0,0-3.83-7.661l-24.213-2-1.778,1.115a9.528,9.528,0,0,0-1.642,5.35A17.059,17.059,0,0,0,64.892,83.534H80.507Z" fill="#fde0d3"/>
        <path id="Trazado_120282" data-name="Trazado 120282" d="M43.775,86.183H6.84l4.1-30.1,12.312-5.472,13.68.152,12.312,5.472,6.84,14.9,13.68,2.736L68.4,82.079l-17.784-4.1-6.84-10.944Z" fill="#4d4d4d"/>
        <path id="Trazado_120283" data-name="Trazado 120283" d="M49.247,56.239,36.936,50.615H23.256l-4.8,2.134A63.193,63.193,0,0,0,43.775,76.5V67.031l6.84,10.944,17.784,4.1,1.368-8.208-13.68-2.736Z" fill="gray"/>
        <rect id="Rect치ngulo_35416" data-name="Rect치ngulo 35416" width="21.888" height="24.624" rx="10.944" transform="translate(19.152 20.52)" fill="#333"/>
        <path id="Trazado_120284" data-name="Trazado 120284" d="M23.256,45.143h13.68v5.472H23.256Z" fill="#b9b9b9"/>
        <path id="Trazado_120285" data-name="Trazado 120285" d="M54.719,8.208a3.851,3.851,0,0,1-.027.561A11.819,11.819,0,0,1,47.031,19.3L43.775,20.52,40.52,19.3A11.819,11.819,0,0,1,32.859,8.769a3.851,3.851,0,0,1-.027-.561,5.472,5.472,0,1,1,10.944,0,5.472,5.472,0,1,1,10.944,0Z" fill="#f2105a"/>
        <path id="Trazado_120286" data-name="Trazado 120286" d="M49.247,2.736a5.472,5.472,0,0,0-5.472,5.472,5.454,5.454,0,0,0-7.717-4.981,5.45,5.45,0,0,0-.491,2.245,3.85,3.85,0,0,0,.027.561,11.819,11.819,0,0,0,7.661,10.533l3.256,1.218,3.256-1.218a11.792,11.792,0,0,0,2.748-1.494,11.765,11.765,0,0,0,2.176-6.3,3.85,3.85,0,0,0,.027-.561,5.472,5.472,0,0,0-5.472-5.472Z" fill="#fd4482"/>
        <path id="Trazado_120287" data-name="Trazado 120287" d="M30.1,20.52a10.889,10.889,0,0,0-6.245,1.963,10.889,10.889,0,0,0-1.963,6.245v2.736a10.937,10.937,0,0,0,17.189,8.981A10.889,10.889,0,0,0,41.039,34.2V31.464A10.944,10.944,0,0,0,30.1,20.52Z" fill="#4d4d4d"/>
        <path id="Trazado_120288" data-name="Trazado 120288" d="M67.9,62.429l10.074-2.238L65.644,44.161l-7.87,1.2L47.879,57.455l7.877,2.953Z" fill="#fd82ab"/>
        <path id="Trazado_120289" data-name="Trazado 120289" d="M59.282,47.187,54.719,64.3l6.84,4.1,6.84-4.1L63.837,47.189Z" fill="#fd4482"/>
        <circle id="Elipse_4848" data-name="Elipse 4848" cx="4.104" cy="4.104" r="4.104" transform="translate(57.455 39.671)" fill="#c31963"/>
        <path id="Trazado_120290" data-name="Trazado 120290" d="M12.2,57.028l11.349-5.045H36.637L46.8,56.626a1.368,1.368,0,0,0,.6,2.111l1.8.674,5.646,12.294a1.368,1.368,0,0,0,.975.77L68.2,74.953l-.911,5.472-15.814-3.65L44.935,66.312a1.368,1.368,0,0,0-2.528.72V86.183h2.736V71.8l4.1,6.566v7.815h2.736V79.695l16.108,3.718a1.368,1.368,0,0,0,1.068-.2,1.346,1.346,0,0,0,.5-.684l.108.018v3.633H72.5v-3.23a4.1,4.1,0,0,0,.8-8.127l-.8-.161v-4.9H69.767v2.709L57.045,69.931l-1.679-3.655,5.494,3.3a1.368,1.368,0,0,0,1.409,0l6.84-4.1a1.368,1.368,0,0,0,.617-1.525l-.13-.487,5.559-1.231a8.217,8.217,0,0,1,2.819,6.28l1.368,17.784,2.736-.211L80.711,68.4a10.844,10.844,0,0,0-2.431-6.875,1.368,1.368,0,0,0,.778-2.167L71.552,49.6a12.3,12.3,0,0,0,2.319-7.19V39.671a12.312,12.312,0,0,0-24.624,0v2.736a12.223,12.223,0,0,0,2.789,7.806l-3.453,4.222-10.28-4.7V45.143a1.353,1.353,0,0,0-.728-1.187A12.286,12.286,0,0,0,42.407,34.2V31.464a12.312,12.312,0,1,0-24.624,0V34.2a12.286,12.286,0,0,0,4.832,9.756,1.353,1.353,0,0,0-.728,1.187v4.583l-11.5,5.111a1.368,1.368,0,0,0-.8,1.066L5.484,86l2.711.369ZM73.871,78.849A1.368,1.368,0,0,1,72.279,80.2l-2.12-.353.461-2.767,2.153.431A1.368,1.368,0,0,1,73.871,78.849ZM52.836,60.775l1.279.479-.39,1.46ZM61.559,66.8l-5.253-3.146,3.893-14.6a4.925,4.925,0,0,0,2.72,0l3.893,14.591Zm0-20.293A2.736,2.736,0,1,1,64.3,43.775,2.736,2.736,0,0,1,61.559,46.511Zm7.327,14.3-3.5-13.133a5.623,5.623,0,0,0,.648-.769l9.549,12.413Zm-16.9-18.4V39.671a9.576,9.576,0,1,1,19.152,0v2.736a9.577,9.577,0,0,1-1.347,4.9l-2.757-3.6a5.472,5.472,0,1,0-10.944.064,5.382,5.382,0,0,0,.168,1.283l-2.435,2.974a9.5,9.5,0,0,1-1.837-5.625Zm5.7,5.226c.016.016.034.029.051.045L54.823,58.6l-4.677-1.752ZM20.52,34.2V31.464a9.576,9.576,0,0,1,19.152,0V34.2a9.576,9.576,0,1,1-19.152,0ZM35.568,46.511v2.736H24.624V46.511Z"/>
        <path id="Trazado_120291" data-name="Trazado 120291" d="M15.048,65.663h2.736v20.52H15.048Z"/>
        <path id="Trazado_120292" data-name="Trazado 120292" d="M40.041,20.583,43.3,21.8a1.368,1.368,0,0,0,.958,0l3.257-1.219a13.1,13.1,0,0,0,8.535-11.62,5.186,5.186,0,0,0,.041-.755A6.84,6.84,0,0,0,43.775,4.1a6.84,6.84,0,0,0-12.312,4.1,4.1,4.1,0,0,0,.029.621,13.157,13.157,0,0,0,8.549,11.754ZM38.3,4.1a4.1,4.1,0,0,1,4.1,4.1,1.368,1.368,0,1,0,2.736,0,4.1,4.1,0,0,1,8.208,0,3.5,3.5,0,0,1-.026.5,10.423,10.423,0,0,1-6.773,9.31l-2.777,1.038L41,18.022a10.488,10.488,0,0,1-6.788-9.439,2.547,2.547,0,0,1-.014-.375A4.1,4.1,0,0,1,38.3,4.1Z"/>
      </g>
    </g>
  </g>
</svg>
