<svg xmlns="http://www.w3.org/2000/svg" xmlns:xlink="http://www.w3.org/1999/xlink" width="87" height="85" viewBox="0 0 87 85">
  <defs>
    <clipPath id="clip-path">
      <rect id="Rectángulo_35415" data-name="Rectángulo 35415" width="85" height="85" transform="translate(537.333 1963)" fill="#fff" stroke="#707070" stroke-width="1"/>
    </clipPath>
  </defs>
  <g id="t5" transform="translate(-535.333 -1943)">
    <circle id="Elipse_4850" data-name="Elipse 4850" cx="42.5" cy="42.5" r="42.5" transform="translate(535.333 1943)" fill="#ffd947"/>
    <g id="Enmascarar_grupo_168" data-name="Enmascarar grupo 168" transform="translate(0 -20)" clip-path="url(#clip-path)">
      <g id="_23-Fireplace" data-name="23-Fireplace" transform="translate(537.333 1963)">
        <path id="Trazado_120293" data-name="Trazado 120293" d="M63.75,67.734V75.7h-9.3s3.984-2.656,3.984-6.641c0-5.312-3.984-5.312-3.984-7.969a5.817,5.817,0,0,1,1.328-3.984c-6.641,0-7.969,6.641-7.969,6.641s-1.062-2.138.624-6.4A11.063,11.063,0,0,1,49.8,54.984c1.076-1.541,1.992-1.461,1.992-4.516,0-9.3-11.953-11.953-11.953-11.953,7.969,9.3,0,15.937,0,15.937,0-7.969-7.969-6.641-7.969-6.641s2.656,2.656,1.328,5.312-6.641,5.313-6.641,11.953S33.2,75.7,33.2,75.7H21.25V37.187s6.109-7.969,21.25-7.969,21.25,7.969,21.25,7.969Z" fill="#6d0504"/>
        <path id="Trazado_120294" data-name="Trazado 120294" d="M63.75,43.828H77.031V51.8H63.75Z" fill="#a8b7d4"/>
        <path id="Trazado_120295" data-name="Trazado 120295" d="M63.75,59.766H77.031v7.969H63.75Z" fill="#a8b7d4"/>
        <path id="Trazado_120296" data-name="Trazado 120296" d="M7.969,59.766H21.25v7.969H7.969Z" fill="#a8b7d4"/>
        <path id="Trazado_120297" data-name="Trazado 120297" d="M7.969,43.828H21.25V51.8H7.969Z" fill="#a8b7d4"/>
        <path id="Trazado_120298" data-name="Trazado 120298" d="M21.25,37.187v6.641H7.969V37.187H21.25Z" fill="#c1cfe8"/>
        <path id="Trazado_120299" data-name="Trazado 120299" d="M7.969,51.8H21.25v7.969H7.969Z" fill="#c1cfe8"/>
        <path id="Trazado_120300" data-name="Trazado 120300" d="M7.969,67.734H21.25V75.7H7.969Z" fill="#a8b7d4"/>
        <path id="Trazado_120301" data-name="Trazado 120301" d="M63.75,67.734H77.031V75.7H63.75Z" fill="#c1cfe8"/>
        <path id="Trazado_120302" data-name="Trazado 120302" d="M63.75,51.8H77.031v7.969H63.75Z" fill="#c1cfe8"/>
        <path id="Trazado_120303" data-name="Trazado 120303" d="M77.031,37.187v6.641H63.75V37.187H77.031Z" fill="#c1cfe8"/>
        <path id="Trazado_120304" data-name="Trazado 120304" d="M1.328,1.328H83.672V9.3H1.328Z" fill="#d6e0eb"/>
        <path id="Trazado_120305" data-name="Trazado 120305" d="M83.672,75.7v7.969H1.328V75.7H83.672Z" fill="#d6e0eb"/>
        <path id="Trazado_120306" data-name="Trazado 120306" d="M83.672,23.906V37.187H63.75s-6.109-7.969-21.25-7.969-21.25,7.969-21.25,7.969H1.328V23.906H17.266a43.938,43.938,0,0,1,50.469,0Z" fill="#edf4fa"/>
        <path id="Trazado_120307" data-name="Trazado 120307" d="M58.437,69.062c0,3.984-3.984,6.641-3.984,6.641H33.2s-6.641-3.984-6.641-10.625,5.313-9.3,6.641-11.953-1.328-5.312-1.328-5.312,7.969-1.328,7.969,6.641c0,0,7.969-6.641,0-15.937,0,0,11.953,2.656,11.953,11.953,0,3.055-.916,2.975-1.992,4.516a11.063,11.063,0,0,0-1.368,2.364c-1.687,4.263-.624,6.4-.624,6.4s1.328-6.641,7.969-6.641a5.817,5.817,0,0,0-1.328,3.984C54.453,63.75,58.437,63.75,58.437,69.062Z" fill="#d91a2e"/>
        <path id="Trazado_120308" data-name="Trazado 120308" d="M1.328,9.3V23.906H17.266a43.938,43.938,0,0,1,50.469,0H83.672V9.3Z" fill="#a8b7d4"/>
        <path id="Trazado_120309" data-name="Trazado 120309" d="M1.328,81.016H83.672v2.656H1.328Z" fill="#8394b2"/>
        <path id="Trazado_120310" data-name="Trazado 120310" d="M1.328,1.328H83.672V3.984H1.328Z" fill="#edf4fa"/>
        <path id="Trazado_120311" data-name="Trazado 120311" d="M1.328,9.3H83.672v3.984H1.328Z" fill="#8394b2"/>
        <path id="Trazado_120312" data-name="Trazado 120312" d="M42.5,29.219c-15.141,0-21.25,7.969-21.25,7.969V75.7h2.656V53.125a18.594,18.594,0,0,1,37.187,0V75.7H63.75V37.187S57.641,29.219,42.5,29.219Z" fill="#4f1c07"/>
        <path id="Trazado_120313" data-name="Trazado 120313" d="M43.828,25.234H41.172c-15.937,0-21.25,7.969-21.25,7.969H1.328v3.984H21.25s6.109-7.969,21.25-7.969,21.25,7.969,21.25,7.969H83.672V33.2H65.078S59.766,25.234,43.828,25.234Z" fill="#c1cfe8"/>
        <path id="Trazado_120314" data-name="Trazado 120314" d="M59.574,26.562a3.006,3.006,0,0,1-1.222-.258,41.3,41.3,0,0,0-16.369-3.727,39.977,39.977,0,0,0-15.4,3.306,2.929,2.929,0,0,1-3.76-1.339,2.587,2.587,0,0,1,1.433-3.509,45.922,45.922,0,0,1,17.723-3.771A47.377,47.377,0,0,1,60.8,21.508a2.583,2.583,0,0,1,1.347,3.539,2.871,2.871,0,0,1-2.571,1.515Z" fill="#fbfbfb"/>
        <path id="Trazado_120315" data-name="Trazado 120315" d="M65.078,33.2,63.75,37.187H83.672V33.2Z" fill="#a8b7d4"/>
        <path id="Trazado_120316" data-name="Trazado 120316" d="M19.922,33.2l1.328,3.984H1.328V33.2Z" fill="#a8b7d4"/>
        <path id="Trazado_120317" data-name="Trazado 120317" d="M77.031,37.187H63.75v6.641h3.984V42.5a1.328,1.328,0,0,1,1.328-1.328h7.969Z" fill="#8394b2"/>
        <path id="Trazado_120318" data-name="Trazado 120318" d="M63.75,43.828h3.984V51.8H63.75Z" fill="#69768f"/>
        <path id="Trazado_120319" data-name="Trazado 120319" d="M63.75,59.766h3.984v7.969H63.75Z" fill="#69768f"/>
        <path id="Trazado_120320" data-name="Trazado 120320" d="M63.75,51.8h3.984v7.969H63.75Z" fill="#8394b2"/>
        <path id="Trazado_120321" data-name="Trazado 120321" d="M63.75,67.734h3.984V75.7H63.75Z" fill="#8394b2"/>
        <path id="Trazado_120322" data-name="Trazado 120322" d="M7.969,37.187H21.25v6.641H17.266V42.5a1.328,1.328,0,0,0-1.328-1.328H7.969Z" fill="#8394b2"/>
        <path id="Trazado_120323" data-name="Trazado 120323" d="M17.266,43.828H21.25V51.8H17.266Z" fill="#69768f"/>
        <path id="Trazado_120324" data-name="Trazado 120324" d="M17.266,59.766H21.25v7.969H17.266Z" transform="translate(38.516 127.5) rotate(180)" fill="#69768f"/>
        <path id="Trazado_120325" data-name="Trazado 120325" d="M17.266,51.8H21.25v7.969H17.266Z" transform="translate(38.516 111.562) rotate(180)" fill="#8394b2"/>
        <path id="Trazado_120326" data-name="Trazado 120326" d="M17.266,67.734H21.25V75.7H17.266Z" transform="translate(38.516 143.437) rotate(180)" fill="#8394b2"/>
        <path id="Trazado_120327" data-name="Trazado 120327" d="M45.156,57.109c3.984-5.312,0-7.969,0-7.969a14.05,14.05,0,0,1-3.984,6.641c-2.656,2.656-1.328,6.641-1.328,6.641-1.328-5.312-3.984-5.312-3.984-5.312s1.66,2.372.83,4.079-4.814,3.606-4.814,7.874S35.859,75.7,35.859,75.7H50.469a5.108,5.108,0,0,0,2.656-3.984c0-3.415-3.154-3.7-3.154-5.407a5.445,5.445,0,0,1,.5-2.562,5.678,5.678,0,0,0-5.312,3.984S41.593,61.861,45.156,57.109Z" fill="#f08d18"/>
        <path id="Trazado_120328" data-name="Trazado 120328" d="M78.144,19.578a1.178,1.178,0,0,1-1.673,0L74.93,18.037l-6.692-6.692-.159-.159a1.178,1.178,0,0,1,0-1.673L70.6,6.989a1.181,1.181,0,0,1,1.673,0l8.392,8.394a1.179,1.179,0,0,1,0,1.672Z" fill="#edf4fa"/>
        <path id="Trazado_120329" data-name="Trazado 120329" d="M74.93,18.037l-4.54,4.541,1.514,2.2a3.852,3.852,0,0,1,.12,2.828,4.549,4.549,0,0,1-4.371,2.936H66.406a4.7,4.7,0,0,1-3.5-2.43l-2.417-4.275a5.406,5.406,0,0,1-.717-2.709,5.516,5.516,0,0,1,1.926-4.184l6.546-5.6Z" fill="#d91a2e"/>
        <path id="Trazado_120330" data-name="Trazado 120330" d="M50.254,19.578a1.178,1.178,0,0,1-1.673,0L47.04,18.037l-6.692-6.692-.159-.159a1.178,1.178,0,0,1,0-1.673l2.523-2.523a1.181,1.181,0,0,1,1.673,0l8.392,8.394a1.179,1.179,0,0,1,0,1.672Z" fill="#d91a2e"/>
        <path id="Trazado_120331" data-name="Trazado 120331" d="M47.04,18.037,42.5,22.578l1.514,2.2a3.852,3.852,0,0,1,.12,2.828,4.549,4.549,0,0,1-4.371,2.936H38.516a4.7,4.7,0,0,1-3.5-2.43l-2.417-4.275a5.405,5.405,0,0,1-.717-2.709A5.516,5.516,0,0,1,33.8,16.948l6.546-5.6Z" fill="#39a30b"/>
        <path id="Trazado_120332" data-name="Trazado 120332" d="M22.363,19.578a1.178,1.178,0,0,1-1.673,0l-1.541-1.541-6.692-6.692-.159-.159a1.178,1.178,0,0,1,0-1.673l2.523-2.523a1.181,1.181,0,0,1,1.673,0l8.392,8.394a1.179,1.179,0,0,1,0,1.672Z" fill="#edf4fa"/>
        <path id="Trazado_120333" data-name="Trazado 120333" d="M19.149,18.037l-4.54,4.541,1.514,2.2a3.852,3.852,0,0,1,.12,2.828,4.549,4.549,0,0,1-4.371,2.936H10.625a4.7,4.7,0,0,1-3.506-2.43L4.7,23.841a5.405,5.405,0,0,1-.717-2.709A5.516,5.516,0,0,1,5.91,16.948l6.546-5.6Z" fill="#d91a2e"/>
        <path id="Trazado_120334" data-name="Trazado 120334" d="M80.455,15.17l-.218.218a2.656,2.656,0,0,1-3.756,0L69.343,8.249,68.078,9.512a1.178,1.178,0,0,0,0,1.673l.159.159,6.692,6.692,1.541,1.541a1.178,1.178,0,0,0,1.673,0l2.523-2.523a1.179,1.179,0,0,0,0-1.672Z" fill="#d6e0eb"/>
        <path id="Trazado_120335" data-name="Trazado 120335" d="M70.391,22.578l4.541-4.542-6.694-6.691-2.031,1.737,3.634,3.634a2.656,2.656,0,0,1,0,3.756l-2.106,2.106.8,1.2a3.545,3.545,0,0,1-5.617,4.3l-.109-.125.1.169a4.7,4.7,0,0,0,3.5,2.429h1.248a4.549,4.549,0,0,0,4.37-2.935,3.858,3.858,0,0,0-.12-2.828Z" fill="#c21729"/>
        <path id="Trazado_120336" data-name="Trazado 120336" d="M24.674,15.17l-.218.218a2.656,2.656,0,0,1-3.756,0L13.561,8.249,12.3,9.512a1.178,1.178,0,0,0,0,1.673l.159.159,6.692,6.692,1.541,1.541a1.178,1.178,0,0,0,1.673,0l2.523-2.523a1.179,1.179,0,0,0,0-1.672Z" fill="#d6e0eb"/>
        <path id="Trazado_120337" data-name="Trazado 120337" d="M14.609,22.578l4.541-4.542-6.694-6.691-2.031,1.737,3.634,3.634a2.656,2.656,0,0,1,0,3.756l-2.106,2.106.8,1.2a3.545,3.545,0,0,1-5.618,4.3l-.109-.125.1.169a4.7,4.7,0,0,0,3.506,2.43h1.248a4.549,4.549,0,0,0,4.37-2.935,3.858,3.858,0,0,0-.12-2.828Z" fill="#c21729"/>
        <path id="Trazado_120338" data-name="Trazado 120338" d="M52.565,15.17l-.218.218a2.656,2.656,0,0,1-3.756,0L41.452,8.249,40.188,9.512a1.178,1.178,0,0,0,0,1.673l.159.159,6.692,6.692,1.541,1.541a1.178,1.178,0,0,0,1.673,0l2.523-2.523a1.179,1.179,0,0,0,0-1.672Z" fill="#a51423"/>
        <path id="Trazado_120339" data-name="Trazado 120339" d="M42.5,22.578l4.541-4.542-6.694-6.691-2.031,1.737,3.634,3.634a2.656,2.656,0,0,1,0,3.756l-2.106,2.106.8,1.2a3.545,3.545,0,0,1-5.617,4.3l-.109-.125.1.169a4.7,4.7,0,0,0,3.5,2.429h1.248a4.549,4.549,0,0,0,4.37-2.935,3.858,3.858,0,0,0-.12-2.828Z" fill="#036f09"/>
        <g id="Grupo_88115" data-name="Grupo 88115">
          <path id="Trazado_120340" data-name="Trazado 120340" d="M52.284,17.546l-2.031,2.032a1.178,1.178,0,0,1-1.673,0L47.04,18.037,42.5,22.578l1.081,1.575,3.453-3.461,1.541,1.541a1.178,1.178,0,0,0,1.673,0l2.523-2.523a1.179,1.179,0,0,0,0-1.672Z" fill="#8394b2"/>
          <path id="Trazado_120341" data-name="Trazado 120341" d="M24.394,17.546l-2.031,2.032a1.178,1.178,0,0,1-1.673,0l-1.541-1.541-4.54,4.541,1.081,1.575,3.453-3.461,1.541,1.541a1.178,1.178,0,0,0,1.673,0l2.523-2.523a1.179,1.179,0,0,0,0-1.672Z" fill="#8394b2"/>
          <path id="Trazado_120342" data-name="Trazado 120342" d="M11.872,30.547H10.625a4.7,4.7,0,0,1-3.506-2.43L4.7,23.841a5.279,5.279,0,0,1-.547-1.359A5.352,5.352,0,0,0,4.7,26.5l2.417,4.275a4.7,4.7,0,0,0,3.506,2.43h1.248a4.549,4.549,0,0,0,4.37-2.935,3.883,3.883,0,0,0-.035-2.578,4.558,4.558,0,0,1-4.336,2.857Z" fill="#8394b2"/>
          <path id="Trazado_120343" data-name="Trazado 120343" d="M80.175,17.546l-2.031,2.032a1.178,1.178,0,0,1-1.673,0L74.93,18.037l-4.54,4.541,1.081,1.575,3.453-3.461,1.541,1.541a1.178,1.178,0,0,0,1.673,0l2.523-2.523a1.179,1.179,0,0,0,0-1.672Z" fill="#8394b2"/>
          <path id="Trazado_120344" data-name="Trazado 120344" d="M67.653,30.547H66.406a4.7,4.7,0,0,1-3.5-2.43l-2.417-4.275a5.279,5.279,0,0,1-.547-1.359,5.352,5.352,0,0,0,.547,4.015L62.9,30.773a4.7,4.7,0,0,0,3.5,2.43h1.248a4.549,4.549,0,0,0,4.37-2.935,3.883,3.883,0,0,0-.035-2.578A4.558,4.558,0,0,1,67.653,30.547Z" fill="#8394b2"/>
          <path id="Trazado_120345" data-name="Trazado 120345" d="M44.094,27.69a4.061,4.061,0,0,1-1.025,1.547c.422,0,.831.023,1.24.041a3.787,3.787,0,0,0-.215-1.588Z" fill="#8394b2"/>
          <path id="Trazado_120346" data-name="Trazado 120346" d="M35.009,28.116l-2.417-4.275a5.279,5.279,0,0,1-.547-1.359,5.352,5.352,0,0,0,.547,4.015l1.992,3.535c.582-.126,1.2-.231,1.817-.331a4.363,4.363,0,0,1-1.392-1.586Z" fill="#8394b2"/>
        </g>
        <rect id="Rectángulo_35417" data-name="Rectángulo 35417" width="2.656" height="3.984" rx="1.328" transform="translate(51.797 39.844)" fill="#c21729"/>
        <rect id="Rectángulo_35418" data-name="Rectángulo 35418" width="2.656" height="3.984" rx="1.328" transform="translate(53.125 49.141)" fill="#c21729"/>
        <rect id="Rectángulo_35419" data-name="Rectángulo 35419" width="2.656" height="3.984" rx="1.328" transform="translate(34.531 35.859)" fill="#c21729"/>
        <rect id="Rectángulo_35420" data-name="Rectángulo 35420" width="2.656" height="3.984" rx="1.328" transform="translate(26.562 43.828)" fill="#c21729"/>
        <rect id="Rectángulo_35421" data-name="Rectángulo 35421" width="2.656" height="3.984" rx="1.328" transform="translate(57.109 45.156)" fill="#c21729"/>
        <path id="Trazado_120347" data-name="Trazado 120347" d="M83.672,22.578h-9.3v2.656h7.969V35.859H64.358c-1.522-1.657-6.969-6.7-17.742-7.77l-.266,2.644c9.948.988,14.91,5.695,16.07,6.95V74.375H57.748a8.6,8.6,0,0,0,2.017-5.312,7.855,7.855,0,0,0-2.922-6.436c-.8-.744-1.062-1.049-1.062-1.533a4.619,4.619,0,0,1,.939-3.045,1.328,1.328,0,0,0-.939-2.267,8.908,8.908,0,0,0-6.224,2.352l.113-.294a10.862,10.862,0,0,1,1.215-2.094,7.273,7.273,0,0,1,.683-.815,5.387,5.387,0,0,0,1.557-4.461c0-10.245-12.463-13.132-12.993-13.251a1.328,1.328,0,0,0-1.3,2.161c2.336,2.723,3.405,5.425,3.2,8.044a8.829,8.829,0,0,1-1.312,3.893A6.688,6.688,0,0,0,38.668,48.2a9.45,9.45,0,0,0-7.011-1.7,1.328,1.328,0,0,0-.725,2.245c.02.02,1.962,2.027,1.082,3.784a11.156,11.156,0,0,1-1.826,2.211c-2.09,2.186-4.954,5.181-4.954,10.335a13.305,13.305,0,0,0,4.231,9.3H22.578V37.684a22.771,22.771,0,0,1,10.961-6.046l-.672-2.57a25.249,25.249,0,0,0-12.224,6.791H2.656V23.906H0V37.187a1.328,1.328,0,0,0,1.328,1.328H19.922V42.5H9.3V39.844H6.641V74.375H1.328A1.328,1.328,0,0,0,0,75.7v7.969A1.328,1.328,0,0,0,1.328,85H83.672A1.328,1.328,0,0,0,85,83.672V75.7a1.328,1.328,0,0,0-1.328-1.328H78.359V39.844H75.7V42.5H65.078V38.516H83.672A1.328,1.328,0,0,0,85,37.187V23.906A1.328,1.328,0,0,0,83.672,22.578ZM75.7,66.406H65.078V61.094H75.7Zm0-7.969H65.078V53.125H75.7ZM27.891,65.078c0-4.089,2.241-6.433,4.218-8.5a12.707,12.707,0,0,0,2.29-2.859,5.18,5.18,0,0,0-.04-4.571,5.18,5.18,0,0,1,2.61,1.092,5.271,5.271,0,0,1,1.547,4.214A1.328,1.328,0,0,0,40.7,55.474a12.236,12.236,0,0,0,3.984-7.8,11.836,11.836,0,0,0-1.42-6.528c3.162,1.484,7.209,4.358,7.209,9.319,0,1.741-.266,2.027-.849,2.656a9.869,9.869,0,0,0-.911,1.1A13.121,13.121,0,0,0,47.2,56.862c-1.859,4.683-.713,7.209-.578,7.483a1.328,1.328,0,0,0,2.49-.329,7.275,7.275,0,0,1,4.311-5.19,8.476,8.476,0,0,0-.3,2.268,4.61,4.61,0,0,0,1.9,3.465,5.3,5.3,0,0,1,2.083,4.5c0,2.638-2.27,4.663-3.095,5.312H33.6C32.406,73.556,27.891,70.125,27.891,65.078Zm-7.969-6.641H9.3V53.125H19.922Zm0,2.656v5.313H9.3V61.094Zm0-15.937v5.312H9.3V45.156ZM9.3,69.062H19.922v5.312H9.3ZM82.344,82.344H2.656V77.031H82.344ZM65.078,74.375V69.062H75.7v5.312ZM75.7,45.156v5.312H65.078V45.156Z"/>
        <path id="Trazado_120348" data-name="Trazado 120348" d="M23.906,7.969h2.656v2.656H23.906Z"/>
        <path id="Trazado_120349" data-name="Trazado 120349" d="M29.219,7.969h7.969v2.656H29.219Z"/>
        <path id="Trazado_120350" data-name="Trazado 120350" d="M50.469,7.969H65.078v2.656H50.469Z"/>
        <path id="Trazado_120351" data-name="Trazado 120351" d="M83.672,0H1.328A1.328,1.328,0,0,0,0,1.328V9.3a1.328,1.328,0,0,0,1.328,1.328H9.3V7.969H2.656V2.656H14.609V5.55a2.476,2.476,0,0,0-.73.5L11.362,8.566a2.507,2.507,0,0,0-.622,2.488L5.047,15.937a6.84,6.84,0,0,0-1.5,8.558l2.391,4.222a6.006,6.006,0,0,0,4.493,3.141,1.247,1.247,0,0,0,.2.016h1.243a5.821,5.821,0,0,0,5.63-3.852,5.2,5.2,0,0,0-.169-3.794,1.515,1.515,0,0,0-.114-.2l-.886-1.291,2.822-2.822.6.6a2.523,2.523,0,0,0,3.555,0L25.824,18a2.523,2.523,0,0,0,0-3.557l-8.39-8.391a1.394,1.394,0,0,0-.169-.133V2.656H42.5V5.55a2.476,2.476,0,0,0-.73.5L39.253,8.573a2.507,2.507,0,0,0-.622,2.488l-5.694,4.877a6.84,6.84,0,0,0-1.5,8.558l2.391,4.222a6.006,6.006,0,0,0,4.5,3.144,1.247,1.247,0,0,0,.2.013h1.243a5.821,5.821,0,0,0,5.63-3.852,5.2,5.2,0,0,0-.169-3.794,1.514,1.514,0,0,0-.114-.2l-.886-1.291,2.822-2.822.6.6a2.523,2.523,0,0,0,3.555,0L53.721,18a2.523,2.523,0,0,0,0-3.557l-8.4-8.391a1.394,1.394,0,0,0-.169-.133V2.656H70.391V5.55a2.458,2.458,0,0,0-.73.5L67.137,8.573a2.507,2.507,0,0,0-.622,2.488l-5.687,4.877a6.84,6.84,0,0,0-1.5,8.558l2.391,4.222a6.006,6.006,0,0,0,4.5,3.144,1.247,1.247,0,0,0,.2.013h1.243a5.821,5.821,0,0,0,5.63-3.852,5.2,5.2,0,0,0-.169-3.794,1.513,1.513,0,0,0-.114-.2l-.886-1.291,2.822-2.822.6.6a2.523,2.523,0,0,0,3.555,0L81.612,18a2.523,2.523,0,0,0,0-3.557l-8.4-8.391a1.539,1.539,0,0,0-.169-.133V2.656h9.3V7.969H78.359v2.656h5.313A1.328,1.328,0,0,0,85,9.3V1.328A1.328,1.328,0,0,0,83.672,0Zm-70,21.639a1.328,1.328,0,0,0-.155,1.691l1.437,2.094a2.57,2.57,0,0,1,.024,1.765,3.215,3.215,0,0,1-3.108,2.029H10.733A3.411,3.411,0,0,1,8.27,27.462L5.853,23.186a4.185,4.185,0,0,1,.92-5.234l5.609-4.8,4.891,4.893Zm10.177-5.421L21.53,18.535,13.34,10.345l2.318-2.318Zm17.713,5.421a1.328,1.328,0,0,0-.155,1.691l1.437,2.094a2.57,2.57,0,0,1,.024,1.765,3.215,3.215,0,0,1-3.108,2.029H38.623a3.411,3.411,0,0,1-2.462-1.757l-2.417-4.275a4.185,4.185,0,0,1,.92-5.234l5.609-4.8,4.891,4.893Zm10.177-5.421-2.318,2.318L41.23,10.345l2.318-2.318Zm17.713,5.421A1.328,1.328,0,0,0,69.3,23.33l1.437,2.094a2.57,2.57,0,0,1,.024,1.765,3.215,3.215,0,0,1-3.108,2.029H66.514a3.411,3.411,0,0,1-2.462-1.757l-2.417-4.275a4.185,4.185,0,0,1,.92-5.234l5.609-4.8,4.891,4.893Zm10.177-5.421-2.318,2.318-8.191-8.191,2.318-2.318Z"/>
      </g>
    </g>
  </g>
</svg>
