<svg xmlns="http://www.w3.org/2000/svg" width="51" height="78.667" viewBox="0 0 51 78.667">
  <g id="Grupo_88089" data-name="Grupo 88089" transform="translate(-775 -6413)">
    <path id="Trazado_118672" data-name="Trazado 118672" d="M0,0H51V78.667L26.147,60.835,0,78.667Z" transform="translate(775 6413)" fill="#ffd947"/>
    <path id="Trazado_120196" data-name="Trazado 120196" d="M-10.859-7.812l8.711-20.625H5.508L-8.242,0h-7.3l-4.766-28.437h7.227ZM14.531-6.055q.254-1.289-1.992-1.934L11.152-8.34a10.679,10.679,0,0,1-4.98-2.52,4.987,4.987,0,0,1-1.484-3.848,6.129,6.129,0,0,1,2.705-4.951,10.3,10.3,0,0,1,6.357-1.865,9.537,9.537,0,0,1,6.045,1.895,6.18,6.18,0,0,1,2.354,5l-6.406-.02q.078-2.5-2.207-2.5a3.148,3.148,0,0,0-1.816.576,2.238,2.238,0,0,0-1,1.533q-.332,1.582,2.793,2.168a16.232,16.232,0,0,1,4.2,1.494,6.27,6.27,0,0,1,2.266,2.1A5.222,5.222,0,0,1,20.7-6.27a5.647,5.647,0,0,1-1.25,3.418,8.094,8.094,0,0,1-3.447,2.4,12.348,12.348,0,0,1-4.893.84A9.93,9.93,0,0,1,6.865-.566,7.574,7.574,0,0,1,3.8-3.115a6.62,6.62,0,0,1-1.143-3.7l5.977.039Q8.672-3.965,11.445-4a3.692,3.692,0,0,0,2.031-.537A2.323,2.323,0,0,0,14.531-6.055Z" transform="translate(801 6454)" fill="#3c3fa7"/>
  </g>
</svg>
